{
    "asset" : {
        "generator" : "Khronos glTF Blender I/O v3.2.43",
        "version" : "2.0"
    },
    "scene" : 0,
    "scenes" : [
        {
            "name" : "Scene",
            "nodes" : [
                0
            ]
        }
    ],
    "nodes" : [
        {
            "mesh" : 0,
            "name" : "Arrow"
        }
    ],
    "materials" : [
        {
            "doubleSided" : true,
            "name" : "Main_Dark",
            "pbrMetallicRoughness" : {
                "baseColorFactor" : [
                    0.27382758259773254,
                    0.05226309597492218,
                    0.04941003397107124,
                    1
                ],
                "metallicFactor" : 0,
                "roughnessFactor" : 0.5
            }
        }
    ],
    "meshes" : [
        {
            "name" : "Cube.248",
            "primitives" : [
                {
                    "attributes" : {
                        "POSITION" : 0,
                        "NORMAL" : 1
                    },
                    "indices" : 2,
                    "material" : 0
                }
            ]
        }
    ],
    "accessors" : [
        {
            "bufferView" : 0,
            "componentType" : 5126,
            "count" : 104,
            "max" : [
                0.7942020893096924,
                0.14727839827537537,
                0.5092724561691284
            ],
            "min" : [
                -1.0594805479049683,
                -4.3493137980021856e-08,
                -0.5084375739097595
            ],
            "type" : "VEC3"
        },
        {
            "bufferView" : 1,
            "componentType" : 5126,
            "count" : 104,
            "type" : "VEC3"
        },
        {
            "bufferView" : 2,
            "componentType" : 5123,
            "count" : 228,
            "type" : "SCALAR"
        }
    ],
    "bufferViews" : [
        {
            "buffer" : 0,
            "byteLength" : 1248,
            "byteOffset" : 0
        },
        {
            "buffer" : 0,
            "byteLength" : 1248,
            "byteOffset" : 1248
        },
        {
            "buffer" : 0,
            "byteLength" : 456,
            "byteOffset" : 2496
        }
    ],
    "buffers" : [
        {
            "byteLength" : 2952,
            "uri" : "Arrow-7070c4a3fee3eadad935d07368027312.bin"
        }
    ]
}
