{
    "asset" : {
        "generator" : "Khronos glTF Blender I/O v3.2.43",
        "version" : "2.0"
    },
    "scene" : 0,
    "scenes" : [
        {
            "name" : "Scene",
            "nodes" : [
                0
            ]
        }
    ],
    "nodes" : [
        {
            "mesh" : 0,
            "name" : "Arrow_Side"
        }
    ],
    "materials" : [
        {
            "doubleSided" : true,
            "name" : "Wood",
            "pbrMetallicRoughness" : {
                "baseColorFactor" : [
                    0.3757452964782715,
                    0.20292167365550995,
                    0.0587104856967926,
                    1
                ],
                "metallicFactor" : 0,
                "roughnessFactor" : 0.5
            }
        },
        {
            "doubleSided" : true,
            "name" : "Main_Dark",
            "pbrMetallicRoughness" : {
                "baseColorFactor" : [
                    0.27382758259773254,
                    0.05226309597492218,
                    0.04941003397107124,
                    1
                ],
                "metallicFactor" : 0,
                "roughnessFactor" : 0.5
            }
        }
    ],
    "meshes" : [
        {
            "name" : "Cube.246",
            "primitives" : [
                {
                    "attributes" : {
                        "POSITION" : 0,
                        "NORMAL" : 1
                    },
                    "indices" : 2,
                    "material" : 0
                },
                {
                    "attributes" : {
                        "POSITION" : 3,
                        "NORMAL" : 4
                    },
                    "indices" : 5,
                    "material" : 1
                }
            ]
        }
    ],
    "accessors" : [
        {
            "bufferView" : 0,
            "componentType" : 5126,
            "count" : 64,
            "max" : [
                0.11068332195281982,
                2.0523650646209717,
                0.11068332195281982
            ],
            "min" : [
                -0.11068332195281982,
                -6.597240087558021e-09,
                -0.11068332195281982
            ],
            "type" : "VEC3"
        },
        {
            "bufferView" : 1,
            "componentType" : 5126,
            "count" : 64,
            "type" : "VEC3"
        },
        {
            "bufferView" : 2,
            "componentType" : 5123,
            "count" : 132,
            "type" : "SCALAR"
        },
        {
            "bufferView" : 3,
            "componentType" : 5126,
            "count" : 104,
            "max" : [
                1.1014602184295654,
                1.987210988998413,
                0.2525387406349182
            ],
            "min" : [
                -0.7587075233459473,
                0.9706971645355225,
                0.10526033490896225
            ],
            "type" : "VEC3"
        },
        {
            "bufferView" : 4,
            "componentType" : 5126,
            "count" : 104,
            "type" : "VEC3"
        },
        {
            "bufferView" : 5,
            "componentType" : 5123,
            "count" : 228,
            "type" : "SCALAR"
        }
    ],
    "bufferViews" : [
        {
            "buffer" : 0,
            "byteLength" : 768,
            "byteOffset" : 0
        },
        {
            "buffer" : 0,
            "byteLength" : 768,
            "byteOffset" : 768
        },
        {
            "buffer" : 0,
            "byteLength" : 264,
            "byteOffset" : 1536
        },
        {
            "buffer" : 0,
            "byteLength" : 1248,
            "byteOffset" : 1800
        },
        {
            "buffer" : 0,
            "byteLength" : 1248,
            "byteOffset" : 3048
        },
        {
            "buffer" : 0,
            "byteLength" : 456,
            "byteOffset" : 4296
        }
    ],
    "buffers" : [
        {
            "byteLength" : 4752,
            "uri" : "Arrow_Side-12af0fe870375546f7b672ecf68908ec.bin"
        }
    ]
}
