{
    "asset" : {
        "generator" : "Khronos glTF Blender I/O v3.2.43",
        "version" : "2.0"
    },
    "scene" : 0,
    "scenes" : [
        {
            "name" : "Scene",
            "nodes" : [
                0
            ]
        }
    ],
    "nodes" : [
        {
            "mesh" : 0,
            "name" : "Axe",
            "scale" : [
                0.11181804537773132,
                0.11181804537773132,
                0.11181804537773132
            ]
        }
    ],
    "materials" : [
        {
            "doubleSided" : true,
            "name" : "DarkWood",
            "pbrMetallicRoughness" : {
                "baseColorFactor" : [
                    0.14238348603248596,
                    0.08724373579025269,
                    0.044256653636693954,
                    1
                ],
                "metallicFactor" : 0,
                "roughnessFactor" : 0.5
            }
        },
        {
            "doubleSided" : true,
            "name" : "LightGrey",
            "pbrMetallicRoughness" : {
                "baseColorFactor" : [
                    0.37574493885040283,
                    0.37574493885040283,
                    0.37574493885040283,
                    1
                ],
                "metallicFactor" : 0,
                "roughnessFactor" : 0.5
            }
        },
        {
            "doubleSided" : true,
            "name" : "Red",
            "pbrMetallicRoughness" : {
                "baseColorFactor" : [
                    0.21402914822101593,
                    0.039549391716718674,
                    0.03738441318273544,
                    1
                ],
                "metallicFactor" : 0,
                "roughnessFactor" : 0.5
            }
        }
    ],
    "meshes" : [
        {
            "name" : "Cylinder.012",
            "primitives" : [
                {
                    "attributes" : {
                        "POSITION" : 0,
                        "NORMAL" : 1
                    },
                    "indices" : 2,
                    "material" : 0
                },
                {
                    "attributes" : {
                        "POSITION" : 3,
                        "NORMAL" : 4
                    },
                    "indices" : 5,
                    "material" : 1
                },
                {
                    "attributes" : {
                        "POSITION" : 6,
                        "NORMAL" : 7
                    },
                    "indices" : 8,
                    "material" : 2
                }
            ]
        }
    ],
    "accessors" : [
        {
            "bufferView" : 0,
            "componentType" : 5126,
            "count" : 148,
            "max" : [
                0.9814788699150085,
                15.317604064941406,
                0.8411411643028259
            ],
            "min" : [
                -1.438791275024414,
                -7.136631011962891,
                -0.8600257635116577
            ],
            "type" : "VEC3"
        },
        {
            "bufferView" : 1,
            "componentType" : 5126,
            "count" : 148,
            "type" : "VEC3"
        },
        {
            "bufferView" : 2,
            "componentType" : 5123,
            "count" : 228,
            "type" : "SCALAR"
        },
        {
            "bufferView" : 3,
            "componentType" : 5126,
            "count" : 62,
            "max" : [
                -5.910719871520996,
                21.982534408569336,
                0.15207886695861816
            ],
            "min" : [
                -7.808013439178467,
                11.512401580810547,
                -0.17096181213855743
            ],
            "type" : "VEC3"
        },
        {
            "bufferView" : 4,
            "componentType" : 5126,
            "count" : 62,
            "type" : "VEC3"
        },
        {
            "bufferView" : 5,
            "componentType" : 5123,
            "count" : 90,
            "type" : "SCALAR"
        },
        {
            "bufferView" : 6,
            "componentType" : 5126,
            "count" : 256,
            "max" : [
                3.4797568321228027,
                21.344167709350586,
                0.7962574362754822
            ],
            "min" : [
                -6.375115394592285,
                12.23253059387207,
                -0.8151405453681946
            ],
            "type" : "VEC3"
        },
        {
            "bufferView" : 7,
            "componentType" : 5126,
            "count" : 256,
            "type" : "VEC3"
        },
        {
            "bufferView" : 8,
            "componentType" : 5123,
            "count" : 390,
            "type" : "SCALAR"
        }
    ],
    "bufferViews" : [
        {
            "buffer" : 0,
            "byteLength" : 1776,
            "byteOffset" : 0
        },
        {
            "buffer" : 0,
            "byteLength" : 1776,
            "byteOffset" : 1776
        },
        {
            "buffer" : 0,
            "byteLength" : 456,
            "byteOffset" : 3552
        },
        {
            "buffer" : 0,
            "byteLength" : 744,
            "byteOffset" : 4008
        },
        {
            "buffer" : 0,
            "byteLength" : 744,
            "byteOffset" : 4752
        },
        {
            "buffer" : 0,
            "byteLength" : 180,
            "byteOffset" : 5496
        },
        {
            "buffer" : 0,
            "byteLength" : 3072,
            "byteOffset" : 5676
        },
        {
            "buffer" : 0,
            "byteLength" : 3072,
            "byteOffset" : 8748
        },
        {
            "buffer" : 0,
            "byteLength" : 780,
            "byteOffset" : 11820
        }
    ],
    "buffers" : [
        {
            "byteLength" : 12600,
            "uri" : "Axe-954022216f5c46eeb4d26fa7313b4b64.bin"
        }
    ]
}
