{
    "asset" : {
        "generator" : "Khronos glTF Blender I/O v3.2.43",
        "version" : "2.0"
    },
    "scene" : 0,
    "scenes" : [
        {
            "name" : "Scene",
            "nodes" : [
                0
            ]
        }
    ],
    "nodes" : [
        {
            "mesh" : 0,
            "name" : "Backpack",
            "scale" : [
                1.9894319772720337,
                1.9894319772720337,
                1.9894319772720337
            ]
        }
    ],
    "materials" : [
        {
            "doubleSided" : true,
            "name" : "Brown",
            "pbrMetallicRoughness" : {
                "baseColorFactor" : [
                    0.17885959148406982,
                    0.12677308917045593,
                    0.051317352801561356,
                    1
                ],
                "metallicFactor" : 0,
                "roughnessFactor" : 0.5
            }
        },
        {
            "doubleSided" : true,
            "name" : "LightGreen",
            "pbrMetallicRoughness" : {
                "baseColorFactor" : [
                    0.1065310686826706,
                    0.09168826043605804,
                    0.03984183818101883,
                    1
                ],
                "metallicFactor" : 0,
                "roughnessFactor" : 0.5
            }
        },
        {
            "doubleSided" : true,
            "name" : "Gold",
            "pbrMetallicRoughness" : {
                "baseColorFactor" : [
                    0.23301252722740173,
                    0.14876703917980194,
                    0.014888079836964607,
                    1
                ],
                "metallicFactor" : 0,
                "roughnessFactor" : 0.5
            }
        },
        {
            "doubleSided" : true,
            "name" : "Green",
            "pbrMetallicRoughness" : {
                "baseColorFactor" : [
                    0.06071806326508522,
                    0.05050992593169212,
                    0.018883628770709038,
                    1
                ],
                "metallicFactor" : 0,
                "roughnessFactor" : 0.5
            }
        }
    ],
    "meshes" : [
        {
            "name" : "Plane",
            "primitives" : [
                {
                    "attributes" : {
                        "POSITION" : 0,
                        "NORMAL" : 1
                    },
                    "indices" : 2,
                    "material" : 0
                },
                {
                    "attributes" : {
                        "POSITION" : 3,
                        "NORMAL" : 4
                    },
                    "indices" : 5,
                    "material" : 1
                },
                {
                    "attributes" : {
                        "POSITION" : 6,
                        "NORMAL" : 7
                    },
                    "indices" : 8,
                    "material" : 2
                },
                {
                    "attributes" : {
                        "POSITION" : 9,
                        "NORMAL" : 10
                    },
                    "indices" : 11,
                    "material" : 3
                }
            ]
        }
    ],
    "accessors" : [
        {
            "bufferView" : 0,
            "componentType" : 5126,
            "count" : 640,
            "max" : [
                0.8401560187339783,
                0.8298149704933167,
                0.23311643302440643
            ],
            "min" : [
                -0.8401560187339783,
                0.386208176612854,
                -0.27027302980422974
            ],
            "type" : "VEC3"
        },
        {
            "bufferView" : 1,
            "componentType" : 5126,
            "count" : 640,
            "type" : "VEC3"
        },
        {
            "bufferView" : 2,
            "componentType" : 5123,
            "count" : 960,
            "type" : "SCALAR"
        },
        {
            "bufferView" : 3,
            "componentType" : 5126,
            "count" : 1936,
            "max" : [
                0.7409592866897583,
                0.8316937685012817,
                0.5613099932670593
            ],
            "min" : [
                -0.7473701238632202,
                -0.7362494468688965,
                -0.3161624073982239
            ],
            "type" : "VEC3"
        },
        {
            "bufferView" : 4,
            "componentType" : 5126,
            "count" : 1936,
            "type" : "VEC3"
        },
        {
            "bufferView" : 5,
            "componentType" : 5123,
            "count" : 2898,
            "type" : "SCALAR"
        },
        {
            "bufferView" : 6,
            "componentType" : 5126,
            "count" : 800,
            "max" : [
                0.7062504887580872,
                0.16853459179401398,
                0.5266011953353882
            ],
            "min" : [
                -0.7126613855361938,
                -0.49316275119781494,
                -0.03441568836569786
            ],
            "type" : "VEC3"
        },
        {
            "bufferView" : 7,
            "componentType" : 5126,
            "count" : 800,
            "type" : "VEC3"
        },
        {
            "bufferView" : 8,
            "componentType" : 5123,
            "count" : 1200,
            "type" : "SCALAR"
        },
        {
            "bufferView" : 9,
            "componentType" : 5126,
            "count" : 134,
            "max" : [
                0.6680062413215637,
                0.38067343831062317,
                0.4897735118865967
            ],
            "min" : [
                -0.6744171380996704,
                -0.3382553458213806,
                -0.24972127377986908
            ],
            "type" : "VEC3"
        },
        {
            "bufferView" : 10,
            "componentType" : 5126,
            "count" : 134,
            "type" : "VEC3"
        },
        {
            "bufferView" : 11,
            "componentType" : 5123,
            "count" : 198,
            "type" : "SCALAR"
        }
    ],
    "bufferViews" : [
        {
            "buffer" : 0,
            "byteLength" : 7680,
            "byteOffset" : 0
        },
        {
            "buffer" : 0,
            "byteLength" : 7680,
            "byteOffset" : 7680
        },
        {
            "buffer" : 0,
            "byteLength" : 1920,
            "byteOffset" : 15360
        },
        {
            "buffer" : 0,
            "byteLength" : 23232,
            "byteOffset" : 17280
        },
        {
            "buffer" : 0,
            "byteLength" : 23232,
            "byteOffset" : 40512
        },
        {
            "buffer" : 0,
            "byteLength" : 5796,
            "byteOffset" : 63744
        },
        {
            "buffer" : 0,
            "byteLength" : 9600,
            "byteOffset" : 69540
        },
        {
            "buffer" : 0,
            "byteLength" : 9600,
            "byteOffset" : 79140
        },
        {
            "buffer" : 0,
            "byteLength" : 2400,
            "byteOffset" : 88740
        },
        {
            "buffer" : 0,
            "byteLength" : 1608,
            "byteOffset" : 91140
        },
        {
            "buffer" : 0,
            "byteLength" : 1608,
            "byteOffset" : 92748
        },
        {
            "buffer" : 0,
            "byteLength" : 396,
            "byteOffset" : 94356
        }
    ],
    "buffers" : [
        {
            "byteLength" : 94752,
            "uri" : "Backpack-704d22e376df8063423cf614e674fb60.bin"
        }
    ]
}
