{
    "asset" : {
        "generator" : "Khronos glTF Blender I/O v3.2.43",
        "version" : "2.0"
    },
    "scene" : 0,
    "scenes" : [
        {
            "name" : "Scene",
            "nodes" : [
                0
            ]
        }
    ],
    "nodes" : [
        {
            "mesh" : 0,
            "name" : "Battery_Big",
            "scale" : [
                3.902625560760498,
                3.902625560760498,
                3.902625560760498
            ]
        }
    ],
    "materials" : [
        {
            "doubleSided" : true,
            "name" : "Black",
            "pbrMetallicRoughness" : {
                "baseColorFactor" : [
                    0.033101364970207214,
                    0.033101364970207214,
                    0.033101364970207214,
                    1
                ],
                "metallicFactor" : 0,
                "roughnessFactor" : 0.5
            }
        },
        {
            "doubleSided" : true,
            "name" : "Orange",
            "pbrMetallicRoughness" : {
                "baseColorFactor" : [
                    0.27382591366767883,
                    0.11981796473264694,
                    0.04423549026250839,
                    1
                ],
                "metallicFactor" : 0,
                "roughnessFactor" : 0.5
            }
        },
        {
            "doubleSided" : true,
            "name" : "Grey",
            "pbrMetallicRoughness" : {
                "baseColorFactor" : [
                    0.14239658415317535,
                    0.14239658415317535,
                    0.14239658415317535,
                    1
                ],
                "metallicFactor" : 0,
                "roughnessFactor" : 0.5
            }
        }
    ],
    "meshes" : [
        {
            "name" : "Cylinder.006",
            "primitives" : [
                {
                    "attributes" : {
                        "POSITION" : 0,
                        "NORMAL" : 1
                    },
                    "indices" : 2,
                    "material" : 0
                },
                {
                    "attributes" : {
                        "POSITION" : 3,
                        "NORMAL" : 4
                    },
                    "indices" : 5,
                    "material" : 1
                },
                {
                    "attributes" : {
                        "POSITION" : 6,
                        "NORMAL" : 7
                    },
                    "indices" : 8,
                    "material" : 2
                }
            ]
        }
    ],
    "accessors" : [
        {
            "bufferView" : 0,
            "componentType" : 5126,
            "count" : 52,
            "max" : [
                0.03919687122106552,
                0.0807814747095108,
                0.03662905842065811
            ],
            "min" : [
                -0.037692684680223465,
                0.0006008222699165344,
                -0.040260497480630875
            ],
            "type" : "VEC3"
        },
        {
            "bufferView" : 1,
            "componentType" : 5126,
            "count" : 52,
            "type" : "VEC3"
        },
        {
            "bufferView" : 2,
            "componentType" : 5123,
            "count" : 84,
            "type" : "SCALAR"
        },
        {
            "bufferView" : 3,
            "componentType" : 5126,
            "count" : 64,
            "max" : [
                0.03919687122106552,
                0.1135498583316803,
                0.03662905842065811
            ],
            "min" : [
                -0.037692684680223465,
                0.0807814672589302,
                -0.040260497480630875
            ],
            "type" : "VEC3"
        },
        {
            "bufferView" : 4,
            "componentType" : 5126,
            "count" : 64,
            "type" : "VEC3"
        },
        {
            "bufferView" : 5,
            "componentType" : 5123,
            "count" : 96,
            "type" : "SCALAR"
        },
        {
            "bufferView" : 6,
            "componentType" : 5126,
            "count" : 76,
            "max" : [
                0.032832495868206024,
                0.11851444095373154,
                0.034050047397613525
            ],
            "min" : [
                -0.032832495868206024,
                0.00688595324754715,
                -0.032832495868206024
            ],
            "type" : "VEC3"
        },
        {
            "bufferView" : 7,
            "componentType" : 5126,
            "count" : 76,
            "type" : "VEC3"
        },
        {
            "bufferView" : 8,
            "componentType" : 5123,
            "count" : 120,
            "type" : "SCALAR"
        }
    ],
    "bufferViews" : [
        {
            "buffer" : 0,
            "byteLength" : 624,
            "byteOffset" : 0
        },
        {
            "buffer" : 0,
            "byteLength" : 624,
            "byteOffset" : 624
        },
        {
            "buffer" : 0,
            "byteLength" : 168,
            "byteOffset" : 1248
        },
        {
            "buffer" : 0,
            "byteLength" : 768,
            "byteOffset" : 1416
        },
        {
            "buffer" : 0,
            "byteLength" : 768,
            "byteOffset" : 2184
        },
        {
            "buffer" : 0,
            "byteLength" : 192,
            "byteOffset" : 2952
        },
        {
            "buffer" : 0,
            "byteLength" : 912,
            "byteOffset" : 3144
        },
        {
            "buffer" : 0,
            "byteLength" : 912,
            "byteOffset" : 4056
        },
        {
            "buffer" : 0,
            "byteLength" : 240,
            "byteOffset" : 4968
        }
    ],
    "buffers" : [
        {
            "byteLength" : 5208,
            "uri" : "Battery_Big-4d899e1cd70358617fe5c68e042609ad.bin"
        }
    ]
}
