{
    "asset" : {
        "generator" : "Khronos glTF Blender I/O v3.2.43",
        "version" : "2.0"
    },
    "scene" : 0,
    "scenes" : [
        {
            "name" : "Scene",
            "nodes" : [
                0
            ]
        }
    ],
    "nodes" : [
        {
            "mesh" : 0,
            "name" : "Battery_Small",
            "scale" : [
                3.902625560760498,
                3.902625560760498,
                3.902625560760498
            ]
        }
    ],
    "materials" : [
        {
            "doubleSided" : true,
            "name" : "Black",
            "pbrMetallicRoughness" : {
                "baseColorFactor" : [
                    0.033101364970207214,
                    0.033101364970207214,
                    0.033101364970207214,
                    1
                ],
                "metallicFactor" : 0,
                "roughnessFactor" : 0.5
            }
        },
        {
            "doubleSided" : true,
            "name" : "Orange",
            "pbrMetallicRoughness" : {
                "baseColorFactor" : [
                    0.27382591366767883,
                    0.11981796473264694,
                    0.04423549026250839,
                    1
                ],
                "metallicFactor" : 0,
                "roughnessFactor" : 0.5
            }
        },
        {
            "doubleSided" : true,
            "name" : "Grey",
            "pbrMetallicRoughness" : {
                "baseColorFactor" : [
                    0.14239658415317535,
                    0.14239658415317535,
                    0.14239658415317535,
                    1
                ],
                "metallicFactor" : 0,
                "roughnessFactor" : 0.5
            }
        }
    ],
    "meshes" : [
        {
            "name" : "Cylinder.005",
            "primitives" : [
                {
                    "attributes" : {
                        "POSITION" : 0,
                        "NORMAL" : 1
                    },
                    "indices" : 2,
                    "material" : 0
                },
                {
                    "attributes" : {
                        "POSITION" : 3,
                        "NORMAL" : 4
                    },
                    "indices" : 5,
                    "material" : 1
                },
                {
                    "attributes" : {
                        "POSITION" : 6,
                        "NORMAL" : 7
                    },
                    "indices" : 8,
                    "material" : 2
                }
            ]
        }
    ],
    "accessors" : [
        {
            "bufferView" : 0,
            "componentType" : 5126,
            "count" : 52,
            "max" : [
                0.023554058745503426,
                0.0807814747095108,
                0.023554058745503426
            ],
            "min" : [
                -0.023554058745503426,
                0.0006008208147250116,
                -0.023554058745503426
            ],
            "type" : "VEC3"
        },
        {
            "bufferView" : 1,
            "componentType" : 5126,
            "count" : 52,
            "type" : "VEC3"
        },
        {
            "bufferView" : 2,
            "componentType" : 5123,
            "count" : 84,
            "type" : "SCALAR"
        },
        {
            "bufferView" : 3,
            "componentType" : 5126,
            "count" : 128,
            "max" : [
                0.023554058745503426,
                0.1126856803894043,
                0.023554058745503426
            ],
            "min" : [
                -0.023554058745503426,
                0.0807814672589302,
                -0.023554058745503426
            ],
            "type" : "VEC3"
        },
        {
            "bufferView" : 4,
            "componentType" : 5126,
            "count" : 128,
            "type" : "VEC3"
        },
        {
            "bufferView" : 5,
            "componentType" : 5123,
            "count" : 192,
            "type" : "SCALAR"
        },
        {
            "bufferView" : 6,
            "componentType" : 5126,
            "count" : 76,
            "max" : [
                0.01962515152990818,
                0.11765026301145554,
                0.021973969414830208
            ],
            "min" : [
                -0.01962515152990818,
                0.006885954644531012,
                -0.01962515152990818
            ],
            "type" : "VEC3"
        },
        {
            "bufferView" : 7,
            "componentType" : 5126,
            "count" : 76,
            "type" : "VEC3"
        },
        {
            "bufferView" : 8,
            "componentType" : 5123,
            "count" : 120,
            "type" : "SCALAR"
        }
    ],
    "bufferViews" : [
        {
            "buffer" : 0,
            "byteLength" : 624,
            "byteOffset" : 0
        },
        {
            "buffer" : 0,
            "byteLength" : 624,
            "byteOffset" : 624
        },
        {
            "buffer" : 0,
            "byteLength" : 168,
            "byteOffset" : 1248
        },
        {
            "buffer" : 0,
            "byteLength" : 1536,
            "byteOffset" : 1416
        },
        {
            "buffer" : 0,
            "byteLength" : 1536,
            "byteOffset" : 2952
        },
        {
            "buffer" : 0,
            "byteLength" : 384,
            "byteOffset" : 4488
        },
        {
            "buffer" : 0,
            "byteLength" : 912,
            "byteOffset" : 4872
        },
        {
            "buffer" : 0,
            "byteLength" : 912,
            "byteOffset" : 5784
        },
        {
            "buffer" : 0,
            "byteLength" : 240,
            "byteOffset" : 6696
        }
    ],
    "buffers" : [
        {
            "byteLength" : 6936,
            "uri" : "Battery_Small-f26e7bdd20562aac2ffcef2c5d0b195b.bin"
        }
    ]
}
