{
    "asset" : {
        "generator" : "Khronos glTF Blender I/O v3.2.43",
        "version" : "2.0"
    },
    "scene" : 0,
    "scenes" : [
        {
            "name" : "Scene",
            "nodes" : [
                11
            ]
        }
    ],
    "nodes" : [
        {
            "name" : "Mouth",
            "rotation" : [
                0,
                1.1920928955078125e-07,
                0,
                1
            ],
            "translation" : [
                3.87324476326648e-17,
                0.27212753891944885,
                0.5249365568161011
            ]
        },
        {
            "children" : [
                0
            ],
            "name" : "Body"
        },
        {
            "name" : "Head3",
            "translation" : [
                0,
                0.3900749683380127,
                0
            ]
        },
        {
            "children" : [
                2
            ],
            "name" : "Head2",
            "translation" : [
                0,
                0.5165857076644897,
                0
            ]
        },
        {
            "name" : "Wing2.L",
            "rotation" : [
                -0.01763911172747612,
                -0.07965958118438721,
                -0.21547625958919525,
                0.9730947017669678
            ],
            "scale" : [
                1,
                0.9999998807907104,
                1
            ],
            "translation" : [
                -1.859650389235412e-08,
                0.18055307865142822,
                -3.4840184071072144e-09
            ]
        },
        {
            "children" : [
                4
            ],
            "name" : "Wing1.L",
            "rotation" : [
                -3.976663833782368e-07,
                9.3651912891346e-09,
                -0.5372236371040344,
                0.8434398770332336
            ],
            "translation" : [
                0.44710004329681396,
                0.15795069932937622,
                -0.04519476741552353
            ]
        },
        {
            "name" : "Wing2.R",
            "rotation" : [
                -0.01763911172747612,
                0.07965958118438721,
                0.21547625958919525,
                0.9730947017669678
            ],
            "scale" : [
                1,
                0.9999998807907104,
                1
            ],
            "translation" : [
                1.859650389235412e-08,
                0.18055307865142822,
                -3.4840184071072144e-09
            ]
        },
        {
            "children" : [
                6
            ],
            "name" : "Wing1.R",
            "rotation" : [
                -3.976663833782368e-07,
                -9.3651912891346e-09,
                0.5372236371040344,
                0.8434398770332336
            ],
            "translation" : [
                -0.44710004329681396,
                0.15795069932937622,
                -0.04519476741552353
            ]
        },
        {
            "children" : [
                3,
                5,
                7
            ],
            "name" : "Head",
            "translation" : [
                0,
                0.4728717803955078,
                0
            ]
        },
        {
            "name" : "neutral_bone",
            "rotation" : [
                -0.7071068286895752,
                0,
                0,
                0.7071068286895752
            ]
        },
        {
            "mesh" : 0,
            "name" : "Bee",
            "skin" : 0
        },
        {
            "children" : [
                10,
                1,
                8,
                9
            ],
            "name" : "MonsterArmature"
        }
    ],
    "animations" : [
        {
            "channels" : [
                {
                    "sampler" : 0,
                    "target" : {
                        "node" : 1,
                        "path" : "translation"
                    }
                },
                {
                    "sampler" : 1,
                    "target" : {
                        "node" : 1,
                        "path" : "rotation"
                    }
                },
                {
                    "sampler" : 2,
                    "target" : {
                        "node" : 1,
                        "path" : "scale"
                    }
                },
                {
                    "sampler" : 3,
                    "target" : {
                        "node" : 0,
                        "path" : "translation"
                    }
                },
                {
                    "sampler" : 4,
                    "target" : {
                        "node" : 0,
                        "path" : "rotation"
                    }
                },
                {
                    "sampler" : 5,
                    "target" : {
                        "node" : 0,
                        "path" : "scale"
                    }
                },
                {
                    "sampler" : 6,
                    "target" : {
                        "node" : 8,
                        "path" : "translation"
                    }
                },
                {
                    "sampler" : 7,
                    "target" : {
                        "node" : 8,
                        "path" : "rotation"
                    }
                },
                {
                    "sampler" : 8,
                    "target" : {
                        "node" : 8,
                        "path" : "scale"
                    }
                },
                {
                    "sampler" : 9,
                    "target" : {
                        "node" : 3,
                        "path" : "translation"
                    }
                },
                {
                    "sampler" : 10,
                    "target" : {
                        "node" : 3,
                        "path" : "rotation"
                    }
                },
                {
                    "sampler" : 11,
                    "target" : {
                        "node" : 3,
                        "path" : "scale"
                    }
                },
                {
                    "sampler" : 12,
                    "target" : {
                        "node" : 2,
                        "path" : "translation"
                    }
                },
                {
                    "sampler" : 13,
                    "target" : {
                        "node" : 2,
                        "path" : "rotation"
                    }
                },
                {
                    "sampler" : 14,
                    "target" : {
                        "node" : 2,
                        "path" : "scale"
                    }
                },
                {
                    "sampler" : 15,
                    "target" : {
                        "node" : 5,
                        "path" : "translation"
                    }
                },
                {
                    "sampler" : 16,
                    "target" : {
                        "node" : 5,
                        "path" : "rotation"
                    }
                },
                {
                    "sampler" : 17,
                    "target" : {
                        "node" : 5,
                        "path" : "scale"
                    }
                },
                {
                    "sampler" : 18,
                    "target" : {
                        "node" : 4,
                        "path" : "translation"
                    }
                },
                {
                    "sampler" : 19,
                    "target" : {
                        "node" : 4,
                        "path" : "rotation"
                    }
                },
                {
                    "sampler" : 20,
                    "target" : {
                        "node" : 4,
                        "path" : "scale"
                    }
                },
                {
                    "sampler" : 21,
                    "target" : {
                        "node" : 7,
                        "path" : "translation"
                    }
                },
                {
                    "sampler" : 22,
                    "target" : {
                        "node" : 7,
                        "path" : "rotation"
                    }
                },
                {
                    "sampler" : 23,
                    "target" : {
                        "node" : 7,
                        "path" : "scale"
                    }
                },
                {
                    "sampler" : 24,
                    "target" : {
                        "node" : 6,
                        "path" : "translation"
                    }
                },
                {
                    "sampler" : 25,
                    "target" : {
                        "node" : 6,
                        "path" : "rotation"
                    }
                },
                {
                    "sampler" : 26,
                    "target" : {
                        "node" : 6,
                        "path" : "scale"
                    }
                }
            ],
            "name" : "Bite_Front",
            "samplers" : [
                {
                    "input" : 43,
                    "interpolation" : "LINEAR",
                    "output" : 44
                },
                {
                    "input" : 43,
                    "interpolation" : "LINEAR",
                    "output" : 45
                },
                {
                    "input" : 43,
                    "interpolation" : "LINEAR",
                    "output" : 46
                },
                {
                    "input" : 43,
                    "interpolation" : "LINEAR",
                    "output" : 47
                },
                {
                    "input" : 43,
                    "interpolation" : "LINEAR",
                    "output" : 48
                },
                {
                    "input" : 43,
                    "interpolation" : "LINEAR",
                    "output" : 49
                },
                {
                    "input" : 43,
                    "interpolation" : "LINEAR",
                    "output" : 50
                },
                {
                    "input" : 43,
                    "interpolation" : "LINEAR",
                    "output" : 51
                },
                {
                    "input" : 43,
                    "interpolation" : "LINEAR",
                    "output" : 52
                },
                {
                    "input" : 43,
                    "interpolation" : "LINEAR",
                    "output" : 53
                },
                {
                    "input" : 43,
                    "interpolation" : "LINEAR",
                    "output" : 54
                },
                {
                    "input" : 43,
                    "interpolation" : "LINEAR",
                    "output" : 55
                },
                {
                    "input" : 43,
                    "interpolation" : "LINEAR",
                    "output" : 56
                },
                {
                    "input" : 43,
                    "interpolation" : "LINEAR",
                    "output" : 57
                },
                {
                    "input" : 43,
                    "interpolation" : "LINEAR",
                    "output" : 58
                },
                {
                    "input" : 43,
                    "interpolation" : "LINEAR",
                    "output" : 59
                },
                {
                    "input" : 43,
                    "interpolation" : "LINEAR",
                    "output" : 60
                },
                {
                    "input" : 43,
                    "interpolation" : "LINEAR",
                    "output" : 61
                },
                {
                    "input" : 43,
                    "interpolation" : "LINEAR",
                    "output" : 62
                },
                {
                    "input" : 43,
                    "interpolation" : "LINEAR",
                    "output" : 63
                },
                {
                    "input" : 43,
                    "interpolation" : "LINEAR",
                    "output" : 64
                },
                {
                    "input" : 43,
                    "interpolation" : "LINEAR",
                    "output" : 65
                },
                {
                    "input" : 43,
                    "interpolation" : "LINEAR",
                    "output" : 66
                },
                {
                    "input" : 43,
                    "interpolation" : "LINEAR",
                    "output" : 67
                },
                {
                    "input" : 43,
                    "interpolation" : "LINEAR",
                    "output" : 68
                },
                {
                    "input" : 43,
                    "interpolation" : "LINEAR",
                    "output" : 69
                },
                {
                    "input" : 43,
                    "interpolation" : "LINEAR",
                    "output" : 70
                }
            ]
        },
        {
            "channels" : [
                {
                    "sampler" : 0,
                    "target" : {
                        "node" : 1,
                        "path" : "translation"
                    }
                },
                {
                    "sampler" : 1,
                    "target" : {
                        "node" : 1,
                        "path" : "rotation"
                    }
                },
                {
                    "sampler" : 2,
                    "target" : {
                        "node" : 1,
                        "path" : "scale"
                    }
                },
                {
                    "sampler" : 3,
                    "target" : {
                        "node" : 0,
                        "path" : "translation"
                    }
                },
                {
                    "sampler" : 4,
                    "target" : {
                        "node" : 0,
                        "path" : "rotation"
                    }
                },
                {
                    "sampler" : 5,
                    "target" : {
                        "node" : 0,
                        "path" : "scale"
                    }
                },
                {
                    "sampler" : 6,
                    "target" : {
                        "node" : 8,
                        "path" : "translation"
                    }
                },
                {
                    "sampler" : 7,
                    "target" : {
                        "node" : 8,
                        "path" : "rotation"
                    }
                },
                {
                    "sampler" : 8,
                    "target" : {
                        "node" : 8,
                        "path" : "scale"
                    }
                },
                {
                    "sampler" : 9,
                    "target" : {
                        "node" : 3,
                        "path" : "translation"
                    }
                },
                {
                    "sampler" : 10,
                    "target" : {
                        "node" : 3,
                        "path" : "rotation"
                    }
                },
                {
                    "sampler" : 11,
                    "target" : {
                        "node" : 3,
                        "path" : "scale"
                    }
                },
                {
                    "sampler" : 12,
                    "target" : {
                        "node" : 2,
                        "path" : "translation"
                    }
                },
                {
                    "sampler" : 13,
                    "target" : {
                        "node" : 2,
                        "path" : "rotation"
                    }
                },
                {
                    "sampler" : 14,
                    "target" : {
                        "node" : 2,
                        "path" : "scale"
                    }
                },
                {
                    "sampler" : 15,
                    "target" : {
                        "node" : 5,
                        "path" : "translation"
                    }
                },
                {
                    "sampler" : 16,
                    "target" : {
                        "node" : 5,
                        "path" : "rotation"
                    }
                },
                {
                    "sampler" : 17,
                    "target" : {
                        "node" : 5,
                        "path" : "scale"
                    }
                },
                {
                    "sampler" : 18,
                    "target" : {
                        "node" : 4,
                        "path" : "translation"
                    }
                },
                {
                    "sampler" : 19,
                    "target" : {
                        "node" : 4,
                        "path" : "rotation"
                    }
                },
                {
                    "sampler" : 20,
                    "target" : {
                        "node" : 4,
                        "path" : "scale"
                    }
                },
                {
                    "sampler" : 21,
                    "target" : {
                        "node" : 7,
                        "path" : "translation"
                    }
                },
                {
                    "sampler" : 22,
                    "target" : {
                        "node" : 7,
                        "path" : "rotation"
                    }
                },
                {
                    "sampler" : 23,
                    "target" : {
                        "node" : 7,
                        "path" : "scale"
                    }
                },
                {
                    "sampler" : 24,
                    "target" : {
                        "node" : 6,
                        "path" : "translation"
                    }
                },
                {
                    "sampler" : 25,
                    "target" : {
                        "node" : 6,
                        "path" : "rotation"
                    }
                },
                {
                    "sampler" : 26,
                    "target" : {
                        "node" : 6,
                        "path" : "scale"
                    }
                }
            ],
            "name" : "Death",
            "samplers" : [
                {
                    "input" : 71,
                    "interpolation" : "LINEAR",
                    "output" : 72
                },
                {
                    "input" : 71,
                    "interpolation" : "LINEAR",
                    "output" : 73
                },
                {
                    "input" : 71,
                    "interpolation" : "LINEAR",
                    "output" : 74
                },
                {
                    "input" : 71,
                    "interpolation" : "LINEAR",
                    "output" : 75
                },
                {
                    "input" : 71,
                    "interpolation" : "LINEAR",
                    "output" : 76
                },
                {
                    "input" : 71,
                    "interpolation" : "LINEAR",
                    "output" : 77
                },
                {
                    "input" : 71,
                    "interpolation" : "LINEAR",
                    "output" : 78
                },
                {
                    "input" : 71,
                    "interpolation" : "LINEAR",
                    "output" : 79
                },
                {
                    "input" : 71,
                    "interpolation" : "LINEAR",
                    "output" : 80
                },
                {
                    "input" : 71,
                    "interpolation" : "LINEAR",
                    "output" : 81
                },
                {
                    "input" : 71,
                    "interpolation" : "LINEAR",
                    "output" : 82
                },
                {
                    "input" : 71,
                    "interpolation" : "LINEAR",
                    "output" : 83
                },
                {
                    "input" : 71,
                    "interpolation" : "LINEAR",
                    "output" : 84
                },
                {
                    "input" : 71,
                    "interpolation" : "LINEAR",
                    "output" : 85
                },
                {
                    "input" : 71,
                    "interpolation" : "LINEAR",
                    "output" : 86
                },
                {
                    "input" : 71,
                    "interpolation" : "LINEAR",
                    "output" : 87
                },
                {
                    "input" : 71,
                    "interpolation" : "LINEAR",
                    "output" : 88
                },
                {
                    "input" : 71,
                    "interpolation" : "LINEAR",
                    "output" : 89
                },
                {
                    "input" : 71,
                    "interpolation" : "LINEAR",
                    "output" : 90
                },
                {
                    "input" : 71,
                    "interpolation" : "LINEAR",
                    "output" : 91
                },
                {
                    "input" : 71,
                    "interpolation" : "LINEAR",
                    "output" : 92
                },
                {
                    "input" : 71,
                    "interpolation" : "LINEAR",
                    "output" : 93
                },
                {
                    "input" : 71,
                    "interpolation" : "LINEAR",
                    "output" : 94
                },
                {
                    "input" : 71,
                    "interpolation" : "LINEAR",
                    "output" : 95
                },
                {
                    "input" : 71,
                    "interpolation" : "LINEAR",
                    "output" : 96
                },
                {
                    "input" : 71,
                    "interpolation" : "LINEAR",
                    "output" : 97
                },
                {
                    "input" : 71,
                    "interpolation" : "LINEAR",
                    "output" : 98
                }
            ]
        },
        {
            "channels" : [
                {
                    "sampler" : 0,
                    "target" : {
                        "node" : 1,
                        "path" : "translation"
                    }
                },
                {
                    "sampler" : 1,
                    "target" : {
                        "node" : 1,
                        "path" : "rotation"
                    }
                },
                {
                    "sampler" : 2,
                    "target" : {
                        "node" : 1,
                        "path" : "scale"
                    }
                },
                {
                    "sampler" : 3,
                    "target" : {
                        "node" : 0,
                        "path" : "translation"
                    }
                },
                {
                    "sampler" : 4,
                    "target" : {
                        "node" : 0,
                        "path" : "rotation"
                    }
                },
                {
                    "sampler" : 5,
                    "target" : {
                        "node" : 0,
                        "path" : "scale"
                    }
                },
                {
                    "sampler" : 6,
                    "target" : {
                        "node" : 8,
                        "path" : "translation"
                    }
                },
                {
                    "sampler" : 7,
                    "target" : {
                        "node" : 8,
                        "path" : "rotation"
                    }
                },
                {
                    "sampler" : 8,
                    "target" : {
                        "node" : 8,
                        "path" : "scale"
                    }
                },
                {
                    "sampler" : 9,
                    "target" : {
                        "node" : 3,
                        "path" : "translation"
                    }
                },
                {
                    "sampler" : 10,
                    "target" : {
                        "node" : 3,
                        "path" : "rotation"
                    }
                },
                {
                    "sampler" : 11,
                    "target" : {
                        "node" : 3,
                        "path" : "scale"
                    }
                },
                {
                    "sampler" : 12,
                    "target" : {
                        "node" : 2,
                        "path" : "translation"
                    }
                },
                {
                    "sampler" : 13,
                    "target" : {
                        "node" : 2,
                        "path" : "rotation"
                    }
                },
                {
                    "sampler" : 14,
                    "target" : {
                        "node" : 2,
                        "path" : "scale"
                    }
                },
                {
                    "sampler" : 15,
                    "target" : {
                        "node" : 5,
                        "path" : "translation"
                    }
                },
                {
                    "sampler" : 16,
                    "target" : {
                        "node" : 5,
                        "path" : "rotation"
                    }
                },
                {
                    "sampler" : 17,
                    "target" : {
                        "node" : 5,
                        "path" : "scale"
                    }
                },
                {
                    "sampler" : 18,
                    "target" : {
                        "node" : 4,
                        "path" : "translation"
                    }
                },
                {
                    "sampler" : 19,
                    "target" : {
                        "node" : 4,
                        "path" : "rotation"
                    }
                },
                {
                    "sampler" : 20,
                    "target" : {
                        "node" : 4,
                        "path" : "scale"
                    }
                },
                {
                    "sampler" : 21,
                    "target" : {
                        "node" : 7,
                        "path" : "translation"
                    }
                },
                {
                    "sampler" : 22,
                    "target" : {
                        "node" : 7,
                        "path" : "rotation"
                    }
                },
                {
                    "sampler" : 23,
                    "target" : {
                        "node" : 7,
                        "path" : "scale"
                    }
                },
                {
                    "sampler" : 24,
                    "target" : {
                        "node" : 6,
                        "path" : "translation"
                    }
                },
                {
                    "sampler" : 25,
                    "target" : {
                        "node" : 6,
                        "path" : "rotation"
                    }
                },
                {
                    "sampler" : 26,
                    "target" : {
                        "node" : 6,
                        "path" : "scale"
                    }
                }
            ],
            "name" : "Flying",
            "samplers" : [
                {
                    "input" : 43,
                    "interpolation" : "LINEAR",
                    "output" : 99
                },
                {
                    "input" : 43,
                    "interpolation" : "LINEAR",
                    "output" : 100
                },
                {
                    "input" : 43,
                    "interpolation" : "LINEAR",
                    "output" : 101
                },
                {
                    "input" : 43,
                    "interpolation" : "LINEAR",
                    "output" : 102
                },
                {
                    "input" : 43,
                    "interpolation" : "LINEAR",
                    "output" : 103
                },
                {
                    "input" : 43,
                    "interpolation" : "LINEAR",
                    "output" : 104
                },
                {
                    "input" : 43,
                    "interpolation" : "LINEAR",
                    "output" : 105
                },
                {
                    "input" : 43,
                    "interpolation" : "LINEAR",
                    "output" : 106
                },
                {
                    "input" : 43,
                    "interpolation" : "LINEAR",
                    "output" : 107
                },
                {
                    "input" : 43,
                    "interpolation" : "LINEAR",
                    "output" : 108
                },
                {
                    "input" : 43,
                    "interpolation" : "LINEAR",
                    "output" : 109
                },
                {
                    "input" : 43,
                    "interpolation" : "LINEAR",
                    "output" : 110
                },
                {
                    "input" : 43,
                    "interpolation" : "LINEAR",
                    "output" : 111
                },
                {
                    "input" : 43,
                    "interpolation" : "LINEAR",
                    "output" : 112
                },
                {
                    "input" : 43,
                    "interpolation" : "LINEAR",
                    "output" : 113
                },
                {
                    "input" : 43,
                    "interpolation" : "LINEAR",
                    "output" : 114
                },
                {
                    "input" : 43,
                    "interpolation" : "LINEAR",
                    "output" : 115
                },
                {
                    "input" : 43,
                    "interpolation" : "LINEAR",
                    "output" : 116
                },
                {
                    "input" : 43,
                    "interpolation" : "LINEAR",
                    "output" : 117
                },
                {
                    "input" : 43,
                    "interpolation" : "LINEAR",
                    "output" : 118
                },
                {
                    "input" : 43,
                    "interpolation" : "LINEAR",
                    "output" : 119
                },
                {
                    "input" : 43,
                    "interpolation" : "LINEAR",
                    "output" : 120
                },
                {
                    "input" : 43,
                    "interpolation" : "LINEAR",
                    "output" : 121
                },
                {
                    "input" : 43,
                    "interpolation" : "LINEAR",
                    "output" : 122
                },
                {
                    "input" : 43,
                    "interpolation" : "LINEAR",
                    "output" : 123
                },
                {
                    "input" : 43,
                    "interpolation" : "LINEAR",
                    "output" : 124
                },
                {
                    "input" : 43,
                    "interpolation" : "LINEAR",
                    "output" : 125
                }
            ]
        },
        {
            "channels" : [
                {
                    "sampler" : 0,
                    "target" : {
                        "node" : 1,
                        "path" : "translation"
                    }
                },
                {
                    "sampler" : 1,
                    "target" : {
                        "node" : 1,
                        "path" : "rotation"
                    }
                },
                {
                    "sampler" : 2,
                    "target" : {
                        "node" : 1,
                        "path" : "scale"
                    }
                },
                {
                    "sampler" : 3,
                    "target" : {
                        "node" : 0,
                        "path" : "translation"
                    }
                },
                {
                    "sampler" : 4,
                    "target" : {
                        "node" : 0,
                        "path" : "rotation"
                    }
                },
                {
                    "sampler" : 5,
                    "target" : {
                        "node" : 0,
                        "path" : "scale"
                    }
                },
                {
                    "sampler" : 6,
                    "target" : {
                        "node" : 8,
                        "path" : "translation"
                    }
                },
                {
                    "sampler" : 7,
                    "target" : {
                        "node" : 8,
                        "path" : "rotation"
                    }
                },
                {
                    "sampler" : 8,
                    "target" : {
                        "node" : 8,
                        "path" : "scale"
                    }
                },
                {
                    "sampler" : 9,
                    "target" : {
                        "node" : 3,
                        "path" : "translation"
                    }
                },
                {
                    "sampler" : 10,
                    "target" : {
                        "node" : 3,
                        "path" : "rotation"
                    }
                },
                {
                    "sampler" : 11,
                    "target" : {
                        "node" : 3,
                        "path" : "scale"
                    }
                },
                {
                    "sampler" : 12,
                    "target" : {
                        "node" : 2,
                        "path" : "translation"
                    }
                },
                {
                    "sampler" : 13,
                    "target" : {
                        "node" : 2,
                        "path" : "rotation"
                    }
                },
                {
                    "sampler" : 14,
                    "target" : {
                        "node" : 2,
                        "path" : "scale"
                    }
                },
                {
                    "sampler" : 15,
                    "target" : {
                        "node" : 5,
                        "path" : "translation"
                    }
                },
                {
                    "sampler" : 16,
                    "target" : {
                        "node" : 5,
                        "path" : "rotation"
                    }
                },
                {
                    "sampler" : 17,
                    "target" : {
                        "node" : 5,
                        "path" : "scale"
                    }
                },
                {
                    "sampler" : 18,
                    "target" : {
                        "node" : 4,
                        "path" : "translation"
                    }
                },
                {
                    "sampler" : 19,
                    "target" : {
                        "node" : 4,
                        "path" : "rotation"
                    }
                },
                {
                    "sampler" : 20,
                    "target" : {
                        "node" : 4,
                        "path" : "scale"
                    }
                },
                {
                    "sampler" : 21,
                    "target" : {
                        "node" : 7,
                        "path" : "translation"
                    }
                },
                {
                    "sampler" : 22,
                    "target" : {
                        "node" : 7,
                        "path" : "rotation"
                    }
                },
                {
                    "sampler" : 23,
                    "target" : {
                        "node" : 7,
                        "path" : "scale"
                    }
                },
                {
                    "sampler" : 24,
                    "target" : {
                        "node" : 6,
                        "path" : "translation"
                    }
                },
                {
                    "sampler" : 25,
                    "target" : {
                        "node" : 6,
                        "path" : "rotation"
                    }
                },
                {
                    "sampler" : 26,
                    "target" : {
                        "node" : 6,
                        "path" : "scale"
                    }
                }
            ],
            "name" : "HitRecieve",
            "samplers" : [
                {
                    "input" : 126,
                    "interpolation" : "LINEAR",
                    "output" : 127
                },
                {
                    "input" : 126,
                    "interpolation" : "LINEAR",
                    "output" : 128
                },
                {
                    "input" : 126,
                    "interpolation" : "LINEAR",
                    "output" : 129
                },
                {
                    "input" : 126,
                    "interpolation" : "LINEAR",
                    "output" : 130
                },
                {
                    "input" : 126,
                    "interpolation" : "LINEAR",
                    "output" : 131
                },
                {
                    "input" : 126,
                    "interpolation" : "LINEAR",
                    "output" : 132
                },
                {
                    "input" : 126,
                    "interpolation" : "LINEAR",
                    "output" : 133
                },
                {
                    "input" : 126,
                    "interpolation" : "LINEAR",
                    "output" : 134
                },
                {
                    "input" : 126,
                    "interpolation" : "LINEAR",
                    "output" : 135
                },
                {
                    "input" : 126,
                    "interpolation" : "LINEAR",
                    "output" : 136
                },
                {
                    "input" : 126,
                    "interpolation" : "LINEAR",
                    "output" : 137
                },
                {
                    "input" : 126,
                    "interpolation" : "LINEAR",
                    "output" : 138
                },
                {
                    "input" : 126,
                    "interpolation" : "LINEAR",
                    "output" : 139
                },
                {
                    "input" : 126,
                    "interpolation" : "LINEAR",
                    "output" : 140
                },
                {
                    "input" : 126,
                    "interpolation" : "LINEAR",
                    "output" : 141
                },
                {
                    "input" : 126,
                    "interpolation" : "LINEAR",
                    "output" : 142
                },
                {
                    "input" : 126,
                    "interpolation" : "LINEAR",
                    "output" : 143
                },
                {
                    "input" : 126,
                    "interpolation" : "LINEAR",
                    "output" : 144
                },
                {
                    "input" : 126,
                    "interpolation" : "LINEAR",
                    "output" : 145
                },
                {
                    "input" : 126,
                    "interpolation" : "LINEAR",
                    "output" : 146
                },
                {
                    "input" : 126,
                    "interpolation" : "LINEAR",
                    "output" : 147
                },
                {
                    "input" : 126,
                    "interpolation" : "LINEAR",
                    "output" : 148
                },
                {
                    "input" : 126,
                    "interpolation" : "LINEAR",
                    "output" : 149
                },
                {
                    "input" : 126,
                    "interpolation" : "LINEAR",
                    "output" : 150
                },
                {
                    "input" : 126,
                    "interpolation" : "LINEAR",
                    "output" : 151
                },
                {
                    "input" : 126,
                    "interpolation" : "LINEAR",
                    "output" : 152
                },
                {
                    "input" : 126,
                    "interpolation" : "LINEAR",
                    "output" : 153
                }
            ]
        }
    ],
    "materials" : [
        {
            "doubleSided" : true,
            "name" : "Main",
            "pbrMetallicRoughness" : {
                "baseColorFactor" : [
                    0.8000000715255737,
                    0.5785993337631226,
                    0.17338857054710388,
                    1
                ],
                "metallicFactor" : 0,
                "roughnessFactor" : 0.5
            }
        },
        {
            "doubleSided" : true,
            "name" : "Main_2",
            "pbrMetallicRoughness" : {
                "baseColorFactor" : [
                    0.042026109993457794,
                    0.042026109993457794,
                    0.042026109993457794,
                    1
                ],
                "metallicFactor" : 0,
                "roughnessFactor" : 0.5
            }
        },
        {
            "doubleSided" : true,
            "name" : "Wings",
            "pbrMetallicRoughness" : {
                "baseColorFactor" : [
                    0.11064007878303528,
                    0.5487827062606812,
                    0.5814584493637085,
                    1
                ],
                "metallicFactor" : 0,
                "roughnessFactor" : 0.5
            }
        },
        {
            "doubleSided" : true,
            "name" : "Teeth",
            "pbrMetallicRoughness" : {
                "baseColorFactor" : [
                    0.6500004529953003,
                    0.6500004529953003,
                    0.6500004529953003,
                    1
                ],
                "metallicFactor" : 0,
                "roughnessFactor" : 0.5
            }
        },
        {
            "doubleSided" : true,
            "name" : "Tongue",
            "pbrMetallicRoughness" : {
                "baseColorFactor" : [
                    0.41093412041664124,
                    0.06473179161548615,
                    0.09605776518583298,
                    1
                ],
                "metallicFactor" : 0,
                "roughnessFactor" : 0.5
            }
        },
        {
            "doubleSided" : true,
            "name" : "Eyes",
            "pbrMetallicRoughness" : {
                "baseColorFactor" : [
                    0.017387619242072105,
                    0.017387619242072105,
                    0.017387619242072105,
                    1
                ],
                "metallicFactor" : 0,
                "roughnessFactor" : 0.5
            }
        }
    ],
    "meshes" : [
        {
            "name" : "Cube.001",
            "primitives" : [
                {
                    "attributes" : {
                        "POSITION" : 0,
                        "NORMAL" : 1,
                        "TANGENT" : 2,
                        "TEXCOORD_0" : 3,
                        "JOINTS_0" : 4,
                        "WEIGHTS_0" : 5
                    },
                    "indices" : 6,
                    "material" : 0
                },
                {
                    "attributes" : {
                        "POSITION" : 7,
                        "NORMAL" : 8,
                        "TANGENT" : 9,
                        "TEXCOORD_0" : 10,
                        "JOINTS_0" : 11,
                        "WEIGHTS_0" : 12
                    },
                    "indices" : 13,
                    "material" : 1
                },
                {
                    "attributes" : {
                        "POSITION" : 14,
                        "NORMAL" : 15,
                        "TANGENT" : 16,
                        "TEXCOORD_0" : 17,
                        "JOINTS_0" : 18,
                        "WEIGHTS_0" : 19
                    },
                    "indices" : 20,
                    "material" : 2
                },
                {
                    "attributes" : {
                        "POSITION" : 21,
                        "NORMAL" : 22,
                        "TANGENT" : 23,
                        "TEXCOORD_0" : 24,
                        "JOINTS_0" : 25,
                        "WEIGHTS_0" : 26
                    },
                    "indices" : 27,
                    "material" : 3
                },
                {
                    "attributes" : {
                        "POSITION" : 28,
                        "NORMAL" : 29,
                        "TANGENT" : 30,
                        "TEXCOORD_0" : 31,
                        "JOINTS_0" : 32,
                        "WEIGHTS_0" : 33
                    },
                    "indices" : 34,
                    "material" : 4
                },
                {
                    "attributes" : {
                        "POSITION" : 35,
                        "NORMAL" : 36,
                        "TANGENT" : 37,
                        "TEXCOORD_0" : 38,
                        "JOINTS_0" : 39,
                        "WEIGHTS_0" : 40
                    },
                    "indices" : 41,
                    "material" : 5
                }
            ]
        }
    ],
    "skins" : [
        {
            "inverseBindMatrices" : 42,
            "joints" : [
                1,
                0,
                8,
                3,
                2,
                5,
                4,
                7,
                6,
                9
            ],
            "name" : "MonsterArmature"
        }
    ],
    "accessors" : [
        {
            "bufferView" : 0,
            "componentType" : 5126,
            "count" : 554,
            "max" : [
                0.6749677062034607,
                1.5128207206726074,
                0.7130081057548523
            ],
            "min" : [
                -0.6749677062034607,
                0.006052772514522076,
                -0.6743479371070862
            ],
            "type" : "VEC3"
        },
        {
            "bufferView" : 1,
            "componentType" : 5126,
            "count" : 554,
            "type" : "VEC3"
        },
        {
            "bufferView" : 2,
            "componentType" : 5126,
            "count" : 554,
            "type" : "VEC4"
        },
        {
            "bufferView" : 3,
            "componentType" : 5126,
            "count" : 554,
            "type" : "VEC2"
        },
        {
            "bufferView" : 4,
            "componentType" : 5121,
            "count" : 554,
            "type" : "VEC4"
        },
        {
            "bufferView" : 5,
            "componentType" : 5126,
            "count" : 554,
            "type" : "VEC4"
        },
        {
            "bufferView" : 6,
            "componentType" : 5123,
            "count" : 2232,
            "type" : "SCALAR"
        },
        {
            "bufferView" : 7,
            "componentType" : 5126,
            "count" : 978,
            "max" : [
                0.6749677062034607,
                1.8769595623016357,
                0.7989436388015747
            ],
            "min" : [
                -0.6749677062034607,
                0.006052772514522076,
                -0.4912623167037964
            ],
            "type" : "VEC3"
        },
        {
            "bufferView" : 8,
            "componentType" : 5126,
            "count" : 978,
            "type" : "VEC3"
        },
        {
            "bufferView" : 9,
            "componentType" : 5126,
            "count" : 978,
            "type" : "VEC4"
        },
        {
            "bufferView" : 10,
            "componentType" : 5126,
            "count" : 978,
            "type" : "VEC2"
        },
        {
            "bufferView" : 11,
            "componentType" : 5121,
            "count" : 978,
            "type" : "VEC4"
        },
        {
            "bufferView" : 12,
            "componentType" : 5126,
            "count" : 978,
            "type" : "VEC4"
        },
        {
            "bufferView" : 13,
            "componentType" : 5123,
            "count" : 2664,
            "type" : "SCALAR"
        },
        {
            "bufferView" : 14,
            "componentType" : 5126,
            "count" : 376,
            "max" : [
                1.4335882663726807,
                0.7450257539749146,
                0.26633578538894653
            ],
            "min" : [
                -1.4335881471633911,
                0.6623234748840332,
                -0.26664742827415466
            ],
            "type" : "VEC3"
        },
        {
            "bufferView" : 15,
            "componentType" : 5126,
            "count" : 376,
            "type" : "VEC3"
        },
        {
            "bufferView" : 16,
            "componentType" : 5126,
            "count" : 376,
            "type" : "VEC4"
        },
        {
            "bufferView" : 17,
            "componentType" : 5126,
            "count" : 376,
            "type" : "VEC2"
        },
        {
            "bufferView" : 18,
            "componentType" : 5121,
            "count" : 376,
            "type" : "VEC4"
        },
        {
            "bufferView" : 19,
            "componentType" : 5126,
            "count" : 376,
            "type" : "VEC4"
        },
        {
            "bufferView" : 20,
            "componentType" : 5123,
            "count" : 1536,
            "type" : "SCALAR"
        },
        {
            "bufferView" : 21,
            "componentType" : 5126,
            "count" : 426,
            "max" : [
                0.24772273004055023,
                0.7298794984817505,
                0.6662198305130005
            ],
            "min" : [
                -0.1982753723859787,
                0.5713768005371094,
                0.5150449872016907
            ],
            "type" : "VEC3"
        },
        {
            "bufferView" : 22,
            "componentType" : 5126,
            "count" : 426,
            "type" : "VEC3"
        },
        {
            "bufferView" : 23,
            "componentType" : 5126,
            "count" : 426,
            "type" : "VEC4"
        },
        {
            "bufferView" : 24,
            "componentType" : 5126,
            "count" : 426,
            "type" : "VEC2"
        },
        {
            "bufferView" : 25,
            "componentType" : 5121,
            "count" : 426,
            "type" : "VEC4"
        },
        {
            "bufferView" : 26,
            "componentType" : 5126,
            "count" : 426,
            "type" : "VEC4"
        },
        {
            "bufferView" : 27,
            "componentType" : 5123,
            "count" : 1440,
            "type" : "SCALAR"
        },
        {
            "bufferView" : 28,
            "componentType" : 5126,
            "count" : 90,
            "max" : [
                0.20770025253295898,
                0.5240598917007446,
                0.6803219318389893
            ],
            "min" : [
                -0.20770025253295898,
                0.361674964427948,
                0.4309820532798767
            ],
            "type" : "VEC3"
        },
        {
            "bufferView" : 29,
            "componentType" : 5126,
            "count" : 90,
            "type" : "VEC3"
        },
        {
            "bufferView" : 30,
            "componentType" : 5126,
            "count" : 90,
            "type" : "VEC4"
        },
        {
            "bufferView" : 31,
            "componentType" : 5126,
            "count" : 90,
            "type" : "VEC2"
        },
        {
            "bufferView" : 32,
            "componentType" : 5121,
            "count" : 90,
            "type" : "VEC4"
        },
        {
            "bufferView" : 33,
            "componentType" : 5126,
            "count" : 90,
            "type" : "VEC4"
        },
        {
            "bufferView" : 34,
            "componentType" : 5123,
            "count" : 240,
            "type" : "SCALAR"
        },
        {
            "bufferView" : 35,
            "componentType" : 5126,
            "count" : 204,
            "max" : [
                0.646151602268219,
                1.1100318431854248,
                0.679760754108429
            ],
            "min" : [
                -0.6476326584815979,
                0.5492932796478271,
                0.2780466675758362
            ],
            "type" : "VEC3"
        },
        {
            "bufferView" : 36,
            "componentType" : 5126,
            "count" : 204,
            "type" : "VEC3"
        },
        {
            "bufferView" : 37,
            "componentType" : 5126,
            "count" : 204,
            "type" : "VEC4"
        },
        {
            "bufferView" : 38,
            "componentType" : 5126,
            "count" : 204,
            "type" : "VEC2"
        },
        {
            "bufferView" : 39,
            "componentType" : 5121,
            "count" : 204,
            "type" : "VEC4"
        },
        {
            "bufferView" : 40,
            "componentType" : 5126,
            "count" : 204,
            "type" : "VEC4"
        },
        {
            "bufferView" : 41,
            "componentType" : 5123,
            "count" : 1008,
            "type" : "SCALAR"
        },
        {
            "bufferView" : 42,
            "componentType" : 5126,
            "count" : 10,
            "type" : "MAT4"
        },
        {
            "bufferView" : 43,
            "componentType" : 5126,
            "count" : 28,
            "max" : [
                1.125
            ],
            "min" : [
                0
            ],
            "type" : "SCALAR"
        },
        {
            "bufferView" : 44,
            "componentType" : 5126,
            "count" : 28,
            "type" : "VEC3"
        },
        {
            "bufferView" : 45,
            "componentType" : 5126,
            "count" : 28,
            "type" : "VEC4"
        },
        {
            "bufferView" : 46,
            "componentType" : 5126,
            "count" : 28,
            "type" : "VEC3"
        },
        {
            "bufferView" : 47,
            "componentType" : 5126,
            "count" : 28,
            "type" : "VEC3"
        },
        {
            "bufferView" : 48,
            "componentType" : 5126,
            "count" : 28,
            "type" : "VEC4"
        },
        {
            "bufferView" : 49,
            "componentType" : 5126,
            "count" : 28,
            "type" : "VEC3"
        },
        {
            "bufferView" : 50,
            "componentType" : 5126,
            "count" : 28,
            "type" : "VEC3"
        },
        {
            "bufferView" : 51,
            "componentType" : 5126,
            "count" : 28,
            "type" : "VEC4"
        },
        {
            "bufferView" : 52,
            "componentType" : 5126,
            "count" : 28,
            "type" : "VEC3"
        },
        {
            "bufferView" : 53,
            "componentType" : 5126,
            "count" : 28,
            "type" : "VEC3"
        },
        {
            "bufferView" : 54,
            "componentType" : 5126,
            "count" : 28,
            "type" : "VEC4"
        },
        {
            "bufferView" : 55,
            "componentType" : 5126,
            "count" : 28,
            "type" : "VEC3"
        },
        {
            "bufferView" : 56,
            "componentType" : 5126,
            "count" : 28,
            "type" : "VEC3"
        },
        {
            "bufferView" : 57,
            "componentType" : 5126,
            "count" : 28,
            "type" : "VEC4"
        },
        {
            "bufferView" : 58,
            "componentType" : 5126,
            "count" : 28,
            "type" : "VEC3"
        },
        {
            "bufferView" : 59,
            "componentType" : 5126,
            "count" : 28,
            "type" : "VEC3"
        },
        {
            "bufferView" : 60,
            "componentType" : 5126,
            "count" : 28,
            "type" : "VEC4"
        },
        {
            "bufferView" : 61,
            "componentType" : 5126,
            "count" : 28,
            "type" : "VEC3"
        },
        {
            "bufferView" : 62,
            "componentType" : 5126,
            "count" : 28,
            "type" : "VEC3"
        },
        {
            "bufferView" : 63,
            "componentType" : 5126,
            "count" : 28,
            "type" : "VEC4"
        },
        {
            "bufferView" : 64,
            "componentType" : 5126,
            "count" : 28,
            "type" : "VEC3"
        },
        {
            "bufferView" : 65,
            "componentType" : 5126,
            "count" : 28,
            "type" : "VEC3"
        },
        {
            "bufferView" : 66,
            "componentType" : 5126,
            "count" : 28,
            "type" : "VEC4"
        },
        {
            "bufferView" : 67,
            "componentType" : 5126,
            "count" : 28,
            "type" : "VEC3"
        },
        {
            "bufferView" : 68,
            "componentType" : 5126,
            "count" : 28,
            "type" : "VEC3"
        },
        {
            "bufferView" : 69,
            "componentType" : 5126,
            "count" : 28,
            "type" : "VEC4"
        },
        {
            "bufferView" : 70,
            "componentType" : 5126,
            "count" : 28,
            "type" : "VEC3"
        },
        {
            "bufferView" : 71,
            "componentType" : 5126,
            "count" : 20,
            "max" : [
                0.7916666666666666
            ],
            "min" : [
                0
            ],
            "type" : "SCALAR"
        },
        {
            "bufferView" : 72,
            "componentType" : 5126,
            "count" : 20,
            "type" : "VEC3"
        },
        {
            "bufferView" : 73,
            "componentType" : 5126,
            "count" : 20,
            "type" : "VEC4"
        },
        {
            "bufferView" : 74,
            "componentType" : 5126,
            "count" : 20,
            "type" : "VEC3"
        },
        {
            "bufferView" : 75,
            "componentType" : 5126,
            "count" : 20,
            "type" : "VEC3"
        },
        {
            "bufferView" : 76,
            "componentType" : 5126,
            "count" : 20,
            "type" : "VEC4"
        },
        {
            "bufferView" : 77,
            "componentType" : 5126,
            "count" : 20,
            "type" : "VEC3"
        },
        {
            "bufferView" : 78,
            "componentType" : 5126,
            "count" : 20,
            "type" : "VEC3"
        },
        {
            "bufferView" : 79,
            "componentType" : 5126,
            "count" : 20,
            "type" : "VEC4"
        },
        {
            "bufferView" : 80,
            "componentType" : 5126,
            "count" : 20,
            "type" : "VEC3"
        },
        {
            "bufferView" : 81,
            "componentType" : 5126,
            "count" : 20,
            "type" : "VEC3"
        },
        {
            "bufferView" : 82,
            "componentType" : 5126,
            "count" : 20,
            "type" : "VEC4"
        },
        {
            "bufferView" : 83,
            "componentType" : 5126,
            "count" : 20,
            "type" : "VEC3"
        },
        {
            "bufferView" : 84,
            "componentType" : 5126,
            "count" : 20,
            "type" : "VEC3"
        },
        {
            "bufferView" : 85,
            "componentType" : 5126,
            "count" : 20,
            "type" : "VEC4"
        },
        {
            "bufferView" : 86,
            "componentType" : 5126,
            "count" : 20,
            "type" : "VEC3"
        },
        {
            "bufferView" : 87,
            "componentType" : 5126,
            "count" : 20,
            "type" : "VEC3"
        },
        {
            "bufferView" : 88,
            "componentType" : 5126,
            "count" : 20,
            "type" : "VEC4"
        },
        {
            "bufferView" : 89,
            "componentType" : 5126,
            "count" : 20,
            "type" : "VEC3"
        },
        {
            "bufferView" : 90,
            "componentType" : 5126,
            "count" : 20,
            "type" : "VEC3"
        },
        {
            "bufferView" : 91,
            "componentType" : 5126,
            "count" : 20,
            "type" : "VEC4"
        },
        {
            "bufferView" : 92,
            "componentType" : 5126,
            "count" : 20,
            "type" : "VEC3"
        },
        {
            "bufferView" : 93,
            "componentType" : 5126,
            "count" : 20,
            "type" : "VEC3"
        },
        {
            "bufferView" : 94,
            "componentType" : 5126,
            "count" : 20,
            "type" : "VEC4"
        },
        {
            "bufferView" : 95,
            "componentType" : 5126,
            "count" : 20,
            "type" : "VEC3"
        },
        {
            "bufferView" : 96,
            "componentType" : 5126,
            "count" : 20,
            "type" : "VEC3"
        },
        {
            "bufferView" : 97,
            "componentType" : 5126,
            "count" : 20,
            "type" : "VEC4"
        },
        {
            "bufferView" : 98,
            "componentType" : 5126,
            "count" : 20,
            "type" : "VEC3"
        },
        {
            "bufferView" : 99,
            "componentType" : 5126,
            "count" : 28,
            "type" : "VEC3"
        },
        {
            "bufferView" : 100,
            "componentType" : 5126,
            "count" : 28,
            "type" : "VEC4"
        },
        {
            "bufferView" : 101,
            "componentType" : 5126,
            "count" : 28,
            "type" : "VEC3"
        },
        {
            "bufferView" : 102,
            "componentType" : 5126,
            "count" : 28,
            "type" : "VEC3"
        },
        {
            "bufferView" : 103,
            "componentType" : 5126,
            "count" : 28,
            "type" : "VEC4"
        },
        {
            "bufferView" : 104,
            "componentType" : 5126,
            "count" : 28,
            "type" : "VEC3"
        },
        {
            "bufferView" : 105,
            "componentType" : 5126,
            "count" : 28,
            "type" : "VEC3"
        },
        {
            "bufferView" : 106,
            "componentType" : 5126,
            "count" : 28,
            "type" : "VEC4"
        },
        {
            "bufferView" : 107,
            "componentType" : 5126,
            "count" : 28,
            "type" : "VEC3"
        },
        {
            "bufferView" : 108,
            "componentType" : 5126,
            "count" : 28,
            "type" : "VEC3"
        },
        {
            "bufferView" : 109,
            "componentType" : 5126,
            "count" : 28,
            "type" : "VEC4"
        },
        {
            "bufferView" : 110,
            "componentType" : 5126,
            "count" : 28,
            "type" : "VEC3"
        },
        {
            "bufferView" : 111,
            "componentType" : 5126,
            "count" : 28,
            "type" : "VEC3"
        },
        {
            "bufferView" : 112,
            "componentType" : 5126,
            "count" : 28,
            "type" : "VEC4"
        },
        {
            "bufferView" : 113,
            "componentType" : 5126,
            "count" : 28,
            "type" : "VEC3"
        },
        {
            "bufferView" : 114,
            "componentType" : 5126,
            "count" : 28,
            "type" : "VEC3"
        },
        {
            "bufferView" : 115,
            "componentType" : 5126,
            "count" : 28,
            "type" : "VEC4"
        },
        {
            "bufferView" : 116,
            "componentType" : 5126,
            "count" : 28,
            "type" : "VEC3"
        },
        {
            "bufferView" : 117,
            "componentType" : 5126,
            "count" : 28,
            "type" : "VEC3"
        },
        {
            "bufferView" : 118,
            "componentType" : 5126,
            "count" : 28,
            "type" : "VEC4"
        },
        {
            "bufferView" : 119,
            "componentType" : 5126,
            "count" : 28,
            "type" : "VEC3"
        },
        {
            "bufferView" : 120,
            "componentType" : 5126,
            "count" : 28,
            "type" : "VEC3"
        },
        {
            "bufferView" : 121,
            "componentType" : 5126,
            "count" : 28,
            "type" : "VEC4"
        },
        {
            "bufferView" : 122,
            "componentType" : 5126,
            "count" : 28,
            "type" : "VEC3"
        },
        {
            "bufferView" : 123,
            "componentType" : 5126,
            "count" : 28,
            "type" : "VEC3"
        },
        {
            "bufferView" : 124,
            "componentType" : 5126,
            "count" : 28,
            "type" : "VEC4"
        },
        {
            "bufferView" : 125,
            "componentType" : 5126,
            "count" : 28,
            "type" : "VEC3"
        },
        {
            "bufferView" : 126,
            "componentType" : 5126,
            "count" : 16,
            "max" : [
                0.625
            ],
            "min" : [
                0
            ],
            "type" : "SCALAR"
        },
        {
            "bufferView" : 127,
            "componentType" : 5126,
            "count" : 16,
            "type" : "VEC3"
        },
        {
            "bufferView" : 128,
            "componentType" : 5126,
            "count" : 16,
            "type" : "VEC4"
        },
        {
            "bufferView" : 129,
            "componentType" : 5126,
            "count" : 16,
            "type" : "VEC3"
        },
        {
            "bufferView" : 130,
            "componentType" : 5126,
            "count" : 16,
            "type" : "VEC3"
        },
        {
            "bufferView" : 131,
            "componentType" : 5126,
            "count" : 16,
            "type" : "VEC4"
        },
        {
            "bufferView" : 132,
            "componentType" : 5126,
            "count" : 16,
            "type" : "VEC3"
        },
        {
            "bufferView" : 133,
            "componentType" : 5126,
            "count" : 16,
            "type" : "VEC3"
        },
        {
            "bufferView" : 134,
            "componentType" : 5126,
            "count" : 16,
            "type" : "VEC4"
        },
        {
            "bufferView" : 135,
            "componentType" : 5126,
            "count" : 16,
            "type" : "VEC3"
        },
        {
            "bufferView" : 136,
            "componentType" : 5126,
            "count" : 16,
            "type" : "VEC3"
        },
        {
            "bufferView" : 137,
            "componentType" : 5126,
            "count" : 16,
            "type" : "VEC4"
        },
        {
            "bufferView" : 138,
            "componentType" : 5126,
            "count" : 16,
            "type" : "VEC3"
        },
        {
            "bufferView" : 139,
            "componentType" : 5126,
            "count" : 16,
            "type" : "VEC3"
        },
        {
            "bufferView" : 140,
            "componentType" : 5126,
            "count" : 16,
            "type" : "VEC4"
        },
        {
            "bufferView" : 141,
            "componentType" : 5126,
            "count" : 16,
            "type" : "VEC3"
        },
        {
            "bufferView" : 142,
            "componentType" : 5126,
            "count" : 16,
            "type" : "VEC3"
        },
        {
            "bufferView" : 143,
            "componentType" : 5126,
            "count" : 16,
            "type" : "VEC4"
        },
        {
            "bufferView" : 144,
            "componentType" : 5126,
            "count" : 16,
            "type" : "VEC3"
        },
        {
            "bufferView" : 145,
            "componentType" : 5126,
            "count" : 16,
            "type" : "VEC3"
        },
        {
            "bufferView" : 146,
            "componentType" : 5126,
            "count" : 16,
            "type" : "VEC4"
        },
        {
            "bufferView" : 147,
            "componentType" : 5126,
            "count" : 16,
            "type" : "VEC3"
        },
        {
            "bufferView" : 148,
            "componentType" : 5126,
            "count" : 16,
            "type" : "VEC3"
        },
        {
            "bufferView" : 149,
            "componentType" : 5126,
            "count" : 16,
            "type" : "VEC4"
        },
        {
            "bufferView" : 150,
            "componentType" : 5126,
            "count" : 16,
            "type" : "VEC3"
        },
        {
            "bufferView" : 151,
            "componentType" : 5126,
            "count" : 16,
            "type" : "VEC3"
        },
        {
            "bufferView" : 152,
            "componentType" : 5126,
            "count" : 16,
            "type" : "VEC4"
        },
        {
            "bufferView" : 153,
            "componentType" : 5126,
            "count" : 16,
            "type" : "VEC3"
        }
    ],
    "bufferViews" : [
        {
            "buffer" : 0,
            "byteLength" : 6648,
            "byteOffset" : 0
        },
        {
            "buffer" : 0,
            "byteLength" : 6648,
            "byteOffset" : 6648
        },
        {
            "buffer" : 0,
            "byteLength" : 8864,
            "byteOffset" : 13296
        },
        {
            "buffer" : 0,
            "byteLength" : 4432,
            "byteOffset" : 22160
        },
        {
            "buffer" : 0,
            "byteLength" : 2216,
            "byteOffset" : 26592
        },
        {
            "buffer" : 0,
            "byteLength" : 8864,
            "byteOffset" : 28808
        },
        {
            "buffer" : 0,
            "byteLength" : 4464,
            "byteOffset" : 37672
        },
        {
            "buffer" : 0,
            "byteLength" : 11736,
            "byteOffset" : 42136
        },
        {
            "buffer" : 0,
            "byteLength" : 11736,
            "byteOffset" : 53872
        },
        {
            "buffer" : 0,
            "byteLength" : 15648,
            "byteOffset" : 65608
        },
        {
            "buffer" : 0,
            "byteLength" : 7824,
            "byteOffset" : 81256
        },
        {
            "buffer" : 0,
            "byteLength" : 3912,
            "byteOffset" : 89080
        },
        {
            "buffer" : 0,
            "byteLength" : 15648,
            "byteOffset" : 92992
        },
        {
            "buffer" : 0,
            "byteLength" : 5328,
            "byteOffset" : 108640
        },
        {
            "buffer" : 0,
            "byteLength" : 4512,
            "byteOffset" : 113968
        },
        {
            "buffer" : 0,
            "byteLength" : 4512,
            "byteOffset" : 118480
        },
        {
            "buffer" : 0,
            "byteLength" : 6016,
            "byteOffset" : 122992
        },
        {
            "buffer" : 0,
            "byteLength" : 3008,
            "byteOffset" : 129008
        },
        {
            "buffer" : 0,
            "byteLength" : 1504,
            "byteOffset" : 132016
        },
        {
            "buffer" : 0,
            "byteLength" : 6016,
            "byteOffset" : 133520
        },
        {
            "buffer" : 0,
            "byteLength" : 3072,
            "byteOffset" : 139536
        },
        {
            "buffer" : 0,
            "byteLength" : 5112,
            "byteOffset" : 142608
        },
        {
            "buffer" : 0,
            "byteLength" : 5112,
            "byteOffset" : 147720
        },
        {
            "buffer" : 0,
            "byteLength" : 6816,
            "byteOffset" : 152832
        },
        {
            "buffer" : 0,
            "byteLength" : 3408,
            "byteOffset" : 159648
        },
        {
            "buffer" : 0,
            "byteLength" : 1704,
            "byteOffset" : 163056
        },
        {
            "buffer" : 0,
            "byteLength" : 6816,
            "byteOffset" : 164760
        },
        {
            "buffer" : 0,
            "byteLength" : 2880,
            "byteOffset" : 171576
        },
        {
            "buffer" : 0,
            "byteLength" : 1080,
            "byteOffset" : 174456
        },
        {
            "buffer" : 0,
            "byteLength" : 1080,
            "byteOffset" : 175536
        },
        {
            "buffer" : 0,
            "byteLength" : 1440,
            "byteOffset" : 176616
        },
        {
            "buffer" : 0,
            "byteLength" : 720,
            "byteOffset" : 178056
        },
        {
            "buffer" : 0,
            "byteLength" : 360,
            "byteOffset" : 178776
        },
        {
            "buffer" : 0,
            "byteLength" : 1440,
            "byteOffset" : 179136
        },
        {
            "buffer" : 0,
            "byteLength" : 480,
            "byteOffset" : 180576
        },
        {
            "buffer" : 0,
            "byteLength" : 2448,
            "byteOffset" : 181056
        },
        {
            "buffer" : 0,
            "byteLength" : 2448,
            "byteOffset" : 183504
        },
        {
            "buffer" : 0,
            "byteLength" : 3264,
            "byteOffset" : 185952
        },
        {
            "buffer" : 0,
            "byteLength" : 1632,
            "byteOffset" : 189216
        },
        {
            "buffer" : 0,
            "byteLength" : 816,
            "byteOffset" : 190848
        },
        {
            "buffer" : 0,
            "byteLength" : 3264,
            "byteOffset" : 191664
        },
        {
            "buffer" : 0,
            "byteLength" : 2016,
            "byteOffset" : 194928
        },
        {
            "buffer" : 0,
            "byteLength" : 640,
            "byteOffset" : 196944
        },
        {
            "buffer" : 0,
            "byteLength" : 112,
            "byteOffset" : 197584
        },
        {
            "buffer" : 0,
            "byteLength" : 336,
            "byteOffset" : 197696
        },
        {
            "buffer" : 0,
            "byteLength" : 448,
            "byteOffset" : 198032
        },
        {
            "buffer" : 0,
            "byteLength" : 336,
            "byteOffset" : 198480
        },
        {
            "buffer" : 0,
            "byteLength" : 336,
            "byteOffset" : 198816
        },
        {
            "buffer" : 0,
            "byteLength" : 448,
            "byteOffset" : 199152
        },
        {
            "buffer" : 0,
            "byteLength" : 336,
            "byteOffset" : 199600
        },
        {
            "buffer" : 0,
            "byteLength" : 336,
            "byteOffset" : 199936
        },
        {
            "buffer" : 0,
            "byteLength" : 448,
            "byteOffset" : 200272
        },
        {
            "buffer" : 0,
            "byteLength" : 336,
            "byteOffset" : 200720
        },
        {
            "buffer" : 0,
            "byteLength" : 336,
            "byteOffset" : 201056
        },
        {
            "buffer" : 0,
            "byteLength" : 448,
            "byteOffset" : 201392
        },
        {
            "buffer" : 0,
            "byteLength" : 336,
            "byteOffset" : 201840
        },
        {
            "buffer" : 0,
            "byteLength" : 336,
            "byteOffset" : 202176
        },
        {
            "buffer" : 0,
            "byteLength" : 448,
            "byteOffset" : 202512
        },
        {
            "buffer" : 0,
            "byteLength" : 336,
            "byteOffset" : 202960
        },
        {
            "buffer" : 0,
            "byteLength" : 336,
            "byteOffset" : 203296
        },
        {
            "buffer" : 0,
            "byteLength" : 448,
            "byteOffset" : 203632
        },
        {
            "buffer" : 0,
            "byteLength" : 336,
            "byteOffset" : 204080
        },
        {
            "buffer" : 0,
            "byteLength" : 336,
            "byteOffset" : 204416
        },
        {
            "buffer" : 0,
            "byteLength" : 448,
            "byteOffset" : 204752
        },
        {
            "buffer" : 0,
            "byteLength" : 336,
            "byteOffset" : 205200
        },
        {
            "buffer" : 0,
            "byteLength" : 336,
            "byteOffset" : 205536
        },
        {
            "buffer" : 0,
            "byteLength" : 448,
            "byteOffset" : 205872
        },
        {
            "buffer" : 0,
            "byteLength" : 336,
            "byteOffset" : 206320
        },
        {
            "buffer" : 0,
            "byteLength" : 336,
            "byteOffset" : 206656
        },
        {
            "buffer" : 0,
            "byteLength" : 448,
            "byteOffset" : 206992
        },
        {
            "buffer" : 0,
            "byteLength" : 336,
            "byteOffset" : 207440
        },
        {
            "buffer" : 0,
            "byteLength" : 80,
            "byteOffset" : 207776
        },
        {
            "buffer" : 0,
            "byteLength" : 240,
            "byteOffset" : 207856
        },
        {
            "buffer" : 0,
            "byteLength" : 320,
            "byteOffset" : 208096
        },
        {
            "buffer" : 0,
            "byteLength" : 240,
            "byteOffset" : 208416
        },
        {
            "buffer" : 0,
            "byteLength" : 240,
            "byteOffset" : 208656
        },
        {
            "buffer" : 0,
            "byteLength" : 320,
            "byteOffset" : 208896
        },
        {
            "buffer" : 0,
            "byteLength" : 240,
            "byteOffset" : 209216
        },
        {
            "buffer" : 0,
            "byteLength" : 240,
            "byteOffset" : 209456
        },
        {
            "buffer" : 0,
            "byteLength" : 320,
            "byteOffset" : 209696
        },
        {
            "buffer" : 0,
            "byteLength" : 240,
            "byteOffset" : 210016
        },
        {
            "buffer" : 0,
            "byteLength" : 240,
            "byteOffset" : 210256
        },
        {
            "buffer" : 0,
            "byteLength" : 320,
            "byteOffset" : 210496
        },
        {
            "buffer" : 0,
            "byteLength" : 240,
            "byteOffset" : 210816
        },
        {
            "buffer" : 0,
            "byteLength" : 240,
            "byteOffset" : 211056
        },
        {
            "buffer" : 0,
            "byteLength" : 320,
            "byteOffset" : 211296
        },
        {
            "buffer" : 0,
            "byteLength" : 240,
            "byteOffset" : 211616
        },
        {
            "buffer" : 0,
            "byteLength" : 240,
            "byteOffset" : 211856
        },
        {
            "buffer" : 0,
            "byteLength" : 320,
            "byteOffset" : 212096
        },
        {
            "buffer" : 0,
            "byteLength" : 240,
            "byteOffset" : 212416
        },
        {
            "buffer" : 0,
            "byteLength" : 240,
            "byteOffset" : 212656
        },
        {
            "buffer" : 0,
            "byteLength" : 320,
            "byteOffset" : 212896
        },
        {
            "buffer" : 0,
            "byteLength" : 240,
            "byteOffset" : 213216
        },
        {
            "buffer" : 0,
            "byteLength" : 240,
            "byteOffset" : 213456
        },
        {
            "buffer" : 0,
            "byteLength" : 320,
            "byteOffset" : 213696
        },
        {
            "buffer" : 0,
            "byteLength" : 240,
            "byteOffset" : 214016
        },
        {
            "buffer" : 0,
            "byteLength" : 240,
            "byteOffset" : 214256
        },
        {
            "buffer" : 0,
            "byteLength" : 320,
            "byteOffset" : 214496
        },
        {
            "buffer" : 0,
            "byteLength" : 240,
            "byteOffset" : 214816
        },
        {
            "buffer" : 0,
            "byteLength" : 336,
            "byteOffset" : 215056
        },
        {
            "buffer" : 0,
            "byteLength" : 448,
            "byteOffset" : 215392
        },
        {
            "buffer" : 0,
            "byteLength" : 336,
            "byteOffset" : 215840
        },
        {
            "buffer" : 0,
            "byteLength" : 336,
            "byteOffset" : 216176
        },
        {
            "buffer" : 0,
            "byteLength" : 448,
            "byteOffset" : 216512
        },
        {
            "buffer" : 0,
            "byteLength" : 336,
            "byteOffset" : 216960
        },
        {
            "buffer" : 0,
            "byteLength" : 336,
            "byteOffset" : 217296
        },
        {
            "buffer" : 0,
            "byteLength" : 448,
            "byteOffset" : 217632
        },
        {
            "buffer" : 0,
            "byteLength" : 336,
            "byteOffset" : 218080
        },
        {
            "buffer" : 0,
            "byteLength" : 336,
            "byteOffset" : 218416
        },
        {
            "buffer" : 0,
            "byteLength" : 448,
            "byteOffset" : 218752
        },
        {
            "buffer" : 0,
            "byteLength" : 336,
            "byteOffset" : 219200
        },
        {
            "buffer" : 0,
            "byteLength" : 336,
            "byteOffset" : 219536
        },
        {
            "buffer" : 0,
            "byteLength" : 448,
            "byteOffset" : 219872
        },
        {
            "buffer" : 0,
            "byteLength" : 336,
            "byteOffset" : 220320
        },
        {
            "buffer" : 0,
            "byteLength" : 336,
            "byteOffset" : 220656
        },
        {
            "buffer" : 0,
            "byteLength" : 448,
            "byteOffset" : 220992
        },
        {
            "buffer" : 0,
            "byteLength" : 336,
            "byteOffset" : 221440
        },
        {
            "buffer" : 0,
            "byteLength" : 336,
            "byteOffset" : 221776
        },
        {
            "buffer" : 0,
            "byteLength" : 448,
            "byteOffset" : 222112
        },
        {
            "buffer" : 0,
            "byteLength" : 336,
            "byteOffset" : 222560
        },
        {
            "buffer" : 0,
            "byteLength" : 336,
            "byteOffset" : 222896
        },
        {
            "buffer" : 0,
            "byteLength" : 448,
            "byteOffset" : 223232
        },
        {
            "buffer" : 0,
            "byteLength" : 336,
            "byteOffset" : 223680
        },
        {
            "buffer" : 0,
            "byteLength" : 336,
            "byteOffset" : 224016
        },
        {
            "buffer" : 0,
            "byteLength" : 448,
            "byteOffset" : 224352
        },
        {
            "buffer" : 0,
            "byteLength" : 336,
            "byteOffset" : 224800
        },
        {
            "buffer" : 0,
            "byteLength" : 64,
            "byteOffset" : 225136
        },
        {
            "buffer" : 0,
            "byteLength" : 192,
            "byteOffset" : 225200
        },
        {
            "buffer" : 0,
            "byteLength" : 256,
            "byteOffset" : 225392
        },
        {
            "buffer" : 0,
            "byteLength" : 192,
            "byteOffset" : 225648
        },
        {
            "buffer" : 0,
            "byteLength" : 192,
            "byteOffset" : 225840
        },
        {
            "buffer" : 0,
            "byteLength" : 256,
            "byteOffset" : 226032
        },
        {
            "buffer" : 0,
            "byteLength" : 192,
            "byteOffset" : 226288
        },
        {
            "buffer" : 0,
            "byteLength" : 192,
            "byteOffset" : 226480
        },
        {
            "buffer" : 0,
            "byteLength" : 256,
            "byteOffset" : 226672
        },
        {
            "buffer" : 0,
            "byteLength" : 192,
            "byteOffset" : 226928
        },
        {
            "buffer" : 0,
            "byteLength" : 192,
            "byteOffset" : 227120
        },
        {
            "buffer" : 0,
            "byteLength" : 256,
            "byteOffset" : 227312
        },
        {
            "buffer" : 0,
            "byteLength" : 192,
            "byteOffset" : 227568
        },
        {
            "buffer" : 0,
            "byteLength" : 192,
            "byteOffset" : 227760
        },
        {
            "buffer" : 0,
            "byteLength" : 256,
            "byteOffset" : 227952
        },
        {
            "buffer" : 0,
            "byteLength" : 192,
            "byteOffset" : 228208
        },
        {
            "buffer" : 0,
            "byteLength" : 192,
            "byteOffset" : 228400
        },
        {
            "buffer" : 0,
            "byteLength" : 256,
            "byteOffset" : 228592
        },
        {
            "buffer" : 0,
            "byteLength" : 192,
            "byteOffset" : 228848
        },
        {
            "buffer" : 0,
            "byteLength" : 192,
            "byteOffset" : 229040
        },
        {
            "buffer" : 0,
            "byteLength" : 256,
            "byteOffset" : 229232
        },
        {
            "buffer" : 0,
            "byteLength" : 192,
            "byteOffset" : 229488
        },
        {
            "buffer" : 0,
            "byteLength" : 192,
            "byteOffset" : 229680
        },
        {
            "buffer" : 0,
            "byteLength" : 256,
            "byteOffset" : 229872
        },
        {
            "buffer" : 0,
            "byteLength" : 192,
            "byteOffset" : 230128
        },
        {
            "buffer" : 0,
            "byteLength" : 192,
            "byteOffset" : 230320
        },
        {
            "buffer" : 0,
            "byteLength" : 256,
            "byteOffset" : 230512
        },
        {
            "buffer" : 0,
            "byteLength" : 192,
            "byteOffset" : 230768
        }
    ],
    "buffers" : [
        {
            "byteLength" : 230960,
            "uri" : "Bee-caff4cb560587c71c784054c41c21c8b.bin"
        }
    ]
}
