{
    "asset" : {
        "generator" : "Khronos glTF Blender I/O v3.2.43",
        "version" : "2.0"
    },
    "scene" : 0,
    "scenes" : [
        {
            "name" : "Scene",
            "nodes" : [
                0
            ]
        }
    ],
    "nodes" : [
        {
            "mesh" : 0,
            "name" : "Bomb"
        }
    ],
    "materials" : [
        {
            "doubleSided" : true,
            "name" : "Black",
            "pbrMetallicRoughness" : {
                "baseColorFactor" : [
                    0.009017317555844784,
                    0.009017317555844784,
                    0.009017317555844784,
                    1
                ],
                "metallicFactor" : 0,
                "roughnessFactor" : 0.5
            }
        },
        {
            "doubleSided" : true,
            "name" : "DarkMetal",
            "pbrMetallicRoughness" : {
                "baseColorFactor" : [
                    0.2956882119178772,
                    0.2956882119178772,
                    0.2956882119178772,
                    1
                ],
                "metallicFactor" : 0,
                "roughnessFactor" : 0.5
            }
        },
        {
            "doubleSided" : true,
            "name" : "White",
            "pbrMetallicRoughness" : {
                "baseColorFactor" : [
                    0.564797043800354,
                    0.5925737619400024,
                    0.5061427354812622,
                    1
                ],
                "metallicFactor" : 0,
                "roughnessFactor" : 0.5
            }
        }
    ],
    "meshes" : [
        {
            "name" : "Sphere.003",
            "primitives" : [
                {
                    "attributes" : {
                        "POSITION" : 0,
                        "NORMAL" : 1
                    },
                    "indices" : 2,
                    "material" : 0
                },
                {
                    "attributes" : {
                        "POSITION" : 3,
                        "NORMAL" : 4
                    },
                    "indices" : 5,
                    "material" : 1
                },
                {
                    "attributes" : {
                        "POSITION" : 6,
                        "NORMAL" : 7
                    },
                    "indices" : 8,
                    "material" : 2
                }
            ]
        }
    ],
    "accessors" : [
        {
            "bufferView" : 0,
            "componentType" : 5126,
            "count" : 191,
            "max" : [
                0.5626873970031738,
                0.5473159551620483,
                0.5569151639938354
            ],
            "min" : [
                -0.5626873970031738,
                -0.5704220533370972,
                -0.5646159648895264
            ],
            "type" : "VEC3"
        },
        {
            "bufferView" : 1,
            "componentType" : 5126,
            "count" : 191,
            "type" : "VEC3"
        },
        {
            "bufferView" : 2,
            "componentType" : 5123,
            "count" : 1083,
            "type" : "SCALAR"
        },
        {
            "bufferView" : 3,
            "componentType" : 5126,
            "count" : 96,
            "max" : [
                0.1601574867963791,
                0.6924378275871277,
                0.15851445496082306
            ],
            "min" : [
                -0.1601574718952179,
                0.5473159551620483,
                -0.16070644557476044
            ],
            "type" : "VEC3"
        },
        {
            "bufferView" : 4,
            "componentType" : 5126,
            "count" : 96,
            "type" : "VEC3"
        },
        {
            "bufferView" : 5,
            "componentType" : 5123,
            "count" : 285,
            "type" : "SCALAR"
        },
        {
            "bufferView" : 6,
            "componentType" : 5126,
            "count" : 409,
            "max" : [
                0.2990911602973938,
                1.182244062423706,
                0.5676908493041992
            ],
            "min" : [
                -0.38244983553886414,
                -0.27162063121795654,
                -0.07431061565876007
            ],
            "type" : "VEC3"
        },
        {
            "bufferView" : 7,
            "componentType" : 5126,
            "count" : 409,
            "type" : "VEC3"
        },
        {
            "bufferView" : 8,
            "componentType" : 5123,
            "count" : 1170,
            "type" : "SCALAR"
        }
    ],
    "bufferViews" : [
        {
            "buffer" : 0,
            "byteLength" : 2292,
            "byteOffset" : 0
        },
        {
            "buffer" : 0,
            "byteLength" : 2292,
            "byteOffset" : 2292
        },
        {
            "buffer" : 0,
            "byteLength" : 2166,
            "byteOffset" : 4584
        },
        {
            "buffer" : 0,
            "byteLength" : 1152,
            "byteOffset" : 6752
        },
        {
            "buffer" : 0,
            "byteLength" : 1152,
            "byteOffset" : 7904
        },
        {
            "buffer" : 0,
            "byteLength" : 570,
            "byteOffset" : 9056
        },
        {
            "buffer" : 0,
            "byteLength" : 4908,
            "byteOffset" : 9628
        },
        {
            "buffer" : 0,
            "byteLength" : 4908,
            "byteOffset" : 14536
        },
        {
            "buffer" : 0,
            "byteLength" : 2340,
            "byteOffset" : 19444
        }
    ],
    "buffers" : [
        {
            "byteLength" : 21784,
            "uri" : "Bomb-8f699db432c9c0d54db0fffeff5b6324.bin"
        }
    ]
}
