{
    "asset" : {
        "generator" : "Khronos glTF Blender I/O v3.2.43",
        "version" : "2.0"
    },
    "scene" : 0,
    "scenes" : [
        {
            "name" : "Scene",
            "nodes" : [
                0
            ]
        }
    ],
    "nodes" : [
        {
            "mesh" : 0,
            "name" : "Bonfire",
            "scale" : [
                1.9894319772720337,
                1.9894319772720337,
                1.9894319772720337
            ]
        }
    ],
    "materials" : [
        {
            "doubleSided" : true,
            "name" : "Wood",
            "pbrMetallicRoughness" : {
                "baseColorFactor" : [
                    0.15291856229305267,
                    0.08545827120542526,
                    0.06601198762655258,
                    1
                ],
                "metallicFactor" : 0,
                "roughnessFactor" : 0.5
            }
        },
        {
            "doubleSided" : true,
            "name" : "LightWood",
            "pbrMetallicRoughness" : {
                "baseColorFactor" : [
                    0.18446369469165802,
                    0.10423383861780167,
                    0.08693070709705353,
                    1
                ],
                "metallicFactor" : 0,
                "roughnessFactor" : 0.5
            }
        }
    ],
    "meshes" : [
        {
            "name" : "Cylinder.002",
            "primitives" : [
                {
                    "attributes" : {
                        "POSITION" : 0,
                        "NORMAL" : 1
                    },
                    "indices" : 2,
                    "material" : 0
                },
                {
                    "attributes" : {
                        "POSITION" : 3,
                        "NORMAL" : 4
                    },
                    "indices" : 5,
                    "material" : 1
                }
            ]
        }
    ],
    "accessors" : [
        {
            "bufferView" : 0,
            "componentType" : 5126,
            "count" : 1114,
            "max" : [
                0.5434694886207581,
                0.32681331038475037,
                0.44744959473609924
            ],
            "min" : [
                -0.5501038432121277,
                -0.01280958205461502,
                -0.5498749613761902
            ],
            "type" : "VEC3"
        },
        {
            "bufferView" : 1,
            "componentType" : 5126,
            "count" : 1114,
            "type" : "VEC3"
        },
        {
            "bufferView" : 2,
            "componentType" : 5123,
            "count" : 1638,
            "type" : "SCALAR"
        },
        {
            "bufferView" : 3,
            "componentType" : 5126,
            "count" : 106,
            "max" : [
                0.4994354844093323,
                0.2880270779132843,
                0.40982890129089355
            ],
            "min" : [
                -0.5133153200149536,
                0.032625675201416016,
                -0.5150278210639954
            ],
            "type" : "VEC3"
        },
        {
            "bufferView" : 4,
            "componentType" : 5126,
            "count" : 106,
            "type" : "VEC3"
        },
        {
            "bufferView" : 5,
            "componentType" : 5123,
            "count" : 210,
            "type" : "SCALAR"
        }
    ],
    "bufferViews" : [
        {
            "buffer" : 0,
            "byteLength" : 13368,
            "byteOffset" : 0
        },
        {
            "buffer" : 0,
            "byteLength" : 13368,
            "byteOffset" : 13368
        },
        {
            "buffer" : 0,
            "byteLength" : 3276,
            "byteOffset" : 26736
        },
        {
            "buffer" : 0,
            "byteLength" : 1272,
            "byteOffset" : 30012
        },
        {
            "buffer" : 0,
            "byteLength" : 1272,
            "byteOffset" : 31284
        },
        {
            "buffer" : 0,
            "byteLength" : 420,
            "byteOffset" : 32556
        }
    ],
    "buffers" : [
        {
            "byteLength" : 32976,
            "uri" : "Bonfire-49d4c17a42cbea16d4d0a66316180764.bin"
        }
    ]
}
