{
    "asset" : {
        "generator" : "Khronos glTF Blender I/O v3.2.43",
        "version" : "2.0"
    },
    "scene" : 0,
    "scenes" : [
        {
            "name" : "Scene",
            "nodes" : [
                0
            ]
        }
    ],
    "nodes" : [
        {
            "mesh" : 0,
            "name" : "Bonfire_Fire",
            "scale" : [
                1.9894319772720337,
                1.9894319772720337,
                1.9894319772720337
            ]
        }
    ],
    "materials" : [
        {
            "doubleSided" : true,
            "name" : "Wood",
            "pbrMetallicRoughness" : {
                "baseColorFactor" : [
                    0.15291856229305267,
                    0.08545827120542526,
                    0.06601198762655258,
                    1
                ],
                "metallicFactor" : 0,
                "roughnessFactor" : 0.5
            }
        },
        {
            "doubleSided" : true,
            "name" : "LightWood",
            "pbrMetallicRoughness" : {
                "baseColorFactor" : [
                    0.18446369469165802,
                    0.10423383861780167,
                    0.08693070709705353,
                    1
                ],
                "metallicFactor" : 0,
                "roughnessFactor" : 0.5
            }
        },
        {
            "doubleSided" : true,
            "name" : "Fire",
            "pbrMetallicRoughness" : {
                "baseColorFactor" : [
                    0.486893892288208,
                    0.1251717507839203,
                    0.01963304728269577,
                    1
                ],
                "metallicFactor" : 0,
                "roughnessFactor" : 0.5
            }
        }
    ],
    "meshes" : [
        {
            "name" : "Cylinder.009",
            "primitives" : [
                {
                    "attributes" : {
                        "POSITION" : 0,
                        "NORMAL" : 1
                    },
                    "indices" : 2,
                    "material" : 0
                },
                {
                    "attributes" : {
                        "POSITION" : 3,
                        "NORMAL" : 4
                    },
                    "indices" : 5,
                    "material" : 1
                },
                {
                    "attributes" : {
                        "POSITION" : 6,
                        "NORMAL" : 7
                    },
                    "indices" : 8,
                    "material" : 2
                }
            ]
        }
    ],
    "accessors" : [
        {
            "bufferView" : 0,
            "componentType" : 5126,
            "count" : 1114,
            "max" : [
                0.5872793793678284,
                0.309759259223938,
                0.4922943413257599
            ],
            "min" : [
                -0.5062939524650574,
                -0.029863636940717697,
                -0.5050302147865295
            ],
            "type" : "VEC3"
        },
        {
            "bufferView" : 1,
            "componentType" : 5126,
            "count" : 1114,
            "type" : "VEC3"
        },
        {
            "bufferView" : 2,
            "componentType" : 5123,
            "count" : 1638,
            "type" : "SCALAR"
        },
        {
            "bufferView" : 3,
            "componentType" : 5126,
            "count" : 106,
            "max" : [
                0.5432453751564026,
                0.2709730267524719,
                0.4546736478805542
            ],
            "min" : [
                -0.4695054590702057,
                0.015571619383990765,
                -0.4701830744743347
            ],
            "type" : "VEC3"
        },
        {
            "bufferView" : 4,
            "componentType" : 5126,
            "count" : 106,
            "type" : "VEC3"
        },
        {
            "bufferView" : 5,
            "componentType" : 5123,
            "count" : 210,
            "type" : "SCALAR"
        },
        {
            "bufferView" : 6,
            "componentType" : 5126,
            "count" : 264,
            "max" : [
                0.3684634268283844,
                1.1319113969802856,
                0.25601598620414734
            ],
            "min" : [
                -0.3380119502544403,
                -0.006951832678169012,
                -0.31405743956565857
            ],
            "type" : "VEC3"
        },
        {
            "bufferView" : 7,
            "componentType" : 5126,
            "count" : 264,
            "type" : "VEC3"
        },
        {
            "bufferView" : 8,
            "componentType" : 5123,
            "count" : 264,
            "type" : "SCALAR"
        }
    ],
    "bufferViews" : [
        {
            "buffer" : 0,
            "byteLength" : 13368,
            "byteOffset" : 0
        },
        {
            "buffer" : 0,
            "byteLength" : 13368,
            "byteOffset" : 13368
        },
        {
            "buffer" : 0,
            "byteLength" : 3276,
            "byteOffset" : 26736
        },
        {
            "buffer" : 0,
            "byteLength" : 1272,
            "byteOffset" : 30012
        },
        {
            "buffer" : 0,
            "byteLength" : 1272,
            "byteOffset" : 31284
        },
        {
            "buffer" : 0,
            "byteLength" : 420,
            "byteOffset" : 32556
        },
        {
            "buffer" : 0,
            "byteLength" : 3168,
            "byteOffset" : 32976
        },
        {
            "buffer" : 0,
            "byteLength" : 3168,
            "byteOffset" : 36144
        },
        {
            "buffer" : 0,
            "byteLength" : 528,
            "byteOffset" : 39312
        }
    ],
    "buffers" : [
        {
            "byteLength" : 39840,
            "uri" : "Bonfire_Fire-0e542cf4bd71480169612b159ef2483f.bin"
        }
    ]
}
