{
    "asset" : {
        "generator" : "Khronos glTF Blender I/O v3.2.43",
        "version" : "2.0"
    },
    "scene" : 0,
    "scenes" : [
        {
            "name" : "Scene",
            "nodes" : [
                3
            ]
        }
    ],
    "nodes" : [
        {
            "name" : "Top",
            "translation" : [
                0,
                0.9693628549575806,
                0
            ]
        },
        {
            "children" : [
                0
            ],
            "name" : "Root"
        },
        {
            "mesh" : 0,
            "name" : "Bouncer",
            "skin" : 0
        },
        {
            "children" : [
                2,
                1
            ],
            "name" : "BouncerArmature"
        }
    ],
    "animations" : [
        {
            "channels" : [
                {
                    "sampler" : 0,
                    "target" : {
                        "node" : 1,
                        "path" : "translation"
                    }
                },
                {
                    "sampler" : 1,
                    "target" : {
                        "node" : 1,
                        "path" : "rotation"
                    }
                },
                {
                    "sampler" : 2,
                    "target" : {
                        "node" : 1,
                        "path" : "scale"
                    }
                },
                {
                    "sampler" : 3,
                    "target" : {
                        "node" : 0,
                        "path" : "translation"
                    }
                },
                {
                    "sampler" : 4,
                    "target" : {
                        "node" : 0,
                        "path" : "rotation"
                    }
                },
                {
                    "sampler" : 5,
                    "target" : {
                        "node" : 0,
                        "path" : "scale"
                    }
                }
            ],
            "name" : "Bouncer_Bounce",
            "samplers" : [
                {
                    "input" : 11,
                    "interpolation" : "LINEAR",
                    "output" : 12
                },
                {
                    "input" : 11,
                    "interpolation" : "LINEAR",
                    "output" : 13
                },
                {
                    "input" : 11,
                    "interpolation" : "LINEAR",
                    "output" : 14
                },
                {
                    "input" : 11,
                    "interpolation" : "LINEAR",
                    "output" : 15
                },
                {
                    "input" : 11,
                    "interpolation" : "LINEAR",
                    "output" : 16
                },
                {
                    "input" : 11,
                    "interpolation" : "LINEAR",
                    "output" : 17
                }
            ]
        },
        {
            "channels" : [
                {
                    "sampler" : 0,
                    "target" : {
                        "node" : 1,
                        "path" : "translation"
                    }
                },
                {
                    "sampler" : 1,
                    "target" : {
                        "node" : 1,
                        "path" : "rotation"
                    }
                },
                {
                    "sampler" : 2,
                    "target" : {
                        "node" : 1,
                        "path" : "scale"
                    }
                },
                {
                    "sampler" : 3,
                    "target" : {
                        "node" : 0,
                        "path" : "translation"
                    }
                },
                {
                    "sampler" : 4,
                    "target" : {
                        "node" : 0,
                        "path" : "rotation"
                    }
                },
                {
                    "sampler" : 5,
                    "target" : {
                        "node" : 0,
                        "path" : "scale"
                    }
                }
            ],
            "name" : "Bouncer_Idle",
            "samplers" : [
                {
                    "input" : 18,
                    "interpolation" : "LINEAR",
                    "output" : 19
                },
                {
                    "input" : 18,
                    "interpolation" : "LINEAR",
                    "output" : 20
                },
                {
                    "input" : 18,
                    "interpolation" : "LINEAR",
                    "output" : 21
                },
                {
                    "input" : 18,
                    "interpolation" : "LINEAR",
                    "output" : 22
                },
                {
                    "input" : 18,
                    "interpolation" : "LINEAR",
                    "output" : 23
                },
                {
                    "input" : 18,
                    "interpolation" : "LINEAR",
                    "output" : 24
                }
            ]
        }
    ],
    "materials" : [
        {
            "doubleSided" : true,
            "name" : "Metal",
            "pbrMetallicRoughness" : {
                "baseColorFactor" : [
                    0.17885860800743103,
                    0.17885860800743103,
                    0.17885860800743103,
                    1
                ],
                "metallicFactor" : 0,
                "roughnessFactor" : 0.5
            }
        },
        {
            "doubleSided" : true,
            "name" : "Red",
            "pbrMetallicRoughness" : {
                "baseColorFactor" : [
                    0.27382758259773254,
                    0.05226309597492218,
                    0.04941003397107124,
                    1
                ],
                "metallicFactor" : 0,
                "roughnessFactor" : 0.5
            }
        }
    ],
    "meshes" : [
        {
            "name" : "Plane",
            "primitives" : [
                {
                    "attributes" : {
                        "POSITION" : 0,
                        "NORMAL" : 1,
                        "JOINTS_0" : 2,
                        "WEIGHTS_0" : 3
                    },
                    "indices" : 4,
                    "material" : 0
                },
                {
                    "attributes" : {
                        "POSITION" : 5,
                        "NORMAL" : 6,
                        "JOINTS_0" : 7,
                        "WEIGHTS_0" : 8
                    },
                    "indices" : 9,
                    "material" : 1
                }
            ]
        }
    ],
    "skins" : [
        {
            "inverseBindMatrices" : 10,
            "joints" : [
                1,
                0
            ],
            "name" : "BouncerArmature"
        }
    ],
    "accessors" : [
        {
            "bufferView" : 0,
            "componentType" : 5126,
            "count" : 400,
            "max" : [
                1,
                1.8325848579406738,
                1
            ],
            "min" : [
                -1,
                -0.003379056928679347,
                -1
            ],
            "type" : "VEC3"
        },
        {
            "bufferView" : 1,
            "componentType" : 5126,
            "count" : 400,
            "type" : "VEC3"
        },
        {
            "bufferView" : 2,
            "componentType" : 5121,
            "count" : 400,
            "type" : "VEC4"
        },
        {
            "bufferView" : 3,
            "componentType" : 5126,
            "count" : 400,
            "type" : "VEC4"
        },
        {
            "bufferView" : 4,
            "componentType" : 5123,
            "count" : 1164,
            "type" : "SCALAR"
        },
        {
            "bufferView" : 5,
            "componentType" : 5126,
            "count" : 128,
            "max" : [
                1.1039230823516846,
                1.9324253797531128,
                1.1039230823516846
            ],
            "min" : [
                -1.1039230823516846,
                1.2932674884796143,
                -1.1039230823516846
            ],
            "type" : "VEC3"
        },
        {
            "bufferView" : 6,
            "componentType" : 5126,
            "count" : 128,
            "type" : "VEC3"
        },
        {
            "bufferView" : 7,
            "componentType" : 5121,
            "count" : 128,
            "type" : "VEC4"
        },
        {
            "bufferView" : 8,
            "componentType" : 5126,
            "count" : 128,
            "type" : "VEC4"
        },
        {
            "bufferView" : 9,
            "componentType" : 5123,
            "count" : 372,
            "type" : "SCALAR"
        },
        {
            "bufferView" : 10,
            "componentType" : 5126,
            "count" : 2,
            "type" : "MAT4"
        },
        {
            "bufferView" : 11,
            "componentType" : 5126,
            "count" : 24,
            "max" : [
                0.9583333333333334
            ],
            "min" : [
                0
            ],
            "type" : "SCALAR"
        },
        {
            "bufferView" : 12,
            "componentType" : 5126,
            "count" : 24,
            "type" : "VEC3"
        },
        {
            "bufferView" : 13,
            "componentType" : 5126,
            "count" : 24,
            "type" : "VEC4"
        },
        {
            "bufferView" : 14,
            "componentType" : 5126,
            "count" : 24,
            "type" : "VEC3"
        },
        {
            "bufferView" : 15,
            "componentType" : 5126,
            "count" : 24,
            "type" : "VEC3"
        },
        {
            "bufferView" : 16,
            "componentType" : 5126,
            "count" : 24,
            "type" : "VEC4"
        },
        {
            "bufferView" : 17,
            "componentType" : 5126,
            "count" : 24,
            "type" : "VEC3"
        },
        {
            "bufferView" : 18,
            "componentType" : 5126,
            "count" : 31,
            "max" : [
                1.25
            ],
            "min" : [
                0
            ],
            "type" : "SCALAR"
        },
        {
            "bufferView" : 19,
            "componentType" : 5126,
            "count" : 31,
            "type" : "VEC3"
        },
        {
            "bufferView" : 20,
            "componentType" : 5126,
            "count" : 31,
            "type" : "VEC4"
        },
        {
            "bufferView" : 21,
            "componentType" : 5126,
            "count" : 31,
            "type" : "VEC3"
        },
        {
            "bufferView" : 22,
            "componentType" : 5126,
            "count" : 31,
            "type" : "VEC3"
        },
        {
            "bufferView" : 23,
            "componentType" : 5126,
            "count" : 31,
            "type" : "VEC4"
        },
        {
            "bufferView" : 24,
            "componentType" : 5126,
            "count" : 31,
            "type" : "VEC3"
        }
    ],
    "bufferViews" : [
        {
            "buffer" : 0,
            "byteLength" : 4800,
            "byteOffset" : 0
        },
        {
            "buffer" : 0,
            "byteLength" : 4800,
            "byteOffset" : 4800
        },
        {
            "buffer" : 0,
            "byteLength" : 1600,
            "byteOffset" : 9600
        },
        {
            "buffer" : 0,
            "byteLength" : 6400,
            "byteOffset" : 11200
        },
        {
            "buffer" : 0,
            "byteLength" : 2328,
            "byteOffset" : 17600
        },
        {
            "buffer" : 0,
            "byteLength" : 1536,
            "byteOffset" : 19928
        },
        {
            "buffer" : 0,
            "byteLength" : 1536,
            "byteOffset" : 21464
        },
        {
            "buffer" : 0,
            "byteLength" : 512,
            "byteOffset" : 23000
        },
        {
            "buffer" : 0,
            "byteLength" : 2048,
            "byteOffset" : 23512
        },
        {
            "buffer" : 0,
            "byteLength" : 744,
            "byteOffset" : 25560
        },
        {
            "buffer" : 0,
            "byteLength" : 128,
            "byteOffset" : 26304
        },
        {
            "buffer" : 0,
            "byteLength" : 96,
            "byteOffset" : 26432
        },
        {
            "buffer" : 0,
            "byteLength" : 288,
            "byteOffset" : 26528
        },
        {
            "buffer" : 0,
            "byteLength" : 384,
            "byteOffset" : 26816
        },
        {
            "buffer" : 0,
            "byteLength" : 288,
            "byteOffset" : 27200
        },
        {
            "buffer" : 0,
            "byteLength" : 288,
            "byteOffset" : 27488
        },
        {
            "buffer" : 0,
            "byteLength" : 384,
            "byteOffset" : 27776
        },
        {
            "buffer" : 0,
            "byteLength" : 288,
            "byteOffset" : 28160
        },
        {
            "buffer" : 0,
            "byteLength" : 124,
            "byteOffset" : 28448
        },
        {
            "buffer" : 0,
            "byteLength" : 372,
            "byteOffset" : 28572
        },
        {
            "buffer" : 0,
            "byteLength" : 496,
            "byteOffset" : 28944
        },
        {
            "buffer" : 0,
            "byteLength" : 372,
            "byteOffset" : 29440
        },
        {
            "buffer" : 0,
            "byteLength" : 372,
            "byteOffset" : 29812
        },
        {
            "buffer" : 0,
            "byteLength" : 496,
            "byteOffset" : 30184
        },
        {
            "buffer" : 0,
            "byteLength" : 372,
            "byteOffset" : 30680
        }
    ],
    "buffers" : [
        {
            "byteLength" : 31052,
            "uri" : "Bouncer-db2a301366875d0fdd1ad323549f9520.bin"
        }
    ]
}
