{
    "asset" : {
        "generator" : "Khronos glTF Blender I/O v3.2.43",
        "version" : "2.0"
    },
    "scene" : 0,
    "scenes" : [
        {
            "name" : "Scene",
            "nodes" : [
                0
            ]
        }
    ],
    "nodes" : [
        {
            "mesh" : 0,
            "name" : "Bridge_Small"
        }
    ],
    "materials" : [
        {
            "doubleSided" : true,
            "name" : "Wood",
            "pbrMetallicRoughness" : {
                "baseColorFactor" : [
                    0.3757452964782715,
                    0.20292167365550995,
                    0.0587104856967926,
                    1
                ],
                "metallicFactor" : 0,
                "roughnessFactor" : 0.5
            }
        }
    ],
    "meshes" : [
        {
            "name" : "Cube.273",
            "primitives" : [
                {
                    "attributes" : {
                        "POSITION" : 0,
                        "NORMAL" : 1
                    },
                    "indices" : 2,
                    "material" : 0
                }
            ]
        }
    ],
    "accessors" : [
        {
            "bufferView" : 0,
            "componentType" : 5126,
            "count" : 2242,
            "max" : [
                3.4690394401550293,
                2.3419618606567383,
                1.3884141445159912
            ],
            "min" : [
                -3.4690394401550293,
                -0.275518536567688,
                -1.249220848083496
            ],
            "type" : "VEC3"
        },
        {
            "bufferView" : 1,
            "componentType" : 5126,
            "count" : 2242,
            "type" : "VEC3"
        },
        {
            "bufferView" : 2,
            "componentType" : 5123,
            "count" : 8640,
            "type" : "SCALAR"
        }
    ],
    "bufferViews" : [
        {
            "buffer" : 0,
            "byteLength" : 26904,
            "byteOffset" : 0
        },
        {
            "buffer" : 0,
            "byteLength" : 26904,
            "byteOffset" : 26904
        },
        {
            "buffer" : 0,
            "byteLength" : 17280,
            "byteOffset" : 53808
        }
    ],
    "buffers" : [
        {
            "byteLength" : 71088,
            "uri" : "Bridge_Small-708ff8996a71690638915ac986e94954.bin"
        }
    ]
}
