{
    "asset" : {
        "generator" : "Khronos glTF Blender I/O v3.2.43",
        "version" : "2.0"
    },
    "scene" : 0,
    "scenes" : [
        {
            "name" : "Scene",
            "nodes" : [
                0
            ]
        }
    ],
    "nodes" : [
        {
            "mesh" : 0,
            "name" : "Bridge_Modular"
        }
    ],
    "materials" : [
        {
            "doubleSided" : true,
            "name" : "Wood",
            "pbrMetallicRoughness" : {
                "baseColorFactor" : [
                    0.3757452964782715,
                    0.20292167365550995,
                    0.0587104856967926,
                    1
                ],
                "metallicFactor" : 0,
                "roughnessFactor" : 0.5
            }
        }
    ],
    "meshes" : [
        {
            "name" : "Cube.051",
            "primitives" : [
                {
                    "attributes" : {
                        "POSITION" : 0,
                        "NORMAL" : 1
                    },
                    "indices" : 2,
                    "material" : 0
                }
            ]
        }
    ],
    "accessors" : [
        {
            "bufferView" : 0,
            "componentType" : 5126,
            "count" : 1172,
            "max" : [
                1.5,
                1.7792459726333618,
                1.1800193786621094
            ],
            "min" : [
                -1.4483520984649658,
                -0.23416464030742645,
                -1.0617183446884155
            ],
            "type" : "VEC3"
        },
        {
            "bufferView" : 1,
            "componentType" : 5126,
            "count" : 1172,
            "type" : "VEC3"
        },
        {
            "bufferView" : 2,
            "componentType" : 5123,
            "count" : 4404,
            "type" : "SCALAR"
        }
    ],
    "bufferViews" : [
        {
            "buffer" : 0,
            "byteLength" : 14064,
            "byteOffset" : 0
        },
        {
            "buffer" : 0,
            "byteLength" : 14064,
            "byteOffset" : 14064
        },
        {
            "buffer" : 0,
            "byteLength" : 8808,
            "byteOffset" : 28128
        }
    ],
    "buffers" : [
        {
            "byteLength" : 36936,
            "uri" : "Bridge_Modular-0ac8045b29e1d3cd90a6a2ce1288e388.bin"
        }
    ]
}
