{
    "asset" : {
        "generator" : "Khronos glTF Blender I/O v3.2.43",
        "version" : "2.0"
    },
    "scene" : 0,
    "scenes" : [
        {
            "name" : "Scene",
            "nodes" : [
                0
            ]
        }
    ],
    "nodes" : [
        {
            "mesh" : 0,
            "name" : "Bridge_Modular_Center"
        }
    ],
    "materials" : [
        {
            "doubleSided" : true,
            "name" : "Wood",
            "pbrMetallicRoughness" : {
                "baseColorFactor" : [
                    0.3757452964782715,
                    0.20292167365550995,
                    0.0587104856967926,
                    1
                ],
                "metallicFactor" : 0,
                "roughnessFactor" : 0.5
            }
        }
    ],
    "meshes" : [
        {
            "name" : "Cube.054",
            "primitives" : [
                {
                    "attributes" : {
                        "POSITION" : 0,
                        "NORMAL" : 1
                    },
                    "indices" : 2,
                    "material" : 0
                }
            ]
        }
    ],
    "accessors" : [
        {
            "bufferView" : 0,
            "componentType" : 5126,
            "count" : 762,
            "max" : [
                1.499999761581421,
                1.9904439449310303,
                1.2198374271392822
            ],
            "min" : [
                -1.5,
                -0.09484916925430298,
                -1.0863648653030396
            ],
            "type" : "VEC3"
        },
        {
            "bufferView" : 1,
            "componentType" : 5126,
            "count" : 762,
            "type" : "VEC3"
        },
        {
            "bufferView" : 2,
            "componentType" : 5123,
            "count" : 2484,
            "type" : "SCALAR"
        }
    ],
    "bufferViews" : [
        {
            "buffer" : 0,
            "byteLength" : 9144,
            "byteOffset" : 0
        },
        {
            "buffer" : 0,
            "byteLength" : 9144,
            "byteOffset" : 9144
        },
        {
            "buffer" : 0,
            "byteLength" : 4968,
            "byteOffset" : 18288
        }
    ],
    "buffers" : [
        {
            "byteLength" : 23256,
            "uri" : "Bridge_Modular_Center-10879b04e9237b6b8637acd1a8c9b22b.bin"
        }
    ]
}
