{
    "asset" : {
        "generator" : "Khronos glTF Blender I/O v3.2.43",
        "version" : "2.0"
    },
    "scene" : 0,
    "scenes" : [
        {
            "name" : "Scene",
            "nodes" : [
                0
            ]
        }
    ],
    "nodes" : [
        {
            "mesh" : 0,
            "name" : "Bush_Fruit"
        }
    ],
    "materials" : [
        {
            "doubleSided" : true,
            "name" : "Green",
            "pbrMetallicRoughness" : {
                "baseColorFactor" : [
                    0.07173354178667068,
                    0.1523226648569107,
                    0.06315358728170395,
                    1
                ],
                "metallicFactor" : 0,
                "roughnessFactor" : 0.5
            }
        },
        {
            "doubleSided" : true,
            "name" : "Red",
            "pbrMetallicRoughness" : {
                "baseColorFactor" : [
                    0.27382758259773254,
                    0.05226309597492218,
                    0.04941003397107124,
                    1
                ],
                "metallicFactor" : 0,
                "roughnessFactor" : 0.5
            }
        }
    ],
    "meshes" : [
        {
            "name" : "Cube.074",
            "primitives" : [
                {
                    "attributes" : {
                        "POSITION" : 0,
                        "NORMAL" : 1
                    },
                    "indices" : 2,
                    "material" : 0
                },
                {
                    "attributes" : {
                        "POSITION" : 3,
                        "NORMAL" : 4
                    },
                    "indices" : 5,
                    "material" : 1
                }
            ]
        }
    ],
    "accessors" : [
        {
            "bufferView" : 0,
            "componentType" : 5126,
            "count" : 937,
            "max" : [
                1.7619287967681885,
                2.2629294395446777,
                1.7643771171569824
            ],
            "min" : [
                -1.7619287967681885,
                0.028228526934981346,
                -1.7643771171569824
            ],
            "type" : "VEC3"
        },
        {
            "bufferView" : 1,
            "componentType" : 5126,
            "count" : 937,
            "type" : "VEC3"
        },
        {
            "bufferView" : 2,
            "componentType" : 5123,
            "count" : 3888,
            "type" : "SCALAR"
        },
        {
            "bufferView" : 3,
            "componentType" : 5126,
            "count" : 208,
            "max" : [
                1.714888334274292,
                1.2364062070846558,
                1.7148884534835815
            ],
            "min" : [
                -1.7148882150650024,
                0.4812084138393402,
                -1.7148882150650024
            ],
            "type" : "VEC3"
        },
        {
            "bufferView" : 4,
            "componentType" : 5126,
            "count" : 208,
            "type" : "VEC3"
        },
        {
            "bufferView" : 5,
            "componentType" : 5123,
            "count" : 1152,
            "type" : "SCALAR"
        }
    ],
    "bufferViews" : [
        {
            "buffer" : 0,
            "byteLength" : 11244,
            "byteOffset" : 0
        },
        {
            "buffer" : 0,
            "byteLength" : 11244,
            "byteOffset" : 11244
        },
        {
            "buffer" : 0,
            "byteLength" : 7776,
            "byteOffset" : 22488
        },
        {
            "buffer" : 0,
            "byteLength" : 2496,
            "byteOffset" : 30264
        },
        {
            "buffer" : 0,
            "byteLength" : 2496,
            "byteOffset" : 32760
        },
        {
            "buffer" : 0,
            "byteLength" : 2304,
            "byteOffset" : 35256
        }
    ],
    "buffers" : [
        {
            "byteLength" : 37560,
            "uri" : "Bush_Fruit-e9e0af92f43137c1b4f6bbc33636d7d6.bin"
        }
    ]
}
