{
    "asset" : {
        "generator" : "Khronos glTF Blender I/O v3.2.43",
        "version" : "2.0"
    },
    "scene" : 0,
    "scenes" : [
        {
            "name" : "Scene",
            "nodes" : [
                0
            ]
        }
    ],
    "nodes" : [
        {
            "mesh" : 0,
            "name" : "Bush"
        }
    ],
    "materials" : [
        {
            "doubleSided" : true,
            "name" : "Green",
            "pbrMetallicRoughness" : {
                "baseColorFactor" : [
                    0.07173354178667068,
                    0.1523226648569107,
                    0.06315358728170395,
                    1
                ],
                "metallicFactor" : 0,
                "roughnessFactor" : 0.5
            }
        }
    ],
    "meshes" : [
        {
            "name" : "Cube.161",
            "primitives" : [
                {
                    "attributes" : {
                        "POSITION" : 0,
                        "NORMAL" : 1
                    },
                    "indices" : 2,
                    "material" : 0
                }
            ]
        }
    ],
    "accessors" : [
        {
            "bufferView" : 0,
            "componentType" : 5126,
            "count" : 1097,
            "max" : [
                1.7619287967681885,
                2.2629294395446777,
                1.7643771171569824
            ],
            "min" : [
                -1.7619287967681885,
                0.028228526934981346,
                -1.7643771171569824
            ],
            "type" : "VEC3"
        },
        {
            "bufferView" : 1,
            "componentType" : 5126,
            "count" : 1097,
            "type" : "VEC3"
        },
        {
            "bufferView" : 2,
            "componentType" : 5123,
            "count" : 3888,
            "type" : "SCALAR"
        }
    ],
    "bufferViews" : [
        {
            "buffer" : 0,
            "byteLength" : 13164,
            "byteOffset" : 0
        },
        {
            "buffer" : 0,
            "byteLength" : 13164,
            "byteOffset" : 13164
        },
        {
            "buffer" : 0,
            "byteLength" : 7776,
            "byteOffset" : 26328
        }
    ],
    "buffers" : [
        {
            "byteLength" : 34104,
            "uri" : "Bush-dd4977ea96d8feaa8b1d5c1cececadb9.bin"
        }
    ]
}
