{
    "asset" : {
        "generator" : "Khronos glTF Blender I/O v3.2.43",
        "version" : "2.0"
    },
    "scene" : 0,
    "scenes" : [
        {
            "name" : "Scene",
            "nodes" : [
                0
            ]
        }
    ],
    "nodes" : [
        {
            "mesh" : 0,
            "name" : "Can_Red"
        }
    ],
    "materials" : [
        {
            "doubleSided" : true,
            "name" : "LightGrey",
            "pbrMetallicRoughness" : {
                "baseColorFactor" : [
                    0.37574493885040283,
                    0.37574493885040283,
                    0.37574493885040283,
                    1
                ],
                "metallicFactor" : 0,
                "roughnessFactor" : 0.5
            }
        },
        {
            "doubleSided" : true,
            "name" : "Grey",
            "pbrMetallicRoughness" : {
                "baseColorFactor" : [
                    0.14239658415317535,
                    0.14239658415317535,
                    0.14239658415317535,
                    1
                ],
                "metallicFactor" : 0,
                "roughnessFactor" : 0.5
            }
        },
        {
            "doubleSided" : true,
            "name" : "Red",
            "pbrMetallicRoughness" : {
                "baseColorFactor" : [
                    0.21402914822101593,
                    0.039549391716718674,
                    0.03738441318273544,
                    1
                ],
                "metallicFactor" : 0,
                "roughnessFactor" : 0.5
            }
        }
    ],
    "meshes" : [
        {
            "name" : "Cylinder.016",
            "primitives" : [
                {
                    "attributes" : {
                        "POSITION" : 0,
                        "NORMAL" : 1
                    },
                    "indices" : 2,
                    "material" : 0
                },
                {
                    "attributes" : {
                        "POSITION" : 3,
                        "NORMAL" : 4
                    },
                    "indices" : 5,
                    "material" : 1
                },
                {
                    "attributes" : {
                        "POSITION" : 6,
                        "NORMAL" : 7
                    },
                    "indices" : 8,
                    "material" : 2
                }
            ]
        }
    ],
    "accessors" : [
        {
            "bufferView" : 0,
            "componentType" : 5126,
            "count" : 240,
            "max" : [
                0.22717607021331787,
                0.6135700941085815,
                0.22717617452144623
            ],
            "min" : [
                -0.22717607021331787,
                0.08093902468681335,
                -0.22717596590518951
            ],
            "type" : "VEC3"
        },
        {
            "bufferView" : 1,
            "componentType" : 5126,
            "count" : 240,
            "type" : "VEC3"
        },
        {
            "bufferView" : 2,
            "componentType" : 5123,
            "count" : 360,
            "type" : "SCALAR"
        },
        {
            "bufferView" : 3,
            "componentType" : 5126,
            "count" : 360,
            "max" : [
                0.23667307198047638,
                0.6374958157539368,
                0.23667317628860474
            ],
            "min" : [
                -0.23667307198047638,
                0,
                -0.23667293787002563
            ],
            "type" : "VEC3"
        },
        {
            "bufferView" : 4,
            "componentType" : 5126,
            "count" : 360,
            "type" : "VEC3"
        },
        {
            "bufferView" : 5,
            "componentType" : 5123,
            "count" : 564,
            "type" : "SCALAR"
        },
        {
            "bufferView" : 6,
            "componentType" : 5126,
            "count" : 48,
            "max" : [
                0.22717607021331787,
                0.37392568588256836,
                0.22717617452144623
            ],
            "min" : [
                -0.22717607021331787,
                0.10111632943153381,
                -0.22717596590518951
            ],
            "type" : "VEC3"
        },
        {
            "bufferView" : 7,
            "componentType" : 5126,
            "count" : 48,
            "type" : "VEC3"
        },
        {
            "bufferView" : 8,
            "componentType" : 5123,
            "count" : 72,
            "type" : "SCALAR"
        }
    ],
    "bufferViews" : [
        {
            "buffer" : 0,
            "byteLength" : 2880,
            "byteOffset" : 0
        },
        {
            "buffer" : 0,
            "byteLength" : 2880,
            "byteOffset" : 2880
        },
        {
            "buffer" : 0,
            "byteLength" : 720,
            "byteOffset" : 5760
        },
        {
            "buffer" : 0,
            "byteLength" : 4320,
            "byteOffset" : 6480
        },
        {
            "buffer" : 0,
            "byteLength" : 4320,
            "byteOffset" : 10800
        },
        {
            "buffer" : 0,
            "byteLength" : 1128,
            "byteOffset" : 15120
        },
        {
            "buffer" : 0,
            "byteLength" : 576,
            "byteOffset" : 16248
        },
        {
            "buffer" : 0,
            "byteLength" : 576,
            "byteOffset" : 16824
        },
        {
            "buffer" : 0,
            "byteLength" : 144,
            "byteOffset" : 17400
        }
    ],
    "buffers" : [
        {
            "byteLength" : 17544,
            "uri" : "Can_Red-662992c8ca98fa042562e5975d98a4b3.bin"
        }
    ]
}
