{
    "asset" : {
        "generator" : "Khronos glTF Blender I/O v3.2.43",
        "version" : "2.0"
    },
    "scene" : 0,
    "scenes" : [
        {
            "name" : "Scene",
            "nodes" : [
                0,
                1
            ]
        }
    ],
    "nodes" : [
        {
            "mesh" : 0,
            "name" : "Cannon"
        },
        {
            "mesh" : 1,
            "name" : "Cannon_Wheels"
        }
    ],
    "materials" : [
        {
            "doubleSided" : true,
            "name" : "Wood",
            "pbrMetallicRoughness" : {
                "baseColorFactor" : [
                    0.3757452964782715,
                    0.20292167365550995,
                    0.0587104856967926,
                    1
                ],
                "metallicFactor" : 0,
                "roughnessFactor" : 0.5
            }
        },
        {
            "doubleSided" : true,
            "name" : "DarkMetal",
            "pbrMetallicRoughness" : {
                "baseColorFactor" : [
                    0.2956882119178772,
                    0.2956882119178772,
                    0.2956882119178772,
                    1
                ],
                "metallicFactor" : 0,
                "roughnessFactor" : 0.5
            }
        },
        {
            "doubleSided" : true,
            "name" : "Metal",
            "pbrMetallicRoughness" : {
                "baseColorFactor" : [
                    0.17885860800743103,
                    0.17885860800743103,
                    0.17885860800743103,
                    1
                ],
                "metallicFactor" : 0,
                "roughnessFactor" : 0.5
            }
        },
        {
            "doubleSided" : true,
            "name" : "White",
            "pbrMetallicRoughness" : {
                "baseColorFactor" : [
                    0.564797043800354,
                    0.5925737619400024,
                    0.5061427354812622,
                    1
                ],
                "metallicFactor" : 0,
                "roughnessFactor" : 0.5
            }
        },
        {
            "doubleSided" : true,
            "name" : "Wood_Light",
            "pbrMetallicRoughness" : {
                "baseColorFactor" : [
                    0.5382204055786133,
                    0.314663827419281,
                    0.08692671358585358,
                    1
                ],
                "metallicFactor" : 0,
                "roughnessFactor" : 0.5
            }
        }
    ],
    "meshes" : [
        {
            "name" : "Cube.048",
            "primitives" : [
                {
                    "attributes" : {
                        "POSITION" : 0,
                        "NORMAL" : 1
                    },
                    "indices" : 2,
                    "material" : 0
                },
                {
                    "attributes" : {
                        "POSITION" : 3,
                        "NORMAL" : 4
                    },
                    "indices" : 5,
                    "material" : 1
                },
                {
                    "attributes" : {
                        "POSITION" : 6,
                        "NORMAL" : 7
                    },
                    "indices" : 8,
                    "material" : 2
                },
                {
                    "attributes" : {
                        "POSITION" : 9,
                        "NORMAL" : 10
                    },
                    "indices" : 11,
                    "material" : 3
                }
            ]
        },
        {
            "name" : "Cylinder.004",
            "primitives" : [
                {
                    "attributes" : {
                        "POSITION" : 12,
                        "NORMAL" : 13
                    },
                    "indices" : 14,
                    "material" : 0
                },
                {
                    "attributes" : {
                        "POSITION" : 15,
                        "NORMAL" : 16
                    },
                    "indices" : 17,
                    "material" : 4
                }
            ]
        }
    ],
    "accessors" : [
        {
            "bufferView" : 0,
            "componentType" : 5126,
            "count" : 158,
            "max" : [
                0.773726761341095,
                1.1318275928497314,
                1.23867666721344
            ],
            "min" : [
                -0.778576135635376,
                -0.22611987590789795,
                -1.23867666721344
            ],
            "type" : "VEC3"
        },
        {
            "bufferView" : 1,
            "componentType" : 5126,
            "count" : 158,
            "type" : "VEC3"
        },
        {
            "bufferView" : 2,
            "componentType" : 5123,
            "count" : 468,
            "type" : "SCALAR"
        },
        {
            "bufferView" : 3,
            "componentType" : 5126,
            "count" : 153,
            "max" : [
                1.9422305822372437,
                2.0447499752044678,
                1.051481008529663
            ],
            "min" : [
                -1.1163471937179565,
                -0.05792926624417305,
                -1.051481008529663
            ],
            "type" : "VEC3"
        },
        {
            "bufferView" : 4,
            "componentType" : 5126,
            "count" : 153,
            "type" : "VEC3"
        },
        {
            "bufferView" : 5,
            "componentType" : 5123,
            "count" : 864,
            "type" : "SCALAR"
        },
        {
            "bufferView" : 6,
            "componentType" : 5126,
            "count" : 233,
            "max" : [
                2.2581751346588135,
                2.22098708152771,
                1.0050675868988037
            ],
            "min" : [
                -0.3030911982059479,
                0.025804579257965088,
                -1.0050673484802246
            ],
            "type" : "VEC3"
        },
        {
            "bufferView" : 7,
            "componentType" : 5126,
            "count" : 233,
            "type" : "VEC3"
        },
        {
            "bufferView" : 8,
            "componentType" : 5123,
            "count" : 744,
            "type" : "SCALAR"
        },
        {
            "bufferView" : 9,
            "componentType" : 5126,
            "count" : 185,
            "max" : [
                -0.08138763904571533,
                2.7365903854370117,
                0.060889460146427155
            ],
            "min" : [
                -0.5003677010536194,
                2.165271759033203,
                -0.06088932603597641
            ],
            "type" : "VEC3"
        },
        {
            "bufferView" : 10,
            "componentType" : 5126,
            "count" : 185,
            "type" : "VEC3"
        },
        {
            "bufferView" : 11,
            "componentType" : 5123,
            "count" : 600,
            "type" : "SCALAR"
        },
        {
            "bufferView" : 12,
            "componentType" : 5126,
            "count" : 696,
            "max" : [
                0.9367431402206421,
                0.9367436170578003,
                1.6604750156402588
            ],
            "min" : [
                -0.9367437958717346,
                -0.9367433190345764,
                -1.6604750156402588
            ],
            "type" : "VEC3"
        },
        {
            "bufferView" : 13,
            "componentType" : 5126,
            "count" : 696,
            "type" : "VEC3"
        },
        {
            "bufferView" : 14,
            "componentType" : 5123,
            "count" : 2064,
            "type" : "SCALAR"
        },
        {
            "bufferView" : 15,
            "componentType" : 5126,
            "count" : 256,
            "max" : [
                0.8477438688278198,
                0.8477441668510437,
                1.5265586376190186
            ],
            "min" : [
                -0.8477444648742676,
                -0.8477439284324646,
                -1.5265586376190186
            ],
            "type" : "VEC3"
        },
        {
            "bufferView" : 16,
            "componentType" : 5126,
            "count" : 256,
            "type" : "VEC3"
        },
        {
            "bufferView" : 17,
            "componentType" : 5123,
            "count" : 384,
            "type" : "SCALAR"
        }
    ],
    "bufferViews" : [
        {
            "buffer" : 0,
            "byteLength" : 1896,
            "byteOffset" : 0
        },
        {
            "buffer" : 0,
            "byteLength" : 1896,
            "byteOffset" : 1896
        },
        {
            "buffer" : 0,
            "byteLength" : 936,
            "byteOffset" : 3792
        },
        {
            "buffer" : 0,
            "byteLength" : 1836,
            "byteOffset" : 4728
        },
        {
            "buffer" : 0,
            "byteLength" : 1836,
            "byteOffset" : 6564
        },
        {
            "buffer" : 0,
            "byteLength" : 1728,
            "byteOffset" : 8400
        },
        {
            "buffer" : 0,
            "byteLength" : 2796,
            "byteOffset" : 10128
        },
        {
            "buffer" : 0,
            "byteLength" : 2796,
            "byteOffset" : 12924
        },
        {
            "buffer" : 0,
            "byteLength" : 1488,
            "byteOffset" : 15720
        },
        {
            "buffer" : 0,
            "byteLength" : 2220,
            "byteOffset" : 17208
        },
        {
            "buffer" : 0,
            "byteLength" : 2220,
            "byteOffset" : 19428
        },
        {
            "buffer" : 0,
            "byteLength" : 1200,
            "byteOffset" : 21648
        },
        {
            "buffer" : 0,
            "byteLength" : 8352,
            "byteOffset" : 22848
        },
        {
            "buffer" : 0,
            "byteLength" : 8352,
            "byteOffset" : 31200
        },
        {
            "buffer" : 0,
            "byteLength" : 4128,
            "byteOffset" : 39552
        },
        {
            "buffer" : 0,
            "byteLength" : 3072,
            "byteOffset" : 43680
        },
        {
            "buffer" : 0,
            "byteLength" : 3072,
            "byteOffset" : 46752
        },
        {
            "buffer" : 0,
            "byteLength" : 768,
            "byteOffset" : 49824
        }
    ],
    "buffers" : [
        {
            "byteLength" : 50592,
            "uri" : "Cannon-202010fdf1e21d04f8ca0f7d7fc4029d.bin"
        }
    ]
}
