{
    "asset" : {
        "generator" : "Khronos glTF Blender I/O v3.2.43",
        "version" : "2.0"
    },
    "scene" : 0,
    "scenes" : [
        {
            "name" : "Scene",
            "nodes" : [
                31
            ]
        }
    ],
    "nodes" : [
        {
            "name" : "Belly",
            "rotation" : [
                -3.552703514405134e-15,
                1.192093463942001e-07,
                8.470329472543003e-22,
                1
            ],
            "translation" : [
                0.0031902315095067024,
                0.6940538287162781,
                0.23060984909534454
            ]
        },
        {
            "name" : "Ear3.L",
            "rotation" : [
                -0.45413655042648315,
                -0.09891101717948914,
                0.19182592630386353,
                0.8643955588340759
            ],
            "scale" : [
                0.9999999403953552,
                1.0000001192092896,
                1
            ],
            "translation" : [
                1.1175870895385742e-08,
                0.6946060657501221,
                4.0978193283081055e-08
            ]
        },
        {
            "children" : [
                1
            ],
            "name" : "Ear2.L",
            "rotation" : [
                -0.16958004236221313,
                -0.0034885872155427933,
                -0.01618579588830471,
                0.9853774309158325
            ],
            "scale" : [
                0.9999998807907104,
                1,
                0.9999998807907104
            ],
            "translation" : [
                3.9814040064811707e-08,
                0.3406006097793579,
                -2.9802322387695312e-08
            ]
        },
        {
            "children" : [
                2
            ],
            "name" : "Ear1.L",
            "rotation" : [
                0.09471021592617035,
                -0.04893387481570244,
                -0.19350668787956238,
                0.975290060043335
            ],
            "scale" : [
                0.9999999403953552,
                1.0000001192092896,
                1
            ],
            "translation" : [
                0.45929378271102905,
                0.6956892013549805,
                -0.13181160390377045
            ]
        },
        {
            "name" : "Ear3.R",
            "rotation" : [
                -0.45413652062416077,
                0.09891097992658615,
                -0.19182589650154114,
                0.8643955588340759
            ],
            "scale" : [
                0.9999999403953552,
                1,
                0.9999998807907104
            ],
            "translation" : [
                1.0803341865539551e-07,
                0.694606363773346,
                -2.6775524020195007e-08
            ]
        },
        {
            "children" : [
                4
            ],
            "name" : "Ear2.R",
            "rotation" : [
                -0.16958004236221313,
                0.0034885613713413477,
                0.016185814514756203,
                0.9853774309158325
            ],
            "scale" : [
                0.9999998807907104,
                1.0000001192092896,
                1
            ],
            "translation" : [
                8.288770914077759e-08,
                0.34060055017471313,
                5.21540641784668e-08
            ]
        },
        {
            "children" : [
                5
            ],
            "name" : "Ear1.R",
            "rotation" : [
                0.09481671452522278,
                0.04947049915790558,
                0.19345448911190033,
                0.9752630591392517
            ],
            "translation" : [
                -0.4581618010997772,
                0.6956892013549805,
                -0.13130682706832886
            ]
        },
        {
            "children" : [
                3,
                6
            ],
            "name" : "Head",
            "rotation" : [
                1.804442151254193e-09,
                -0.0002754752349574119,
                1.405484235939003e-11,
                1
            ],
            "scale" : [
                0.9999999403953552,
                1,
                1
            ],
            "translation" : [
                7.826643846908787e-12,
                0.1334977149963379,
                1.4635570533272357e-11
            ]
        },
        {
            "children" : [
                7
            ],
            "name" : "Neck",
            "rotation" : [
                -0.027065465226769447,
                6.777681846870109e-07,
                -1.8720260896998298e-09,
                0.9996336698532104
            ],
            "translation" : [
                -2.5758950528143032e-11,
                0.5880691409111023,
                3.8857320139307205e-10
            ]
        },
        {
            "name" : "Fist.L",
            "rotation" : [
                0.01253790594637394,
                0.018195195123553276,
                -0.006543072406202555,
                0.9997345209121704
            ],
            "scale" : [
                1,
                0.9999999403953552,
                1.0000001192092896
            ],
            "translation" : [
                -6.984919309616089e-10,
                0.42534708976745605,
                -9.989526006393135e-08
            ]
        },
        {
            "children" : [
                9
            ],
            "name" : "LowerArm.L",
            "rotation" : [
                -0.013498108834028244,
                0.03232966363430023,
                -0.03589319437742233,
                0.9987413883209229
            ],
            "scale" : [
                0.9999999403953552,
                0.9999999403953552,
                1
            ],
            "translation" : [
                -3.725290298461914e-09,
                0.5282711386680603,
                5.075708031654358e-08
            ]
        },
        {
            "children" : [
                10
            ],
            "name" : "UpperArm.L",
            "rotation" : [
                -0.272487998008728,
                -0.675926148891449,
                -0.22848714888095856,
                0.6454980373382568
            ],
            "scale" : [
                0.9999998807907104,
                1.0000001192092896,
                1
            ],
            "translation" : [
                6.239922356598981e-08,
                0.25953155755996704,
                2.0567654246406164e-09
            ]
        },
        {
            "children" : [
                11
            ],
            "name" : "Shoulder.L",
            "rotation" : [
                -0.024686679244041443,
                -0.011092809960246086,
                -0.40975794196128845,
                0.9117926955223083
            ],
            "scale" : [
                0.9999999403953552,
                1,
                1
            ],
            "translation" : [
                0.12610283493995667,
                0.14115768671035767,
                0.015242783352732658
            ]
        },
        {
            "name" : "Fist.R",
            "rotation" : [
                0.012537909671664238,
                -0.01819518767297268,
                0.006543073803186417,
                0.9997345209121704
            ],
            "scale" : [
                1,
                0.9999999403953552,
                1.0000001192092896
            ],
            "translation" : [
                -6.984919309616089e-10,
                0.42534711956977844,
                -1.0014264262281358e-07
            ]
        },
        {
            "children" : [
                13
            ],
            "name" : "LowerArm.R",
            "rotation" : [
                -0.01349815633147955,
                -0.03232967108488083,
                0.03589320927858353,
                0.9987413883209229
            ],
            "scale" : [
                0.9999999403953552,
                0.9999999403953552,
                1
            ],
            "translation" : [
                3.725290298461914e-09,
                0.5282710194587708,
                -2.514570951461792e-08
            ]
        },
        {
            "children" : [
                14
            ],
            "name" : "UpperArm.R",
            "rotation" : [
                -0.27248793840408325,
                0.6759262681007385,
                0.2284870594739914,
                0.6454980373382568
            ],
            "scale" : [
                1,
                1.0000003576278687,
                1
            ],
            "translation" : [
                -1.7719884226607974e-08,
                0.2595316171646118,
                1.1250449460931122e-09
            ]
        },
        {
            "children" : [
                15
            ],
            "name" : "Shoulder.R",
            "rotation" : [
                -0.024686427786946297,
                0.011093364097177982,
                0.4097580015659332,
                0.9117926955223083
            ],
            "scale" : [
                1,
                0.9999999403953552,
                1
            ],
            "translation" : [
                -0.12482606619596481,
                0.14115768671035767,
                0.015242936089634895
            ]
        },
        {
            "children" : [
                8,
                12,
                16
            ],
            "name" : "Torso",
            "rotation" : [
                -0.013158755376935005,
                -8.322603548549523e-07,
                -2.9428528502961626e-09,
                0.9999134540557861
            ],
            "translation" : [
                -2.2595258997171186e-11,
                0.29857850074768066,
                -8.12469025390783e-09
            ]
        },
        {
            "children" : [
                17
            ],
            "name" : "Abdomen",
            "rotation" : [
                0.0908929631114006,
                4.362195511475875e-07,
                5.6154732419599895e-08,
                0.995860755443573
            ],
            "scale" : [
                1,
                1,
                0.9999999403953552
            ],
            "translation" : [
                2.2939872224014835e-11,
                0.3143380284309387,
                -1.1484904000047536e-10
            ]
        },
        {
            "children" : [
                18
            ],
            "name" : "Hips",
            "rotation" : [
                -0.05076882615685463,
                -1.4827251959559362e-07,
                -1.6659241097727318e-08,
                0.9987104535102844
            ],
            "scale" : [
                1,
                1.0000001192092896,
                1
            ],
            "translation" : [
                0.0006731052417308092,
                0.49087539315223694,
                -0.02693161740899086
            ]
        },
        {
            "name" : "Foot.L",
            "rotation" : [
                -8.753395377425477e-06,
                0.6226300597190857,
                -0.782516360282898,
                6.8013259806321e-06
            ],
            "scale" : [
                1,
                0.9999999403953552,
                0.9999999403953552
            ],
            "translation" : [
                1.2938310867127711e-08,
                0.295385479927063,
                2.3474058252759278e-09
            ]
        },
        {
            "children" : [
                20
            ],
            "name" : "LowerLeg.L",
            "rotation" : [
                0.2472306787967682,
                0.0024571865797042847,
                0.0187673382461071,
                0.9687718749046326
            ],
            "scale" : [
                1,
                0.9999998211860657,
                0.9999998807907104
            ],
            "translation" : [
                2.8085196390748024e-08,
                0.2372971773147583,
                4.6566128730773926e-09
            ]
        },
        {
            "children" : [
                21
            ],
            "name" : "UpperLeg.L",
            "rotation" : [
                0.9912921190261841,
                0.018926354125142097,
                -0.00020883558318018913,
                0.1303136795759201
            ],
            "scale" : [
                1.0000001192092896,
                1.0000001192092896,
                1.0000025033950806
            ],
            "translation" : [
                0.536992609500885,
                0.5406457185745239,
                -0.036613013595342636
            ]
        },
        {
            "name" : "Foot.R",
            "rotation" : [
                -8.750761480769143e-06,
                -0.6226298213005066,
                0.7825165390968323,
                6.801323706895346e-06
            ],
            "scale" : [
                1,
                1.000000238418579,
                1.0000001192092896
            ],
            "translation" : [
                -1.278332462106846e-08,
                0.29538553953170776,
                -6.469150548582547e-09
            ]
        },
        {
            "children" : [
                23
            ],
            "name" : "LowerLeg.R",
            "rotation" : [
                0.2472308874130249,
                -0.0024571572430431843,
                -0.0187672208994627,
                0.968771755695343
            ],
            "scale" : [
                0.9999999403953552,
                1,
                1
            ],
            "translation" : [
                -1.8597347661852837e-08,
                0.23729708790779114,
                2.3283064365386963e-10
            ]
        },
        {
            "children" : [
                24
            ],
            "name" : "UpperLeg.R",
            "rotation" : [
                0.9912921190261841,
                -0.018926305696368217,
                0.00020921407849527895,
                0.13031373918056488
            ],
            "scale" : [
                1,
                1,
                1.0000014305114746
            ],
            "translation" : [
                -0.5343696475028992,
                0.5406457185745239,
                -0.036613523960113525
            ]
        },
        {
            "children" : [
                0,
                19,
                22,
                25
            ],
            "name" : "Root",
            "rotation" : [
                -2.980232594040899e-08,
                2.3841855067985307e-07,
                0,
                1
            ],
            "scale" : [
                1,
                0.9999999403953552,
                0.9999999403953552
            ],
            "translation" : [
                -0.0013114691246300936,
                -0.0024153697304427624,
                -0.00011468419688753784
            ]
        },
        {
            "mesh" : 0,
            "name" : "Arms",
            "skin" : 0
        },
        {
            "mesh" : 1,
            "name" : "Body",
            "skin" : 0
        },
        {
            "mesh" : 2,
            "name" : "Ears",
            "skin" : 0
        },
        {
            "mesh" : 3,
            "name" : "Head",
            "skin" : 0
        },
        {
            "children" : [
                27,
                28,
                29,
                30,
                26
            ],
            "name" : "CharacterArmature"
        }
    ],
    "materials" : [
        {
            "doubleSided" : true,
            "name" : "Main",
            "pbrMetallicRoughness" : {
                "baseColorFactor" : [
                    0.0012141080806031823,
                    0.3049873113632202,
                    1,
                    1
                ],
                "metallicFactor" : 0,
                "roughnessFactor" : 0.5
            }
        },
        {
            "doubleSided" : true,
            "name" : "Main_Light",
            "pbrMetallicRoughness" : {
                "baseColorFactor" : [
                    0.8006496429443359,
                    0.47399410605430603,
                    0.16832269728183746,
                    1
                ],
                "metallicFactor" : 0,
                "roughnessFactor" : 0.5
            }
        },
        {
            "doubleSided" : true,
            "name" : "Main2",
            "pbrMetallicRoughness" : {
                "baseColorFactor" : [
                    0.22142378985881805,
                    0.43197351694107056,
                    0.45752638578414917,
                    1
                ],
                "metallicFactor" : 0,
                "roughnessFactor" : 0.5
            }
        },
        {
            "doubleSided" : true,
            "name" : "Black",
            "pbrMetallicRoughness" : {
                "baseColorFactor" : [
                    0.009017317555844784,
                    0.009017317555844784,
                    0.009017317555844784,
                    1
                ],
                "metallicFactor" : 0,
                "roughnessFactor" : 0.5
            }
        },
        {
            "doubleSided" : true,
            "name" : "White",
            "pbrMetallicRoughness" : {
                "baseColorFactor" : [
                    0.564797043800354,
                    0.5925737619400024,
                    0.5061427354812622,
                    1
                ],
                "metallicFactor" : 0,
                "roughnessFactor" : 0.5
            }
        },
        {
            "doubleSided" : true,
            "name" : "EyeColor",
            "pbrMetallicRoughness" : {
                "baseColorFactor" : [
                    0.006383856758475304,
                    0.026276197284460068,
                    0.05221610143780708,
                    1
                ],
                "metallicFactor" : 0,
                "roughnessFactor" : 0.5
            }
        }
    ],
    "meshes" : [
        {
            "name" : "CUBezierCurve.000",
            "primitives" : [
                {
                    "attributes" : {
                        "POSITION" : 0,
                        "NORMAL" : 1,
                        "JOINTS_0" : 2,
                        "WEIGHTS_0" : 3
                    },
                    "indices" : 4,
                    "material" : 0
                },
                {
                    "attributes" : {
                        "POSITION" : 5,
                        "NORMAL" : 6,
                        "JOINTS_0" : 7,
                        "WEIGHTS_0" : 8
                    },
                    "indices" : 9,
                    "material" : 1
                }
            ]
        },
        {
            "name" : "CUBezierCurve.002",
            "primitives" : [
                {
                    "attributes" : {
                        "POSITION" : 11,
                        "NORMAL" : 12,
                        "JOINTS_0" : 13,
                        "JOINTS_1" : 14,
                        "WEIGHTS_1" : 15
                    },
                    "indices" : 16,
                    "material" : 0
                },
                {
                    "attributes" : {
                        "POSITION" : 17,
                        "NORMAL" : 18,
                        "JOINTS_0" : 19,
                        "JOINTS_1" : 20,
                        "WEIGHTS_1" : 21
                    },
                    "indices" : 22,
                    "material" : 1
                },
                {
                    "attributes" : {
                        "POSITION" : 23,
                        "NORMAL" : 24,
                        "JOINTS_0" : 25,
                        "JOINTS_1" : 26,
                        "WEIGHTS_1" : 27
                    },
                    "indices" : 28,
                    "material" : 2
                }
            ]
        },
        {
            "name" : "CUBezierCurve.001",
            "primitives" : [
                {
                    "attributes" : {
                        "POSITION" : 29,
                        "NORMAL" : 30,
                        "JOINTS_0" : 31,
                        "WEIGHTS_0" : 32
                    },
                    "indices" : 33,
                    "material" : 0
                }
            ]
        },
        {
            "name" : "CUBezierCurve.003",
            "primitives" : [
                {
                    "attributes" : {
                        "POSITION" : 34,
                        "NORMAL" : 35,
                        "JOINTS_0" : 36,
                        "WEIGHTS_0" : 37
                    },
                    "indices" : 38,
                    "material" : 0
                },
                {
                    "attributes" : {
                        "POSITION" : 39,
                        "NORMAL" : 40,
                        "JOINTS_0" : 41,
                        "WEIGHTS_0" : 42
                    },
                    "indices" : 43,
                    "material" : 3
                },
                {
                    "attributes" : {
                        "POSITION" : 44,
                        "NORMAL" : 45,
                        "JOINTS_0" : 46,
                        "WEIGHTS_0" : 47
                    },
                    "indices" : 48,
                    "material" : 1
                },
                {
                    "attributes" : {
                        "POSITION" : 49,
                        "NORMAL" : 50,
                        "JOINTS_0" : 51,
                        "WEIGHTS_0" : 52
                    },
                    "indices" : 53,
                    "material" : 4
                },
                {
                    "attributes" : {
                        "POSITION" : 54,
                        "NORMAL" : 55,
                        "JOINTS_0" : 56,
                        "WEIGHTS_0" : 57
                    },
                    "indices" : 58,
                    "material" : 5
                }
            ]
        }
    ],
    "skins" : [
        {
            "inverseBindMatrices" : 10,
            "joints" : [
                26,
                0,
                19,
                18,
                17,
                8,
                7,
                3,
                2,
                1,
                6,
                5,
                4,
                12,
                11,
                10,
                9,
                16,
                15,
                14,
                13,
                22,
                21,
                20,
                25,
                24,
                23
            ],
            "name" : "CharacterArmature"
        }
    ],
    "accessors" : [
        {
            "bufferView" : 0,
            "componentType" : 5126,
            "count" : 224,
            "max" : [
                1.2135851383209229,
                1.6787171363830566,
                0.2447240948677063
            ],
            "min" : [
                -1.2135851383209229,
                1.099839210510254,
                -0.3334936499595642
            ],
            "type" : "VEC3"
        },
        {
            "bufferView" : 1,
            "componentType" : 5126,
            "count" : 224,
            "type" : "VEC3"
        },
        {
            "bufferView" : 2,
            "componentType" : 5121,
            "count" : 224,
            "type" : "VEC4"
        },
        {
            "bufferView" : 3,
            "componentType" : 5126,
            "count" : 224,
            "type" : "VEC4"
        },
        {
            "bufferView" : 4,
            "componentType" : 5123,
            "count" : 960,
            "type" : "SCALAR"
        },
        {
            "bufferView" : 5,
            "componentType" : 5126,
            "count" : 152,
            "max" : [
                1.6993974447250366,
                1.761326551437378,
                0.27120980620384216
            ],
            "min" : [
                -1.6993974447250366,
                1.0849733352661133,
                -0.34050336480140686
            ],
            "type" : "VEC3"
        },
        {
            "bufferView" : 6,
            "componentType" : 5126,
            "count" : 152,
            "type" : "VEC3"
        },
        {
            "bufferView" : 7,
            "componentType" : 5121,
            "count" : 152,
            "type" : "VEC4"
        },
        {
            "bufferView" : 8,
            "componentType" : 5126,
            "count" : 152,
            "type" : "VEC4"
        },
        {
            "bufferView" : 9,
            "componentType" : 5123,
            "count" : 696,
            "type" : "SCALAR"
        },
        {
            "bufferView" : 10,
            "componentType" : 5126,
            "count" : 27,
            "type" : "MAT4"
        },
        {
            "bufferView" : 11,
            "componentType" : 5126,
            "count" : 348,
            "max" : [
                0.6838303208351135,
                1.7902582883834839,
                0.3788057565689087
            ],
            "min" : [
                -0.6838303208351135,
                0.10854539275169373,
                -0.44431090354919434
            ],
            "type" : "VEC3"
        },
        {
            "bufferView" : 12,
            "componentType" : 5126,
            "count" : 348,
            "type" : "VEC3"
        },
        {
            "bufferView" : 13,
            "componentType" : 5121,
            "count" : 348,
            "type" : "VEC4"
        },
        {
            "bufferView" : 14,
            "componentType" : 5121,
            "count" : 348,
            "type" : "VEC4"
        },
        {
            "bufferView" : 15,
            "componentType" : 5126,
            "count" : 348,
            "type" : "VEC4"
        },
        {
            "bufferView" : 16,
            "componentType" : 5123,
            "count" : 1932,
            "type" : "SCALAR"
        },
        {
            "bufferView" : 17,
            "componentType" : 5126,
            "count" : 102,
            "max" : [
                0.6838303208351135,
                0.12358691543340683,
                0.20282158255577087
            ],
            "min" : [
                -0.6838303208351135,
                0.010248806327581406,
                -0.23723705112934113
            ],
            "type" : "VEC3"
        },
        {
            "bufferView" : 18,
            "componentType" : 5126,
            "count" : 102,
            "type" : "VEC3"
        },
        {
            "bufferView" : 19,
            "componentType" : 5121,
            "count" : 102,
            "type" : "VEC4"
        },
        {
            "bufferView" : 20,
            "componentType" : 5121,
            "count" : 102,
            "type" : "VEC4"
        },
        {
            "bufferView" : 21,
            "componentType" : 5126,
            "count" : 102,
            "type" : "VEC4"
        },
        {
            "bufferView" : 22,
            "componentType" : 5123,
            "count" : 384,
            "type" : "SCALAR"
        },
        {
            "bufferView" : 23,
            "componentType" : 5126,
            "count" : 56,
            "max" : [
                0.3228320777416229,
                1.5851919651031494,
                0.3870457112789154
            ],
            "min" : [
                -0.3228320777416229,
                0.660599410533905,
                0.16896848380565643
            ],
            "type" : "VEC3"
        },
        {
            "bufferView" : 24,
            "componentType" : 5126,
            "count" : 56,
            "type" : "VEC3"
        },
        {
            "bufferView" : 25,
            "componentType" : 5121,
            "count" : 56,
            "type" : "VEC4"
        },
        {
            "bufferView" : 26,
            "componentType" : 5121,
            "count" : 56,
            "type" : "VEC4"
        },
        {
            "bufferView" : 27,
            "componentType" : 5126,
            "count" : 56,
            "type" : "VEC4"
        },
        {
            "bufferView" : 28,
            "componentType" : 5123,
            "count" : 252,
            "type" : "SCALAR"
        },
        {
            "bufferView" : 29,
            "componentType" : 5126,
            "count" : 232,
            "max" : [
                1.244304895401001,
                3.760468006134033,
                0.16437190771102905
            ],
            "min" : [
                -1.244304895401001,
                2.63177227973938,
                -0.6315237879753113
            ],
            "type" : "VEC3"
        },
        {
            "bufferView" : 30,
            "componentType" : 5126,
            "count" : 232,
            "type" : "VEC3"
        },
        {
            "bufferView" : 31,
            "componentType" : 5121,
            "count" : 232,
            "type" : "VEC4"
        },
        {
            "bufferView" : 32,
            "componentType" : 5126,
            "count" : 232,
            "type" : "VEC4"
        },
        {
            "bufferView" : 33,
            "componentType" : 5123,
            "count" : 720,
            "type" : "SCALAR"
        },
        {
            "bufferView" : 34,
            "componentType" : 5126,
            "count" : 542,
            "max" : [
                0.9257166385650635,
                3.472315549850464,
                0.7465291023254395
            ],
            "min" : [
                -0.9257166385650635,
                1.4156361818313599,
                -0.736739993095398
            ],
            "type" : "VEC3"
        },
        {
            "bufferView" : 35,
            "componentType" : 5126,
            "count" : 542,
            "type" : "VEC3"
        },
        {
            "bufferView" : 36,
            "componentType" : 5121,
            "count" : 542,
            "type" : "VEC4"
        },
        {
            "bufferView" : 37,
            "componentType" : 5126,
            "count" : 542,
            "type" : "VEC4"
        },
        {
            "bufferView" : 38,
            "componentType" : 5123,
            "count" : 2820,
            "type" : "SCALAR"
        },
        {
            "bufferView" : 39,
            "componentType" : 5126,
            "count" : 90,
            "max" : [
                0.6183046698570251,
                2.512087345123291,
                0.7214932441711426
            ],
            "min" : [
                -0.6183046698570251,
                2.0302419662475586,
                0.5740804672241211
            ],
            "type" : "VEC3"
        },
        {
            "bufferView" : 40,
            "componentType" : 5126,
            "count" : 90,
            "type" : "VEC3"
        },
        {
            "bufferView" : 41,
            "componentType" : 5121,
            "count" : 90,
            "type" : "VEC4"
        },
        {
            "bufferView" : 42,
            "componentType" : 5126,
            "count" : 90,
            "type" : "VEC4"
        },
        {
            "bufferView" : 43,
            "componentType" : 5123,
            "count" : 336,
            "type" : "SCALAR"
        },
        {
            "bufferView" : 44,
            "componentType" : 5126,
            "count" : 81,
            "max" : [
                0.7694382071495056,
                2.724217653274536,
                0.8257123827934265
            ],
            "min" : [
                -0.7694382071495056,
                1.5478676557540894,
                0.41884899139404297
            ],
            "type" : "VEC3"
        },
        {
            "bufferView" : 45,
            "componentType" : 5126,
            "count" : 81,
            "type" : "VEC3"
        },
        {
            "bufferView" : 46,
            "componentType" : 5121,
            "count" : 81,
            "type" : "VEC4"
        },
        {
            "bufferView" : 47,
            "componentType" : 5126,
            "count" : 81,
            "type" : "VEC4"
        },
        {
            "bufferView" : 48,
            "componentType" : 5123,
            "count" : 384,
            "type" : "SCALAR"
        },
        {
            "bufferView" : 49,
            "componentType" : 5126,
            "count" : 20,
            "max" : [
                0.6055122017860413,
                2.499605417251587,
                0.6763918399810791
            ],
            "min" : [
                -0.6055122017860413,
                2.3544793128967285,
                0.5740804672241211
            ],
            "type" : "VEC3"
        },
        {
            "bufferView" : 50,
            "componentType" : 5126,
            "count" : 20,
            "type" : "VEC3"
        },
        {
            "bufferView" : 51,
            "componentType" : 5121,
            "count" : 20,
            "type" : "VEC4"
        },
        {
            "bufferView" : 52,
            "componentType" : 5126,
            "count" : 20,
            "type" : "VEC4"
        },
        {
            "bufferView" : 53,
            "componentType" : 5123,
            "count" : 60,
            "type" : "SCALAR"
        },
        {
            "bufferView" : 54,
            "componentType" : 5126,
            "count" : 48,
            "max" : [
                0.6137887239456177,
                2.426846981048584,
                0.730532705783844
            ],
            "min" : [
                -0.6137887239456177,
                2.1236915588378906,
                0.6490952372550964
            ],
            "type" : "VEC3"
        },
        {
            "bufferView" : 55,
            "componentType" : 5126,
            "count" : 48,
            "type" : "VEC3"
        },
        {
            "bufferView" : 56,
            "componentType" : 5121,
            "count" : 48,
            "type" : "VEC4"
        },
        {
            "bufferView" : 57,
            "componentType" : 5126,
            "count" : 48,
            "type" : "VEC4"
        },
        {
            "bufferView" : 58,
            "componentType" : 5123,
            "count" : 180,
            "type" : "SCALAR"
        }
    ],
    "bufferViews" : [
        {
            "buffer" : 0,
            "byteLength" : 2688,
            "byteOffset" : 0
        },
        {
            "buffer" : 0,
            "byteLength" : 2688,
            "byteOffset" : 2688
        },
        {
            "buffer" : 0,
            "byteLength" : 896,
            "byteOffset" : 5376
        },
        {
            "buffer" : 0,
            "byteLength" : 3584,
            "byteOffset" : 6272
        },
        {
            "buffer" : 0,
            "byteLength" : 1920,
            "byteOffset" : 9856
        },
        {
            "buffer" : 0,
            "byteLength" : 1824,
            "byteOffset" : 11776
        },
        {
            "buffer" : 0,
            "byteLength" : 1824,
            "byteOffset" : 13600
        },
        {
            "buffer" : 0,
            "byteLength" : 608,
            "byteOffset" : 15424
        },
        {
            "buffer" : 0,
            "byteLength" : 2432,
            "byteOffset" : 16032
        },
        {
            "buffer" : 0,
            "byteLength" : 1392,
            "byteOffset" : 18464
        },
        {
            "buffer" : 0,
            "byteLength" : 1728,
            "byteOffset" : 19856
        },
        {
            "buffer" : 0,
            "byteLength" : 4176,
            "byteOffset" : 21584
        },
        {
            "buffer" : 0,
            "byteLength" : 4176,
            "byteOffset" : 25760
        },
        {
            "buffer" : 0,
            "byteLength" : 1392,
            "byteOffset" : 29936
        },
        {
            "buffer" : 0,
            "byteLength" : 1392,
            "byteOffset" : 31328
        },
        {
            "buffer" : 0,
            "byteLength" : 5568,
            "byteOffset" : 32720
        },
        {
            "buffer" : 0,
            "byteLength" : 3864,
            "byteOffset" : 38288
        },
        {
            "buffer" : 0,
            "byteLength" : 1224,
            "byteOffset" : 42152
        },
        {
            "buffer" : 0,
            "byteLength" : 1224,
            "byteOffset" : 43376
        },
        {
            "buffer" : 0,
            "byteLength" : 408,
            "byteOffset" : 44600
        },
        {
            "buffer" : 0,
            "byteLength" : 408,
            "byteOffset" : 45008
        },
        {
            "buffer" : 0,
            "byteLength" : 1632,
            "byteOffset" : 45416
        },
        {
            "buffer" : 0,
            "byteLength" : 768,
            "byteOffset" : 47048
        },
        {
            "buffer" : 0,
            "byteLength" : 672,
            "byteOffset" : 47816
        },
        {
            "buffer" : 0,
            "byteLength" : 672,
            "byteOffset" : 48488
        },
        {
            "buffer" : 0,
            "byteLength" : 224,
            "byteOffset" : 49160
        },
        {
            "buffer" : 0,
            "byteLength" : 224,
            "byteOffset" : 49384
        },
        {
            "buffer" : 0,
            "byteLength" : 896,
            "byteOffset" : 49608
        },
        {
            "buffer" : 0,
            "byteLength" : 504,
            "byteOffset" : 50504
        },
        {
            "buffer" : 0,
            "byteLength" : 2784,
            "byteOffset" : 51008
        },
        {
            "buffer" : 0,
            "byteLength" : 2784,
            "byteOffset" : 53792
        },
        {
            "buffer" : 0,
            "byteLength" : 928,
            "byteOffset" : 56576
        },
        {
            "buffer" : 0,
            "byteLength" : 3712,
            "byteOffset" : 57504
        },
        {
            "buffer" : 0,
            "byteLength" : 1440,
            "byteOffset" : 61216
        },
        {
            "buffer" : 0,
            "byteLength" : 6504,
            "byteOffset" : 62656
        },
        {
            "buffer" : 0,
            "byteLength" : 6504,
            "byteOffset" : 69160
        },
        {
            "buffer" : 0,
            "byteLength" : 2168,
            "byteOffset" : 75664
        },
        {
            "buffer" : 0,
            "byteLength" : 8672,
            "byteOffset" : 77832
        },
        {
            "buffer" : 0,
            "byteLength" : 5640,
            "byteOffset" : 86504
        },
        {
            "buffer" : 0,
            "byteLength" : 1080,
            "byteOffset" : 92144
        },
        {
            "buffer" : 0,
            "byteLength" : 1080,
            "byteOffset" : 93224
        },
        {
            "buffer" : 0,
            "byteLength" : 360,
            "byteOffset" : 94304
        },
        {
            "buffer" : 0,
            "byteLength" : 1440,
            "byteOffset" : 94664
        },
        {
            "buffer" : 0,
            "byteLength" : 672,
            "byteOffset" : 96104
        },
        {
            "buffer" : 0,
            "byteLength" : 972,
            "byteOffset" : 96776
        },
        {
            "buffer" : 0,
            "byteLength" : 972,
            "byteOffset" : 97748
        },
        {
            "buffer" : 0,
            "byteLength" : 324,
            "byteOffset" : 98720
        },
        {
            "buffer" : 0,
            "byteLength" : 1296,
            "byteOffset" : 99044
        },
        {
            "buffer" : 0,
            "byteLength" : 768,
            "byteOffset" : 100340
        },
        {
            "buffer" : 0,
            "byteLength" : 240,
            "byteOffset" : 101108
        },
        {
            "buffer" : 0,
            "byteLength" : 240,
            "byteOffset" : 101348
        },
        {
            "buffer" : 0,
            "byteLength" : 80,
            "byteOffset" : 101588
        },
        {
            "buffer" : 0,
            "byteLength" : 320,
            "byteOffset" : 101668
        },
        {
            "buffer" : 0,
            "byteLength" : 120,
            "byteOffset" : 101988
        },
        {
            "buffer" : 0,
            "byteLength" : 576,
            "byteOffset" : 102108
        },
        {
            "buffer" : 0,
            "byteLength" : 576,
            "byteOffset" : 102684
        },
        {
            "buffer" : 0,
            "byteLength" : 192,
            "byteOffset" : 103260
        },
        {
            "buffer" : 0,
            "byteLength" : 768,
            "byteOffset" : 103452
        },
        {
            "buffer" : 0,
            "byteLength" : 360,
            "byteOffset" : 104220
        }
    ],
    "buffers" : [
        {
            "byteLength" : 104580,
            "uri" : "Character_HumanoidRig-70258d108cc2327dd6176957d5774eae.bin"
        }
    ]
}
