{
    "asset" : {
        "generator" : "Khronos glTF Blender I/O v3.2.43",
        "version" : "2.0"
    },
    "scene" : 0,
    "scenes" : [
        {
            "name" : "Scene",
            "nodes" : [
                5
            ]
        }
    ],
    "nodes" : [
        {
            "name" : "Chest_Top",
            "rotation" : [
                0.7026594281196594,
                -3.3930680842786387e-07,
                -3.350784538724838e-07,
                0.7115263342857361
            ],
            "translation" : [
                0,
                0.6282311081886292,
                -0.9063916802406311
            ]
        },
        {
            "children" : [
                0
            ],
            "name" : "Chest_Bottom",
            "translation" : [
                0,
                0.3173982501029968,
                0
            ]
        },
        {
            "children" : [
                1
            ],
            "name" : "Root"
        },
        {
            "mesh" : 0,
            "name" : "Chest_Bottom",
            "skin" : 0
        },
        {
            "mesh" : 1,
            "name" : "Chest_Top",
            "skin" : 0
        },
        {
            "children" : [
                3,
                4,
                2
            ],
            "name" : "Chest_Armature"
        }
    ],
    "animations" : [
        {
            "channels" : [
                {
                    "sampler" : 0,
                    "target" : {
                        "node" : 2,
                        "path" : "translation"
                    }
                },
                {
                    "sampler" : 1,
                    "target" : {
                        "node" : 2,
                        "path" : "rotation"
                    }
                },
                {
                    "sampler" : 2,
                    "target" : {
                        "node" : 2,
                        "path" : "scale"
                    }
                },
                {
                    "sampler" : 3,
                    "target" : {
                        "node" : 1,
                        "path" : "translation"
                    }
                },
                {
                    "sampler" : 4,
                    "target" : {
                        "node" : 1,
                        "path" : "rotation"
                    }
                },
                {
                    "sampler" : 5,
                    "target" : {
                        "node" : 1,
                        "path" : "scale"
                    }
                },
                {
                    "sampler" : 6,
                    "target" : {
                        "node" : 0,
                        "path" : "translation"
                    }
                },
                {
                    "sampler" : 7,
                    "target" : {
                        "node" : 0,
                        "path" : "rotation"
                    }
                },
                {
                    "sampler" : 8,
                    "target" : {
                        "node" : 0,
                        "path" : "scale"
                    }
                }
            ],
            "name" : "Chest_Close",
            "samplers" : [
                {
                    "input" : 41,
                    "interpolation" : "LINEAR",
                    "output" : 42
                },
                {
                    "input" : 41,
                    "interpolation" : "LINEAR",
                    "output" : 43
                },
                {
                    "input" : 41,
                    "interpolation" : "LINEAR",
                    "output" : 44
                },
                {
                    "input" : 41,
                    "interpolation" : "LINEAR",
                    "output" : 45
                },
                {
                    "input" : 41,
                    "interpolation" : "LINEAR",
                    "output" : 46
                },
                {
                    "input" : 41,
                    "interpolation" : "LINEAR",
                    "output" : 47
                },
                {
                    "input" : 41,
                    "interpolation" : "LINEAR",
                    "output" : 48
                },
                {
                    "input" : 41,
                    "interpolation" : "LINEAR",
                    "output" : 49
                },
                {
                    "input" : 41,
                    "interpolation" : "LINEAR",
                    "output" : 50
                }
            ]
        },
        {
            "channels" : [
                {
                    "sampler" : 0,
                    "target" : {
                        "node" : 2,
                        "path" : "translation"
                    }
                },
                {
                    "sampler" : 1,
                    "target" : {
                        "node" : 2,
                        "path" : "rotation"
                    }
                },
                {
                    "sampler" : 2,
                    "target" : {
                        "node" : 2,
                        "path" : "scale"
                    }
                },
                {
                    "sampler" : 3,
                    "target" : {
                        "node" : 1,
                        "path" : "translation"
                    }
                },
                {
                    "sampler" : 4,
                    "target" : {
                        "node" : 1,
                        "path" : "rotation"
                    }
                },
                {
                    "sampler" : 5,
                    "target" : {
                        "node" : 1,
                        "path" : "scale"
                    }
                },
                {
                    "sampler" : 6,
                    "target" : {
                        "node" : 0,
                        "path" : "translation"
                    }
                },
                {
                    "sampler" : 7,
                    "target" : {
                        "node" : 0,
                        "path" : "rotation"
                    }
                },
                {
                    "sampler" : 8,
                    "target" : {
                        "node" : 0,
                        "path" : "scale"
                    }
                }
            ],
            "name" : "Chest_Open",
            "samplers" : [
                {
                    "input" : 51,
                    "interpolation" : "LINEAR",
                    "output" : 52
                },
                {
                    "input" : 51,
                    "interpolation" : "LINEAR",
                    "output" : 53
                },
                {
                    "input" : 51,
                    "interpolation" : "LINEAR",
                    "output" : 54
                },
                {
                    "input" : 51,
                    "interpolation" : "LINEAR",
                    "output" : 55
                },
                {
                    "input" : 51,
                    "interpolation" : "LINEAR",
                    "output" : 56
                },
                {
                    "input" : 51,
                    "interpolation" : "LINEAR",
                    "output" : 57
                },
                {
                    "input" : 51,
                    "interpolation" : "LINEAR",
                    "output" : 58
                },
                {
                    "input" : 51,
                    "interpolation" : "LINEAR",
                    "output" : 59
                },
                {
                    "input" : 51,
                    "interpolation" : "LINEAR",
                    "output" : 60
                }
            ]
        }
    ],
    "materials" : [
        {
            "doubleSided" : true,
            "name" : "DarkMetal",
            "pbrMetallicRoughness" : {
                "baseColorFactor" : [
                    0.2956882119178772,
                    0.2956882119178772,
                    0.2956882119178772,
                    1
                ],
                "metallicFactor" : 0,
                "roughnessFactor" : 0.5
            }
        },
        {
            "doubleSided" : true,
            "name" : "Wood",
            "pbrMetallicRoughness" : {
                "baseColorFactor" : [
                    0.3757452964782715,
                    0.20292167365550995,
                    0.0587104856967926,
                    1
                ],
                "metallicFactor" : 0,
                "roughnessFactor" : 0.5
            }
        },
        {
            "doubleSided" : true,
            "name" : "Metal",
            "pbrMetallicRoughness" : {
                "baseColorFactor" : [
                    0.17885860800743103,
                    0.17885860800743103,
                    0.17885860800743103,
                    1
                ],
                "metallicFactor" : 0,
                "roughnessFactor" : 0.5
            }
        },
        {
            "doubleSided" : true,
            "name" : "Gold",
            "pbrMetallicRoughness" : {
                "baseColorFactor" : [
                    0.787394106388092,
                    0.46046555042266846,
                    0.10785872489213943,
                    1
                ],
                "metallicFactor" : 0,
                "roughnessFactor" : 0.5
            }
        },
        {
            "doubleSided" : true,
            "name" : "Gold_Dark",
            "pbrMetallicRoughness" : {
                "baseColorFactor" : [
                    0.3931097388267517,
                    0.23273468017578125,
                    0.057330645620822906,
                    1
                ],
                "metallicFactor" : 0,
                "roughnessFactor" : 0.5
            }
        }
    ],
    "meshes" : [
        {
            "name" : "Cube.016",
            "primitives" : [
                {
                    "attributes" : {
                        "POSITION" : 0,
                        "NORMAL" : 1,
                        "JOINTS_0" : 2,
                        "WEIGHTS_0" : 3
                    },
                    "indices" : 4,
                    "material" : 0
                },
                {
                    "attributes" : {
                        "POSITION" : 5,
                        "NORMAL" : 6,
                        "JOINTS_0" : 7,
                        "WEIGHTS_0" : 8
                    },
                    "indices" : 9,
                    "material" : 1
                },
                {
                    "attributes" : {
                        "POSITION" : 10,
                        "NORMAL" : 11,
                        "JOINTS_0" : 12,
                        "WEIGHTS_0" : 13
                    },
                    "indices" : 14,
                    "material" : 2
                },
                {
                    "attributes" : {
                        "POSITION" : 15,
                        "NORMAL" : 16,
                        "JOINTS_0" : 17,
                        "WEIGHTS_0" : 18
                    },
                    "indices" : 19,
                    "material" : 3
                },
                {
                    "attributes" : {
                        "POSITION" : 20,
                        "NORMAL" : 21,
                        "JOINTS_0" : 22,
                        "WEIGHTS_0" : 23
                    },
                    "indices" : 24,
                    "material" : 4
                }
            ]
        },
        {
            "name" : "Cube.043",
            "primitives" : [
                {
                    "attributes" : {
                        "POSITION" : 26,
                        "NORMAL" : 27,
                        "JOINTS_0" : 28,
                        "WEIGHTS_0" : 29
                    },
                    "indices" : 30,
                    "material" : 0
                },
                {
                    "attributes" : {
                        "POSITION" : 31,
                        "NORMAL" : 32,
                        "JOINTS_0" : 33,
                        "WEIGHTS_0" : 34
                    },
                    "indices" : 35,
                    "material" : 1
                },
                {
                    "attributes" : {
                        "POSITION" : 36,
                        "NORMAL" : 37,
                        "JOINTS_0" : 38,
                        "WEIGHTS_0" : 39
                    },
                    "indices" : 40,
                    "material" : 2
                }
            ]
        }
    ],
    "skins" : [
        {
            "inverseBindMatrices" : 25,
            "joints" : [
                2,
                1,
                0
            ],
            "name" : "Chest_Armature"
        }
    ],
    "accessors" : [
        {
            "bufferView" : 0,
            "componentType" : 5126,
            "count" : 443,
            "max" : [
                1.020809292793274,
                0.965502917766571,
                0.8070948123931885
            ],
            "min" : [
                -1.024186372756958,
                0.011074282228946686,
                -0.9027881026268005
            ],
            "type" : "VEC3"
        },
        {
            "bufferView" : 1,
            "componentType" : 5126,
            "count" : 443,
            "type" : "VEC3"
        },
        {
            "bufferView" : 2,
            "componentType" : 5121,
            "count" : 443,
            "type" : "VEC4"
        },
        {
            "bufferView" : 3,
            "componentType" : 5126,
            "count" : 443,
            "type" : "VEC4"
        },
        {
            "bufferView" : 4,
            "componentType" : 5123,
            "count" : 1332,
            "type" : "SCALAR"
        },
        {
            "bufferView" : 5,
            "componentType" : 5126,
            "count" : 774,
            "max" : [
                0.9637149572372437,
                0.8631660342216492,
                0.7663362622261047
            ],
            "min" : [
                -0.9870355725288391,
                0.13388051092624664,
                -0.8752793073654175
            ],
            "type" : "VEC3"
        },
        {
            "bufferView" : 6,
            "componentType" : 5126,
            "count" : 774,
            "type" : "VEC3"
        },
        {
            "bufferView" : 7,
            "componentType" : 5121,
            "count" : 774,
            "type" : "VEC4"
        },
        {
            "bufferView" : 8,
            "componentType" : 5126,
            "count" : 774,
            "type" : "VEC4"
        },
        {
            "bufferView" : 9,
            "componentType" : 5123,
            "count" : 2664,
            "type" : "SCALAR"
        },
        {
            "bufferView" : 10,
            "componentType" : 5126,
            "count" : 435,
            "max" : [
                0.14994388818740845,
                1.0451099872589111,
                0.9266123175621033
            ],
            "min" : [
                -0.1166520044207573,
                0.6628828644752502,
                0.7306006550788879
            ],
            "type" : "VEC3"
        },
        {
            "bufferView" : 11,
            "componentType" : 5126,
            "count" : 435,
            "type" : "VEC3"
        },
        {
            "bufferView" : 12,
            "componentType" : 5121,
            "count" : 435,
            "type" : "VEC4"
        },
        {
            "bufferView" : 13,
            "componentType" : 5126,
            "count" : 435,
            "type" : "VEC4"
        },
        {
            "bufferView" : 14,
            "componentType" : 5123,
            "count" : 1608,
            "type" : "SCALAR"
        },
        {
            "bufferView" : 15,
            "componentType" : 5126,
            "count" : 1233,
            "max" : [
                0.9197792410850525,
                1.453364610671997,
                0.6436263918876648
            ],
            "min" : [
                -0.9210441708564758,
                0.7837192416191101,
                -0.7773849368095398
            ],
            "type" : "VEC3"
        },
        {
            "bufferView" : 16,
            "componentType" : 5126,
            "count" : 1233,
            "type" : "VEC3"
        },
        {
            "bufferView" : 17,
            "componentType" : 5121,
            "count" : 1233,
            "type" : "VEC4"
        },
        {
            "bufferView" : 18,
            "componentType" : 5126,
            "count" : 1233,
            "type" : "VEC4"
        },
        {
            "bufferView" : 19,
            "componentType" : 5123,
            "count" : 4284,
            "type" : "SCALAR"
        },
        {
            "bufferView" : 20,
            "componentType" : 5126,
            "count" : 120,
            "max" : [
                0.8092664480209351,
                1.3590672016143799,
                0.4392727315425873
            ],
            "min" : [
                -0.767596423625946,
                0.855408251285553,
                -0.18139496445655823
            ],
            "type" : "VEC3"
        },
        {
            "bufferView" : 21,
            "componentType" : 5126,
            "count" : 120,
            "type" : "VEC3"
        },
        {
            "bufferView" : 22,
            "componentType" : 5121,
            "count" : 120,
            "type" : "VEC4"
        },
        {
            "bufferView" : 23,
            "componentType" : 5126,
            "count" : 120,
            "type" : "VEC4"
        },
        {
            "bufferView" : 24,
            "componentType" : 5123,
            "count" : 324,
            "type" : "SCALAR"
        },
        {
            "bufferView" : 25,
            "componentType" : 5126,
            "count" : 3,
            "type" : "MAT4"
        },
        {
            "bufferView" : 26,
            "componentType" : 5126,
            "count" : 1522,
            "max" : [
                1.0681116580963135,
                1.8197977542877197,
                0.8337616920471191
            ],
            "min" : [
                -1.0681126117706299,
                0.8683400750160217,
                -0.951532244682312
            ],
            "type" : "VEC3"
        },
        {
            "bufferView" : 27,
            "componentType" : 5126,
            "count" : 1522,
            "type" : "VEC3"
        },
        {
            "bufferView" : 28,
            "componentType" : 5121,
            "count" : 1522,
            "type" : "VEC4"
        },
        {
            "bufferView" : 29,
            "componentType" : 5126,
            "count" : 1522,
            "type" : "VEC4"
        },
        {
            "bufferView" : 30,
            "componentType" : 5123,
            "count" : 4446,
            "type" : "SCALAR"
        },
        {
            "bufferView" : 31,
            "componentType" : 5126,
            "count" : 1902,
            "max" : [
                1.01912260055542,
                1.776489019393921,
                0.7136425971984863
            ],
            "min" : [
                -1.0191222429275513,
                1.0413583517074585,
                -0.807241678237915
            ],
            "type" : "VEC3"
        },
        {
            "bufferView" : 32,
            "componentType" : 5126,
            "count" : 1902,
            "type" : "VEC3"
        },
        {
            "bufferView" : 33,
            "componentType" : 5121,
            "count" : 1902,
            "type" : "VEC4"
        },
        {
            "bufferView" : 34,
            "componentType" : 5126,
            "count" : 1902,
            "type" : "VEC4"
        },
        {
            "bufferView" : 35,
            "componentType" : 5123,
            "count" : 6768,
            "type" : "SCALAR"
        },
        {
            "bufferView" : 36,
            "componentType" : 5126,
            "count" : 445,
            "max" : [
                0.1242283508181572,
                1.8227136135101318,
                0.7340341806411743
            ],
            "min" : [
                -0.08951295167207718,
                1.2350373268127441,
                -0.8278308510780334
            ],
            "type" : "VEC3"
        },
        {
            "bufferView" : 37,
            "componentType" : 5126,
            "count" : 445,
            "type" : "VEC3"
        },
        {
            "bufferView" : 38,
            "componentType" : 5121,
            "count" : 445,
            "type" : "VEC4"
        },
        {
            "bufferView" : 39,
            "componentType" : 5126,
            "count" : 445,
            "type" : "VEC4"
        },
        {
            "bufferView" : 40,
            "componentType" : 5123,
            "count" : 2400,
            "type" : "SCALAR"
        },
        {
            "bufferView" : 41,
            "componentType" : 5126,
            "count" : 22,
            "max" : [
                0.875
            ],
            "min" : [
                0
            ],
            "type" : "SCALAR"
        },
        {
            "bufferView" : 42,
            "componentType" : 5126,
            "count" : 22,
            "type" : "VEC3"
        },
        {
            "bufferView" : 43,
            "componentType" : 5126,
            "count" : 22,
            "type" : "VEC4"
        },
        {
            "bufferView" : 44,
            "componentType" : 5126,
            "count" : 22,
            "type" : "VEC3"
        },
        {
            "bufferView" : 45,
            "componentType" : 5126,
            "count" : 22,
            "type" : "VEC3"
        },
        {
            "bufferView" : 46,
            "componentType" : 5126,
            "count" : 22,
            "type" : "VEC4"
        },
        {
            "bufferView" : 47,
            "componentType" : 5126,
            "count" : 22,
            "type" : "VEC3"
        },
        {
            "bufferView" : 48,
            "componentType" : 5126,
            "count" : 22,
            "type" : "VEC3"
        },
        {
            "bufferView" : 49,
            "componentType" : 5126,
            "count" : 22,
            "type" : "VEC4"
        },
        {
            "bufferView" : 50,
            "componentType" : 5126,
            "count" : 22,
            "type" : "VEC3"
        },
        {
            "bufferView" : 51,
            "componentType" : 5126,
            "count" : 19,
            "max" : [
                0.75
            ],
            "min" : [
                0
            ],
            "type" : "SCALAR"
        },
        {
            "bufferView" : 52,
            "componentType" : 5126,
            "count" : 19,
            "type" : "VEC3"
        },
        {
            "bufferView" : 53,
            "componentType" : 5126,
            "count" : 19,
            "type" : "VEC4"
        },
        {
            "bufferView" : 54,
            "componentType" : 5126,
            "count" : 19,
            "type" : "VEC3"
        },
        {
            "bufferView" : 55,
            "componentType" : 5126,
            "count" : 19,
            "type" : "VEC3"
        },
        {
            "bufferView" : 56,
            "componentType" : 5126,
            "count" : 19,
            "type" : "VEC4"
        },
        {
            "bufferView" : 57,
            "componentType" : 5126,
            "count" : 19,
            "type" : "VEC3"
        },
        {
            "bufferView" : 58,
            "componentType" : 5126,
            "count" : 19,
            "type" : "VEC3"
        },
        {
            "bufferView" : 59,
            "componentType" : 5126,
            "count" : 19,
            "type" : "VEC4"
        },
        {
            "bufferView" : 60,
            "componentType" : 5126,
            "count" : 19,
            "type" : "VEC3"
        }
    ],
    "bufferViews" : [
        {
            "buffer" : 0,
            "byteLength" : 5316,
            "byteOffset" : 0
        },
        {
            "buffer" : 0,
            "byteLength" : 5316,
            "byteOffset" : 5316
        },
        {
            "buffer" : 0,
            "byteLength" : 1772,
            "byteOffset" : 10632
        },
        {
            "buffer" : 0,
            "byteLength" : 7088,
            "byteOffset" : 12404
        },
        {
            "buffer" : 0,
            "byteLength" : 2664,
            "byteOffset" : 19492
        },
        {
            "buffer" : 0,
            "byteLength" : 9288,
            "byteOffset" : 22156
        },
        {
            "buffer" : 0,
            "byteLength" : 9288,
            "byteOffset" : 31444
        },
        {
            "buffer" : 0,
            "byteLength" : 3096,
            "byteOffset" : 40732
        },
        {
            "buffer" : 0,
            "byteLength" : 12384,
            "byteOffset" : 43828
        },
        {
            "buffer" : 0,
            "byteLength" : 5328,
            "byteOffset" : 56212
        },
        {
            "buffer" : 0,
            "byteLength" : 5220,
            "byteOffset" : 61540
        },
        {
            "buffer" : 0,
            "byteLength" : 5220,
            "byteOffset" : 66760
        },
        {
            "buffer" : 0,
            "byteLength" : 1740,
            "byteOffset" : 71980
        },
        {
            "buffer" : 0,
            "byteLength" : 6960,
            "byteOffset" : 73720
        },
        {
            "buffer" : 0,
            "byteLength" : 3216,
            "byteOffset" : 80680
        },
        {
            "buffer" : 0,
            "byteLength" : 14796,
            "byteOffset" : 83896
        },
        {
            "buffer" : 0,
            "byteLength" : 14796,
            "byteOffset" : 98692
        },
        {
            "buffer" : 0,
            "byteLength" : 4932,
            "byteOffset" : 113488
        },
        {
            "buffer" : 0,
            "byteLength" : 19728,
            "byteOffset" : 118420
        },
        {
            "buffer" : 0,
            "byteLength" : 8568,
            "byteOffset" : 138148
        },
        {
            "buffer" : 0,
            "byteLength" : 1440,
            "byteOffset" : 146716
        },
        {
            "buffer" : 0,
            "byteLength" : 1440,
            "byteOffset" : 148156
        },
        {
            "buffer" : 0,
            "byteLength" : 480,
            "byteOffset" : 149596
        },
        {
            "buffer" : 0,
            "byteLength" : 1920,
            "byteOffset" : 150076
        },
        {
            "buffer" : 0,
            "byteLength" : 648,
            "byteOffset" : 151996
        },
        {
            "buffer" : 0,
            "byteLength" : 192,
            "byteOffset" : 152644
        },
        {
            "buffer" : 0,
            "byteLength" : 18264,
            "byteOffset" : 152836
        },
        {
            "buffer" : 0,
            "byteLength" : 18264,
            "byteOffset" : 171100
        },
        {
            "buffer" : 0,
            "byteLength" : 6088,
            "byteOffset" : 189364
        },
        {
            "buffer" : 0,
            "byteLength" : 24352,
            "byteOffset" : 195452
        },
        {
            "buffer" : 0,
            "byteLength" : 8892,
            "byteOffset" : 219804
        },
        {
            "buffer" : 0,
            "byteLength" : 22824,
            "byteOffset" : 228696
        },
        {
            "buffer" : 0,
            "byteLength" : 22824,
            "byteOffset" : 251520
        },
        {
            "buffer" : 0,
            "byteLength" : 7608,
            "byteOffset" : 274344
        },
        {
            "buffer" : 0,
            "byteLength" : 30432,
            "byteOffset" : 281952
        },
        {
            "buffer" : 0,
            "byteLength" : 13536,
            "byteOffset" : 312384
        },
        {
            "buffer" : 0,
            "byteLength" : 5340,
            "byteOffset" : 325920
        },
        {
            "buffer" : 0,
            "byteLength" : 5340,
            "byteOffset" : 331260
        },
        {
            "buffer" : 0,
            "byteLength" : 1780,
            "byteOffset" : 336600
        },
        {
            "buffer" : 0,
            "byteLength" : 7120,
            "byteOffset" : 338380
        },
        {
            "buffer" : 0,
            "byteLength" : 4800,
            "byteOffset" : 345500
        },
        {
            "buffer" : 0,
            "byteLength" : 88,
            "byteOffset" : 350300
        },
        {
            "buffer" : 0,
            "byteLength" : 264,
            "byteOffset" : 350388
        },
        {
            "buffer" : 0,
            "byteLength" : 352,
            "byteOffset" : 350652
        },
        {
            "buffer" : 0,
            "byteLength" : 264,
            "byteOffset" : 351004
        },
        {
            "buffer" : 0,
            "byteLength" : 264,
            "byteOffset" : 351268
        },
        {
            "buffer" : 0,
            "byteLength" : 352,
            "byteOffset" : 351532
        },
        {
            "buffer" : 0,
            "byteLength" : 264,
            "byteOffset" : 351884
        },
        {
            "buffer" : 0,
            "byteLength" : 264,
            "byteOffset" : 352148
        },
        {
            "buffer" : 0,
            "byteLength" : 352,
            "byteOffset" : 352412
        },
        {
            "buffer" : 0,
            "byteLength" : 264,
            "byteOffset" : 352764
        },
        {
            "buffer" : 0,
            "byteLength" : 76,
            "byteOffset" : 353028
        },
        {
            "buffer" : 0,
            "byteLength" : 228,
            "byteOffset" : 353104
        },
        {
            "buffer" : 0,
            "byteLength" : 304,
            "byteOffset" : 353332
        },
        {
            "buffer" : 0,
            "byteLength" : 228,
            "byteOffset" : 353636
        },
        {
            "buffer" : 0,
            "byteLength" : 228,
            "byteOffset" : 353864
        },
        {
            "buffer" : 0,
            "byteLength" : 304,
            "byteOffset" : 354092
        },
        {
            "buffer" : 0,
            "byteLength" : 228,
            "byteOffset" : 354396
        },
        {
            "buffer" : 0,
            "byteLength" : 228,
            "byteOffset" : 354624
        },
        {
            "buffer" : 0,
            "byteLength" : 304,
            "byteOffset" : 354852
        },
        {
            "buffer" : 0,
            "byteLength" : 228,
            "byteOffset" : 355156
        }
    ],
    "buffers" : [
        {
            "byteLength" : 355384,
            "uri" : "Chest-5e6b1f7fb145c3da59ec7bd1d1bbc13c.bin"
        }
    ]
}
