{
    "asset" : {
        "generator" : "Khronos glTF Blender I/O v3.2.43",
        "version" : "2.0"
    },
    "scene" : 0,
    "scenes" : [
        {
            "name" : "Scene",
            "nodes" : [
                0
            ]
        }
    ],
    "nodes" : [
        {
            "mesh" : 0,
            "name" : "Cloud_2"
        }
    ],
    "materials" : [
        {
            "doubleSided" : true,
            "name" : "Cloud",
            "pbrMetallicRoughness" : {
                "baseColorFactor" : [
                    0.564797043800354,
                    0.5925737619400024,
                    0.5061427354812622,
                    1
                ],
                "metallicFactor" : 0,
                "roughnessFactor" : 0.5
            }
        }
    ],
    "meshes" : [
        {
            "name" : "Cube.303",
            "primitives" : [
                {
                    "attributes" : {
                        "POSITION" : 0,
                        "NORMAL" : 1
                    },
                    "indices" : 2,
                    "material" : 0
                }
            ]
        }
    ],
    "accessors" : [
        {
            "bufferView" : 0,
            "componentType" : 5126,
            "count" : 339,
            "max" : [
                1.9912298917770386,
                2.166006565093994,
                1.2237458229064941
            ],
            "min" : [
                -2.0149080753326416,
                -0.23559501767158508,
                -1.223745584487915
            ],
            "type" : "VEC3"
        },
        {
            "bufferView" : 1,
            "componentType" : 5126,
            "count" : 339,
            "type" : "VEC3"
        },
        {
            "bufferView" : 2,
            "componentType" : 5123,
            "count" : 1524,
            "type" : "SCALAR"
        }
    ],
    "bufferViews" : [
        {
            "buffer" : 0,
            "byteLength" : 4068,
            "byteOffset" : 0
        },
        {
            "buffer" : 0,
            "byteLength" : 4068,
            "byteOffset" : 4068
        },
        {
            "buffer" : 0,
            "byteLength" : 3048,
            "byteOffset" : 8136
        }
    ],
    "buffers" : [
        {
            "byteLength" : 11184,
            "uri" : "Cloud_2-274c690ff7e1bae27e12a38a905210d6.bin"
        }
    ]
}
