{
    "asset" : {
        "generator" : "Khronos glTF Blender I/O v3.2.43",
        "version" : "2.0"
    },
    "scene" : 0,
    "scenes" : [
        {
            "name" : "Scene",
            "nodes" : [
                0
            ]
        }
    ],
    "nodes" : [
        {
            "mesh" : 0,
            "name" : "Cloud_3"
        }
    ],
    "materials" : [
        {
            "doubleSided" : true,
            "name" : "Cloud",
            "pbrMetallicRoughness" : {
                "baseColorFactor" : [
                    0.564797043800354,
                    0.5925737619400024,
                    0.5061427354812622,
                    1
                ],
                "metallicFactor" : 0,
                "roughnessFactor" : 0.5
            }
        }
    ],
    "meshes" : [
        {
            "name" : "Cube.343",
            "primitives" : [
                {
                    "attributes" : {
                        "POSITION" : 0,
                        "NORMAL" : 1
                    },
                    "indices" : 2,
                    "material" : 0
                }
            ]
        }
    ],
    "accessors" : [
        {
            "bufferView" : 0,
            "componentType" : 5126,
            "count" : 393,
            "max" : [
                3.302924394607544,
                2.809738874435425,
                1.746488094329834
            ],
            "min" : [
                -2.5491342544555664,
                -0.350820392370224,
                -1.7464878559112549
            ],
            "type" : "VEC3"
        },
        {
            "bufferView" : 1,
            "componentType" : 5126,
            "count" : 393,
            "type" : "VEC3"
        },
        {
            "bufferView" : 2,
            "componentType" : 5123,
            "count" : 1722,
            "type" : "SCALAR"
        }
    ],
    "bufferViews" : [
        {
            "buffer" : 0,
            "byteLength" : 4716,
            "byteOffset" : 0
        },
        {
            "buffer" : 0,
            "byteLength" : 4716,
            "byteOffset" : 4716
        },
        {
            "buffer" : 0,
            "byteLength" : 3444,
            "byteOffset" : 9432
        }
    ],
    "buffers" : [
        {
            "byteLength" : 12876,
            "uri" : "Cloud_3-941cfbd5a6c508bd66f38f88f258f8bf.bin"
        }
    ]
}
