{
    "asset" : {
        "generator" : "Khronos glTF Blender I/O v3.2.43",
        "version" : "2.0"
    },
    "scene" : 0,
    "scenes" : [
        {
            "name" : "Scene",
            "nodes" : [
                0
            ]
        }
    ],
    "nodes" : [
        {
            "mesh" : 0,
            "name" : "Cloud_1"
        }
    ],
    "materials" : [
        {
            "doubleSided" : true,
            "name" : "Cloud",
            "pbrMetallicRoughness" : {
                "baseColorFactor" : [
                    0.564797043800354,
                    0.5925737619400024,
                    0.5061427354812622,
                    1
                ],
                "metallicFactor" : 0,
                "roughnessFactor" : 0.5
            }
        }
    ],
    "meshes" : [
        {
            "name" : "Cube.302",
            "primitives" : [
                {
                    "attributes" : {
                        "POSITION" : 0,
                        "NORMAL" : 1
                    },
                    "indices" : 2,
                    "material" : 0
                }
            ]
        }
    ],
    "accessors" : [
        {
            "bufferView" : 0,
            "componentType" : 5126,
            "count" : 234,
            "max" : [
                1.7796218395233154,
                1.9776616096496582,
                1.2210891246795654
            ],
            "min" : [
                -1.5091098546981812,
                -0.1391809582710266,
                -1.2264022827148438
            ],
            "type" : "VEC3"
        },
        {
            "bufferView" : 1,
            "componentType" : 5126,
            "count" : 234,
            "type" : "VEC3"
        },
        {
            "bufferView" : 2,
            "componentType" : 5123,
            "count" : 1062,
            "type" : "SCALAR"
        }
    ],
    "bufferViews" : [
        {
            "buffer" : 0,
            "byteLength" : 2808,
            "byteOffset" : 0
        },
        {
            "buffer" : 0,
            "byteLength" : 2808,
            "byteOffset" : 2808
        },
        {
            "buffer" : 0,
            "byteLength" : 2124,
            "byteOffset" : 5616
        }
    ],
    "buffers" : [
        {
            "byteLength" : 7740,
            "uri" : "Cloud_1-91faa81f0c4e4c4eca2a06e20f14b0a3.bin"
        }
    ]
}
