{
    "asset" : {
        "generator" : "Khronos glTF Blender I/O v3.2.43",
        "version" : "2.0"
    },
    "scene" : 0,
    "scenes" : [
        {
            "name" : "Scene",
            "nodes" : [
                0
            ]
        }
    ],
    "nodes" : [
        {
            "mesh" : 0,
            "name" : "Coin"
        }
    ],
    "materials" : [
        {
            "doubleSided" : true,
            "name" : "Gold",
            "pbrMetallicRoughness" : {
                "baseColorFactor" : [
                    0.787394106388092,
                    0.46046555042266846,
                    0.10785872489213943,
                    1
                ],
                "metallicFactor" : 0,
                "roughnessFactor" : 0.5
            }
        },
        {
            "doubleSided" : true,
            "name" : "Gold_Dark",
            "pbrMetallicRoughness" : {
                "baseColorFactor" : [
                    0.3931097388267517,
                    0.23273468017578125,
                    0.057330645620822906,
                    1
                ],
                "metallicFactor" : 0,
                "roughnessFactor" : 0.5
            }
        }
    ],
    "meshes" : [
        {
            "name" : "Cylinder.012",
            "primitives" : [
                {
                    "attributes" : {
                        "POSITION" : 0,
                        "NORMAL" : 1
                    },
                    "indices" : 2,
                    "material" : 0
                },
                {
                    "attributes" : {
                        "POSITION" : 3,
                        "NORMAL" : 4
                    },
                    "indices" : 5,
                    "material" : 1
                }
            ]
        }
    ],
    "accessors" : [
        {
            "bufferView" : 0,
            "componentType" : 5126,
            "count" : 370,
            "max" : [
                0.9588863253593445,
                0.9600939750671387,
                0.26172372698783875
            ],
            "min" : [
                -0.9588863253593445,
                -0.9600939750671387,
                -0.26172372698783875
            ],
            "type" : "VEC3"
        },
        {
            "bufferView" : 1,
            "componentType" : 5126,
            "count" : 370,
            "type" : "VEC3"
        },
        {
            "bufferView" : 2,
            "componentType" : 5123,
            "count" : 1248,
            "type" : "SCALAR"
        },
        {
            "bufferView" : 3,
            "componentType" : 5126,
            "count" : 40,
            "max" : [
                0.6633210778236389,
                0.6641565561294556,
                0.147481769323349
            ],
            "min" : [
                -0.6633210778236389,
                -0.6641565561294556,
                -0.1474817544221878
            ],
            "type" : "VEC3"
        },
        {
            "bufferView" : 4,
            "componentType" : 5126,
            "count" : 40,
            "type" : "VEC3"
        },
        {
            "bufferView" : 5,
            "componentType" : 5123,
            "count" : 108,
            "type" : "SCALAR"
        }
    ],
    "bufferViews" : [
        {
            "buffer" : 0,
            "byteLength" : 4440,
            "byteOffset" : 0
        },
        {
            "buffer" : 0,
            "byteLength" : 4440,
            "byteOffset" : 4440
        },
        {
            "buffer" : 0,
            "byteLength" : 2496,
            "byteOffset" : 8880
        },
        {
            "buffer" : 0,
            "byteLength" : 480,
            "byteOffset" : 11376
        },
        {
            "buffer" : 0,
            "byteLength" : 480,
            "byteOffset" : 11856
        },
        {
            "buffer" : 0,
            "byteLength" : 216,
            "byteOffset" : 12336
        }
    ],
    "buffers" : [
        {
            "byteLength" : 12552,
            "uri" : "Coin-bf5961709bb6984ad13105bfa182c230.bin"
        }
    ]
}
