{
    "asset" : {
        "generator" : "Khronos glTF Blender I/O v3.2.43",
        "version" : "2.0"
    },
    "scene" : 0,
    "scenes" : [
        {
            "name" : "Scene",
            "nodes" : [
                0
            ]
        }
    ],
    "nodes" : [
        {
            "mesh" : 0,
            "name" : "Compass_Closed"
        }
    ],
    "materials" : [
        {
            "doubleSided" : true,
            "name" : "Yellow",
            "pbrMetallicRoughness" : {
                "baseColorFactor" : [
                    0.27382591366767883,
                    0.1869039088487625,
                    0.05440109595656395,
                    1
                ],
                "metallicFactor" : 0,
                "roughnessFactor" : 0.5
            }
        },
        {
            "doubleSided" : true,
            "name" : "DarkYellow",
            "pbrMetallicRoughness" : {
                "baseColorFactor" : [
                    0.18446631729602814,
                    0.1268276423215866,
                    0.03814882040023804,
                    1
                ],
                "metallicFactor" : 0,
                "roughnessFactor" : 0.5
            }
        }
    ],
    "meshes" : [
        {
            "name" : "Cylinder.027",
            "primitives" : [
                {
                    "attributes" : {
                        "POSITION" : 0,
                        "NORMAL" : 1
                    },
                    "indices" : 2,
                    "material" : 0
                },
                {
                    "attributes" : {
                        "POSITION" : 3,
                        "NORMAL" : 4
                    },
                    "indices" : 5,
                    "material" : 1
                }
            ]
        }
    ],
    "accessors" : [
        {
            "bufferView" : 0,
            "componentType" : 5126,
            "count" : 414,
            "max" : [
                0.2720675468444824,
                0.4995681345462799,
                0.28643789887428284
            ],
            "min" : [
                -0.3018021583557129,
                -0.28606873750686646,
                0.0024001067504286766
            ],
            "type" : "VEC3"
        },
        {
            "bufferView" : 1,
            "componentType" : 5126,
            "count" : 414,
            "type" : "VEC3"
        },
        {
            "bufferView" : 2,
            "componentType" : 5123,
            "count" : 648,
            "type" : "SCALAR"
        },
        {
            "bufferView" : 3,
            "componentType" : 5126,
            "count" : 522,
            "max" : [
                0.3364381492137909,
                0.3384994566440582,
                0.22067885100841522
            ],
            "min" : [
                -0.29082679748535156,
                -0.3057934045791626,
                0.01690354198217392
            ],
            "type" : "VEC3"
        },
        {
            "bufferView" : 4,
            "componentType" : 5126,
            "count" : 522,
            "type" : "VEC3"
        },
        {
            "bufferView" : 5,
            "componentType" : 5123,
            "count" : 804,
            "type" : "SCALAR"
        }
    ],
    "bufferViews" : [
        {
            "buffer" : 0,
            "byteLength" : 4968,
            "byteOffset" : 0
        },
        {
            "buffer" : 0,
            "byteLength" : 4968,
            "byteOffset" : 4968
        },
        {
            "buffer" : 0,
            "byteLength" : 1296,
            "byteOffset" : 9936
        },
        {
            "buffer" : 0,
            "byteLength" : 6264,
            "byteOffset" : 11232
        },
        {
            "buffer" : 0,
            "byteLength" : 6264,
            "byteOffset" : 17496
        },
        {
            "buffer" : 0,
            "byteLength" : 1608,
            "byteOffset" : 23760
        }
    ],
    "buffers" : [
        {
            "byteLength" : 25368,
            "uri" : "Compass_Closed-aced950eadd5f1fcf6c3c18851a84c59.bin"
        }
    ]
}
