{
    "asset" : {
        "generator" : "Khronos glTF Blender I/O v3.2.43",
        "version" : "2.0"
    },
    "scene" : 0,
    "scenes" : [
        {
            "name" : "Scene",
            "nodes" : [
                0
            ]
        }
    ],
    "nodes" : [
        {
            "mesh" : 0,
            "name" : "Compass_Open"
        }
    ],
    "materials" : [
        {
            "doubleSided" : true,
            "name" : "Yellow",
            "pbrMetallicRoughness" : {
                "baseColorFactor" : [
                    0.27382591366767883,
                    0.1869039088487625,
                    0.05440109595656395,
                    1
                ],
                "metallicFactor" : 0,
                "roughnessFactor" : 0.5
            }
        },
        {
            "doubleSided" : true,
            "name" : "Black",
            "pbrMetallicRoughness" : {
                "baseColorFactor" : [
                    0.033101364970207214,
                    0.033101364970207214,
                    0.033101364970207214,
                    1
                ],
                "metallicFactor" : 0,
                "roughnessFactor" : 0.5
            }
        },
        {
            "doubleSided" : true,
            "name" : "DarkYellow",
            "pbrMetallicRoughness" : {
                "baseColorFactor" : [
                    0.18446631729602814,
                    0.1268276423215866,
                    0.03814882040023804,
                    1
                ],
                "metallicFactor" : 0,
                "roughnessFactor" : 0.5
            }
        },
        {
            "doubleSided" : true,
            "name" : "Red",
            "pbrMetallicRoughness" : {
                "baseColorFactor" : [
                    0.21402914822101593,
                    0.039549391716718674,
                    0.03738441318273544,
                    1
                ],
                "metallicFactor" : 0,
                "roughnessFactor" : 0.5
            }
        },
        {
            "doubleSided" : true,
            "name" : "White",
            "pbrMetallicRoughness" : {
                "baseColorFactor" : [
                    0.698187530040741,
                    0.698187530040741,
                    0.698187530040741,
                    1
                ],
                "metallicFactor" : 0,
                "roughnessFactor" : 0.5
            }
        }
    ],
    "meshes" : [
        {
            "name" : "Cylinder.030",
            "primitives" : [
                {
                    "attributes" : {
                        "POSITION" : 0,
                        "NORMAL" : 1
                    },
                    "indices" : 2,
                    "material" : 0
                },
                {
                    "attributes" : {
                        "POSITION" : 3,
                        "NORMAL" : 4
                    },
                    "indices" : 5,
                    "material" : 1
                },
                {
                    "attributes" : {
                        "POSITION" : 6,
                        "NORMAL" : 7
                    },
                    "indices" : 8,
                    "material" : 2
                },
                {
                    "attributes" : {
                        "POSITION" : 9,
                        "NORMAL" : 10
                    },
                    "indices" : 11,
                    "material" : 3
                },
                {
                    "attributes" : {
                        "POSITION" : 12,
                        "NORMAL" : 13
                    },
                    "indices" : 14,
                    "material" : 4
                }
            ]
        }
    ],
    "accessors" : [
        {
            "bufferView" : 0,
            "componentType" : 5126,
            "count" : 414,
            "max" : [
                0.2720675468444824,
                0.4995681345462799,
                0.6734271049499512
            ],
            "min" : [
                -0.5714873671531677,
                -0.28606876730918884,
                0.0024001069832593203
            ],
            "type" : "VEC3"
        },
        {
            "bufferView" : 1,
            "componentType" : 5126,
            "count" : 414,
            "type" : "VEC3"
        },
        {
            "bufferView" : 2,
            "componentType" : 5123,
            "count" : 648,
            "type" : "SCALAR"
        },
        {
            "bufferView" : 3,
            "componentType" : 5126,
            "count" : 10,
            "max" : [
                0.2583718001842499,
                0.2716681957244873,
                0.16142728924751282
            ],
            "min" : [
                -0.2583717703819275,
                -0.2716681957244873,
                0.16142725944519043
            ],
            "type" : "VEC3"
        },
        {
            "bufferView" : 4,
            "componentType" : 5126,
            "count" : 10,
            "type" : "VEC3"
        },
        {
            "bufferView" : 5,
            "componentType" : 5123,
            "count" : 24,
            "type" : "SCALAR"
        },
        {
            "bufferView" : 6,
            "componentType" : 5126,
            "count" : 798,
            "max" : [
                0.3364381492137909,
                0.3384994566440582,
                0.7051071524620056
            ],
            "min" : [
                -0.5513967871665955,
                -0.305793434381485,
                0.01690354198217392
            ],
            "type" : "VEC3"
        },
        {
            "bufferView" : 7,
            "componentType" : 5126,
            "count" : 798,
            "type" : "VEC3"
        },
        {
            "bufferView" : 8,
            "componentType" : 5123,
            "count" : 1212,
            "type" : "SCALAR"
        },
        {
            "bufferView" : 9,
            "componentType" : 5126,
            "count" : 30,
            "max" : [
                0.008057157509028912,
                0.016167178750038147,
                0.1752423644065857
            ],
            "min" : [
                -0.1196521446108818,
                -0.059630438685417175,
                0.1665293425321579
            ],
            "type" : "VEC3"
        },
        {
            "bufferView" : 10,
            "componentType" : 5126,
            "count" : 30,
            "type" : "VEC3"
        },
        {
            "bufferView" : 11,
            "componentType" : 5123,
            "count" : 42,
            "type" : "SCALAR"
        },
        {
            "bufferView" : 12,
            "componentType" : 5126,
            "count" : 30,
            "max" : [
                0.1196521446108818,
                0.05963042378425598,
                0.1752423644065857
            ],
            "min" : [
                -0.008057157509028912,
                -0.01616719365119934,
                0.1665293425321579
            ],
            "type" : "VEC3"
        },
        {
            "bufferView" : 13,
            "componentType" : 5126,
            "count" : 30,
            "type" : "VEC3"
        },
        {
            "bufferView" : 14,
            "componentType" : 5123,
            "count" : 42,
            "type" : "SCALAR"
        }
    ],
    "bufferViews" : [
        {
            "buffer" : 0,
            "byteLength" : 4968,
            "byteOffset" : 0
        },
        {
            "buffer" : 0,
            "byteLength" : 4968,
            "byteOffset" : 4968
        },
        {
            "buffer" : 0,
            "byteLength" : 1296,
            "byteOffset" : 9936
        },
        {
            "buffer" : 0,
            "byteLength" : 120,
            "byteOffset" : 11232
        },
        {
            "buffer" : 0,
            "byteLength" : 120,
            "byteOffset" : 11352
        },
        {
            "buffer" : 0,
            "byteLength" : 48,
            "byteOffset" : 11472
        },
        {
            "buffer" : 0,
            "byteLength" : 9576,
            "byteOffset" : 11520
        },
        {
            "buffer" : 0,
            "byteLength" : 9576,
            "byteOffset" : 21096
        },
        {
            "buffer" : 0,
            "byteLength" : 2424,
            "byteOffset" : 30672
        },
        {
            "buffer" : 0,
            "byteLength" : 360,
            "byteOffset" : 33096
        },
        {
            "buffer" : 0,
            "byteLength" : 360,
            "byteOffset" : 33456
        },
        {
            "buffer" : 0,
            "byteLength" : 84,
            "byteOffset" : 33816
        },
        {
            "buffer" : 0,
            "byteLength" : 360,
            "byteOffset" : 33900
        },
        {
            "buffer" : 0,
            "byteLength" : 360,
            "byteOffset" : 34260
        },
        {
            "buffer" : 0,
            "byteLength" : 84,
            "byteOffset" : 34620
        }
    ],
    "buffers" : [
        {
            "byteLength" : 34704,
            "uri" : "Compass_Open-ac5a49a4b571061579c5352d990db19c.bin"
        }
    ]
}
