{
    "asset" : {
        "generator" : "Khronos glTF Blender I/O v3.2.43",
        "version" : "2.0"
    },
    "scene" : 0,
    "scenes" : [
        {
            "name" : "Scene",
            "nodes" : [
                0
            ]
        }
    ],
    "nodes" : [
        {
            "mesh" : 0,
            "name" : "Cube_Grass_Corner"
        }
    ],
    "materials" : [
        {
            "doubleSided" : true,
            "name" : "Green_Light",
            "pbrMetallicRoughness" : {
                "baseColorFactor" : [
                    0.3128679394721985,
                    0.41093432903289795,
                    0.0227811299264431,
                    1
                ],
                "metallicFactor" : 0,
                "roughnessFactor" : 0.5
            }
        },
        {
            "doubleSided" : true,
            "name" : "Dirt_1",
            "pbrMetallicRoughness" : {
                "baseColorFactor" : [
                    0.48689132928848267,
                    0.2469639927148819,
                    0.1019323468208313,
                    1
                ],
                "metallicFactor" : 0,
                "roughnessFactor" : 0.5
            }
        },
        {
            "doubleSided" : true,
            "name" : "Dirt_2",
            "pbrMetallicRoughness" : {
                "baseColorFactor" : [
                    0.3185347318649292,
                    0.16343075037002563,
                    0.06885882467031479,
                    1
                ],
                "metallicFactor" : 0,
                "roughnessFactor" : 0.5
            }
        },
        {
            "doubleSided" : true,
            "name" : "Dirt_3",
            "pbrMetallicRoughness" : {
                "baseColorFactor" : [
                    0.7873923778533936,
                    0.3653056025505066,
                    0.16989240050315857,
                    1
                ],
                "metallicFactor" : 0,
                "roughnessFactor" : 0.5
            }
        }
    ],
    "meshes" : [
        {
            "name" : "Cube.279",
            "primitives" : [
                {
                    "attributes" : {
                        "POSITION" : 0,
                        "NORMAL" : 1
                    },
                    "indices" : 2,
                    "material" : 0
                },
                {
                    "attributes" : {
                        "POSITION" : 3,
                        "NORMAL" : 4
                    },
                    "indices" : 5,
                    "material" : 1
                },
                {
                    "attributes" : {
                        "POSITION" : 6,
                        "NORMAL" : 7
                    },
                    "indices" : 8,
                    "material" : 2
                },
                {
                    "attributes" : {
                        "POSITION" : 9,
                        "NORMAL" : 10
                    },
                    "indices" : 11,
                    "material" : 3
                }
            ]
        }
    ],
    "accessors" : [
        {
            "bufferView" : 0,
            "componentType" : 5126,
            "count" : 63,
            "max" : [
                0.9999993443489075,
                0.995956301689148,
                1.1167188882827759
            ],
            "min" : [
                -1.1167196035385132,
                0.5271554589271545,
                -1.0000008344650269
            ],
            "type" : "VEC3"
        },
        {
            "bufferView" : 1,
            "componentType" : 5126,
            "count" : 63,
            "type" : "VEC3"
        },
        {
            "bufferView" : 2,
            "componentType" : 5123,
            "count" : 228,
            "type" : "SCALAR"
        },
        {
            "bufferView" : 3,
            "componentType" : 5126,
            "count" : 33,
            "max" : [
                1.0000007152557373,
                -0.024297606199979782,
                1.0000003576278687
            ],
            "min" : [
                -1.0000004768371582,
                -0.9999999403953552,
                -1.0000005960464478
            ],
            "type" : "VEC3"
        },
        {
            "bufferView" : 4,
            "componentType" : 5126,
            "count" : 33,
            "type" : "VEC3"
        },
        {
            "bufferView" : 5,
            "componentType" : 5123,
            "count" : 72,
            "type" : "SCALAR"
        },
        {
            "bufferView" : 6,
            "componentType" : 5126,
            "count" : 24,
            "max" : [
                0.9999992847442627,
                0.623988926410675,
                1.0000003576278687
            ],
            "min" : [
                -1.0000004768371582,
                -0.623988926410675,
                -1.0000005960464478
            ],
            "type" : "VEC3"
        },
        {
            "bufferView" : 7,
            "componentType" : 5126,
            "count" : 24,
            "type" : "VEC3"
        },
        {
            "bufferView" : 8,
            "componentType" : 5123,
            "count" : 48,
            "type" : "SCALAR"
        },
        {
            "bufferView" : 9,
            "componentType" : 5126,
            "count" : 24,
            "max" : [
                0.9999992847442627,
                0.2812558114528656,
                1.0000003576278687
            ],
            "min" : [
                -1.0000004768371582,
                -0.873584508895874,
                -1.0000005960464478
            ],
            "type" : "VEC3"
        },
        {
            "bufferView" : 10,
            "componentType" : 5126,
            "count" : 24,
            "type" : "VEC3"
        },
        {
            "bufferView" : 11,
            "componentType" : 5123,
            "count" : 48,
            "type" : "SCALAR"
        }
    ],
    "bufferViews" : [
        {
            "buffer" : 0,
            "byteLength" : 756,
            "byteOffset" : 0
        },
        {
            "buffer" : 0,
            "byteLength" : 756,
            "byteOffset" : 756
        },
        {
            "buffer" : 0,
            "byteLength" : 456,
            "byteOffset" : 1512
        },
        {
            "buffer" : 0,
            "byteLength" : 396,
            "byteOffset" : 1968
        },
        {
            "buffer" : 0,
            "byteLength" : 396,
            "byteOffset" : 2364
        },
        {
            "buffer" : 0,
            "byteLength" : 144,
            "byteOffset" : 2760
        },
        {
            "buffer" : 0,
            "byteLength" : 288,
            "byteOffset" : 2904
        },
        {
            "buffer" : 0,
            "byteLength" : 288,
            "byteOffset" : 3192
        },
        {
            "buffer" : 0,
            "byteLength" : 96,
            "byteOffset" : 3480
        },
        {
            "buffer" : 0,
            "byteLength" : 288,
            "byteOffset" : 3576
        },
        {
            "buffer" : 0,
            "byteLength" : 288,
            "byteOffset" : 3864
        },
        {
            "buffer" : 0,
            "byteLength" : 96,
            "byteOffset" : 4152
        }
    ],
    "buffers" : [
        {
            "byteLength" : 4248,
            "uri" : "Cube_Grass_Corner-c25b1eec2874b50e623acfe03f0cb6fd.bin"
        }
    ]
}
