{
    "asset" : {
        "generator" : "Khronos glTF Blender I/O v3.2.43",
        "version" : "2.0"
    },
    "scene" : 0,
    "scenes" : [
        {
            "name" : "Scene",
            "nodes" : [
                0
            ]
        }
    ],
    "nodes" : [
        {
            "mesh" : 0,
            "name" : "Cube_Question"
        }
    ],
    "materials" : [
        {
            "doubleSided" : true,
            "name" : "Blue",
            "pbrMetallicRoughness" : {
                "baseColorFactor" : [
                    0.056980472058057785,
                    0.18434832990169525,
                    0.3757452964782715,
                    1
                ],
                "metallicFactor" : 0,
                "roughnessFactor" : 0.5
            }
        },
        {
            "doubleSided" : true,
            "name" : "Blue_Dark",
            "pbrMetallicRoughness" : {
                "baseColorFactor" : [
                    0.09848017990589142,
                    0.33130335807800293,
                    0.6859512329101562,
                    1
                ],
                "metallicFactor" : 0,
                "roughnessFactor" : 0.5
            }
        },
        {
            "doubleSided" : true,
            "name" : "White",
            "pbrMetallicRoughness" : {
                "baseColorFactor" : [
                    0.564797043800354,
                    0.5925737619400024,
                    0.5061427354812622,
                    1
                ],
                "metallicFactor" : 0,
                "roughnessFactor" : 0.5
            }
        }
    ],
    "meshes" : [
        {
            "name" : "Cube.249",
            "primitives" : [
                {
                    "attributes" : {
                        "POSITION" : 0,
                        "NORMAL" : 1
                    },
                    "indices" : 2,
                    "material" : 0
                },
                {
                    "attributes" : {
                        "POSITION" : 3,
                        "NORMAL" : 4
                    },
                    "indices" : 5,
                    "material" : 1
                },
                {
                    "attributes" : {
                        "POSITION" : 6,
                        "NORMAL" : 7
                    },
                    "indices" : 8,
                    "material" : 2
                }
            ]
        }
    ],
    "accessors" : [
        {
            "bufferView" : 0,
            "componentType" : 5126,
            "count" : 216,
            "max" : [
                1.0104055404663086,
                1.0104055404663086,
                1.0104055404663086
            ],
            "min" : [
                -1.0104055404663086,
                -1.0104055404663086,
                -1.0104055404663086
            ],
            "type" : "VEC3"
        },
        {
            "bufferView" : 1,
            "componentType" : 5126,
            "count" : 216,
            "type" : "VEC3"
        },
        {
            "bufferView" : 2,
            "componentType" : 5123,
            "count" : 576,
            "type" : "SCALAR"
        },
        {
            "bufferView" : 3,
            "componentType" : 5126,
            "count" : 24,
            "max" : [
                0.9367100596427917,
                0.9367100596427917,
                0.9367100596427917
            ],
            "min" : [
                -0.9367100596427917,
                -0.9367100596427917,
                -0.9367100596427917
            ],
            "type" : "VEC3"
        },
        {
            "bufferView" : 4,
            "componentType" : 5126,
            "count" : 24,
            "type" : "VEC3"
        },
        {
            "bufferView" : 5,
            "componentType" : 5123,
            "count" : 36,
            "type" : "SCALAR"
        },
        {
            "bufferView" : 6,
            "componentType" : 5126,
            "count" : 928,
            "max" : [
                0.9500283002853394,
                0.5970892906188965,
                0.9500283002853394
            ],
            "min" : [
                -0.9500285983085632,
                -0.5083531141281128,
                -0.9500284790992737
            ],
            "type" : "VEC3"
        },
        {
            "bufferView" : 7,
            "componentType" : 5126,
            "count" : 928,
            "type" : "VEC3"
        },
        {
            "bufferView" : 8,
            "componentType" : 5123,
            "count" : 2592,
            "type" : "SCALAR"
        }
    ],
    "bufferViews" : [
        {
            "buffer" : 0,
            "byteLength" : 2592,
            "byteOffset" : 0
        },
        {
            "buffer" : 0,
            "byteLength" : 2592,
            "byteOffset" : 2592
        },
        {
            "buffer" : 0,
            "byteLength" : 1152,
            "byteOffset" : 5184
        },
        {
            "buffer" : 0,
            "byteLength" : 288,
            "byteOffset" : 6336
        },
        {
            "buffer" : 0,
            "byteLength" : 288,
            "byteOffset" : 6624
        },
        {
            "buffer" : 0,
            "byteLength" : 72,
            "byteOffset" : 6912
        },
        {
            "buffer" : 0,
            "byteLength" : 11136,
            "byteOffset" : 6984
        },
        {
            "buffer" : 0,
            "byteLength" : 11136,
            "byteOffset" : 18120
        },
        {
            "buffer" : 0,
            "byteLength" : 5184,
            "byteOffset" : 29256
        }
    ],
    "buffers" : [
        {
            "byteLength" : 34440,
            "uri" : "Cube_Question-3a2099a7fac62e9f7dce403bfd7a158b.bin"
        }
    ]
}
