{
    "asset" : {
        "generator" : "Khronos glTF Blender I/O v3.2.43",
        "version" : "2.0"
    },
    "scene" : 0,
    "scenes" : [
        {
            "name" : "Scene",
            "nodes" : [
                0
            ]
        }
    ],
    "nodes" : [
        {
            "mesh" : 0,
            "name" : "Cube_Exclamation"
        }
    ],
    "materials" : [
        {
            "doubleSided" : true,
            "name" : "BrightGreen",
            "pbrMetallicRoughness" : {
                "baseColorFactor" : [
                    0.06567363440990448,
                    0.16263613104820251,
                    0.012916214764118195,
                    1
                ],
                "metallicFactor" : 0,
                "roughnessFactor" : 0.5
            }
        },
        {
            "doubleSided" : true,
            "name" : "BrightGreen2",
            "pbrMetallicRoughness" : {
                "baseColorFactor" : [
                    0.13323043286800385,
                    0.34237906336784363,
                    0.023287488147616386,
                    1
                ],
                "metallicFactor" : 0,
                "roughnessFactor" : 0.5
            }
        },
        {
            "doubleSided" : true,
            "name" : "White",
            "pbrMetallicRoughness" : {
                "baseColorFactor" : [
                    0.564797043800354,
                    0.5925737619400024,
                    0.5061427354812622,
                    1
                ],
                "metallicFactor" : 0,
                "roughnessFactor" : 0.5
            }
        }
    ],
    "meshes" : [
        {
            "name" : "Cube.253",
            "primitives" : [
                {
                    "attributes" : {
                        "POSITION" : 0,
                        "NORMAL" : 1
                    },
                    "indices" : 2,
                    "material" : 0
                },
                {
                    "attributes" : {
                        "POSITION" : 3,
                        "NORMAL" : 4
                    },
                    "indices" : 5,
                    "material" : 1
                },
                {
                    "attributes" : {
                        "POSITION" : 6,
                        "NORMAL" : 7
                    },
                    "indices" : 8,
                    "material" : 2
                }
            ]
        }
    ],
    "accessors" : [
        {
            "bufferView" : 0,
            "componentType" : 5126,
            "count" : 216,
            "max" : [
                1.0104055404663086,
                1.0104055404663086,
                1.0104055404663086
            ],
            "min" : [
                -1.0104055404663086,
                -1.0104055404663086,
                -1.0104055404663086
            ],
            "type" : "VEC3"
        },
        {
            "bufferView" : 1,
            "componentType" : 5126,
            "count" : 216,
            "type" : "VEC3"
        },
        {
            "bufferView" : 2,
            "componentType" : 5123,
            "count" : 576,
            "type" : "SCALAR"
        },
        {
            "bufferView" : 3,
            "componentType" : 5126,
            "count" : 24,
            "max" : [
                0.9367100596427917,
                0.9367100596427917,
                0.9367100596427917
            ],
            "min" : [
                -0.9367100596427917,
                -0.9367100596427917,
                -0.9367100596427917
            ],
            "type" : "VEC3"
        },
        {
            "bufferView" : 4,
            "componentType" : 5126,
            "count" : 24,
            "type" : "VEC3"
        },
        {
            "bufferView" : 5,
            "componentType" : 5123,
            "count" : 36,
            "type" : "SCALAR"
        },
        {
            "bufferView" : 6,
            "componentType" : 5126,
            "count" : 836,
            "max" : [
                0.9888772964477539,
                0.5129398703575134,
                0.9888772964477539
            ],
            "min" : [
                -0.9888772964477539,
                -0.46080052852630615,
                -0.9888772964477539
            ],
            "type" : "VEC3"
        },
        {
            "bufferView" : 7,
            "componentType" : 5126,
            "count" : 836,
            "type" : "VEC3"
        },
        {
            "bufferView" : 8,
            "componentType" : 5123,
            "count" : 2688,
            "type" : "SCALAR"
        }
    ],
    "bufferViews" : [
        {
            "buffer" : 0,
            "byteLength" : 2592,
            "byteOffset" : 0
        },
        {
            "buffer" : 0,
            "byteLength" : 2592,
            "byteOffset" : 2592
        },
        {
            "buffer" : 0,
            "byteLength" : 1152,
            "byteOffset" : 5184
        },
        {
            "buffer" : 0,
            "byteLength" : 288,
            "byteOffset" : 6336
        },
        {
            "buffer" : 0,
            "byteLength" : 288,
            "byteOffset" : 6624
        },
        {
            "buffer" : 0,
            "byteLength" : 72,
            "byteOffset" : 6912
        },
        {
            "buffer" : 0,
            "byteLength" : 10032,
            "byteOffset" : 6984
        },
        {
            "buffer" : 0,
            "byteLength" : 10032,
            "byteOffset" : 17016
        },
        {
            "buffer" : 0,
            "byteLength" : 5376,
            "byteOffset" : 27048
        }
    ],
    "buffers" : [
        {
            "byteLength" : 32424,
            "uri" : "Cube_Exclamation-e94a58561d1f798e41432e055fc626ff.bin"
        }
    ]
}
