{
    "asset" : {
        "generator" : "Khronos glTF Blender I/O v3.2.43",
        "version" : "2.0"
    },
    "scene" : 0,
    "scenes" : [
        {
            "name" : "Scene",
            "nodes" : [
                0
            ]
        }
    ],
    "nodes" : [
        {
            "mesh" : 0,
            "name" : "Cube_Grass_Side"
        }
    ],
    "materials" : [
        {
            "doubleSided" : true,
            "name" : "Green_Light",
            "pbrMetallicRoughness" : {
                "baseColorFactor" : [
                    0.3128679394721985,
                    0.41093432903289795,
                    0.0227811299264431,
                    1
                ],
                "metallicFactor" : 0,
                "roughnessFactor" : 0.5
            }
        },
        {
            "doubleSided" : true,
            "name" : "Dirt_1",
            "pbrMetallicRoughness" : {
                "baseColorFactor" : [
                    0.48689132928848267,
                    0.2469639927148819,
                    0.1019323468208313,
                    1
                ],
                "metallicFactor" : 0,
                "roughnessFactor" : 0.5
            }
        },
        {
            "doubleSided" : true,
            "name" : "Dirt_2",
            "pbrMetallicRoughness" : {
                "baseColorFactor" : [
                    0.3185347318649292,
                    0.16343075037002563,
                    0.06885882467031479,
                    1
                ],
                "metallicFactor" : 0,
                "roughnessFactor" : 0.5
            }
        },
        {
            "doubleSided" : true,
            "name" : "Dirt_3",
            "pbrMetallicRoughness" : {
                "baseColorFactor" : [
                    0.7873923778533936,
                    0.3653056025505066,
                    0.16989240050315857,
                    1
                ],
                "metallicFactor" : 0,
                "roughnessFactor" : 0.5
            }
        }
    ],
    "meshes" : [
        {
            "name" : "Cube.277",
            "primitives" : [
                {
                    "attributes" : {
                        "POSITION" : 0,
                        "NORMAL" : 1
                    },
                    "indices" : 2,
                    "material" : 0
                },
                {
                    "attributes" : {
                        "POSITION" : 3,
                        "NORMAL" : 4
                    },
                    "indices" : 5,
                    "material" : 1
                },
                {
                    "attributes" : {
                        "POSITION" : 6,
                        "NORMAL" : 7
                    },
                    "indices" : 8,
                    "material" : 2
                },
                {
                    "attributes" : {
                        "POSITION" : 9,
                        "NORMAL" : 10
                    },
                    "indices" : 11,
                    "material" : 3
                }
            ]
        }
    ],
    "accessors" : [
        {
            "bufferView" : 0,
            "componentType" : 5126,
            "count" : 22,
            "max" : [
                1.000000238418579,
                0.995956301689148,
                1.1167185306549072
            ],
            "min" : [
                -1.000000238418579,
                0.5271554589271545,
                -1
            ],
            "type" : "VEC3"
        },
        {
            "bufferView" : 1,
            "componentType" : 5126,
            "count" : 22,
            "type" : "VEC3"
        },
        {
            "bufferView" : 2,
            "componentType" : 5123,
            "count" : 48,
            "type" : "SCALAR"
        },
        {
            "bufferView" : 3,
            "componentType" : 5126,
            "count" : 14,
            "max" : [
                0.9999999403953552,
                -0.024297606199979782,
                0.9999999403953552
            ],
            "min" : [
                -0.9999999403953552,
                -0.9999999403953552,
                -1.0000001192092896
            ],
            "type" : "VEC3"
        },
        {
            "bufferView" : 4,
            "componentType" : 5126,
            "count" : 14,
            "type" : "VEC3"
        },
        {
            "bufferView" : 5,
            "componentType" : 5123,
            "count" : 24,
            "type" : "SCALAR"
        },
        {
            "bufferView" : 6,
            "componentType" : 5126,
            "count" : 8,
            "max" : [
                0.9999999403953552,
                0.623988926410675,
                0.9999999403953552
            ],
            "min" : [
                -0.9999999403953552,
                -0.623988926410675,
                0.9999999403953552
            ],
            "type" : "VEC3"
        },
        {
            "bufferView" : 7,
            "componentType" : 5126,
            "count" : 8,
            "type" : "VEC3"
        },
        {
            "bufferView" : 8,
            "componentType" : 5123,
            "count" : 12,
            "type" : "SCALAR"
        },
        {
            "bufferView" : 9,
            "componentType" : 5126,
            "count" : 8,
            "max" : [
                0.9999999403953552,
                0.2812558114528656,
                0.9999999403953552
            ],
            "min" : [
                -0.9999999403953552,
                -0.873584508895874,
                0.9999999403953552
            ],
            "type" : "VEC3"
        },
        {
            "bufferView" : 10,
            "componentType" : 5126,
            "count" : 8,
            "type" : "VEC3"
        },
        {
            "bufferView" : 11,
            "componentType" : 5123,
            "count" : 12,
            "type" : "SCALAR"
        }
    ],
    "bufferViews" : [
        {
            "buffer" : 0,
            "byteLength" : 264,
            "byteOffset" : 0
        },
        {
            "buffer" : 0,
            "byteLength" : 264,
            "byteOffset" : 264
        },
        {
            "buffer" : 0,
            "byteLength" : 96,
            "byteOffset" : 528
        },
        {
            "buffer" : 0,
            "byteLength" : 168,
            "byteOffset" : 624
        },
        {
            "buffer" : 0,
            "byteLength" : 168,
            "byteOffset" : 792
        },
        {
            "buffer" : 0,
            "byteLength" : 48,
            "byteOffset" : 960
        },
        {
            "buffer" : 0,
            "byteLength" : 96,
            "byteOffset" : 1008
        },
        {
            "buffer" : 0,
            "byteLength" : 96,
            "byteOffset" : 1104
        },
        {
            "buffer" : 0,
            "byteLength" : 24,
            "byteOffset" : 1200
        },
        {
            "buffer" : 0,
            "byteLength" : 96,
            "byteOffset" : 1224
        },
        {
            "buffer" : 0,
            "byteLength" : 96,
            "byteOffset" : 1320
        },
        {
            "buffer" : 0,
            "byteLength" : 24,
            "byteOffset" : 1416
        }
    ],
    "buffers" : [
        {
            "byteLength" : 1440,
            "uri" : "Cube_Grass_Side-9307f4e4f5828f13d220a701c418f592.bin"
        }
    ]
}
