{
    "asset" : {
        "generator" : "Khronos glTF Blender I/O v3.2.43",
        "version" : "2.0"
    },
    "scene" : 0,
    "scenes" : [
        {
            "name" : "Scene",
            "nodes" : [
                0
            ]
        }
    ],
    "nodes" : [
        {
            "mesh" : 0,
            "name" : "Cube_Dirt_Corner"
        }
    ],
    "materials" : [
        {
            "doubleSided" : true,
            "name" : "Dirt_1",
            "pbrMetallicRoughness" : {
                "baseColorFactor" : [
                    0.48689132928848267,
                    0.2469639927148819,
                    0.1019323468208313,
                    1
                ],
                "metallicFactor" : 0,
                "roughnessFactor" : 0.5
            }
        },
        {
            "doubleSided" : true,
            "name" : "Dirt_2",
            "pbrMetallicRoughness" : {
                "baseColorFactor" : [
                    0.3185347318649292,
                    0.16343075037002563,
                    0.06885882467031479,
                    1
                ],
                "metallicFactor" : 0,
                "roughnessFactor" : 0.5
            }
        },
        {
            "doubleSided" : true,
            "name" : "Dirt_3",
            "pbrMetallicRoughness" : {
                "baseColorFactor" : [
                    0.7873923778533936,
                    0.3653056025505066,
                    0.16989240050315857,
                    1
                ],
                "metallicFactor" : 0,
                "roughnessFactor" : 0.5
            }
        }
    ],
    "meshes" : [
        {
            "name" : "Cube.310",
            "primitives" : [
                {
                    "attributes" : {
                        "POSITION" : 0,
                        "NORMAL" : 1
                    },
                    "indices" : 2,
                    "material" : 0
                },
                {
                    "attributes" : {
                        "POSITION" : 3,
                        "NORMAL" : 4
                    },
                    "indices" : 5,
                    "material" : 1
                },
                {
                    "attributes" : {
                        "POSITION" : 6,
                        "NORMAL" : 7
                    },
                    "indices" : 8,
                    "material" : 2
                }
            ]
        }
    ],
    "accessors" : [
        {
            "bufferView" : 0,
            "componentType" : 5126,
            "count" : 60,
            "max" : [
                1.0000007152557373,
                0.9999999403953552,
                1.0000003576278687
            ],
            "min" : [
                -1.0000004768371582,
                -0.9999999403953552,
                -1.0000005960464478
            ],
            "type" : "VEC3"
        },
        {
            "bufferView" : 1,
            "componentType" : 5126,
            "count" : 60,
            "type" : "VEC3"
        },
        {
            "bufferView" : 2,
            "componentType" : 5123,
            "count" : 144,
            "type" : "SCALAR"
        },
        {
            "bufferView" : 3,
            "componentType" : 5126,
            "count" : 24,
            "max" : [
                0.9999992847442627,
                0.623988926410675,
                1.0000003576278687
            ],
            "min" : [
                -1.0000004768371582,
                -0.623988926410675,
                -1.0000005960464478
            ],
            "type" : "VEC3"
        },
        {
            "bufferView" : 4,
            "componentType" : 5126,
            "count" : 24,
            "type" : "VEC3"
        },
        {
            "bufferView" : 5,
            "componentType" : 5123,
            "count" : 48,
            "type" : "SCALAR"
        },
        {
            "bufferView" : 6,
            "componentType" : 5126,
            "count" : 24,
            "max" : [
                0.9999992847442627,
                0.873584508895874,
                1.0000003576278687
            ],
            "min" : [
                -1.0000004768371582,
                -0.873584508895874,
                -1.0000005960464478
            ],
            "type" : "VEC3"
        },
        {
            "bufferView" : 7,
            "componentType" : 5126,
            "count" : 24,
            "type" : "VEC3"
        },
        {
            "bufferView" : 8,
            "componentType" : 5123,
            "count" : 48,
            "type" : "SCALAR"
        }
    ],
    "bufferViews" : [
        {
            "buffer" : 0,
            "byteLength" : 720,
            "byteOffset" : 0
        },
        {
            "buffer" : 0,
            "byteLength" : 720,
            "byteOffset" : 720
        },
        {
            "buffer" : 0,
            "byteLength" : 288,
            "byteOffset" : 1440
        },
        {
            "buffer" : 0,
            "byteLength" : 288,
            "byteOffset" : 1728
        },
        {
            "buffer" : 0,
            "byteLength" : 288,
            "byteOffset" : 2016
        },
        {
            "buffer" : 0,
            "byteLength" : 96,
            "byteOffset" : 2304
        },
        {
            "buffer" : 0,
            "byteLength" : 288,
            "byteOffset" : 2400
        },
        {
            "buffer" : 0,
            "byteLength" : 288,
            "byteOffset" : 2688
        },
        {
            "buffer" : 0,
            "byteLength" : 96,
            "byteOffset" : 2976
        }
    ],
    "buffers" : [
        {
            "byteLength" : 3072,
            "uri" : "Cube_Dirt_Corner-7a8a76040291b345f2feb90df4836935.bin"
        }
    ]
}
