{
    "asset" : {
        "generator" : "Khronos glTF Blender I/O v3.2.43",
        "version" : "2.0"
    },
    "scene" : 0,
    "scenes" : [
        {
            "name" : "Scene",
            "nodes" : [
                0
            ]
        }
    ],
    "nodes" : [
        {
            "mesh" : 0,
            "name" : "Cube_Bricks"
        }
    ],
    "materials" : [
        {
            "doubleSided" : true,
            "name" : "Red",
            "pbrMetallicRoughness" : {
                "baseColorFactor" : [
                    0.27382758259773254,
                    0.05226309597492218,
                    0.04941003397107124,
                    1
                ],
                "metallicFactor" : 0,
                "roughnessFactor" : 0.5
            }
        },
        {
            "doubleSided" : true,
            "name" : "Red_Dark",
            "pbrMetallicRoughness" : {
                "baseColorFactor" : [
                    0.12370764464139938,
                    0.025836847722530365,
                    0.024529455229640007,
                    1
                ],
                "metallicFactor" : 0,
                "roughnessFactor" : 0.5
            }
        }
    ],
    "meshes" : [
        {
            "name" : "Cube.042",
            "primitives" : [
                {
                    "attributes" : {
                        "POSITION" : 0,
                        "NORMAL" : 1
                    },
                    "indices" : 2,
                    "material" : 0
                },
                {
                    "attributes" : {
                        "POSITION" : 3,
                        "NORMAL" : 4
                    },
                    "indices" : 5,
                    "material" : 1
                }
            ]
        }
    ],
    "accessors" : [
        {
            "bufferView" : 0,
            "componentType" : 5126,
            "count" : 1648,
            "max" : [
                1.0244108438491821,
                1.0273215770721436,
                1.0303906202316284
            ],
            "min" : [
                -1.0201783180236816,
                -1.0001887083053589,
                -1.0303906202316284
            ],
            "type" : "VEC3"
        },
        {
            "bufferView" : 1,
            "componentType" : 5126,
            "count" : 1648,
            "type" : "VEC3"
        },
        {
            "bufferView" : 2,
            "componentType" : 5123,
            "count" : 4332,
            "type" : "SCALAR"
        },
        {
            "bufferView" : 3,
            "componentType" : 5126,
            "count" : 24,
            "max" : [
                0.9540150761604309,
                0.9540150761604309,
                0.9540150165557861
            ],
            "min" : [
                -0.9540150761604309,
                -0.9540150761604309,
                -0.9540151357650757
            ],
            "type" : "VEC3"
        },
        {
            "bufferView" : 4,
            "componentType" : 5126,
            "count" : 24,
            "type" : "VEC3"
        },
        {
            "bufferView" : 5,
            "componentType" : 5123,
            "count" : 36,
            "type" : "SCALAR"
        }
    ],
    "bufferViews" : [
        {
            "buffer" : 0,
            "byteLength" : 19776,
            "byteOffset" : 0
        },
        {
            "buffer" : 0,
            "byteLength" : 19776,
            "byteOffset" : 19776
        },
        {
            "buffer" : 0,
            "byteLength" : 8664,
            "byteOffset" : 39552
        },
        {
            "buffer" : 0,
            "byteLength" : 288,
            "byteOffset" : 48216
        },
        {
            "buffer" : 0,
            "byteLength" : 288,
            "byteOffset" : 48504
        },
        {
            "buffer" : 0,
            "byteLength" : 72,
            "byteOffset" : 48792
        }
    ],
    "buffers" : [
        {
            "byteLength" : 48864,
            "uri" : "Cube_Bricks-32f6861070f3f37c0606aa3c0a3cbf64.bin"
        }
    ]
}
