{
    "asset" : {
        "generator" : "Khronos glTF Blender I/O v3.2.43",
        "version" : "2.0"
    },
    "scene" : 0,
    "scenes" : [
        {
            "name" : "Scene",
            "nodes" : [
                0
            ]
        }
    ],
    "nodes" : [
        {
            "mesh" : 0,
            "name" : "Cube_Dirt_1x1Center"
        }
    ],
    "materials" : [
        {
            "doubleSided" : true,
            "name" : "Dirt_1",
            "pbrMetallicRoughness" : {
                "baseColorFactor" : [
                    0.48689132928848267,
                    0.2469639927148819,
                    0.1019323468208313,
                    1
                ],
                "metallicFactor" : 0,
                "roughnessFactor" : 0.5
            }
        },
        {
            "doubleSided" : true,
            "name" : "Dirt_2",
            "pbrMetallicRoughness" : {
                "baseColorFactor" : [
                    0.3185347318649292,
                    0.16343075037002563,
                    0.06885882467031479,
                    1
                ],
                "metallicFactor" : 0,
                "roughnessFactor" : 0.5
            }
        },
        {
            "doubleSided" : true,
            "name" : "Dirt_3",
            "pbrMetallicRoughness" : {
                "baseColorFactor" : [
                    0.7873923778533936,
                    0.3653056025505066,
                    0.16989240050315857,
                    1
                ],
                "metallicFactor" : 0,
                "roughnessFactor" : 0.5
            }
        }
    ],
    "meshes" : [
        {
            "name" : "Cube.047",
            "primitives" : [
                {
                    "attributes" : {
                        "POSITION" : 0,
                        "NORMAL" : 1
                    },
                    "indices" : 2,
                    "material" : 0
                },
                {
                    "attributes" : {
                        "POSITION" : 3,
                        "NORMAL" : 4
                    },
                    "indices" : 5,
                    "material" : 1
                },
                {
                    "attributes" : {
                        "POSITION" : 6,
                        "NORMAL" : 7
                    },
                    "indices" : 8,
                    "material" : 2
                }
            ]
        }
    ],
    "accessors" : [
        {
            "bufferView" : 0,
            "componentType" : 5126,
            "count" : 72,
            "max" : [
                1.0000009536743164,
                0.9999999403953552,
                0.9999999403953552
            ],
            "min" : [
                -0.9999984502792358,
                -0.9999999403953552,
                -1.000000238418579
            ],
            "type" : "VEC3"
        },
        {
            "bufferView" : 1,
            "componentType" : 5126,
            "count" : 72,
            "type" : "VEC3"
        },
        {
            "bufferView" : 2,
            "componentType" : 5123,
            "count" : 192,
            "type" : "SCALAR"
        },
        {
            "bufferView" : 3,
            "componentType" : 5126,
            "count" : 24,
            "max" : [
                1.0000009536743164,
                0.623988926410675,
                0.9999999403953552
            ],
            "min" : [
                -0.9999984502792358,
                -0.623988926410675,
                -1.000000238418579
            ],
            "type" : "VEC3"
        },
        {
            "bufferView" : 4,
            "componentType" : 5126,
            "count" : 24,
            "type" : "VEC3"
        },
        {
            "bufferView" : 5,
            "componentType" : 5123,
            "count" : 48,
            "type" : "SCALAR"
        },
        {
            "bufferView" : 6,
            "componentType" : 5126,
            "count" : 24,
            "max" : [
                1.0000009536743164,
                0.873584508895874,
                0.9999999403953552
            ],
            "min" : [
                -0.9999984502792358,
                -0.873584508895874,
                -1.000000238418579
            ],
            "type" : "VEC3"
        },
        {
            "bufferView" : 7,
            "componentType" : 5126,
            "count" : 24,
            "type" : "VEC3"
        },
        {
            "bufferView" : 8,
            "componentType" : 5123,
            "count" : 48,
            "type" : "SCALAR"
        }
    ],
    "bufferViews" : [
        {
            "buffer" : 0,
            "byteLength" : 864,
            "byteOffset" : 0
        },
        {
            "buffer" : 0,
            "byteLength" : 864,
            "byteOffset" : 864
        },
        {
            "buffer" : 0,
            "byteLength" : 384,
            "byteOffset" : 1728
        },
        {
            "buffer" : 0,
            "byteLength" : 288,
            "byteOffset" : 2112
        },
        {
            "buffer" : 0,
            "byteLength" : 288,
            "byteOffset" : 2400
        },
        {
            "buffer" : 0,
            "byteLength" : 96,
            "byteOffset" : 2688
        },
        {
            "buffer" : 0,
            "byteLength" : 288,
            "byteOffset" : 2784
        },
        {
            "buffer" : 0,
            "byteLength" : 288,
            "byteOffset" : 3072
        },
        {
            "buffer" : 0,
            "byteLength" : 96,
            "byteOffset" : 3360
        }
    ],
    "buffers" : [
        {
            "byteLength" : 3456,
            "uri" : "Cube_Dirt_1x1Center-8dde63b9733282c78bf005a70a39df97.bin"
        }
    ]
}
