{
    "asset" : {
        "generator" : "Khronos glTF Blender I/O v3.2.43",
        "version" : "2.0"
    },
    "scene" : 0,
    "scenes" : [
        {
            "name" : "Scene",
            "nodes" : [
                0
            ]
        }
    ],
    "nodes" : [
        {
            "mesh" : 0,
            "name" : "Cube_Grass_Single"
        }
    ],
    "materials" : [
        {
            "doubleSided" : true,
            "name" : "Green_Light",
            "pbrMetallicRoughness" : {
                "baseColorFactor" : [
                    0.3128679394721985,
                    0.41093432903289795,
                    0.0227811299264431,
                    1
                ],
                "metallicFactor" : 0,
                "roughnessFactor" : 0.5
            }
        },
        {
            "doubleSided" : true,
            "name" : "Dirt_1",
            "pbrMetallicRoughness" : {
                "baseColorFactor" : [
                    0.48689132928848267,
                    0.2469639927148819,
                    0.1019323468208313,
                    1
                ],
                "metallicFactor" : 0,
                "roughnessFactor" : 0.5
            }
        },
        {
            "doubleSided" : true,
            "name" : "Dirt_2",
            "pbrMetallicRoughness" : {
                "baseColorFactor" : [
                    0.3185347318649292,
                    0.16343075037002563,
                    0.06885882467031479,
                    1
                ],
                "metallicFactor" : 0,
                "roughnessFactor" : 0.5
            }
        },
        {
            "doubleSided" : true,
            "name" : "Dirt_3",
            "pbrMetallicRoughness" : {
                "baseColorFactor" : [
                    0.7873923778533936,
                    0.3653056025505066,
                    0.16989240050315857,
                    1
                ],
                "metallicFactor" : 0,
                "roughnessFactor" : 0.5
            }
        }
    ],
    "meshes" : [
        {
            "name" : "Cube.276",
            "primitives" : [
                {
                    "attributes" : {
                        "POSITION" : 0,
                        "NORMAL" : 1
                    },
                    "indices" : 2,
                    "material" : 0
                },
                {
                    "attributes" : {
                        "POSITION" : 3,
                        "NORMAL" : 4
                    },
                    "indices" : 5,
                    "material" : 1
                },
                {
                    "attributes" : {
                        "POSITION" : 6,
                        "NORMAL" : 7
                    },
                    "indices" : 8,
                    "material" : 2
                },
                {
                    "attributes" : {
                        "POSITION" : 9,
                        "NORMAL" : 10
                    },
                    "indices" : 11,
                    "material" : 3
                }
            ]
        }
    ],
    "accessors" : [
        {
            "bufferView" : 0,
            "componentType" : 5126,
            "count" : 229,
            "max" : [
                1.1167185306549072,
                0.995956301689148,
                1.1167185306549072
            ],
            "min" : [
                -1.1167185306549072,
                0.5271554589271545,
                -1.1167185306549072
            ],
            "type" : "VEC3"
        },
        {
            "bufferView" : 1,
            "componentType" : 5126,
            "count" : 229,
            "type" : "VEC3"
        },
        {
            "bufferView" : 2,
            "componentType" : 5123,
            "count" : 912,
            "type" : "SCALAR"
        },
        {
            "bufferView" : 3,
            "componentType" : 5126,
            "count" : 105,
            "max" : [
                0.9999999403953552,
                -0.024297606199979782,
                0.9999999403953552
            ],
            "min" : [
                -0.9999999403953552,
                -0.9999999403953552,
                -0.9999999403953552
            ],
            "type" : "VEC3"
        },
        {
            "bufferView" : 4,
            "componentType" : 5126,
            "count" : 105,
            "type" : "VEC3"
        },
        {
            "bufferView" : 5,
            "componentType" : 5123,
            "count" : 288,
            "type" : "SCALAR"
        },
        {
            "bufferView" : 6,
            "componentType" : 5126,
            "count" : 80,
            "max" : [
                0.9999999403953552,
                0.623988926410675,
                0.9999999403953552
            ],
            "min" : [
                -0.9999999403953552,
                -0.623988926410675,
                -0.9999999403953552
            ],
            "type" : "VEC3"
        },
        {
            "bufferView" : 7,
            "componentType" : 5126,
            "count" : 80,
            "type" : "VEC3"
        },
        {
            "bufferView" : 8,
            "componentType" : 5123,
            "count" : 192,
            "type" : "SCALAR"
        },
        {
            "bufferView" : 9,
            "componentType" : 5126,
            "count" : 80,
            "max" : [
                0.9999999403953552,
                0.2812558114528656,
                0.9999999403953552
            ],
            "min" : [
                -0.9999999403953552,
                -0.873584508895874,
                -0.9999999403953552
            ],
            "type" : "VEC3"
        },
        {
            "bufferView" : 10,
            "componentType" : 5126,
            "count" : 80,
            "type" : "VEC3"
        },
        {
            "bufferView" : 11,
            "componentType" : 5123,
            "count" : 192,
            "type" : "SCALAR"
        }
    ],
    "bufferViews" : [
        {
            "buffer" : 0,
            "byteLength" : 2748,
            "byteOffset" : 0
        },
        {
            "buffer" : 0,
            "byteLength" : 2748,
            "byteOffset" : 2748
        },
        {
            "buffer" : 0,
            "byteLength" : 1824,
            "byteOffset" : 5496
        },
        {
            "buffer" : 0,
            "byteLength" : 1260,
            "byteOffset" : 7320
        },
        {
            "buffer" : 0,
            "byteLength" : 1260,
            "byteOffset" : 8580
        },
        {
            "buffer" : 0,
            "byteLength" : 576,
            "byteOffset" : 9840
        },
        {
            "buffer" : 0,
            "byteLength" : 960,
            "byteOffset" : 10416
        },
        {
            "buffer" : 0,
            "byteLength" : 960,
            "byteOffset" : 11376
        },
        {
            "buffer" : 0,
            "byteLength" : 384,
            "byteOffset" : 12336
        },
        {
            "buffer" : 0,
            "byteLength" : 960,
            "byteOffset" : 12720
        },
        {
            "buffer" : 0,
            "byteLength" : 960,
            "byteOffset" : 13680
        },
        {
            "buffer" : 0,
            "byteLength" : 384,
            "byteOffset" : 14640
        }
    ],
    "buffers" : [
        {
            "byteLength" : 15024,
            "uri" : "Cube_Grass_Single-6764efcfdf74365482b11207afd6e743.bin"
        }
    ]
}
