{
    "asset" : {
        "generator" : "Khronos glTF Blender I/O v3.2.43",
        "version" : "2.0"
    },
    "scene" : 0,
    "scenes" : [
        {
            "name" : "Scene",
            "nodes" : [
                0
            ]
        }
    ],
    "nodes" : [
        {
            "mesh" : 0,
            "name" : "Cube_Default"
        }
    ],
    "materials" : [
        {
            "doubleSided" : true,
            "name" : "Main",
            "pbrMetallicRoughness" : {
                "baseColorFactor" : [
                    0.1523226648569107,
                    0.1523226648569107,
                    0.1523226648569107,
                    1
                ],
                "metallicFactor" : 0,
                "roughnessFactor" : 0.5
            }
        },
        {
            "doubleSided" : true,
            "name" : "Main_Dark",
            "pbrMetallicRoughness" : {
                "baseColorFactor" : [
                    0.06071806326508522,
                    0.06071806326508522,
                    0.06071806326508522,
                    1
                ],
                "metallicFactor" : 0,
                "roughnessFactor" : 0.5
            }
        }
    ],
    "meshes" : [
        {
            "name" : "Cube.264",
            "primitives" : [
                {
                    "attributes" : {
                        "POSITION" : 0,
                        "NORMAL" : 1
                    },
                    "indices" : 2,
                    "material" : 0
                },
                {
                    "attributes" : {
                        "POSITION" : 3,
                        "NORMAL" : 4
                    },
                    "indices" : 5,
                    "material" : 1
                }
            ]
        }
    ],
    "accessors" : [
        {
            "bufferView" : 0,
            "componentType" : 5126,
            "count" : 216,
            "max" : [
                1.0104055404663086,
                1.0104055404663086,
                1.0104055404663086
            ],
            "min" : [
                -1.0104055404663086,
                -1.0104055404663086,
                -1.0104055404663086
            ],
            "type" : "VEC3"
        },
        {
            "bufferView" : 1,
            "componentType" : 5126,
            "count" : 216,
            "type" : "VEC3"
        },
        {
            "bufferView" : 2,
            "componentType" : 5123,
            "count" : 576,
            "type" : "SCALAR"
        },
        {
            "bufferView" : 3,
            "componentType" : 5126,
            "count" : 24,
            "max" : [
                0.9367100596427917,
                0.9367100596427917,
                0.9367100596427917
            ],
            "min" : [
                -0.9367100596427917,
                -0.9367100596427917,
                -0.9367100596427917
            ],
            "type" : "VEC3"
        },
        {
            "bufferView" : 4,
            "componentType" : 5126,
            "count" : 24,
            "type" : "VEC3"
        },
        {
            "bufferView" : 5,
            "componentType" : 5123,
            "count" : 36,
            "type" : "SCALAR"
        }
    ],
    "bufferViews" : [
        {
            "buffer" : 0,
            "byteLength" : 2592,
            "byteOffset" : 0
        },
        {
            "buffer" : 0,
            "byteLength" : 2592,
            "byteOffset" : 2592
        },
        {
            "buffer" : 0,
            "byteLength" : 1152,
            "byteOffset" : 5184
        },
        {
            "buffer" : 0,
            "byteLength" : 288,
            "byteOffset" : 6336
        },
        {
            "buffer" : 0,
            "byteLength" : 288,
            "byteOffset" : 6624
        },
        {
            "buffer" : 0,
            "byteLength" : 72,
            "byteOffset" : 6912
        }
    ],
    "buffers" : [
        {
            "byteLength" : 6984,
            "uri" : "Cube_Default-61e02f883095a2ac6b70af62bad045e5.bin"
        }
    ]
}
