{
    "asset" : {
        "generator" : "Khronos glTF Blender I/O v3.2.43",
        "version" : "2.0"
    },
    "scene" : 0,
    "scenes" : [
        {
            "name" : "Scene",
            "nodes" : [
                0
            ]
        }
    ],
    "nodes" : [
        {
            "mesh" : 0,
            "name" : "Cube_Dirt_1x1End"
        }
    ],
    "materials" : [
        {
            "doubleSided" : true,
            "name" : "Dirt_1",
            "pbrMetallicRoughness" : {
                "baseColorFactor" : [
                    0.48689132928848267,
                    0.2469639927148819,
                    0.1019323468208313,
                    1
                ],
                "metallicFactor" : 0,
                "roughnessFactor" : 0.5
            }
        },
        {
            "doubleSided" : true,
            "name" : "Dirt_2",
            "pbrMetallicRoughness" : {
                "baseColorFactor" : [
                    0.3185347318649292,
                    0.16343075037002563,
                    0.06885882467031479,
                    1
                ],
                "metallicFactor" : 0,
                "roughnessFactor" : 0.5
            }
        },
        {
            "doubleSided" : true,
            "name" : "Dirt_3",
            "pbrMetallicRoughness" : {
                "baseColorFactor" : [
                    0.7873923778533936,
                    0.3653056025505066,
                    0.16989240050315857,
                    1
                ],
                "metallicFactor" : 0,
                "roughnessFactor" : 0.5
            }
        }
    ],
    "meshes" : [
        {
            "name" : "Cube.046",
            "primitives" : [
                {
                    "attributes" : {
                        "POSITION" : 0,
                        "NORMAL" : 1
                    },
                    "indices" : 2,
                    "material" : 0
                },
                {
                    "attributes" : {
                        "POSITION" : 3,
                        "NORMAL" : 4
                    },
                    "indices" : 5,
                    "material" : 1
                },
                {
                    "attributes" : {
                        "POSITION" : 6,
                        "NORMAL" : 7
                    },
                    "indices" : 8,
                    "material" : 2
                }
            ]
        }
    ],
    "accessors" : [
        {
            "bufferView" : 0,
            "componentType" : 5126,
            "count" : 131,
            "max" : [
                1.0000009536743164,
                0.9999999403953552,
                0.9999999403953552
            ],
            "min" : [
                -0.9999999403953552,
                -0.9999999403953552,
                -0.9999999403953552
            ],
            "type" : "VEC3"
        },
        {
            "bufferView" : 1,
            "componentType" : 5126,
            "count" : 131,
            "type" : "VEC3"
        },
        {
            "bufferView" : 2,
            "componentType" : 5123,
            "count" : 384,
            "type" : "SCALAR"
        },
        {
            "bufferView" : 3,
            "componentType" : 5126,
            "count" : 52,
            "max" : [
                1.0000009536743164,
                0.623988926410675,
                0.9999999403953552
            ],
            "min" : [
                -0.9999999403953552,
                -0.623988926410675,
                -0.9999999403953552
            ],
            "type" : "VEC3"
        },
        {
            "bufferView" : 4,
            "componentType" : 5126,
            "count" : 52,
            "type" : "VEC3"
        },
        {
            "bufferView" : 5,
            "componentType" : 5123,
            "count" : 120,
            "type" : "SCALAR"
        },
        {
            "bufferView" : 6,
            "componentType" : 5126,
            "count" : 52,
            "max" : [
                1.0000009536743164,
                0.873584508895874,
                0.9999999403953552
            ],
            "min" : [
                -0.9999999403953552,
                -0.873584508895874,
                -0.9999999403953552
            ],
            "type" : "VEC3"
        },
        {
            "bufferView" : 7,
            "componentType" : 5126,
            "count" : 52,
            "type" : "VEC3"
        },
        {
            "bufferView" : 8,
            "componentType" : 5123,
            "count" : 120,
            "type" : "SCALAR"
        }
    ],
    "bufferViews" : [
        {
            "buffer" : 0,
            "byteLength" : 1572,
            "byteOffset" : 0
        },
        {
            "buffer" : 0,
            "byteLength" : 1572,
            "byteOffset" : 1572
        },
        {
            "buffer" : 0,
            "byteLength" : 768,
            "byteOffset" : 3144
        },
        {
            "buffer" : 0,
            "byteLength" : 624,
            "byteOffset" : 3912
        },
        {
            "buffer" : 0,
            "byteLength" : 624,
            "byteOffset" : 4536
        },
        {
            "buffer" : 0,
            "byteLength" : 240,
            "byteOffset" : 5160
        },
        {
            "buffer" : 0,
            "byteLength" : 624,
            "byteOffset" : 5400
        },
        {
            "buffer" : 0,
            "byteLength" : 624,
            "byteOffset" : 6024
        },
        {
            "buffer" : 0,
            "byteLength" : 240,
            "byteOffset" : 6648
        }
    ],
    "buffers" : [
        {
            "byteLength" : 6888,
            "uri" : "Cube_Dirt_1x1End-6a4b4f3c31fae8b351f290af84483ded.bin"
        }
    ]
}
