{
    "asset" : {
        "generator" : "Khronos glTF Blender I/O v3.2.43",
        "version" : "2.0"
    },
    "scene" : 0,
    "scenes" : [
        {
            "name" : "Scene",
            "nodes" : [
                0
            ]
        }
    ],
    "nodes" : [
        {
            "mesh" : 0,
            "name" : "Cube_Spikes"
        }
    ],
    "materials" : [
        {
            "doubleSided" : true,
            "name" : "Metal",
            "pbrMetallicRoughness" : {
                "baseColorFactor" : [
                    0.17885860800743103,
                    0.17885860800743103,
                    0.17885860800743103,
                    1
                ],
                "metallicFactor" : 0,
                "roughnessFactor" : 0.5
            }
        },
        {
            "doubleSided" : true,
            "name" : "Red",
            "pbrMetallicRoughness" : {
                "baseColorFactor" : [
                    0.27382758259773254,
                    0.05226309597492218,
                    0.04941003397107124,
                    1
                ],
                "metallicFactor" : 0,
                "roughnessFactor" : 0.5
            }
        },
        {
            "doubleSided" : true,
            "name" : "Red_Dark",
            "pbrMetallicRoughness" : {
                "baseColorFactor" : [
                    0.12370764464139938,
                    0.025836847722530365,
                    0.024529455229640007,
                    1
                ],
                "metallicFactor" : 0,
                "roughnessFactor" : 0.5
            }
        }
    ],
    "meshes" : [
        {
            "name" : "Cube.060",
            "primitives" : [
                {
                    "attributes" : {
                        "POSITION" : 0,
                        "NORMAL" : 1
                    },
                    "indices" : 2,
                    "material" : 0
                },
                {
                    "attributes" : {
                        "POSITION" : 3,
                        "NORMAL" : 4
                    },
                    "indices" : 5,
                    "material" : 1
                },
                {
                    "attributes" : {
                        "POSITION" : 6,
                        "NORMAL" : 7
                    },
                    "indices" : 8,
                    "material" : 2
                }
            ]
        }
    ],
    "accessors" : [
        {
            "bufferView" : 0,
            "componentType" : 5126,
            "count" : 168,
            "max" : [
                1.5756189823150635,
                1.5756189823150635,
                1.5756189823150635
            ],
            "min" : [
                -1.5756189823150635,
                -1.5756189823150635,
                -1.5756189823150635
            ],
            "type" : "VEC3"
        },
        {
            "bufferView" : 1,
            "componentType" : 5126,
            "count" : 168,
            "type" : "VEC3"
        },
        {
            "bufferView" : 2,
            "componentType" : 5123,
            "count" : 216,
            "type" : "SCALAR"
        },
        {
            "bufferView" : 3,
            "componentType" : 5126,
            "count" : 216,
            "max" : [
                1.0104056596755981,
                1.0104055404663086,
                1.0104055404663086
            ],
            "min" : [
                -1.0104056596755981,
                -1.0104057788848877,
                -1.0104055404663086
            ],
            "type" : "VEC3"
        },
        {
            "bufferView" : 4,
            "componentType" : 5126,
            "count" : 216,
            "type" : "VEC3"
        },
        {
            "bufferView" : 5,
            "componentType" : 5123,
            "count" : 576,
            "type" : "SCALAR"
        },
        {
            "bufferView" : 6,
            "componentType" : 5126,
            "count" : 24,
            "max" : [
                0.9367101192474365,
                0.9367100596427917,
                0.9367101192474365
            ],
            "min" : [
                -0.9367101192474365,
                -0.9367102384567261,
                -0.9367101192474365
            ],
            "type" : "VEC3"
        },
        {
            "bufferView" : 7,
            "componentType" : 5126,
            "count" : 24,
            "type" : "VEC3"
        },
        {
            "bufferView" : 8,
            "componentType" : 5123,
            "count" : 36,
            "type" : "SCALAR"
        }
    ],
    "bufferViews" : [
        {
            "buffer" : 0,
            "byteLength" : 2016,
            "byteOffset" : 0
        },
        {
            "buffer" : 0,
            "byteLength" : 2016,
            "byteOffset" : 2016
        },
        {
            "buffer" : 0,
            "byteLength" : 432,
            "byteOffset" : 4032
        },
        {
            "buffer" : 0,
            "byteLength" : 2592,
            "byteOffset" : 4464
        },
        {
            "buffer" : 0,
            "byteLength" : 2592,
            "byteOffset" : 7056
        },
        {
            "buffer" : 0,
            "byteLength" : 1152,
            "byteOffset" : 9648
        },
        {
            "buffer" : 0,
            "byteLength" : 288,
            "byteOffset" : 10800
        },
        {
            "buffer" : 0,
            "byteLength" : 288,
            "byteOffset" : 11088
        },
        {
            "buffer" : 0,
            "byteLength" : 72,
            "byteOffset" : 11376
        }
    ],
    "buffers" : [
        {
            "byteLength" : 11448,
            "uri" : "Cube_Spikes-305e4c979e5997867d54f7f5ddf2ce41.bin"
        }
    ]
}
