{
    "asset" : {
        "generator" : "Khronos glTF Blender I/O v3.2.43",
        "version" : "2.0"
    },
    "scene" : 0,
    "scenes" : [
        {
            "name" : "Scene",
            "nodes" : [
                0,
                1
            ]
        }
    ],
    "nodes" : [
        {
            "mesh" : 0,
            "name" : "Door",
            "translation" : [
                1.210689663887024,
                2.210132360458374,
                0.36004170775413513
            ]
        },
        {
            "mesh" : 1,
            "name" : "Door_Frame"
        }
    ],
    "materials" : [
        {
            "doubleSided" : true,
            "name" : "Door_Metal",
            "pbrMetallicRoughness" : {
                "baseColorFactor" : [
                    0.11068601161241531,
                    0.09278368949890137,
                    0.09014349430799484,
                    1
                ],
                "metallicFactor" : 0,
                "roughnessFactor" : 0.5
            }
        },
        {
            "doubleSided" : true,
            "name" : "Wood",
            "pbrMetallicRoughness" : {
                "baseColorFactor" : [
                    0.3757452964782715,
                    0.20292167365550995,
                    0.0587104856967926,
                    1
                ],
                "metallicFactor" : 0,
                "roughnessFactor" : 0.5
            }
        },
        {
            "doubleSided" : true,
            "name" : "Wood_Light",
            "pbrMetallicRoughness" : {
                "baseColorFactor" : [
                    0.5382204055786133,
                    0.314663827419281,
                    0.08692671358585358,
                    1
                ],
                "metallicFactor" : 0,
                "roughnessFactor" : 0.5
            }
        },
        {
            "doubleSided" : true,
            "name" : "Door_Frame",
            "pbrMetallicRoughness" : {
                "baseColorFactor" : [
                    0.11068601161241531,
                    0.09278368949890137,
                    0.09014349430799484,
                    1
                ],
                "metallicFactor" : 0,
                "roughnessFactor" : 0.5
            }
        }
    ],
    "meshes" : [
        {
            "name" : "Cylinder.014",
            "primitives" : [
                {
                    "attributes" : {
                        "POSITION" : 0,
                        "NORMAL" : 1
                    },
                    "indices" : 2,
                    "material" : 0
                },
                {
                    "attributes" : {
                        "POSITION" : 3,
                        "NORMAL" : 4
                    },
                    "indices" : 5,
                    "material" : 1
                },
                {
                    "attributes" : {
                        "POSITION" : 6,
                        "NORMAL" : 7
                    },
                    "indices" : 8,
                    "material" : 2
                }
            ]
        },
        {
            "name" : "Cube.014",
            "primitives" : [
                {
                    "attributes" : {
                        "POSITION" : 9,
                        "NORMAL" : 10
                    },
                    "indices" : 11,
                    "material" : 3
                }
            ]
        }
    ],
    "accessors" : [
        {
            "bufferView" : 0,
            "componentType" : 5126,
            "count" : 321,
            "max" : [
                -0.6444005370140076,
                0.20223426818847656,
                0.4289550483226776
            ],
            "min" : [
                -1.7775194644927979,
                -0.6907813549041748,
                0.18108490109443665
            ],
            "type" : "VEC3"
        },
        {
            "bufferView" : 1,
            "componentType" : 5126,
            "count" : 321,
            "type" : "VEC3"
        },
        {
            "bufferView" : 2,
            "componentType" : 5123,
            "count" : 1002,
            "type" : "SCALAR"
        },
        {
            "bufferView" : 3,
            "componentType" : 5126,
            "count" : 160,
            "max" : [
                0.03754127025604248,
                1.450474500656128,
                0.16928908228874207
            ],
            "min" : [
                -2.4594616889953613,
                -2.1746952533721924,
                -0.10802081227302551
            ],
            "type" : "VEC3"
        },
        {
            "bufferView" : 4,
            "componentType" : 5126,
            "count" : 160,
            "type" : "VEC3"
        },
        {
            "bufferView" : 5,
            "componentType" : 5123,
            "count" : 288,
            "type" : "SCALAR"
        },
        {
            "bufferView" : 6,
            "componentType" : 5126,
            "count" : 72,
            "max" : [
                0.02900981903076172,
                0.2947108745574951,
                0.2824822962284088
            ],
            "min" : [
                -2.457550048828125,
                -0.29341673851013184,
                -0.007170528173446655
            ],
            "type" : "VEC3"
        },
        {
            "bufferView" : 7,
            "componentType" : 5126,
            "count" : 72,
            "type" : "VEC3"
        },
        {
            "bufferView" : 8,
            "componentType" : 5123,
            "count" : 168,
            "type" : "SCALAR"
        },
        {
            "bufferView" : 9,
            "componentType" : 5126,
            "count" : 132,
            "max" : [
                1.8549386262893677,
                4.251684188842773,
                0.7596924304962158
            ],
            "min" : [
                -1.85547935962677,
                0.009255528450012207,
                -0.5378885269165039
            ],
            "type" : "VEC3"
        },
        {
            "bufferView" : 10,
            "componentType" : 5126,
            "count" : 132,
            "type" : "VEC3"
        },
        {
            "bufferView" : 11,
            "componentType" : 5123,
            "count" : 360,
            "type" : "SCALAR"
        }
    ],
    "bufferViews" : [
        {
            "buffer" : 0,
            "byteLength" : 3852,
            "byteOffset" : 0
        },
        {
            "buffer" : 0,
            "byteLength" : 3852,
            "byteOffset" : 3852
        },
        {
            "buffer" : 0,
            "byteLength" : 2004,
            "byteOffset" : 7704
        },
        {
            "buffer" : 0,
            "byteLength" : 1920,
            "byteOffset" : 9708
        },
        {
            "buffer" : 0,
            "byteLength" : 1920,
            "byteOffset" : 11628
        },
        {
            "buffer" : 0,
            "byteLength" : 576,
            "byteOffset" : 13548
        },
        {
            "buffer" : 0,
            "byteLength" : 864,
            "byteOffset" : 14124
        },
        {
            "buffer" : 0,
            "byteLength" : 864,
            "byteOffset" : 14988
        },
        {
            "buffer" : 0,
            "byteLength" : 336,
            "byteOffset" : 15852
        },
        {
            "buffer" : 0,
            "byteLength" : 1584,
            "byteOffset" : 16188
        },
        {
            "buffer" : 0,
            "byteLength" : 1584,
            "byteOffset" : 17772
        },
        {
            "buffer" : 0,
            "byteLength" : 720,
            "byteOffset" : 19356
        }
    ],
    "buffers" : [
        {
            "byteLength" : 20076,
            "uri" : "Door-47c1f22d65dbe5dbeb18cde7cc478432.bin"
        }
    ]
}
