{
    "asset" : {
        "generator" : "Khronos glTF Blender I/O v3.2.43",
        "version" : "2.0"
    },
    "scene" : 0,
    "scenes" : [
        {
            "name" : "Scene",
            "nodes" : [
                0
            ]
        }
    ],
    "nodes" : [
        {
            "mesh" : 0,
            "name" : "FirstAidKit_Hard",
            "scale" : [
                1.9894319772720337,
                1.9894319772720337,
                1.9894319772720337
            ]
        }
    ],
    "materials" : [
        {
            "doubleSided" : true,
            "name" : "White",
            "pbrMetallicRoughness" : {
                "baseColorFactor" : [
                    0.698187530040741,
                    0.698187530040741,
                    0.698187530040741,
                    1
                ],
                "metallicFactor" : 0,
                "roughnessFactor" : 0.5
            }
        },
        {
            "doubleSided" : true,
            "name" : "Red",
            "pbrMetallicRoughness" : {
                "baseColorFactor" : [
                    0.21402914822101593,
                    0.039549391716718674,
                    0.03738441318273544,
                    1
                ],
                "metallicFactor" : 0,
                "roughnessFactor" : 0.5
            }
        },
        {
            "doubleSided" : true,
            "name" : "LightGrey",
            "pbrMetallicRoughness" : {
                "baseColorFactor" : [
                    0.37574493885040283,
                    0.37574493885040283,
                    0.37574493885040283,
                    1
                ],
                "metallicFactor" : 0,
                "roughnessFactor" : 0.5
            }
        },
        {
            "doubleSided" : true,
            "name" : "Grey",
            "pbrMetallicRoughness" : {
                "baseColorFactor" : [
                    0.14239658415317535,
                    0.14239658415317535,
                    0.14239658415317535,
                    1
                ],
                "metallicFactor" : 0,
                "roughnessFactor" : 0.5
            }
        }
    ],
    "meshes" : [
        {
            "name" : "Cube.003",
            "primitives" : [
                {
                    "attributes" : {
                        "POSITION" : 0,
                        "NORMAL" : 1
                    },
                    "indices" : 2,
                    "material" : 0
                },
                {
                    "attributes" : {
                        "POSITION" : 3,
                        "NORMAL" : 4
                    },
                    "indices" : 5,
                    "material" : 1
                },
                {
                    "attributes" : {
                        "POSITION" : 6,
                        "NORMAL" : 7
                    },
                    "indices" : 8,
                    "material" : 2
                },
                {
                    "attributes" : {
                        "POSITION" : 9,
                        "NORMAL" : 10
                    },
                    "indices" : 11,
                    "material" : 3
                }
            ]
        }
    ],
    "accessors" : [
        {
            "bufferView" : 0,
            "componentType" : 5126,
            "count" : 216,
            "max" : [
                0.4738251864910126,
                0.31049755215644836,
                0.18983164429664612
            ],
            "min" : [
                -0.4730381369590759,
                -0.31049755215644836,
                -0.15046600997447968
            ],
            "type" : "VEC3"
        },
        {
            "bufferView" : 1,
            "componentType" : 5126,
            "count" : 216,
            "type" : "VEC3"
        },
        {
            "bufferView" : 2,
            "componentType" : 5123,
            "count" : 342,
            "type" : "SCALAR"
        },
        {
            "bufferView" : 3,
            "componentType" : 5126,
            "count" : 40,
            "max" : [
                0.16938892006874084,
                0.15502521395683289,
                0.1867404282093048
            ],
            "min" : [
                -0.16938892006874084,
                -0.15502521395683289,
                0.1632756143808365
            ],
            "type" : "VEC3"
        },
        {
            "bufferView" : 4,
            "componentType" : 5126,
            "count" : 40,
            "type" : "VEC3"
        },
        {
            "bufferView" : 5,
            "componentType" : 5123,
            "count" : 66,
            "type" : "SCALAR"
        },
        {
            "bufferView" : 6,
            "componentType" : 5126,
            "count" : 160,
            "max" : [
                0.4046995937824249,
                0.3314322233200073,
                0.1077410951256752
            ],
            "min" : [
                -0.4046995937824249,
                0.3014239966869354,
                -0.05521893501281738
            ],
            "type" : "VEC3"
        },
        {
            "bufferView" : 7,
            "componentType" : 5126,
            "count" : 160,
            "type" : "VEC3"
        },
        {
            "bufferView" : 8,
            "componentType" : 5123,
            "count" : 240,
            "type" : "SCALAR"
        },
        {
            "bufferView" : 9,
            "componentType" : 5126,
            "count" : 92,
            "max" : [
                0.20156258344650269,
                0.32425811886787415,
                -0.004902725573629141
            ],
            "min" : [
                -0.20156258344650269,
                0.3116673529148102,
                -0.11738334596157074
            ],
            "type" : "VEC3"
        },
        {
            "bufferView" : 10,
            "componentType" : 5126,
            "count" : 92,
            "type" : "VEC3"
        },
        {
            "bufferView" : 11,
            "componentType" : 5123,
            "count" : 156,
            "type" : "SCALAR"
        }
    ],
    "bufferViews" : [
        {
            "buffer" : 0,
            "byteLength" : 2592,
            "byteOffset" : 0
        },
        {
            "buffer" : 0,
            "byteLength" : 2592,
            "byteOffset" : 2592
        },
        {
            "buffer" : 0,
            "byteLength" : 684,
            "byteOffset" : 5184
        },
        {
            "buffer" : 0,
            "byteLength" : 480,
            "byteOffset" : 5868
        },
        {
            "buffer" : 0,
            "byteLength" : 480,
            "byteOffset" : 6348
        },
        {
            "buffer" : 0,
            "byteLength" : 132,
            "byteOffset" : 6828
        },
        {
            "buffer" : 0,
            "byteLength" : 1920,
            "byteOffset" : 6960
        },
        {
            "buffer" : 0,
            "byteLength" : 1920,
            "byteOffset" : 8880
        },
        {
            "buffer" : 0,
            "byteLength" : 480,
            "byteOffset" : 10800
        },
        {
            "buffer" : 0,
            "byteLength" : 1104,
            "byteOffset" : 11280
        },
        {
            "buffer" : 0,
            "byteLength" : 1104,
            "byteOffset" : 12384
        },
        {
            "buffer" : 0,
            "byteLength" : 312,
            "byteOffset" : 13488
        }
    ],
    "buffers" : [
        {
            "byteLength" : 13800,
            "uri" : "FirstAidKit_Hard-060bd0b799ed385ed2359739cc6891b1.bin"
        }
    ]
}
