{
    "asset" : {
        "generator" : "Khronos glTF Blender I/O v3.2.43",
        "version" : "2.0"
    },
    "scene" : 0,
    "scenes" : [
        {
            "name" : "Scene",
            "nodes" : [
                0
            ]
        }
    ],
    "nodes" : [
        {
            "mesh" : 0,
            "name" : "FirstAidKit",
            "scale" : [
                1.9894319772720337,
                1.9894319772720337,
                1.9894319772720337
            ]
        }
    ],
    "materials" : [
        {
            "doubleSided" : true,
            "name" : "Red",
            "pbrMetallicRoughness" : {
                "baseColorFactor" : [
                    0.21402914822101593,
                    0.039549391716718674,
                    0.03738441318273544,
                    1
                ],
                "metallicFactor" : 0,
                "roughnessFactor" : 0.5
            }
        },
        {
            "doubleSided" : true,
            "name" : "White",
            "pbrMetallicRoughness" : {
                "baseColorFactor" : [
                    0.698187530040741,
                    0.698187530040741,
                    0.698187530040741,
                    1
                ],
                "metallicFactor" : 0,
                "roughnessFactor" : 0.5
            }
        },
        {
            "doubleSided" : true,
            "name" : "Black",
            "pbrMetallicRoughness" : {
                "baseColorFactor" : [
                    0.033101364970207214,
                    0.033101364970207214,
                    0.033101364970207214,
                    1
                ],
                "metallicFactor" : 0,
                "roughnessFactor" : 0.5
            }
        }
    ],
    "meshes" : [
        {
            "name" : "Cube.001",
            "primitives" : [
                {
                    "attributes" : {
                        "POSITION" : 0,
                        "NORMAL" : 1
                    },
                    "indices" : 2,
                    "material" : 0
                },
                {
                    "attributes" : {
                        "POSITION" : 3,
                        "NORMAL" : 4
                    },
                    "indices" : 5,
                    "material" : 1
                },
                {
                    "attributes" : {
                        "POSITION" : 6,
                        "NORMAL" : 7
                    },
                    "indices" : 8,
                    "material" : 2
                }
            ]
        }
    ],
    "accessors" : [
        {
            "bufferView" : 0,
            "componentType" : 5126,
            "count" : 788,
            "max" : [
                0.393299400806427,
                0.3805336356163025,
                0.18430015444755554
            ],
            "min" : [
                -0.3924078941345215,
                -0.3027600646018982,
                -0.18430015444755554
            ],
            "type" : "VEC3"
        },
        {
            "bufferView" : 1,
            "componentType" : 5126,
            "count" : 788,
            "type" : "VEC3"
        },
        {
            "bufferView" : 2,
            "componentType" : 5123,
            "count" : 1182,
            "type" : "SCALAR"
        },
        {
            "bufferView" : 3,
            "componentType" : 5126,
            "count" : 156,
            "max" : [
                0.2781558036804199,
                0.22099512815475464,
                0.18397904932498932
            ],
            "min" : [
                -0.2728840410709381,
                -0.22099512815475464,
                -0.18397904932498932
            ],
            "type" : "VEC3"
        },
        {
            "bufferView" : 4,
            "componentType" : 5126,
            "count" : 156,
            "type" : "VEC3"
        },
        {
            "bufferView" : 5,
            "componentType" : 5123,
            "count" : 240,
            "type" : "SCALAR"
        },
        {
            "bufferView" : 6,
            "componentType" : 5126,
            "count" : 560,
            "max" : [
                0.393299400806427,
                0.3027600646018982,
                0.18430015444755554
            ],
            "min" : [
                -0.3924078941345215,
                -0.3027600646018982,
                -0.18430015444755554
            ],
            "type" : "VEC3"
        },
        {
            "bufferView" : 7,
            "componentType" : 5126,
            "count" : 560,
            "type" : "VEC3"
        },
        {
            "bufferView" : 8,
            "componentType" : 5123,
            "count" : 840,
            "type" : "SCALAR"
        }
    ],
    "bufferViews" : [
        {
            "buffer" : 0,
            "byteLength" : 9456,
            "byteOffset" : 0
        },
        {
            "buffer" : 0,
            "byteLength" : 9456,
            "byteOffset" : 9456
        },
        {
            "buffer" : 0,
            "byteLength" : 2364,
            "byteOffset" : 18912
        },
        {
            "buffer" : 0,
            "byteLength" : 1872,
            "byteOffset" : 21276
        },
        {
            "buffer" : 0,
            "byteLength" : 1872,
            "byteOffset" : 23148
        },
        {
            "buffer" : 0,
            "byteLength" : 480,
            "byteOffset" : 25020
        },
        {
            "buffer" : 0,
            "byteLength" : 6720,
            "byteOffset" : 25500
        },
        {
            "buffer" : 0,
            "byteLength" : 6720,
            "byteOffset" : 32220
        },
        {
            "buffer" : 0,
            "byteLength" : 1680,
            "byteOffset" : 38940
        }
    ],
    "buffers" : [
        {
            "byteLength" : 40620,
            "uri" : "FirstAidKit-7e162649dd0b123310eae65e93f2a49a.bin"
        }
    ]
}
