{
    "asset" : {
        "generator" : "Khronos glTF Blender I/O v3.2.43",
        "version" : "2.0"
    },
    "scene" : 0,
    "scenes" : [
        {
            "name" : "Scene",
            "nodes" : [
                0
            ]
        }
    ],
    "nodes" : [
        {
            "mesh" : 0,
            "name" : "FlareGun",
            "scale" : [
                1.9894319772720337,
                1.9894319772720337,
                1.9894319772720337
            ]
        }
    ],
    "materials" : [
        {
            "doubleSided" : true,
            "name" : "Red",
            "pbrMetallicRoughness" : {
                "baseColorFactor" : [
                    0.21402914822101593,
                    0.039549391716718674,
                    0.03738441318273544,
                    1
                ],
                "metallicFactor" : 0,
                "roughnessFactor" : 0.5
            }
        },
        {
            "doubleSided" : true,
            "name" : "Black",
            "pbrMetallicRoughness" : {
                "baseColorFactor" : [
                    0.033101364970207214,
                    0.033101364970207214,
                    0.033101364970207214,
                    1
                ],
                "metallicFactor" : 0,
                "roughnessFactor" : 0.5
            }
        }
    ],
    "meshes" : [
        {
            "name" : "Cube.007",
            "primitives" : [
                {
                    "attributes" : {
                        "POSITION" : 0,
                        "NORMAL" : 1
                    },
                    "indices" : 2,
                    "material" : 0
                },
                {
                    "attributes" : {
                        "POSITION" : 3,
                        "NORMAL" : 4
                    },
                    "indices" : 5,
                    "material" : 1
                }
            ]
        }
    ],
    "accessors" : [
        {
            "bufferView" : 0,
            "componentType" : 5126,
            "count" : 686,
            "max" : [
                1.0506126880645752,
                0.5130364298820496,
                0.15055082738399506
            ],
            "min" : [
                -0.20867429673671722,
                -0.26767978072166443,
                -0.15269280970096588
            ],
            "type" : "VEC3"
        },
        {
            "bufferView" : 1,
            "componentType" : 5126,
            "count" : 686,
            "type" : "VEC3"
        },
        {
            "bufferView" : 2,
            "componentType" : 5123,
            "count" : 1068,
            "type" : "SCALAR"
        },
        {
            "bufferView" : 3,
            "componentType" : 5126,
            "count" : 368,
            "max" : [
                0.4584677815437317,
                0.5648346543312073,
                0.05818384885787964
            ],
            "min" : [
                -0.18515318632125854,
                -0.24271154403686523,
                -0.0589480921626091
            ],
            "type" : "VEC3"
        },
        {
            "bufferView" : 4,
            "componentType" : 5126,
            "count" : 368,
            "type" : "VEC3"
        },
        {
            "bufferView" : 5,
            "componentType" : 5123,
            "count" : 552,
            "type" : "SCALAR"
        }
    ],
    "bufferViews" : [
        {
            "buffer" : 0,
            "byteLength" : 8232,
            "byteOffset" : 0
        },
        {
            "buffer" : 0,
            "byteLength" : 8232,
            "byteOffset" : 8232
        },
        {
            "buffer" : 0,
            "byteLength" : 2136,
            "byteOffset" : 16464
        },
        {
            "buffer" : 0,
            "byteLength" : 4416,
            "byteOffset" : 18600
        },
        {
            "buffer" : 0,
            "byteLength" : 4416,
            "byteOffset" : 23016
        },
        {
            "buffer" : 0,
            "byteLength" : 1104,
            "byteOffset" : 27432
        }
    ],
    "buffers" : [
        {
            "byteLength" : 28536,
            "uri" : "FlareGun-02748dd766321ecd00cebe1fc97ed8a8.bin"
        }
    ]
}
