{
    "asset" : {
        "generator" : "Khronos glTF Blender I/O v3.2.43",
        "version" : "2.0"
    },
    "scene" : 0,
    "scenes" : [
        {
            "name" : "Scene",
            "nodes" : [
                0
            ]
        }
    ],
    "nodes" : [
        {
            "mesh" : 0,
            "name" : "Fruit"
        }
    ],
    "materials" : [
        {
            "doubleSided" : true,
            "name" : "Red",
            "pbrMetallicRoughness" : {
                "baseColorFactor" : [
                    0.27382758259773254,
                    0.05226309597492218,
                    0.04941003397107124,
                    1
                ],
                "metallicFactor" : 0,
                "roughnessFactor" : 0.5
            }
        },
        {
            "doubleSided" : true,
            "name" : "Green_Light",
            "pbrMetallicRoughness" : {
                "baseColorFactor" : [
                    0.3128679394721985,
                    0.41093432903289795,
                    0.0227811299264431,
                    1
                ],
                "metallicFactor" : 0,
                "roughnessFactor" : 0.5
            }
        }
    ],
    "meshes" : [
        {
            "name" : "Cube.006",
            "primitives" : [
                {
                    "attributes" : {
                        "POSITION" : 0,
                        "NORMAL" : 1
                    },
                    "indices" : 2,
                    "material" : 0
                },
                {
                    "attributes" : {
                        "POSITION" : 3,
                        "NORMAL" : 4
                    },
                    "indices" : 5,
                    "material" : 1
                }
            ]
        }
    ],
    "accessors" : [
        {
            "bufferView" : 0,
            "componentType" : 5126,
            "count" : 98,
            "max" : [
                0.3313349485397339,
                0.3317101001739502,
                0.3313349485397339
            ],
            "min" : [
                -0.3313349485397339,
                -0.3317101001739502,
                -0.3313349485397339
            ],
            "type" : "VEC3"
        },
        {
            "bufferView" : 1,
            "componentType" : 5126,
            "count" : 98,
            "type" : "VEC3"
        },
        {
            "bufferView" : 2,
            "componentType" : 5123,
            "count" : 576,
            "type" : "SCALAR"
        },
        {
            "bufferView" : 3,
            "componentType" : 5126,
            "count" : 254,
            "max" : [
                0.5459965467453003,
                0.49134841561317444,
                0.20582665503025055
            ],
            "min" : [
                -0.06509634852409363,
                0.11079145967960358,
                -0.3574128746986389
            ],
            "type" : "VEC3"
        },
        {
            "bufferView" : 4,
            "componentType" : 5126,
            "count" : 254,
            "type" : "VEC3"
        },
        {
            "bufferView" : 5,
            "componentType" : 5123,
            "count" : 1056,
            "type" : "SCALAR"
        }
    ],
    "bufferViews" : [
        {
            "buffer" : 0,
            "byteLength" : 1176,
            "byteOffset" : 0
        },
        {
            "buffer" : 0,
            "byteLength" : 1176,
            "byteOffset" : 1176
        },
        {
            "buffer" : 0,
            "byteLength" : 1152,
            "byteOffset" : 2352
        },
        {
            "buffer" : 0,
            "byteLength" : 3048,
            "byteOffset" : 3504
        },
        {
            "buffer" : 0,
            "byteLength" : 3048,
            "byteOffset" : 6552
        },
        {
            "buffer" : 0,
            "byteLength" : 2112,
            "byteOffset" : 9600
        }
    ],
    "buffers" : [
        {
            "byteLength" : 11712,
            "uri" : "Fruit-d74b17f2dfe6844cd7d61dd53e12970c.bin"
        }
    ]
}
