{
    "asset" : {
        "generator" : "Khronos glTF Blender I/O v3.2.43",
        "version" : "2.0"
    },
    "scene" : 0,
    "scenes" : [
        {
            "name" : "Scene",
            "nodes" : [
                0
            ]
        }
    ],
    "nodes" : [
        {
            "mesh" : 0,
            "name" : "GasCan",
            "scale" : [
                1.9894319772720337,
                1.9894319772720337,
                1.9894319772720337
            ]
        }
    ],
    "materials" : [
        {
            "doubleSided" : true,
            "name" : "Red",
            "pbrMetallicRoughness" : {
                "baseColorFactor" : [
                    0.21402914822101593,
                    0.039549391716718674,
                    0.03738441318273544,
                    1
                ],
                "metallicFactor" : 0,
                "roughnessFactor" : 0.5
            }
        },
        {
            "doubleSided" : true,
            "name" : "DarkRed",
            "pbrMetallicRoughness" : {
                "baseColorFactor" : [
                    0.12370710074901581,
                    0.024471990764141083,
                    0.023205481469631195,
                    1
                ],
                "metallicFactor" : 0,
                "roughnessFactor" : 0.5
            }
        },
        {
            "doubleSided" : true,
            "name" : "Black",
            "pbrMetallicRoughness" : {
                "baseColorFactor" : [
                    0.033101364970207214,
                    0.033101364970207214,
                    0.033101364970207214,
                    1
                ],
                "metallicFactor" : 0,
                "roughnessFactor" : 0.5
            }
        }
    ],
    "meshes" : [
        {
            "name" : "Cube.002",
            "primitives" : [
                {
                    "attributes" : {
                        "POSITION" : 0,
                        "NORMAL" : 1
                    },
                    "indices" : 2,
                    "material" : 0
                },
                {
                    "attributes" : {
                        "POSITION" : 3,
                        "NORMAL" : 4
                    },
                    "indices" : 5,
                    "material" : 1
                },
                {
                    "attributes" : {
                        "POSITION" : 6,
                        "NORMAL" : 7
                    },
                    "indices" : 8,
                    "material" : 2
                }
            ]
        }
    ],
    "accessors" : [
        {
            "bufferView" : 0,
            "componentType" : 5126,
            "count" : 713,
            "max" : [
                0.4882116913795471,
                1.2412954568862915,
                0.15187376737594604
            ],
            "min" : [
                -0.4493437111377716,
                0.04079083353281021,
                -0.15187373757362366
            ],
            "type" : "VEC3"
        },
        {
            "bufferView" : 1,
            "componentType" : 5126,
            "count" : 713,
            "type" : "VEC3"
        },
        {
            "bufferView" : 2,
            "componentType" : 5123,
            "count" : 1086,
            "type" : "SCALAR"
        },
        {
            "bufferView" : 3,
            "componentType" : 5126,
            "count" : 536,
            "max" : [
                0.4908355176448822,
                0.8628115057945251,
                0.15465232729911804
            ],
            "min" : [
                -0.45194175839424133,
                -0.0017444540280848742,
                -0.15465232729911804
            ],
            "type" : "VEC3"
        },
        {
            "bufferView" : 4,
            "componentType" : 5126,
            "count" : 536,
            "type" : "VEC3"
        },
        {
            "bufferView" : 5,
            "componentType" : 5123,
            "count" : 810,
            "type" : "SCALAR"
        },
        {
            "bufferView" : 6,
            "componentType" : 5126,
            "count" : 300,
            "max" : [
                -0.2007700651884079,
                1.1197967529296875,
                0.126423642039299
            ],
            "min" : [
                -0.45288485288619995,
                0.9666737914085388,
                -0.12642361223697662
            ],
            "type" : "VEC3"
        },
        {
            "bufferView" : 7,
            "componentType" : 5126,
            "count" : 300,
            "type" : "VEC3"
        },
        {
            "bufferView" : 8,
            "componentType" : 5123,
            "count" : 468,
            "type" : "SCALAR"
        }
    ],
    "bufferViews" : [
        {
            "buffer" : 0,
            "byteLength" : 8556,
            "byteOffset" : 0
        },
        {
            "buffer" : 0,
            "byteLength" : 8556,
            "byteOffset" : 8556
        },
        {
            "buffer" : 0,
            "byteLength" : 2172,
            "byteOffset" : 17112
        },
        {
            "buffer" : 0,
            "byteLength" : 6432,
            "byteOffset" : 19284
        },
        {
            "buffer" : 0,
            "byteLength" : 6432,
            "byteOffset" : 25716
        },
        {
            "buffer" : 0,
            "byteLength" : 1620,
            "byteOffset" : 32148
        },
        {
            "buffer" : 0,
            "byteLength" : 3600,
            "byteOffset" : 33768
        },
        {
            "buffer" : 0,
            "byteLength" : 3600,
            "byteOffset" : 37368
        },
        {
            "buffer" : 0,
            "byteLength" : 936,
            "byteOffset" : 40968
        }
    ],
    "buffers" : [
        {
            "byteLength" : 41904,
            "uri" : "GasCan-52044f129f92eb47315c33224718004a.bin"
        }
    ]
}
