{
    "asset" : {
        "generator" : "Khronos glTF Blender I/O v3.2.43",
        "version" : "2.0"
    },
    "scene" : 0,
    "scenes" : [
        {
            "name" : "Scene",
            "nodes" : [
                0
            ]
        }
    ],
    "nodes" : [
        {
            "mesh" : 0,
            "name" : "Gem_Blue"
        }
    ],
    "materials" : [
        {
            "doubleSided" : true,
            "name" : "Gem_Blue",
            "pbrMetallicRoughness" : {
                "baseColorFactor" : [
                    0.06660838425159454,
                    0.47797518968582153,
                    0.6499995589256287,
                    1
                ],
                "metallicFactor" : 0,
                "roughnessFactor" : 0.5
            }
        }
    ],
    "meshes" : [
        {
            "name" : "Cube.280",
            "primitives" : [
                {
                    "attributes" : {
                        "POSITION" : 0,
                        "NORMAL" : 1
                    },
                    "indices" : 2,
                    "material" : 0
                }
            ]
        }
    ],
    "accessors" : [
        {
            "bufferView" : 0,
            "componentType" : 5126,
            "count" : 96,
            "max" : [
                0.4931354820728302,
                1.0546506643295288,
                0.34848451614379883
            ],
            "min" : [
                -0.4931354820728302,
                -1.0546506643295288,
                -0.34848451614379883
            ],
            "type" : "VEC3"
        },
        {
            "bufferView" : 1,
            "componentType" : 5126,
            "count" : 96,
            "type" : "VEC3"
        },
        {
            "bufferView" : 2,
            "componentType" : 5123,
            "count" : 132,
            "type" : "SCALAR"
        }
    ],
    "bufferViews" : [
        {
            "buffer" : 0,
            "byteLength" : 1152,
            "byteOffset" : 0
        },
        {
            "buffer" : 0,
            "byteLength" : 1152,
            "byteOffset" : 1152
        },
        {
            "buffer" : 0,
            "byteLength" : 264,
            "byteOffset" : 2304
        }
    ],
    "buffers" : [
        {
            "byteLength" : 2568,
            "uri" : "Gem_Blue-e021e306ba09fad981f6cda690535366.bin"
        }
    ]
}
