{
    "asset" : {
        "generator" : "Khronos glTF Blender I/O v3.2.43",
        "version" : "2.0"
    },
    "scene" : 0,
    "scenes" : [
        {
            "name" : "Scene",
            "nodes" : [
                0
            ]
        }
    ],
    "nodes" : [
        {
            "mesh" : 0,
            "name" : "Gem_Pink"
        }
    ],
    "materials" : [
        {
            "doubleSided" : true,
            "name" : "Gem_Pink",
            "pbrMetallicRoughness" : {
                "baseColorFactor" : [
                    0.6499995589256287,
                    0.02832643873989582,
                    0.1483631134033203,
                    1
                ],
                "metallicFactor" : 0,
                "roughnessFactor" : 0.5
            }
        }
    ],
    "meshes" : [
        {
            "name" : "Cube.282",
            "primitives" : [
                {
                    "attributes" : {
                        "POSITION" : 0,
                        "NORMAL" : 1
                    },
                    "indices" : 2,
                    "material" : 0
                }
            ]
        }
    ],
    "accessors" : [
        {
            "bufferView" : 0,
            "componentType" : 5126,
            "count" : 32,
            "max" : [
                0.5651483535766602,
                0.9690612554550171,
                0.5651483535766602
            ],
            "min" : [
                -0.5651483535766602,
                -0.9690612554550171,
                -0.5651483535766602
            ],
            "type" : "VEC3"
        },
        {
            "bufferView" : 1,
            "componentType" : 5126,
            "count" : 32,
            "type" : "VEC3"
        },
        {
            "bufferView" : 2,
            "componentType" : 5123,
            "count" : 132,
            "type" : "SCALAR"
        }
    ],
    "bufferViews" : [
        {
            "buffer" : 0,
            "byteLength" : 384,
            "byteOffset" : 0
        },
        {
            "buffer" : 0,
            "byteLength" : 384,
            "byteOffset" : 384
        },
        {
            "buffer" : 0,
            "byteLength" : 264,
            "byteOffset" : 768
        }
    ],
    "buffers" : [
        {
            "byteLength" : 1032,
            "uri" : "Gem_Pink-928b0bc4de2f71764ae45267eb1684e2.bin"
        }
    ]
}
