{
    "asset" : {
        "generator" : "Khronos glTF Blender I/O v3.2.43",
        "version" : "2.0"
    },
    "scene" : 0,
    "scenes" : [
        {
            "name" : "Scene",
            "nodes" : [
                0
            ]
        }
    ],
    "nodes" : [
        {
            "mesh" : 0,
            "name" : "Gem_Green"
        }
    ],
    "materials" : [
        {
            "doubleSided" : true,
            "name" : "Gem_Green",
            "pbrMetallicRoughness" : {
                "baseColorFactor" : [
                    0.2837209701538086,
                    0.6499995589256287,
                    0,
                    1
                ],
                "metallicFactor" : 0,
                "roughnessFactor" : 0.5
            }
        }
    ],
    "meshes" : [
        {
            "name" : "Cube.281",
            "primitives" : [
                {
                    "attributes" : {
                        "POSITION" : 0,
                        "NORMAL" : 1
                    },
                    "indices" : 2,
                    "material" : 0
                }
            ]
        }
    ],
    "accessors" : [
        {
            "bufferView" : 0,
            "componentType" : 5126,
            "count" : 112,
            "max" : [
                0.7486140727996826,
                0.5372195839881897,
                0.7486140727996826
            ],
            "min" : [
                -0.7486140727996826,
                -0.9747651219367981,
                -0.7486140727996826
            ],
            "type" : "VEC3"
        },
        {
            "bufferView" : 1,
            "componentType" : 5126,
            "count" : 112,
            "type" : "VEC3"
        },
        {
            "bufferView" : 2,
            "componentType" : 5123,
            "count" : 186,
            "type" : "SCALAR"
        }
    ],
    "bufferViews" : [
        {
            "buffer" : 0,
            "byteLength" : 1344,
            "byteOffset" : 0
        },
        {
            "buffer" : 0,
            "byteLength" : 1344,
            "byteOffset" : 1344
        },
        {
            "buffer" : 0,
            "byteLength" : 372,
            "byteOffset" : 2688
        }
    ],
    "buffers" : [
        {
            "byteLength" : 3060,
            "uri" : "Gem_Green-1c2a401a6903f6f6cae95257dd367555.bin"
        }
    ]
}
