{
    "asset" : {
        "generator" : "Khronos glTF Blender I/O v3.2.43",
        "version" : "2.0"
    },
    "scene" : 0,
    "scenes" : [
        {
            "name" : "Scene",
            "nodes" : [
                0
            ]
        }
    ],
    "nodes" : [
        {
            "mesh" : 0,
            "name" : "Goal_Flag"
        }
    ],
    "materials" : [
        {
            "doubleSided" : true,
            "name" : "Metal",
            "pbrMetallicRoughness" : {
                "baseColorFactor" : [
                    0.17885860800743103,
                    0.17885860800743103,
                    0.17885860800743103,
                    1
                ],
                "metallicFactor" : 0,
                "roughnessFactor" : 0.5
            }
        },
        {
            "doubleSided" : true,
            "name" : "Flag",
            "pbrMetallicRoughness" : {
                "baseColorFactor" : [
                    0.3185344636440277,
                    0.011422949843108654,
                    0.0060203769244253635,
                    1
                ],
                "metallicFactor" : 0,
                "roughnessFactor" : 0.5
            }
        }
    ],
    "meshes" : [
        {
            "name" : "Cylinder.010",
            "primitives" : [
                {
                    "attributes" : {
                        "POSITION" : 0,
                        "NORMAL" : 1
                    },
                    "indices" : 2,
                    "material" : 0
                },
                {
                    "attributes" : {
                        "POSITION" : 3,
                        "NORMAL" : 4
                    },
                    "indices" : 5,
                    "material" : 1
                }
            ]
        }
    ],
    "accessors" : [
        {
            "bufferView" : 0,
            "componentType" : 5126,
            "count" : 125,
            "max" : [
                0.5548409223556519,
                2.3286020755767822,
                0.19020535051822662
            ],
            "min" : [
                -0.5548389554023743,
                -0.0030504390597343445,
                -0.19020535051822662
            ],
            "type" : "VEC3"
        },
        {
            "bufferView" : 1,
            "componentType" : 5126,
            "count" : 125,
            "type" : "VEC3"
        },
        {
            "bufferView" : 2,
            "componentType" : 5123,
            "count" : 558,
            "type" : "SCALAR"
        },
        {
            "bufferView" : 3,
            "componentType" : 5126,
            "count" : 94,
            "max" : [
                0.8559645414352417,
                2.07130765914917,
                0.019380586221814156
            ],
            "min" : [
                -0.046595584601163864,
                1.5654547214508057,
                -0.027991753071546555
            ],
            "type" : "VEC3"
        },
        {
            "bufferView" : 4,
            "componentType" : 5126,
            "count" : 94,
            "type" : "VEC3"
        },
        {
            "bufferView" : 5,
            "componentType" : 5123,
            "count" : 408,
            "type" : "SCALAR"
        }
    ],
    "bufferViews" : [
        {
            "buffer" : 0,
            "byteLength" : 1500,
            "byteOffset" : 0
        },
        {
            "buffer" : 0,
            "byteLength" : 1500,
            "byteOffset" : 1500
        },
        {
            "buffer" : 0,
            "byteLength" : 1116,
            "byteOffset" : 3000
        },
        {
            "buffer" : 0,
            "byteLength" : 1128,
            "byteOffset" : 4116
        },
        {
            "buffer" : 0,
            "byteLength" : 1128,
            "byteOffset" : 5244
        },
        {
            "buffer" : 0,
            "byteLength" : 816,
            "byteOffset" : 6372
        }
    ],
    "buffers" : [
        {
            "byteLength" : 7188,
            "uri" : "Goal_Flag-c6a66eed8b5e666da460e01d67f30e8e.bin"
        }
    ]
}
