{
    "asset" : {
        "generator" : "Khronos glTF Blender I/O v3.2.43",
        "version" : "2.0"
    },
    "scene" : 0,
    "scenes" : [
        {
            "name" : "Scene",
            "nodes" : [
                0
            ]
        }
    ],
    "nodes" : [
        {
            "mesh" : 0,
            "name" : "Grass_2"
        }
    ],
    "materials" : [
        {
            "doubleSided" : true,
            "name" : "Green_Light",
            "pbrMetallicRoughness" : {
                "baseColorFactor" : [
                    0.3128679394721985,
                    0.41093432903289795,
                    0.0227811299264431,
                    1
                ],
                "metallicFactor" : 0,
                "roughnessFactor" : 0.5
            }
        }
    ],
    "meshes" : [
        {
            "name" : "Cube.215",
            "primitives" : [
                {
                    "attributes" : {
                        "POSITION" : 0,
                        "NORMAL" : 1
                    },
                    "indices" : 2,
                    "material" : 0
                }
            ]
        }
    ],
    "accessors" : [
        {
            "bufferView" : 0,
            "componentType" : 5126,
            "count" : 50,
            "max" : [
                0.5917611718177795,
                1.4181543588638306,
                0.31617769598960876
            ],
            "min" : [
                -0.47925814986228943,
                0.9435842037200928,
                -0.3161771297454834
            ],
            "type" : "VEC3"
        },
        {
            "bufferView" : 1,
            "componentType" : 5126,
            "count" : 50,
            "type" : "VEC3"
        },
        {
            "bufferView" : 2,
            "componentType" : 5123,
            "count" : 240,
            "type" : "SCALAR"
        }
    ],
    "bufferViews" : [
        {
            "buffer" : 0,
            "byteLength" : 600,
            "byteOffset" : 0
        },
        {
            "buffer" : 0,
            "byteLength" : 600,
            "byteOffset" : 600
        },
        {
            "buffer" : 0,
            "byteLength" : 480,
            "byteOffset" : 1200
        }
    ],
    "buffers" : [
        {
            "byteLength" : 1680,
            "uri" : "Grass_2-317f32bf829ae3170b5fd0767254add6.bin"
        }
    ]
}
