{
    "asset" : {
        "generator" : "Khronos glTF Blender I/O v3.2.43",
        "version" : "2.0"
    },
    "scene" : 0,
    "scenes" : [
        {
            "name" : "Scene",
            "nodes" : [
                0
            ]
        }
    ],
    "nodes" : [
        {
            "mesh" : 0,
            "name" : "Hazard_Cylinder"
        }
    ],
    "materials" : [
        {
            "doubleSided" : true,
            "name" : "Black",
            "pbrMetallicRoughness" : {
                "baseColorFactor" : [
                    0.006383856758475304,
                    0.026276197284460068,
                    0.05221610143780708,
                    1
                ],
                "metallicFactor" : 0,
                "roughnessFactor" : 0.5
            }
        },
        {
            "doubleSided" : true,
            "name" : "DarkMetal",
            "pbrMetallicRoughness" : {
                "baseColorFactor" : [
                    0.2956882119178772,
                    0.2956882119178772,
                    0.2956882119178772,
                    1
                ],
                "metallicFactor" : 0,
                "roughnessFactor" : 0.5
            }
        },
        {
            "doubleSided" : true,
            "name" : "Metal",
            "pbrMetallicRoughness" : {
                "baseColorFactor" : [
                    0.17885860800743103,
                    0.17885860800743103,
                    0.17885860800743103,
                    1
                ],
                "metallicFactor" : 0,
                "roughnessFactor" : 0.5
            }
        }
    ],
    "meshes" : [
        {
            "name" : "Cube.269",
            "primitives" : [
                {
                    "attributes" : {
                        "POSITION" : 0,
                        "NORMAL" : 1
                    },
                    "indices" : 2,
                    "material" : 0
                },
                {
                    "attributes" : {
                        "POSITION" : 3,
                        "NORMAL" : 4
                    },
                    "indices" : 5,
                    "material" : 1
                },
                {
                    "attributes" : {
                        "POSITION" : 6,
                        "NORMAL" : 7
                    },
                    "indices" : 8,
                    "material" : 2
                }
            ]
        }
    ],
    "accessors" : [
        {
            "bufferView" : 0,
            "componentType" : 5126,
            "count" : 210,
            "max" : [
                0.7149837613105774,
                3.855989456176758,
                0.7149837613105774
            ],
            "min" : [
                -0.7149837613105774,
                0.7156959772109985,
                -0.7149837613105774
            ],
            "type" : "VEC3"
        },
        {
            "bufferView" : 1,
            "componentType" : 5126,
            "count" : 210,
            "type" : "VEC3"
        },
        {
            "bufferView" : 2,
            "componentType" : 5123,
            "count" : 1248,
            "type" : "SCALAR"
        },
        {
            "bufferView" : 3,
            "componentType" : 5126,
            "count" : 240,
            "max" : [
                1.1386913061141968,
                3.508601665496826,
                1.1386913061141968
            ],
            "min" : [
                -1.1386913061141968,
                1.130066990852356,
                -1.1386913061141968
            ],
            "type" : "VEC3"
        },
        {
            "bufferView" : 4,
            "componentType" : 5126,
            "count" : 240,
            "type" : "VEC3"
        },
        {
            "bufferView" : 5,
            "componentType" : 5123,
            "count" : 864,
            "type" : "SCALAR"
        },
        {
            "bufferView" : 6,
            "componentType" : 5126,
            "count" : 288,
            "max" : [
                0.738568127155304,
                3.5689077377319336,
                0.7385680675506592
            ],
            "min" : [
                -0.7385680675506592,
                -0.023755669593811035,
                -0.738568127155304
            ],
            "type" : "VEC3"
        },
        {
            "bufferView" : 7,
            "componentType" : 5126,
            "count" : 288,
            "type" : "VEC3"
        },
        {
            "bufferView" : 8,
            "componentType" : 5123,
            "count" : 1146,
            "type" : "SCALAR"
        }
    ],
    "bufferViews" : [
        {
            "buffer" : 0,
            "byteLength" : 2520,
            "byteOffset" : 0
        },
        {
            "buffer" : 0,
            "byteLength" : 2520,
            "byteOffset" : 2520
        },
        {
            "buffer" : 0,
            "byteLength" : 2496,
            "byteOffset" : 5040
        },
        {
            "buffer" : 0,
            "byteLength" : 2880,
            "byteOffset" : 7536
        },
        {
            "buffer" : 0,
            "byteLength" : 2880,
            "byteOffset" : 10416
        },
        {
            "buffer" : 0,
            "byteLength" : 1728,
            "byteOffset" : 13296
        },
        {
            "buffer" : 0,
            "byteLength" : 3456,
            "byteOffset" : 15024
        },
        {
            "buffer" : 0,
            "byteLength" : 3456,
            "byteOffset" : 18480
        },
        {
            "buffer" : 0,
            "byteLength" : 2292,
            "byteOffset" : 21936
        }
    ],
    "buffers" : [
        {
            "byteLength" : 24228,
            "uri" : "Hazard_Cylinder-b5fd52fd82d0e5a2392f4a2aaaabd7c8.bin"
        }
    ]
}
