{
    "asset" : {
        "generator" : "Khronos glTF Blender I/O v3.2.43",
        "version" : "2.0"
    },
    "scene" : 0,
    "scenes" : [
        {
            "name" : "Scene",
            "nodes" : [
                3
            ]
        }
    ],
    "nodes" : [
        {
            "name" : "Spikes",
            "rotation" : [
                -3.5527119847346064e-15,
                7.105427357601002e-15,
                -4.23516574601346e-22,
                1
            ],
            "translation" : [
                0,
                -2.9802322387695312e-08,
                0
            ]
        },
        {
            "children" : [
                0
            ],
            "name" : "Root",
            "rotation" : [
                -2.980232594040899e-08,
                1.1920927533992653e-07,
                0,
                1
            ],
            "scale" : [
                1,
                0.9999999403953552,
                0.9999999403953552
            ]
        },
        {
            "mesh" : 0,
            "name" : "Hazard_SpikeTrap",
            "skin" : 0
        },
        {
            "children" : [
                2,
                1
            ],
            "name" : "Hazard_SpikeTrap_Armature"
        }
    ],
    "animations" : [
        {
            "channels" : [
                {
                    "sampler" : 0,
                    "target" : {
                        "node" : 1,
                        "path" : "translation"
                    }
                },
                {
                    "sampler" : 1,
                    "target" : {
                        "node" : 1,
                        "path" : "rotation"
                    }
                },
                {
                    "sampler" : 2,
                    "target" : {
                        "node" : 1,
                        "path" : "scale"
                    }
                },
                {
                    "sampler" : 3,
                    "target" : {
                        "node" : 0,
                        "path" : "translation"
                    }
                },
                {
                    "sampler" : 4,
                    "target" : {
                        "node" : 0,
                        "path" : "rotation"
                    }
                },
                {
                    "sampler" : 5,
                    "target" : {
                        "node" : 0,
                        "path" : "scale"
                    }
                }
            ],
            "name" : "SpikeTrap_Activate",
            "samplers" : [
                {
                    "input" : 11,
                    "interpolation" : "LINEAR",
                    "output" : 12
                },
                {
                    "input" : 11,
                    "interpolation" : "LINEAR",
                    "output" : 13
                },
                {
                    "input" : 11,
                    "interpolation" : "LINEAR",
                    "output" : 14
                },
                {
                    "input" : 11,
                    "interpolation" : "LINEAR",
                    "output" : 15
                },
                {
                    "input" : 11,
                    "interpolation" : "LINEAR",
                    "output" : 16
                },
                {
                    "input" : 11,
                    "interpolation" : "LINEAR",
                    "output" : 17
                }
            ]
        }
    ],
    "materials" : [
        {
            "doubleSided" : true,
            "name" : "Red",
            "pbrMetallicRoughness" : {
                "baseColorFactor" : [
                    0.27382758259773254,
                    0.05226309597492218,
                    0.04941003397107124,
                    1
                ],
                "metallicFactor" : 0,
                "roughnessFactor" : 0.5
            }
        },
        {
            "doubleSided" : true,
            "name" : "Grey",
            "pbrMetallicRoughness" : {
                "baseColorFactor" : [
                    0.23301194608211517,
                    0.23301194608211517,
                    0.23301194608211517,
                    1
                ],
                "metallicFactor" : 0,
                "roughnessFactor" : 0.5
            }
        }
    ],
    "meshes" : [
        {
            "name" : "Cube.183",
            "primitives" : [
                {
                    "attributes" : {
                        "POSITION" : 0,
                        "NORMAL" : 1,
                        "JOINTS_0" : 2,
                        "WEIGHTS_0" : 3
                    },
                    "indices" : 4,
                    "material" : 0
                },
                {
                    "attributes" : {
                        "POSITION" : 5,
                        "NORMAL" : 6,
                        "JOINTS_0" : 7,
                        "WEIGHTS_0" : 8
                    },
                    "indices" : 9,
                    "material" : 1
                }
            ]
        }
    ],
    "skins" : [
        {
            "inverseBindMatrices" : 10,
            "joints" : [
                1,
                0
            ],
            "name" : "Hazard_SpikeTrap_Armature"
        }
    ],
    "accessors" : [
        {
            "bufferView" : 0,
            "componentType" : 5126,
            "count" : 332,
            "max" : [
                1,
                0.5311368107795715,
                1
            ],
            "min" : [
                -1,
                -0.02176588773727417,
                -1
            ],
            "type" : "VEC3"
        },
        {
            "bufferView" : 1,
            "componentType" : 5126,
            "count" : 332,
            "type" : "VEC3"
        },
        {
            "bufferView" : 2,
            "componentType" : 5121,
            "count" : 332,
            "type" : "VEC4"
        },
        {
            "bufferView" : 3,
            "componentType" : 5126,
            "count" : 332,
            "type" : "VEC4"
        },
        {
            "bufferView" : 4,
            "componentType" : 5123,
            "count" : 780,
            "type" : "SCALAR"
        },
        {
            "bufferView" : 5,
            "componentType" : 5126,
            "count" : 180,
            "max" : [
                0.7461822628974915,
                0.6750099658966064,
                0.7363584041595459
            ],
            "min" : [
                -0.7461822628974915,
                -0.014698445796966553,
                -0.7363584041595459
            ],
            "type" : "VEC3"
        },
        {
            "bufferView" : 6,
            "componentType" : 5126,
            "count" : 180,
            "type" : "VEC3"
        },
        {
            "bufferView" : 7,
            "componentType" : 5121,
            "count" : 180,
            "type" : "VEC4"
        },
        {
            "bufferView" : 8,
            "componentType" : 5126,
            "count" : 180,
            "type" : "VEC4"
        },
        {
            "bufferView" : 9,
            "componentType" : 5123,
            "count" : 600,
            "type" : "SCALAR"
        },
        {
            "bufferView" : 10,
            "componentType" : 5126,
            "count" : 2,
            "type" : "MAT4"
        },
        {
            "bufferView" : 11,
            "componentType" : 5126,
            "count" : 14,
            "max" : [
                0.5416666666666666
            ],
            "min" : [
                0
            ],
            "type" : "SCALAR"
        },
        {
            "bufferView" : 12,
            "componentType" : 5126,
            "count" : 14,
            "type" : "VEC3"
        },
        {
            "bufferView" : 13,
            "componentType" : 5126,
            "count" : 14,
            "type" : "VEC4"
        },
        {
            "bufferView" : 14,
            "componentType" : 5126,
            "count" : 14,
            "type" : "VEC3"
        },
        {
            "bufferView" : 15,
            "componentType" : 5126,
            "count" : 14,
            "type" : "VEC3"
        },
        {
            "bufferView" : 16,
            "componentType" : 5126,
            "count" : 14,
            "type" : "VEC4"
        },
        {
            "bufferView" : 17,
            "componentType" : 5126,
            "count" : 14,
            "type" : "VEC3"
        }
    ],
    "bufferViews" : [
        {
            "buffer" : 0,
            "byteLength" : 3984,
            "byteOffset" : 0
        },
        {
            "buffer" : 0,
            "byteLength" : 3984,
            "byteOffset" : 3984
        },
        {
            "buffer" : 0,
            "byteLength" : 1328,
            "byteOffset" : 7968
        },
        {
            "buffer" : 0,
            "byteLength" : 5312,
            "byteOffset" : 9296
        },
        {
            "buffer" : 0,
            "byteLength" : 1560,
            "byteOffset" : 14608
        },
        {
            "buffer" : 0,
            "byteLength" : 2160,
            "byteOffset" : 16168
        },
        {
            "buffer" : 0,
            "byteLength" : 2160,
            "byteOffset" : 18328
        },
        {
            "buffer" : 0,
            "byteLength" : 720,
            "byteOffset" : 20488
        },
        {
            "buffer" : 0,
            "byteLength" : 2880,
            "byteOffset" : 21208
        },
        {
            "buffer" : 0,
            "byteLength" : 1200,
            "byteOffset" : 24088
        },
        {
            "buffer" : 0,
            "byteLength" : 128,
            "byteOffset" : 25288
        },
        {
            "buffer" : 0,
            "byteLength" : 56,
            "byteOffset" : 25416
        },
        {
            "buffer" : 0,
            "byteLength" : 168,
            "byteOffset" : 25472
        },
        {
            "buffer" : 0,
            "byteLength" : 224,
            "byteOffset" : 25640
        },
        {
            "buffer" : 0,
            "byteLength" : 168,
            "byteOffset" : 25864
        },
        {
            "buffer" : 0,
            "byteLength" : 168,
            "byteOffset" : 26032
        },
        {
            "buffer" : 0,
            "byteLength" : 224,
            "byteOffset" : 26200
        },
        {
            "buffer" : 0,
            "byteLength" : 168,
            "byteOffset" : 26424
        }
    ],
    "buffers" : [
        {
            "byteLength" : 26592,
            "uri" : "Hazard_SpikeTrap-55a53df6849dc482edccae7698755cd4.bin"
        }
    ]
}
