{
    "asset" : {
        "generator" : "Khronos glTF Blender I/O v3.2.43",
        "version" : "2.0"
    },
    "scene" : 0,
    "scenes" : [
        {
            "name" : "Scene",
            "nodes" : [
                0
            ]
        }
    ],
    "nodes" : [
        {
            "mesh" : 0,
            "name" : "Knife",
            "scale" : [
                1.9894319772720337,
                1.9894319772720337,
                1.9894319772720337
            ]
        }
    ],
    "materials" : [
        {
            "doubleSided" : true,
            "name" : "Grey",
            "pbrMetallicRoughness" : {
                "baseColorFactor" : [
                    0.14239658415317535,
                    0.14239658415317535,
                    0.14239658415317535,
                    1
                ],
                "metallicFactor" : 0,
                "roughnessFactor" : 0.5
            }
        },
        {
            "doubleSided" : true,
            "name" : "LightGrey",
            "pbrMetallicRoughness" : {
                "baseColorFactor" : [
                    0.37574493885040283,
                    0.37574493885040283,
                    0.37574493885040283,
                    1
                ],
                "metallicFactor" : 0,
                "roughnessFactor" : 0.5
            }
        },
        {
            "doubleSided" : true,
            "name" : "DarkWood",
            "pbrMetallicRoughness" : {
                "baseColorFactor" : [
                    0.14238348603248596,
                    0.08724373579025269,
                    0.044256653636693954,
                    1
                ],
                "metallicFactor" : 0,
                "roughnessFactor" : 0.5
            }
        },
        {
            "doubleSided" : true,
            "name" : "Yellow",
            "pbrMetallicRoughness" : {
                "baseColorFactor" : [
                    0.27382591366767883,
                    0.1869039088487625,
                    0.05440109595656395,
                    1
                ],
                "metallicFactor" : 0,
                "roughnessFactor" : 0.5
            }
        }
    ],
    "meshes" : [
        {
            "name" : "Cube",
            "primitives" : [
                {
                    "attributes" : {
                        "POSITION" : 0,
                        "NORMAL" : 1
                    },
                    "indices" : 2,
                    "material" : 0
                },
                {
                    "attributes" : {
                        "POSITION" : 3,
                        "NORMAL" : 4
                    },
                    "indices" : 5,
                    "material" : 1
                },
                {
                    "attributes" : {
                        "POSITION" : 6,
                        "NORMAL" : 7
                    },
                    "indices" : 8,
                    "material" : 2
                },
                {
                    "attributes" : {
                        "POSITION" : 9,
                        "NORMAL" : 10
                    },
                    "indices" : 11,
                    "material" : 3
                }
            ]
        }
    ],
    "accessors" : [
        {
            "bufferView" : 0,
            "componentType" : 5126,
            "count" : 344,
            "max" : [
                0.07834950089454651,
                0.5465328097343445,
                0.019556500017642975
            ],
            "min" : [
                -0.055079035460948944,
                0.12204009294509888,
                -0.019556500017642975
            ],
            "type" : "VEC3"
        },
        {
            "bufferView" : 1,
            "componentType" : 5126,
            "count" : 344,
            "type" : "VEC3"
        },
        {
            "bufferView" : 2,
            "componentType" : 5123,
            "count" : 528,
            "type" : "SCALAR"
        },
        {
            "bufferView" : 3,
            "componentType" : 5126,
            "count" : 164,
            "max" : [
                0.028140494599938393,
                0.6028105020523071,
                0.004327469039708376
            ],
            "min" : [
                -0.03341071680188179,
                0.18218420445919037,
                -0.004364346619695425
            ],
            "type" : "VEC3"
        },
        {
            "bufferView" : 4,
            "componentType" : 5126,
            "count" : 164,
            "type" : "VEC3"
        },
        {
            "bufferView" : 5,
            "componentType" : 5123,
            "count" : 246,
            "type" : "SCALAR"
        },
        {
            "bufferView" : 6,
            "componentType" : 5126,
            "count" : 324,
            "max" : [
                0.04670324549078941,
                0.12589910626411438,
                0.016841500997543335
            ],
            "min" : [
                -0.05399598926305771,
                -0.18277285993099213,
                -0.016841506585478783
            ],
            "type" : "VEC3"
        },
        {
            "bufferView" : 7,
            "componentType" : 5126,
            "count" : 324,
            "type" : "VEC3"
        },
        {
            "bufferView" : 8,
            "componentType" : 5123,
            "count" : 492,
            "type" : "SCALAR"
        },
        {
            "bufferView" : 9,
            "componentType" : 5126,
            "count" : 48,
            "max" : [
                0.06364615261554718,
                0.12682081758975983,
                0.01839476451277733
            ],
            "min" : [
                -0.04021682217717171,
                0.11347343027591705,
                -0.01839476451277733
            ],
            "type" : "VEC3"
        },
        {
            "bufferView" : 10,
            "componentType" : 5126,
            "count" : 48,
            "type" : "VEC3"
        },
        {
            "bufferView" : 11,
            "componentType" : 5123,
            "count" : 84,
            "type" : "SCALAR"
        }
    ],
    "bufferViews" : [
        {
            "buffer" : 0,
            "byteLength" : 4128,
            "byteOffset" : 0
        },
        {
            "buffer" : 0,
            "byteLength" : 4128,
            "byteOffset" : 4128
        },
        {
            "buffer" : 0,
            "byteLength" : 1056,
            "byteOffset" : 8256
        },
        {
            "buffer" : 0,
            "byteLength" : 1968,
            "byteOffset" : 9312
        },
        {
            "buffer" : 0,
            "byteLength" : 1968,
            "byteOffset" : 11280
        },
        {
            "buffer" : 0,
            "byteLength" : 492,
            "byteOffset" : 13248
        },
        {
            "buffer" : 0,
            "byteLength" : 3888,
            "byteOffset" : 13740
        },
        {
            "buffer" : 0,
            "byteLength" : 3888,
            "byteOffset" : 17628
        },
        {
            "buffer" : 0,
            "byteLength" : 984,
            "byteOffset" : 21516
        },
        {
            "buffer" : 0,
            "byteLength" : 576,
            "byteOffset" : 22500
        },
        {
            "buffer" : 0,
            "byteLength" : 576,
            "byteOffset" : 23076
        },
        {
            "buffer" : 0,
            "byteLength" : 168,
            "byteOffset" : 23652
        }
    ],
    "buffers" : [
        {
            "byteLength" : 23820,
            "uri" : "Knife-7b7d03735dc4e60b75788a6f1025ef0b.bin"
        }
    ]
}
