{
    "asset" : {
        "generator" : "Khronos glTF Blender I/O v3.2.43",
        "version" : "2.0"
    },
    "scene" : 0,
    "scenes" : [
        {
            "name" : "Scene",
            "nodes" : [
                3
            ]
        }
    ],
    "nodes" : [
        {
            "name" : "Lever",
            "rotation" : [
                -2.7640910005288788e-08,
                1.1066673977211394e-07,
                0.25467440485954285,
                0.9670268893241882
            ]
        },
        {
            "children" : [
                0
            ],
            "name" : "Root"
        },
        {
            "mesh" : 0,
            "name" : "Lever",
            "skin" : 0
        },
        {
            "children" : [
                2,
                1
            ],
            "name" : "LeverArmature"
        }
    ],
    "animations" : [
        {
            "channels" : [
                {
                    "sampler" : 0,
                    "target" : {
                        "node" : 1,
                        "path" : "translation"
                    }
                },
                {
                    "sampler" : 1,
                    "target" : {
                        "node" : 1,
                        "path" : "rotation"
                    }
                },
                {
                    "sampler" : 2,
                    "target" : {
                        "node" : 1,
                        "path" : "scale"
                    }
                },
                {
                    "sampler" : 3,
                    "target" : {
                        "node" : 0,
                        "path" : "translation"
                    }
                },
                {
                    "sampler" : 4,
                    "target" : {
                        "node" : 0,
                        "path" : "rotation"
                    }
                },
                {
                    "sampler" : 5,
                    "target" : {
                        "node" : 0,
                        "path" : "scale"
                    }
                }
            ],
            "name" : "Lever_Off",
            "samplers" : [
                {
                    "input" : 16,
                    "interpolation" : "LINEAR",
                    "output" : 17
                },
                {
                    "input" : 16,
                    "interpolation" : "LINEAR",
                    "output" : 18
                },
                {
                    "input" : 16,
                    "interpolation" : "LINEAR",
                    "output" : 19
                },
                {
                    "input" : 16,
                    "interpolation" : "LINEAR",
                    "output" : 20
                },
                {
                    "input" : 16,
                    "interpolation" : "LINEAR",
                    "output" : 21
                },
                {
                    "input" : 16,
                    "interpolation" : "LINEAR",
                    "output" : 22
                }
            ]
        },
        {
            "channels" : [
                {
                    "sampler" : 0,
                    "target" : {
                        "node" : 1,
                        "path" : "translation"
                    }
                },
                {
                    "sampler" : 1,
                    "target" : {
                        "node" : 1,
                        "path" : "rotation"
                    }
                },
                {
                    "sampler" : 2,
                    "target" : {
                        "node" : 1,
                        "path" : "scale"
                    }
                },
                {
                    "sampler" : 3,
                    "target" : {
                        "node" : 0,
                        "path" : "translation"
                    }
                },
                {
                    "sampler" : 4,
                    "target" : {
                        "node" : 0,
                        "path" : "rotation"
                    }
                },
                {
                    "sampler" : 5,
                    "target" : {
                        "node" : 0,
                        "path" : "scale"
                    }
                }
            ],
            "name" : "Lever_On",
            "samplers" : [
                {
                    "input" : 23,
                    "interpolation" : "LINEAR",
                    "output" : 24
                },
                {
                    "input" : 23,
                    "interpolation" : "LINEAR",
                    "output" : 25
                },
                {
                    "input" : 23,
                    "interpolation" : "LINEAR",
                    "output" : 26
                },
                {
                    "input" : 23,
                    "interpolation" : "LINEAR",
                    "output" : 27
                },
                {
                    "input" : 23,
                    "interpolation" : "LINEAR",
                    "output" : 28
                },
                {
                    "input" : 23,
                    "interpolation" : "LINEAR",
                    "output" : 29
                }
            ]
        }
    ],
    "materials" : [
        {
            "doubleSided" : true,
            "name" : "Metal",
            "pbrMetallicRoughness" : {
                "baseColorFactor" : [
                    0.17885860800743103,
                    0.17885860800743103,
                    0.17885860800743103,
                    1
                ],
                "metallicFactor" : 0,
                "roughnessFactor" : 0.5
            }
        },
        {
            "doubleSided" : true,
            "name" : "DarkMetal",
            "pbrMetallicRoughness" : {
                "baseColorFactor" : [
                    0.2956882119178772,
                    0.2956882119178772,
                    0.2956882119178772,
                    1
                ],
                "metallicFactor" : 0,
                "roughnessFactor" : 0.5
            }
        },
        {
            "doubleSided" : true,
            "name" : "Lever",
            "pbrMetallicRoughness" : {
                "baseColorFactor" : [
                    0.056980472058057785,
                    0.18434832990169525,
                    0.3757452964782715,
                    1
                ],
                "metallicFactor" : 0,
                "roughnessFactor" : 0.5
            }
        }
    ],
    "meshes" : [
        {
            "name" : "Cylinder.001",
            "primitives" : [
                {
                    "attributes" : {
                        "POSITION" : 0,
                        "NORMAL" : 1,
                        "JOINTS_0" : 2,
                        "WEIGHTS_0" : 3
                    },
                    "indices" : 4,
                    "material" : 0
                },
                {
                    "attributes" : {
                        "POSITION" : 5,
                        "NORMAL" : 6,
                        "JOINTS_0" : 7,
                        "WEIGHTS_0" : 8
                    },
                    "indices" : 9,
                    "material" : 1
                },
                {
                    "attributes" : {
                        "POSITION" : 10,
                        "NORMAL" : 11,
                        "JOINTS_0" : 12,
                        "WEIGHTS_0" : 13
                    },
                    "indices" : 14,
                    "material" : 2
                }
            ]
        }
    ],
    "skins" : [
        {
            "inverseBindMatrices" : 15,
            "joints" : [
                1,
                0
            ],
            "name" : "LeverArmature"
        }
    ],
    "accessors" : [
        {
            "bufferView" : 0,
            "componentType" : 5126,
            "count" : 24,
            "max" : [
                -0.014758437871932983,
                1.1542024612426758,
                0.07460834085941315
            ],
            "min" : [
                -0.7022897601127625,
                0.1024564802646637,
                -0.07460836321115494
            ],
            "type" : "VEC3"
        },
        {
            "bufferView" : 1,
            "componentType" : 5126,
            "count" : 24,
            "type" : "VEC3"
        },
        {
            "bufferView" : 2,
            "componentType" : 5121,
            "count" : 24,
            "type" : "VEC4"
        },
        {
            "bufferView" : 3,
            "componentType" : 5126,
            "count" : 24,
            "type" : "VEC4"
        },
        {
            "bufferView" : 4,
            "componentType" : 5123,
            "count" : 72,
            "type" : "SCALAR"
        },
        {
            "bufferView" : 5,
            "componentType" : 5126,
            "count" : 132,
            "max" : [
                0.5924960374832153,
                0.5003913640975952,
                0.2536167502403259
            ],
            "min" : [
                -0.5924999117851257,
                -0.006842195987701416,
                -0.2536167502403259
            ],
            "type" : "VEC3"
        },
        {
            "bufferView" : 6,
            "componentType" : 5126,
            "count" : 132,
            "type" : "VEC3"
        },
        {
            "bufferView" : 7,
            "componentType" : 5121,
            "count" : 132,
            "type" : "VEC4"
        },
        {
            "bufferView" : 8,
            "componentType" : 5126,
            "count" : 132,
            "type" : "VEC4"
        },
        {
            "bufferView" : 9,
            "componentType" : 5123,
            "count" : 420,
            "type" : "SCALAR"
        },
        {
            "bufferView" : 10,
            "componentType" : 5126,
            "count" : 77,
            "max" : [
                -0.4739532768726349,
                1.3220605850219727,
                0.17518536746501923
            ],
            "min" : [
                -0.8306714296340942,
                0.9643526673316956,
                -0.1790996491909027
            ],
            "type" : "VEC3"
        },
        {
            "bufferView" : 11,
            "componentType" : 5126,
            "count" : 77,
            "type" : "VEC3"
        },
        {
            "bufferView" : 12,
            "componentType" : 5121,
            "count" : 77,
            "type" : "VEC4"
        },
        {
            "bufferView" : 13,
            "componentType" : 5126,
            "count" : 77,
            "type" : "VEC4"
        },
        {
            "bufferView" : 14,
            "componentType" : 5123,
            "count" : 450,
            "type" : "SCALAR"
        },
        {
            "bufferView" : 15,
            "componentType" : 5126,
            "count" : 2,
            "type" : "MAT4"
        },
        {
            "bufferView" : 16,
            "componentType" : 5126,
            "count" : 10,
            "max" : [
                0.375
            ],
            "min" : [
                0
            ],
            "type" : "SCALAR"
        },
        {
            "bufferView" : 17,
            "componentType" : 5126,
            "count" : 10,
            "type" : "VEC3"
        },
        {
            "bufferView" : 18,
            "componentType" : 5126,
            "count" : 10,
            "type" : "VEC4"
        },
        {
            "bufferView" : 19,
            "componentType" : 5126,
            "count" : 10,
            "type" : "VEC3"
        },
        {
            "bufferView" : 20,
            "componentType" : 5126,
            "count" : 10,
            "type" : "VEC3"
        },
        {
            "bufferView" : 21,
            "componentType" : 5126,
            "count" : 10,
            "type" : "VEC4"
        },
        {
            "bufferView" : 22,
            "componentType" : 5126,
            "count" : 10,
            "type" : "VEC3"
        },
        {
            "bufferView" : 23,
            "componentType" : 5126,
            "count" : 9,
            "max" : [
                0.3333333333333333
            ],
            "min" : [
                0
            ],
            "type" : "SCALAR"
        },
        {
            "bufferView" : 24,
            "componentType" : 5126,
            "count" : 9,
            "type" : "VEC3"
        },
        {
            "bufferView" : 25,
            "componentType" : 5126,
            "count" : 9,
            "type" : "VEC4"
        },
        {
            "bufferView" : 26,
            "componentType" : 5126,
            "count" : 9,
            "type" : "VEC3"
        },
        {
            "bufferView" : 27,
            "componentType" : 5126,
            "count" : 9,
            "type" : "VEC3"
        },
        {
            "bufferView" : 28,
            "componentType" : 5126,
            "count" : 9,
            "type" : "VEC4"
        },
        {
            "bufferView" : 29,
            "componentType" : 5126,
            "count" : 9,
            "type" : "VEC3"
        }
    ],
    "bufferViews" : [
        {
            "buffer" : 0,
            "byteLength" : 288,
            "byteOffset" : 0
        },
        {
            "buffer" : 0,
            "byteLength" : 288,
            "byteOffset" : 288
        },
        {
            "buffer" : 0,
            "byteLength" : 96,
            "byteOffset" : 576
        },
        {
            "buffer" : 0,
            "byteLength" : 384,
            "byteOffset" : 672
        },
        {
            "buffer" : 0,
            "byteLength" : 144,
            "byteOffset" : 1056
        },
        {
            "buffer" : 0,
            "byteLength" : 1584,
            "byteOffset" : 1200
        },
        {
            "buffer" : 0,
            "byteLength" : 1584,
            "byteOffset" : 2784
        },
        {
            "buffer" : 0,
            "byteLength" : 528,
            "byteOffset" : 4368
        },
        {
            "buffer" : 0,
            "byteLength" : 2112,
            "byteOffset" : 4896
        },
        {
            "buffer" : 0,
            "byteLength" : 840,
            "byteOffset" : 7008
        },
        {
            "buffer" : 0,
            "byteLength" : 924,
            "byteOffset" : 7848
        },
        {
            "buffer" : 0,
            "byteLength" : 924,
            "byteOffset" : 8772
        },
        {
            "buffer" : 0,
            "byteLength" : 308,
            "byteOffset" : 9696
        },
        {
            "buffer" : 0,
            "byteLength" : 1232,
            "byteOffset" : 10004
        },
        {
            "buffer" : 0,
            "byteLength" : 900,
            "byteOffset" : 11236
        },
        {
            "buffer" : 0,
            "byteLength" : 128,
            "byteOffset" : 12136
        },
        {
            "buffer" : 0,
            "byteLength" : 40,
            "byteOffset" : 12264
        },
        {
            "buffer" : 0,
            "byteLength" : 120,
            "byteOffset" : 12304
        },
        {
            "buffer" : 0,
            "byteLength" : 160,
            "byteOffset" : 12424
        },
        {
            "buffer" : 0,
            "byteLength" : 120,
            "byteOffset" : 12584
        },
        {
            "buffer" : 0,
            "byteLength" : 120,
            "byteOffset" : 12704
        },
        {
            "buffer" : 0,
            "byteLength" : 160,
            "byteOffset" : 12824
        },
        {
            "buffer" : 0,
            "byteLength" : 120,
            "byteOffset" : 12984
        },
        {
            "buffer" : 0,
            "byteLength" : 36,
            "byteOffset" : 13104
        },
        {
            "buffer" : 0,
            "byteLength" : 108,
            "byteOffset" : 13140
        },
        {
            "buffer" : 0,
            "byteLength" : 144,
            "byteOffset" : 13248
        },
        {
            "buffer" : 0,
            "byteLength" : 108,
            "byteOffset" : 13392
        },
        {
            "buffer" : 0,
            "byteLength" : 108,
            "byteOffset" : 13500
        },
        {
            "buffer" : 0,
            "byteLength" : 144,
            "byteOffset" : 13608
        },
        {
            "buffer" : 0,
            "byteLength" : 108,
            "byteOffset" : 13752
        }
    ],
    "buffers" : [
        {
            "byteLength" : 13860,
            "uri" : "Lever-68998549e3126774a356392bfb637061.bin"
        }
    ]
}
