{
    "asset" : {
        "generator" : "Khronos glTF Blender I/O v3.2.43",
        "version" : "2.0"
    },
    "scene" : 0,
    "scenes" : [
        {
            "name" : "Scene",
            "nodes" : [
                0
            ]
        }
    ],
    "nodes" : [
        {
            "mesh" : 0,
            "name" : "Match"
        }
    ],
    "materials" : [
        {
            "doubleSided" : true,
            "name" : "Red",
            "pbrMetallicRoughness" : {
                "baseColorFactor" : [
                    0.21402914822101593,
                    0.039549391716718674,
                    0.03738441318273544,
                    1
                ],
                "metallicFactor" : 0,
                "roughnessFactor" : 0.5
            }
        },
        {
            "doubleSided" : true,
            "name" : "Match",
            "pbrMetallicRoughness" : {
                "baseColorFactor" : [
                    0.4769851267337799,
                    0.4078575670719147,
                    0.26343122124671936,
                    1
                ],
                "metallicFactor" : 0,
                "roughnessFactor" : 0.5
            }
        }
    ],
    "meshes" : [
        {
            "name" : "Cube.013",
            "primitives" : [
                {
                    "attributes" : {
                        "POSITION" : 0,
                        "NORMAL" : 1
                    },
                    "indices" : 2,
                    "material" : 0
                },
                {
                    "attributes" : {
                        "POSITION" : 3,
                        "NORMAL" : 4
                    },
                    "indices" : 5,
                    "material" : 1
                }
            ]
        }
    ],
    "accessors" : [
        {
            "bufferView" : 0,
            "componentType" : 5126,
            "count" : 36,
            "max" : [
                0.020678311586380005,
                0.29980573058128357,
                0.018987728282809258
            ],
            "min" : [
                -0.017291683703660965,
                0.24112601578235626,
                -0.01898772642016411
            ],
            "type" : "VEC3"
        },
        {
            "bufferView" : 1,
            "componentType" : 5126,
            "count" : 36,
            "type" : "VEC3"
        },
        {
            "bufferView" : 2,
            "componentType" : 5123,
            "count" : 54,
            "type" : "SCALAR"
        },
        {
            "bufferView" : 3,
            "componentType" : 5126,
            "count" : 20,
            "max" : [
                0.010692540556192398,
                0.24145111441612244,
                0.012614326551556587
            ],
            "min" : [
                -0.020678315311670303,
                -0.29980579018592834,
                -0.012614322826266289
            ],
            "type" : "VEC3"
        },
        {
            "bufferView" : 4,
            "componentType" : 5126,
            "count" : 20,
            "type" : "VEC3"
        },
        {
            "bufferView" : 5,
            "componentType" : 5123,
            "count" : 30,
            "type" : "SCALAR"
        }
    ],
    "bufferViews" : [
        {
            "buffer" : 0,
            "byteLength" : 432,
            "byteOffset" : 0
        },
        {
            "buffer" : 0,
            "byteLength" : 432,
            "byteOffset" : 432
        },
        {
            "buffer" : 0,
            "byteLength" : 108,
            "byteOffset" : 864
        },
        {
            "buffer" : 0,
            "byteLength" : 240,
            "byteOffset" : 972
        },
        {
            "buffer" : 0,
            "byteLength" : 240,
            "byteOffset" : 1212
        },
        {
            "buffer" : 0,
            "byteLength" : 60,
            "byteOffset" : 1452
        }
    ],
    "buffers" : [
        {
            "byteLength" : 1512,
            "uri" : "Match-49f37c8efcb948a8ee18b55d80096a05.bin"
        }
    ]
}
