{
    "asset" : {
        "generator" : "Khronos glTF Blender I/O v3.2.43",
        "version" : "2.0"
    },
    "scene" : 0,
    "scenes" : [
        {
            "name" : "Scene",
            "nodes" : [
                0
            ]
        }
    ],
    "nodes" : [
        {
            "mesh" : 0,
            "name" : "Matchbox"
        }
    ],
    "materials" : [
        {
            "doubleSided" : true,
            "name" : "Yellow",
            "pbrMetallicRoughness" : {
                "baseColorFactor" : [
                    0.27382591366767883,
                    0.1869039088487625,
                    0.05440109595656395,
                    1
                ],
                "metallicFactor" : 0,
                "roughnessFactor" : 0.5
            }
        },
        {
            "doubleSided" : true,
            "name" : "DarkYellow",
            "pbrMetallicRoughness" : {
                "baseColorFactor" : [
                    0.18446631729602814,
                    0.1268276423215866,
                    0.03814882040023804,
                    1
                ],
                "metallicFactor" : 0,
                "roughnessFactor" : 0.5
            }
        },
        {
            "doubleSided" : true,
            "name" : "Red",
            "pbrMetallicRoughness" : {
                "baseColorFactor" : [
                    0.21402914822101593,
                    0.039549391716718674,
                    0.03738441318273544,
                    1
                ],
                "metallicFactor" : 0,
                "roughnessFactor" : 0.5
            }
        },
        {
            "doubleSided" : true,
            "name" : "Match",
            "pbrMetallicRoughness" : {
                "baseColorFactor" : [
                    0.4769851267337799,
                    0.4078575670719147,
                    0.26343122124671936,
                    1
                ],
                "metallicFactor" : 0,
                "roughnessFactor" : 0.5
            }
        }
    ],
    "meshes" : [
        {
            "name" : "Cube.010",
            "primitives" : [
                {
                    "attributes" : {
                        "POSITION" : 0,
                        "NORMAL" : 1
                    },
                    "indices" : 2,
                    "material" : 0
                },
                {
                    "attributes" : {
                        "POSITION" : 3,
                        "NORMAL" : 4
                    },
                    "indices" : 5,
                    "material" : 1
                },
                {
                    "attributes" : {
                        "POSITION" : 6,
                        "NORMAL" : 7
                    },
                    "indices" : 8,
                    "material" : 2
                },
                {
                    "attributes" : {
                        "POSITION" : 9,
                        "NORMAL" : 10
                    },
                    "indices" : 11,
                    "material" : 3
                }
            ]
        }
    ],
    "accessors" : [
        {
            "bufferView" : 0,
            "componentType" : 5126,
            "count" : 104,
            "max" : [
                0.26983803510665894,
                0.39501523971557617,
                0.060899242758750916
            ],
            "min" : [
                -0.26983803510665894,
                -0.2989111542701721,
                -0.10435257107019424
            ],
            "type" : "VEC3"
        },
        {
            "bufferView" : 1,
            "componentType" : 5126,
            "count" : 104,
            "type" : "VEC3"
        },
        {
            "bufferView" : 2,
            "componentType" : 5123,
            "count" : 156,
            "type" : "SCALAR"
        },
        {
            "bufferView" : 3,
            "componentType" : 5126,
            "count" : 8,
            "max" : [
                0.24965275824069977,
                0.3692587614059448,
                0.060899242758750916
            ],
            "min" : [
                -0.24965274333953857,
                -0.27315470576286316,
                -0.10435256361961365
            ],
            "type" : "VEC3"
        },
        {
            "bufferView" : 4,
            "componentType" : 5126,
            "count" : 8,
            "type" : "VEC3"
        },
        {
            "bufferView" : 5,
            "componentType" : 5123,
            "count" : 12,
            "type" : "SCALAR"
        },
        {
            "bufferView" : 6,
            "componentType" : 5126,
            "count" : 404,
            "max" : [
                0.26983803510665894,
                0.7469713687896729,
                0.013909456320106983
            ],
            "min" : [
                -0.26983803510665894,
                -0.2565383017063141,
                -0.057362787425518036
            ],
            "type" : "VEC3"
        },
        {
            "bufferView" : 7,
            "componentType" : 5126,
            "count" : 404,
            "type" : "VEC3"
        },
        {
            "bufferView" : 8,
            "componentType" : 5123,
            "count" : 606,
            "type" : "SCALAR"
        },
        {
            "bufferView" : 9,
            "componentType" : 5126,
            "count" : 276,
            "max" : [
                0.25339820981025696,
                0.7901567816734314,
                0.034810278564691544
            ],
            "min" : [
                -0.2572873532772064,
                0.09820873290300369,
                -0.09087744355201721
            ],
            "type" : "VEC3"
        },
        {
            "bufferView" : 10,
            "componentType" : 5126,
            "count" : 276,
            "type" : "VEC3"
        },
        {
            "bufferView" : 11,
            "componentType" : 5123,
            "count" : 414,
            "type" : "SCALAR"
        }
    ],
    "bufferViews" : [
        {
            "buffer" : 0,
            "byteLength" : 1248,
            "byteOffset" : 0
        },
        {
            "buffer" : 0,
            "byteLength" : 1248,
            "byteOffset" : 1248
        },
        {
            "buffer" : 0,
            "byteLength" : 312,
            "byteOffset" : 2496
        },
        {
            "buffer" : 0,
            "byteLength" : 96,
            "byteOffset" : 2808
        },
        {
            "buffer" : 0,
            "byteLength" : 96,
            "byteOffset" : 2904
        },
        {
            "buffer" : 0,
            "byteLength" : 24,
            "byteOffset" : 3000
        },
        {
            "buffer" : 0,
            "byteLength" : 4848,
            "byteOffset" : 3024
        },
        {
            "buffer" : 0,
            "byteLength" : 4848,
            "byteOffset" : 7872
        },
        {
            "buffer" : 0,
            "byteLength" : 1212,
            "byteOffset" : 12720
        },
        {
            "buffer" : 0,
            "byteLength" : 3312,
            "byteOffset" : 13932
        },
        {
            "buffer" : 0,
            "byteLength" : 3312,
            "byteOffset" : 17244
        },
        {
            "buffer" : 0,
            "byteLength" : 828,
            "byteOffset" : 20556
        }
    ],
    "buffers" : [
        {
            "byteLength" : 21384,
            "uri" : "Matchbox-6d3d19498cabc182839f5adecd9a6a0c.bin"
        }
    ]
}
