{
    "asset" : {
        "generator" : "Khronos glTF Blender I/O v3.2.43",
        "version" : "2.0"
    },
    "scene" : 0,
    "scenes" : [
        {
            "name" : "Scene",
            "nodes" : [
                0
            ]
        }
    ],
    "nodes" : [
        {
            "mesh" : 0,
            "name" : "Match_Fire"
        }
    ],
    "materials" : [
        {
            "doubleSided" : true,
            "name" : "Match",
            "pbrMetallicRoughness" : {
                "baseColorFactor" : [
                    0.4769851267337799,
                    0.4078575670719147,
                    0.26343122124671936,
                    1
                ],
                "metallicFactor" : 0,
                "roughnessFactor" : 0.5
            }
        },
        {
            "doubleSided" : true,
            "name" : "Fire",
            "pbrMetallicRoughness" : {
                "baseColorFactor" : [
                    0.486893892288208,
                    0.1251717507839203,
                    0.01963304728269577,
                    1
                ],
                "metallicFactor" : 0,
                "roughnessFactor" : 0.5
            }
        }
    ],
    "meshes" : [
        {
            "name" : "Cube.014",
            "primitives" : [
                {
                    "attributes" : {
                        "POSITION" : 0,
                        "NORMAL" : 1
                    },
                    "indices" : 2,
                    "material" : 0
                },
                {
                    "attributes" : {
                        "POSITION" : 3,
                        "NORMAL" : 4
                    },
                    "indices" : 5,
                    "material" : 1
                }
            ]
        }
    ],
    "accessors" : [
        {
            "bufferView" : 0,
            "componentType" : 5126,
            "count" : 56,
            "max" : [
                0.020678311586380005,
                0.29980573058128357,
                0.018987728282809258
            ],
            "min" : [
                -0.020678315311670303,
                -0.29980579018592834,
                -0.01898772642016411
            ],
            "type" : "VEC3"
        },
        {
            "bufferView" : 1,
            "componentType" : 5126,
            "count" : 56,
            "type" : "VEC3"
        },
        {
            "bufferView" : 2,
            "componentType" : 5123,
            "count" : 84,
            "type" : "SCALAR"
        },
        {
            "bufferView" : 3,
            "componentType" : 5126,
            "count" : 136,
            "max" : [
                0.032868362963199615,
                0.3854558765888214,
                0.03718944266438484
            ],
            "min" : [
                -0.03607885167002678,
                0.23763465881347656,
                -0.033117860555648804
            ],
            "type" : "VEC3"
        },
        {
            "bufferView" : 4,
            "componentType" : 5126,
            "count" : 136,
            "type" : "VEC3"
        },
        {
            "bufferView" : 5,
            "componentType" : 5123,
            "count" : 156,
            "type" : "SCALAR"
        }
    ],
    "bufferViews" : [
        {
            "buffer" : 0,
            "byteLength" : 672,
            "byteOffset" : 0
        },
        {
            "buffer" : 0,
            "byteLength" : 672,
            "byteOffset" : 672
        },
        {
            "buffer" : 0,
            "byteLength" : 168,
            "byteOffset" : 1344
        },
        {
            "buffer" : 0,
            "byteLength" : 1632,
            "byteOffset" : 1512
        },
        {
            "buffer" : 0,
            "byteLength" : 1632,
            "byteOffset" : 3144
        },
        {
            "buffer" : 0,
            "byteLength" : 312,
            "byteOffset" : 4776
        }
    ],
    "buffers" : [
        {
            "byteLength" : 5088,
            "uri" : "Match_Fire-ed285ae0b7b1b61ff466a40da222d423.bin"
        }
    ]
}
