{
    "asset" : {
        "generator" : "Khronos glTF Blender I/O v3.2.43",
        "version" : "2.0"
    },
    "scene" : 0,
    "scenes" : [
        {
            "name" : "Scene",
            "nodes" : [
                0
            ]
        }
    ],
    "nodes" : [
        {
            "mesh" : 0,
            "name" : "Numbers_3"
        }
    ],
    "materials" : [
        {
            "doubleSided" : true,
            "name" : "White",
            "pbrMetallicRoughness" : {
                "baseColorFactor" : [
                    0.564797043800354,
                    0.5925737619400024,
                    0.5061427354812622,
                    1
                ],
                "metallicFactor" : 0,
                "roughnessFactor" : 0.5
            }
        }
    ],
    "meshes" : [
        {
            "name" : "Cube.029",
            "primitives" : [
                {
                    "attributes" : {
                        "POSITION" : 0,
                        "NORMAL" : 1
                    },
                    "indices" : 2,
                    "material" : 0
                }
            ]
        }
    ],
    "accessors" : [
        {
            "bufferView" : 0,
            "componentType" : 5126,
            "count" : 357,
            "max" : [
                0.40487372875213623,
                0.5635796189308167,
                0.16737177968025208
            ],
            "min" : [
                -0.34690237045288086,
                -0.5544198751449585,
                -0.16737180948257446
            ],
            "type" : "VEC3"
        },
        {
            "bufferView" : 1,
            "componentType" : 5126,
            "count" : 357,
            "type" : "VEC3"
        },
        {
            "bufferView" : 2,
            "componentType" : 5123,
            "count" : 1008,
            "type" : "SCALAR"
        }
    ],
    "bufferViews" : [
        {
            "buffer" : 0,
            "byteLength" : 4284,
            "byteOffset" : 0
        },
        {
            "buffer" : 0,
            "byteLength" : 4284,
            "byteOffset" : 4284
        },
        {
            "buffer" : 0,
            "byteLength" : 2016,
            "byteOffset" : 8568
        }
    ],
    "buffers" : [
        {
            "byteLength" : 10584,
            "uri" : "Numbers_3-2f1bb22296e623e76f6407c3d95935e9.bin"
        }
    ]
}
