{
    "asset" : {
        "generator" : "Khronos glTF Blender I/O v3.2.43",
        "version" : "2.0"
    },
    "scene" : 0,
    "scenes" : [
        {
            "name" : "Scene",
            "nodes" : [
                0
            ]
        }
    ],
    "nodes" : [
        {
            "mesh" : 0,
            "name" : "Numbers_6"
        }
    ],
    "materials" : [
        {
            "doubleSided" : true,
            "name" : "White",
            "pbrMetallicRoughness" : {
                "baseColorFactor" : [
                    0.564797043800354,
                    0.5925737619400024,
                    0.5061427354812622,
                    1
                ],
                "metallicFactor" : 0,
                "roughnessFactor" : 0.5
            }
        }
    ],
    "meshes" : [
        {
            "name" : "Cube.036",
            "primitives" : [
                {
                    "attributes" : {
                        "POSITION" : 0,
                        "NORMAL" : 1
                    },
                    "indices" : 2,
                    "material" : 0
                }
            ]
        }
    ],
    "accessors" : [
        {
            "bufferView" : 0,
            "componentType" : 5126,
            "count" : 391,
            "max" : [
                0.39735645055770874,
                0.5548027157783508,
                0.1647563874721527
            ],
            "min" : [
                -0.3623466193675995,
                -0.5605526566505432,
                -0.1647563874721527
            ],
            "type" : "VEC3"
        },
        {
            "bufferView" : 1,
            "componentType" : 5126,
            "count" : 391,
            "type" : "VEC3"
        },
        {
            "bufferView" : 2,
            "componentType" : 5123,
            "count" : 1248,
            "type" : "SCALAR"
        }
    ],
    "bufferViews" : [
        {
            "buffer" : 0,
            "byteLength" : 4692,
            "byteOffset" : 0
        },
        {
            "buffer" : 0,
            "byteLength" : 4692,
            "byteOffset" : 4692
        },
        {
            "buffer" : 0,
            "byteLength" : 2496,
            "byteOffset" : 9384
        }
    ],
    "buffers" : [
        {
            "byteLength" : 11880,
            "uri" : "Numbers_6-98649f8e0f38246412b061221c3a1981.bin"
        }
    ]
}
