{
    "asset" : {
        "generator" : "Khronos glTF Blender I/O v3.2.43",
        "version" : "2.0"
    },
    "scene" : 0,
    "scenes" : [
        {
            "name" : "Scene",
            "nodes" : [
                0
            ]
        }
    ],
    "nodes" : [
        {
            "mesh" : 0,
            "name" : "Numbers_4"
        }
    ],
    "materials" : [
        {
            "doubleSided" : true,
            "name" : "White",
            "pbrMetallicRoughness" : {
                "baseColorFactor" : [
                    0.564797043800354,
                    0.5925737619400024,
                    0.5061427354812622,
                    1
                ],
                "metallicFactor" : 0,
                "roughnessFactor" : 0.5
            }
        }
    ],
    "meshes" : [
        {
            "name" : "Cube.034",
            "primitives" : [
                {
                    "attributes" : {
                        "POSITION" : 0,
                        "NORMAL" : 1
                    },
                    "indices" : 2,
                    "material" : 0
                }
            ]
        }
    ],
    "accessors" : [
        {
            "bufferView" : 0,
            "componentType" : 5126,
            "count" : 421,
            "max" : [
                0.349691241979599,
                0.5655549168586731,
                0.14981400966644287
            ],
            "min" : [
                -0.3907358944416046,
                -0.5597542524337769,
                -0.14981399476528168
            ],
            "type" : "VEC3"
        },
        {
            "bufferView" : 1,
            "componentType" : 5126,
            "count" : 421,
            "type" : "VEC3"
        },
        {
            "bufferView" : 2,
            "componentType" : 5123,
            "count" : 1104,
            "type" : "SCALAR"
        }
    ],
    "bufferViews" : [
        {
            "buffer" : 0,
            "byteLength" : 5052,
            "byteOffset" : 0
        },
        {
            "buffer" : 0,
            "byteLength" : 5052,
            "byteOffset" : 5052
        },
        {
            "buffer" : 0,
            "byteLength" : 2208,
            "byteOffset" : 10104
        }
    ],
    "buffers" : [
        {
            "byteLength" : 12312,
            "uri" : "Numbers_4-1478ab6cc899ed3ad0455881619da609.bin"
        }
    ]
}
