{
    "asset" : {
        "generator" : "Khronos glTF Blender I/O v3.2.43",
        "version" : "2.0"
    },
    "scene" : 0,
    "scenes" : [
        {
            "name" : "Scene",
            "nodes" : [
                0
            ]
        }
    ],
    "nodes" : [
        {
            "mesh" : 0,
            "name" : "Numbers_0"
        }
    ],
    "materials" : [
        {
            "doubleSided" : true,
            "name" : "White",
            "pbrMetallicRoughness" : {
                "baseColorFactor" : [
                    0.564797043800354,
                    0.5925737619400024,
                    0.5061427354812622,
                    1
                ],
                "metallicFactor" : 0,
                "roughnessFactor" : 0.5
            }
        }
    ],
    "meshes" : [
        {
            "name" : "Cube.022",
            "primitives" : [
                {
                    "attributes" : {
                        "POSITION" : 0,
                        "NORMAL" : 1
                    },
                    "indices" : 2,
                    "material" : 0
                }
            ]
        }
    ],
    "accessors" : [
        {
            "bufferView" : 0,
            "componentType" : 5126,
            "count" : 348,
            "max" : [
                0.3647472560405731,
                0.5579734444618225,
                0.20342396199703217
            ],
            "min" : [
                -0.3647472560405731,
                -0.557513952255249,
                -0.20342396199703217
            ],
            "type" : "VEC3"
        },
        {
            "bufferView" : 1,
            "componentType" : 5126,
            "count" : 348,
            "type" : "VEC3"
        },
        {
            "bufferView" : 2,
            "componentType" : 5123,
            "count" : 1152,
            "type" : "SCALAR"
        }
    ],
    "bufferViews" : [
        {
            "buffer" : 0,
            "byteLength" : 4176,
            "byteOffset" : 0
        },
        {
            "buffer" : 0,
            "byteLength" : 4176,
            "byteOffset" : 4176
        },
        {
            "buffer" : 0,
            "byteLength" : 2304,
            "byteOffset" : 8352
        }
    ],
    "buffers" : [
        {
            "byteLength" : 10656,
            "uri" : "Numbers_0-aebdf32039aa4edfb78a0d636dbb0003.bin"
        }
    ]
}
