{
    "asset" : {
        "generator" : "Khronos glTF Blender I/O v3.2.43",
        "version" : "2.0"
    },
    "scene" : 0,
    "scenes" : [
        {
            "name" : "Scene",
            "nodes" : [
                0
            ]
        }
    ],
    "nodes" : [
        {
            "mesh" : 0,
            "name" : "Numbers_9"
        }
    ],
    "materials" : [
        {
            "doubleSided" : true,
            "name" : "White",
            "pbrMetallicRoughness" : {
                "baseColorFactor" : [
                    0.564797043800354,
                    0.5925737619400024,
                    0.5061427354812622,
                    1
                ],
                "metallicFactor" : 0,
                "roughnessFactor" : 0.5
            }
        }
    ],
    "meshes" : [
        {
            "name" : "Cube.019",
            "primitives" : [
                {
                    "attributes" : {
                        "POSITION" : 0,
                        "NORMAL" : 1
                    },
                    "indices" : 2,
                    "material" : 0
                }
            ]
        }
    ],
    "accessors" : [
        {
            "bufferView" : 0,
            "componentType" : 5126,
            "count" : 398,
            "max" : [
                0.3637535572052002,
                0.5497944951057434,
                0.16810300946235657
            ],
            "min" : [
                -0.38767513632774353,
                -0.5416927337646484,
                -0.16810300946235657
            ],
            "type" : "VEC3"
        },
        {
            "bufferView" : 1,
            "componentType" : 5126,
            "count" : 398,
            "type" : "VEC3"
        },
        {
            "bufferView" : 2,
            "componentType" : 5123,
            "count" : 1248,
            "type" : "SCALAR"
        }
    ],
    "bufferViews" : [
        {
            "buffer" : 0,
            "byteLength" : 4776,
            "byteOffset" : 0
        },
        {
            "buffer" : 0,
            "byteLength" : 4776,
            "byteOffset" : 4776
        },
        {
            "buffer" : 0,
            "byteLength" : 2496,
            "byteOffset" : 9552
        }
    ],
    "buffers" : [
        {
            "byteLength" : 12048,
            "uri" : "Numbers_9-d2a635c3c32065a0c8c5dcd4cca24735.bin"
        }
    ]
}
