{
    "asset" : {
        "generator" : "Khronos glTF Blender I/O v3.2.43",
        "version" : "2.0"
    },
    "scene" : 0,
    "scenes" : [
        {
            "name" : "Scene",
            "nodes" : [
                0
            ]
        }
    ],
    "nodes" : [
        {
            "mesh" : 0,
            "name" : "Pan",
            "scale" : [
                0.725211501121521,
                0.725211501121521,
                0.725211501121521
            ]
        }
    ],
    "materials" : [
        {
            "doubleSided" : true,
            "name" : "Black",
            "pbrMetallicRoughness" : {
                "baseColorFactor" : [
                    0.033101364970207214,
                    0.033101364970207214,
                    0.033101364970207214,
                    1
                ],
                "metallicFactor" : 0,
                "roughnessFactor" : 0.5
            }
        },
        {
            "doubleSided" : true,
            "name" : "Grey",
            "pbrMetallicRoughness" : {
                "baseColorFactor" : [
                    0.14239658415317535,
                    0.14239658415317535,
                    0.14239658415317535,
                    1
                ],
                "metallicFactor" : 0,
                "roughnessFactor" : 0.5
            }
        },
        {
            "doubleSided" : true,
            "name" : "DarkWood",
            "pbrMetallicRoughness" : {
                "baseColorFactor" : [
                    0.14238348603248596,
                    0.08724373579025269,
                    0.044256653636693954,
                    1
                ],
                "metallicFactor" : 0,
                "roughnessFactor" : 0.5
            }
        }
    ],
    "meshes" : [
        {
            "name" : "Cylinder.021",
            "primitives" : [
                {
                    "attributes" : {
                        "POSITION" : 0,
                        "NORMAL" : 1
                    },
                    "indices" : 2,
                    "material" : 0
                },
                {
                    "attributes" : {
                        "POSITION" : 3,
                        "NORMAL" : 4
                    },
                    "indices" : 5,
                    "material" : 1
                },
                {
                    "attributes" : {
                        "POSITION" : 6,
                        "NORMAL" : 7
                    },
                    "indices" : 8,
                    "material" : 2
                }
            ]
        }
    ],
    "accessors" : [
        {
            "bufferView" : 0,
            "componentType" : 5126,
            "count" : 344,
            "max" : [
                1.1879158020019531,
                0.09126392006874084,
                3.244950771331787
            ],
            "min" : [
                -1.1879158020019531,
                -0.37713751196861267,
                0.8691191673278809
            ],
            "type" : "VEC3"
        },
        {
            "bufferView" : 1,
            "componentType" : 5126,
            "count" : 344,
            "type" : "VEC3"
        },
        {
            "bufferView" : 2,
            "componentType" : 5123,
            "count" : 522,
            "type" : "SCALAR"
        },
        {
            "bufferView" : 3,
            "componentType" : 5126,
            "count" : 30,
            "max" : [
                0.083473339676857,
                0.07623279094696045,
                0.9479159116744995
            ],
            "min" : [
                -0.083473339676857,
                -0.03719359636306763,
                0.7601557970046997
            ],
            "type" : "VEC3"
        },
        {
            "bufferView" : 4,
            "componentType" : 5126,
            "count" : 30,
            "type" : "VEC3"
        },
        {
            "bufferView" : 5,
            "componentType" : 5123,
            "count" : 48,
            "type" : "SCALAR"
        },
        {
            "bufferView" : 6,
            "componentType" : 5126,
            "count" : 106,
            "max" : [
                0.10007108002901077,
                0.09448349475860596,
                0.7746440172195435
            ],
            "min" : [
                -0.10007108002901077,
                -0.10565859079360962,
                -0.6499538421630859
            ],
            "type" : "VEC3"
        },
        {
            "bufferView" : 7,
            "componentType" : 5126,
            "count" : 106,
            "type" : "VEC3"
        },
        {
            "bufferView" : 8,
            "componentType" : 5123,
            "count" : 168,
            "type" : "SCALAR"
        }
    ],
    "bufferViews" : [
        {
            "buffer" : 0,
            "byteLength" : 4128,
            "byteOffset" : 0
        },
        {
            "buffer" : 0,
            "byteLength" : 4128,
            "byteOffset" : 4128
        },
        {
            "buffer" : 0,
            "byteLength" : 1044,
            "byteOffset" : 8256
        },
        {
            "buffer" : 0,
            "byteLength" : 360,
            "byteOffset" : 9300
        },
        {
            "buffer" : 0,
            "byteLength" : 360,
            "byteOffset" : 9660
        },
        {
            "buffer" : 0,
            "byteLength" : 96,
            "byteOffset" : 10020
        },
        {
            "buffer" : 0,
            "byteLength" : 1272,
            "byteOffset" : 10116
        },
        {
            "buffer" : 0,
            "byteLength" : 1272,
            "byteOffset" : 11388
        },
        {
            "buffer" : 0,
            "byteLength" : 336,
            "byteOffset" : 12660
        }
    ],
    "buffers" : [
        {
            "byteLength" : 12996,
            "uri" : "Pan-0554c82a866d033706d712d954a79ec4.bin"
        }
    ]
}
