{
    "asset" : {
        "generator" : "Khronos glTF Blender I/O v3.2.43",
        "version" : "2.0"
    },
    "scene" : 0,
    "scenes" : [
        {
            "name" : "Scene",
            "nodes" : [
                0
            ]
        }
    ],
    "nodes" : [
        {
            "mesh" : 0,
            "name" : "Pan_Small",
            "scale" : [
                0.725211501121521,
                0.725211501121521,
                0.725211501121521
            ]
        }
    ],
    "materials" : [
        {
            "doubleSided" : true,
            "name" : "Black",
            "pbrMetallicRoughness" : {
                "baseColorFactor" : [
                    0.033101364970207214,
                    0.033101364970207214,
                    0.033101364970207214,
                    1
                ],
                "metallicFactor" : 0,
                "roughnessFactor" : 0.5
            }
        },
        {
            "doubleSided" : true,
            "name" : "Grey",
            "pbrMetallicRoughness" : {
                "baseColorFactor" : [
                    0.14239658415317535,
                    0.14239658415317535,
                    0.14239658415317535,
                    1
                ],
                "metallicFactor" : 0,
                "roughnessFactor" : 0.5
            }
        },
        {
            "doubleSided" : true,
            "name" : "DarkWood",
            "pbrMetallicRoughness" : {
                "baseColorFactor" : [
                    0.14238348603248596,
                    0.08724373579025269,
                    0.044256653636693954,
                    1
                ],
                "metallicFactor" : 0,
                "roughnessFactor" : 0.5
            }
        }
    ],
    "meshes" : [
        {
            "name" : "Cylinder.023",
            "primitives" : [
                {
                    "attributes" : {
                        "POSITION" : 0,
                        "NORMAL" : 1
                    },
                    "indices" : 2,
                    "material" : 0
                },
                {
                    "attributes" : {
                        "POSITION" : 3,
                        "NORMAL" : 4
                    },
                    "indices" : 5,
                    "material" : 1
                },
                {
                    "attributes" : {
                        "POSITION" : 6,
                        "NORMAL" : 7
                    },
                    "indices" : 8,
                    "material" : 2
                }
            ]
        }
    ],
    "accessors" : [
        {
            "bufferView" : 0,
            "componentType" : 5126,
            "count" : 344,
            "max" : [
                0.8190391659736633,
                0.13441769778728485,
                2.3265328407287598
            ],
            "min" : [
                -0.8011286854743958,
                -0.1850026249885559,
                0.7063648700714111
            ],
            "type" : "VEC3"
        },
        {
            "bufferView" : 1,
            "componentType" : 5126,
            "count" : 344,
            "type" : "VEC3"
        },
        {
            "bufferView" : 2,
            "componentType" : 5123,
            "count" : 522,
            "type" : "SCALAR"
        },
        {
            "bufferView" : 3,
            "componentType" : 5126,
            "count" : 30,
            "max" : [
                0.0924285501241684,
                0.10983549058437347,
                0.7918004989624023
            ],
            "min" : [
                -0.0745181292295456,
                -0.003590896725654602,
                0.5462156534194946
            ],
            "type" : "VEC3"
        },
        {
            "bufferView" : 4,
            "componentType" : 5126,
            "count" : 30,
            "type" : "VEC3"
        },
        {
            "bufferView" : 5,
            "componentType" : 5123,
            "count" : 48,
            "type" : "SCALAR"
        },
        {
            "bufferView" : 6,
            "componentType" : 5126,
            "count" : 98,
            "max" : [
                0.10902629792690277,
                0.12808619439601898,
                0.5607038736343384
            ],
            "min" : [
                -0.09111586213111877,
                -0.072055883705616,
                -0.6894561052322388
            ],
            "type" : "VEC3"
        },
        {
            "bufferView" : 7,
            "componentType" : 5126,
            "count" : 98,
            "type" : "VEC3"
        },
        {
            "bufferView" : 8,
            "componentType" : 5123,
            "count" : 168,
            "type" : "SCALAR"
        }
    ],
    "bufferViews" : [
        {
            "buffer" : 0,
            "byteLength" : 4128,
            "byteOffset" : 0
        },
        {
            "buffer" : 0,
            "byteLength" : 4128,
            "byteOffset" : 4128
        },
        {
            "buffer" : 0,
            "byteLength" : 1044,
            "byteOffset" : 8256
        },
        {
            "buffer" : 0,
            "byteLength" : 360,
            "byteOffset" : 9300
        },
        {
            "buffer" : 0,
            "byteLength" : 360,
            "byteOffset" : 9660
        },
        {
            "buffer" : 0,
            "byteLength" : 96,
            "byteOffset" : 10020
        },
        {
            "buffer" : 0,
            "byteLength" : 1176,
            "byteOffset" : 10116
        },
        {
            "buffer" : 0,
            "byteLength" : 1176,
            "byteOffset" : 11292
        },
        {
            "buffer" : 0,
            "byteLength" : 336,
            "byteOffset" : 12468
        }
    ],
    "buffers" : [
        {
            "byteLength" : 12804,
            "uri" : "Pan_Small-45e793a44ac039080aa6e9d7e37d82e8.bin"
        }
    ]
}
