{
    "asset" : {
        "generator" : "Khronos glTF Blender I/O v3.2.43",
        "version" : "2.0"
    },
    "scene" : 0,
    "scenes" : [
        {
            "name" : "Scene",
            "nodes" : [
                0
            ]
        }
    ],
    "nodes" : [
        {
            "mesh" : 0,
            "name" : "Phone",
            "scale" : [
                1.9894319772720337,
                1.9894319772720337,
                1.9894319772720337
            ]
        }
    ],
    "materials" : [
        {
            "doubleSided" : true,
            "name" : "White",
            "pbrMetallicRoughness" : {
                "baseColorFactor" : [
                    0.698187530040741,
                    0.698187530040741,
                    0.698187530040741,
                    1
                ],
                "metallicFactor" : 0,
                "roughnessFactor" : 0.5
            }
        },
        {
            "doubleSided" : true,
            "name" : "Black",
            "pbrMetallicRoughness" : {
                "baseColorFactor" : [
                    0.033101364970207214,
                    0.033101364970207214,
                    0.033101364970207214,
                    1
                ],
                "metallicFactor" : 0,
                "roughnessFactor" : 0.5
            }
        },
        {
            "doubleSided" : true,
            "name" : "Grey",
            "pbrMetallicRoughness" : {
                "baseColorFactor" : [
                    0.14239658415317535,
                    0.14239658415317535,
                    0.14239658415317535,
                    1
                ],
                "metallicFactor" : 0,
                "roughnessFactor" : 0.5
            }
        }
    ],
    "meshes" : [
        {
            "name" : "Cube.006",
            "primitives" : [
                {
                    "attributes" : {
                        "POSITION" : 0,
                        "NORMAL" : 1
                    },
                    "indices" : 2,
                    "material" : 0
                },
                {
                    "attributes" : {
                        "POSITION" : 3,
                        "NORMAL" : 4
                    },
                    "indices" : 5,
                    "material" : 1
                },
                {
                    "attributes" : {
                        "POSITION" : 6,
                        "NORMAL" : 7
                    },
                    "indices" : 8,
                    "material" : 2
                }
            ]
        }
    ],
    "accessors" : [
        {
            "bufferView" : 0,
            "componentType" : 5126,
            "count" : 56,
            "max" : [
                0.10513168573379517,
                0.22810807824134827,
                0.014495414681732655
            ],
            "min" : [
                -0.10513168573379517,
                -0.2275806963443756,
                -0.014495414681732655
            ],
            "type" : "VEC3"
        },
        {
            "bufferView" : 1,
            "componentType" : 5126,
            "count" : 56,
            "type" : "VEC3"
        },
        {
            "bufferView" : 2,
            "componentType" : 5123,
            "count" : 114,
            "type" : "SCALAR"
        },
        {
            "bufferView" : 3,
            "componentType" : 5126,
            "count" : 260,
            "max" : [
                0.10804808139801025,
                0.19525082409381866,
                0.015979202464222908
            ],
            "min" : [
                -0.09671851992607117,
                -0.22853299975395203,
                -0.009003800339996815
            ],
            "type" : "VEC3"
        },
        {
            "bufferView" : 4,
            "componentType" : 5126,
            "count" : 260,
            "type" : "VEC3"
        },
        {
            "bufferView" : 5,
            "componentType" : 5123,
            "count" : 402,
            "type" : "SCALAR"
        },
        {
            "bufferView" : 6,
            "componentType" : 5126,
            "count" : 102,
            "max" : [
                0.10513168573379517,
                0.22810807824134827,
                0.015979202464222908
            ],
            "min" : [
                -0.10513168573379517,
                -0.2275806963443756,
                -0.014495414681732655
            ],
            "type" : "VEC3"
        },
        {
            "bufferView" : 7,
            "componentType" : 5126,
            "count" : 102,
            "type" : "VEC3"
        },
        {
            "bufferView" : 8,
            "componentType" : 5123,
            "count" : 156,
            "type" : "SCALAR"
        }
    ],
    "bufferViews" : [
        {
            "buffer" : 0,
            "byteLength" : 672,
            "byteOffset" : 0
        },
        {
            "buffer" : 0,
            "byteLength" : 672,
            "byteOffset" : 672
        },
        {
            "buffer" : 0,
            "byteLength" : 228,
            "byteOffset" : 1344
        },
        {
            "buffer" : 0,
            "byteLength" : 3120,
            "byteOffset" : 1572
        },
        {
            "buffer" : 0,
            "byteLength" : 3120,
            "byteOffset" : 4692
        },
        {
            "buffer" : 0,
            "byteLength" : 804,
            "byteOffset" : 7812
        },
        {
            "buffer" : 0,
            "byteLength" : 1224,
            "byteOffset" : 8616
        },
        {
            "buffer" : 0,
            "byteLength" : 1224,
            "byteOffset" : 9840
        },
        {
            "buffer" : 0,
            "byteLength" : 312,
            "byteOffset" : 11064
        }
    ],
    "buffers" : [
        {
            "byteLength" : 11376,
            "uri" : "Phone-e27087bd50e83d8c535b5c84758c4f38.bin"
        }
    ]
}
