{
    "asset" : {
        "generator" : "Khronos glTF Blender I/O v3.2.43",
        "version" : "2.0"
    },
    "scene" : 0,
    "scenes" : [
        {
            "name" : "Scene",
            "nodes" : [
                0
            ]
        }
    ],
    "nodes" : [
        {
            "mesh" : 0,
            "name" : "Pipe_End"
        }
    ],
    "materials" : [
        {
            "doubleSided" : true,
            "name" : "Pipe",
            "pbrMetallicRoughness" : {
                "baseColorFactor" : [
                    0.08689934760332108,
                    0.17172832787036896,
                    0.3263711631298065,
                    1
                ],
                "metallicFactor" : 0,
                "roughnessFactor" : 0.5
            }
        },
        {
            "doubleSided" : true,
            "name" : "Pipe_Light",
            "pbrMetallicRoughness" : {
                "baseColorFactor" : [
                    0.10560190677642822,
                    0.2103303223848343,
                    0.401964008808136,
                    1
                ],
                "metallicFactor" : 0,
                "roughnessFactor" : 0.5
            }
        }
    ],
    "meshes" : [
        {
            "name" : "Cylinder.038",
            "primitives" : [
                {
                    "attributes" : {
                        "POSITION" : 0,
                        "NORMAL" : 1
                    },
                    "indices" : 2,
                    "material" : 0
                },
                {
                    "attributes" : {
                        "POSITION" : 3,
                        "NORMAL" : 4
                    },
                    "indices" : 5,
                    "material" : 1
                }
            ]
        }
    ],
    "accessors" : [
        {
            "bufferView" : 0,
            "componentType" : 5126,
            "count" : 1280,
            "max" : [
                1.0911215543746948,
                1.1049017906188965,
                1.090837836265564
            ],
            "min" : [
                -1.0911215543746948,
                -0.9999998807907104,
                -1.0914052724838257
            ],
            "type" : "VEC3"
        },
        {
            "bufferView" : 1,
            "componentType" : 5126,
            "count" : 1280,
            "type" : "VEC3"
        },
        {
            "bufferView" : 2,
            "componentType" : 5123,
            "count" : 2208,
            "type" : "SCALAR"
        },
        {
            "bufferView" : 3,
            "componentType" : 5126,
            "count" : 416,
            "max" : [
                1.0361138582229614,
                1.2213002443313599,
                1.0541749000549316
            ],
            "min" : [
                -1.0361137390136719,
                -0.20238326489925385,
                -1.0180522203445435
            ],
            "type" : "VEC3"
        },
        {
            "bufferView" : 4,
            "componentType" : 5126,
            "count" : 416,
            "type" : "VEC3"
        },
        {
            "bufferView" : 5,
            "componentType" : 5123,
            "count" : 1248,
            "type" : "SCALAR"
        }
    ],
    "bufferViews" : [
        {
            "buffer" : 0,
            "byteLength" : 15360,
            "byteOffset" : 0
        },
        {
            "buffer" : 0,
            "byteLength" : 15360,
            "byteOffset" : 15360
        },
        {
            "buffer" : 0,
            "byteLength" : 4416,
            "byteOffset" : 30720
        },
        {
            "buffer" : 0,
            "byteLength" : 4992,
            "byteOffset" : 35136
        },
        {
            "buffer" : 0,
            "byteLength" : 4992,
            "byteOffset" : 40128
        },
        {
            "buffer" : 0,
            "byteLength" : 2496,
            "byteOffset" : 45120
        }
    ],
    "buffers" : [
        {
            "byteLength" : 47616,
            "uri" : "Pipe_End-3ff4b30c99dfd850c6ad718411c6e3ce.bin"
        }
    ]
}
