{
    "asset" : {
        "generator" : "Khronos glTF Blender I/O v3.2.43",
        "version" : "2.0"
    },
    "scene" : 0,
    "scenes" : [
        {
            "name" : "Scene",
            "nodes" : [
                0
            ]
        }
    ],
    "nodes" : [
        {
            "mesh" : 0,
            "name" : "Pipe_90"
        }
    ],
    "materials" : [
        {
            "doubleSided" : true,
            "name" : "Pipe",
            "pbrMetallicRoughness" : {
                "baseColorFactor" : [
                    0.08689934760332108,
                    0.17172832787036896,
                    0.3263711631298065,
                    1
                ],
                "metallicFactor" : 0,
                "roughnessFactor" : 0.5
            }
        }
    ],
    "meshes" : [
        {
            "name" : "Cylinder.040",
            "primitives" : [
                {
                    "attributes" : {
                        "POSITION" : 0,
                        "NORMAL" : 1
                    },
                    "indices" : 2,
                    "material" : 0
                }
            ]
        }
    ],
    "accessors" : [
        {
            "bufferView" : 0,
            "componentType" : 5126,
            "count" : 199,
            "max" : [
                0.9999998807907104,
                0.8676815629005432,
                0.8676813244819641
            ],
            "min" : [
                -0.8676809072494507,
                -0.9999998807907104,
                -0.8676814436912537
            ],
            "type" : "VEC3"
        },
        {
            "bufferView" : 1,
            "componentType" : 5126,
            "count" : 199,
            "type" : "VEC3"
        },
        {
            "bufferView" : 2,
            "componentType" : 5123,
            "count" : 768,
            "type" : "SCALAR"
        }
    ],
    "bufferViews" : [
        {
            "buffer" : 0,
            "byteLength" : 2388,
            "byteOffset" : 0
        },
        {
            "buffer" : 0,
            "byteLength" : 2388,
            "byteOffset" : 2388
        },
        {
            "buffer" : 0,
            "byteLength" : 1536,
            "byteOffset" : 4776
        }
    ],
    "buffers" : [
        {
            "byteLength" : 6312,
            "uri" : "Pipe_90-028fdcdcfd32a1bbfaaebde9a5ff8ad6.bin"
        }
    ]
}
