{
    "asset" : {
        "generator" : "Khronos glTF Blender I/O v3.2.43",
        "version" : "2.0"
    },
    "scene" : 0,
    "scenes" : [
        {
            "name" : "Scene",
            "nodes" : [
                0
            ]
        }
    ],
    "nodes" : [
        {
            "mesh" : 0,
            "name" : "Pipe_Straight"
        }
    ],
    "materials" : [
        {
            "doubleSided" : true,
            "name" : "Pipe",
            "pbrMetallicRoughness" : {
                "baseColorFactor" : [
                    0.08689934760332108,
                    0.17172832787036896,
                    0.3263711631298065,
                    1
                ],
                "metallicFactor" : 0,
                "roughnessFactor" : 0.5
            }
        },
        {
            "doubleSided" : true,
            "name" : "Pipe_Light",
            "pbrMetallicRoughness" : {
                "baseColorFactor" : [
                    0.10560190677642822,
                    0.2103303223848343,
                    0.401964008808136,
                    1
                ],
                "metallicFactor" : 0,
                "roughnessFactor" : 0.5
            }
        }
    ],
    "meshes" : [
        {
            "name" : "Cylinder.023",
            "primitives" : [
                {
                    "attributes" : {
                        "POSITION" : 0,
                        "NORMAL" : 1
                    },
                    "indices" : 2,
                    "material" : 0
                },
                {
                    "attributes" : {
                        "POSITION" : 3,
                        "NORMAL" : 4
                    },
                    "indices" : 5,
                    "material" : 1
                }
            ]
        }
    ],
    "accessors" : [
        {
            "bufferView" : 0,
            "componentType" : 5126,
            "count" : 704,
            "max" : [
                1.0404983758926392,
                0.9999997615814209,
                1.0404983758926392
            ],
            "min" : [
                -1.0404983758926392,
                -0.9999998807907104,
                -1.0404983758926392
            ],
            "type" : "VEC3"
        },
        {
            "bufferView" : 1,
            "componentType" : 5126,
            "count" : 704,
            "type" : "VEC3"
        },
        {
            "bufferView" : 2,
            "componentType" : 5123,
            "count" : 1296,
            "type" : "SCALAR"
        },
        {
            "bufferView" : 3,
            "componentType" : 5126,
            "count" : 160,
            "max" : [
                0.9880426526069641,
                0.2023831456899643,
                1.0055363178253174
            ],
            "min" : [
                -0.9880425333976746,
                -0.20238326489925385,
                -0.9705485701560974
            ],
            "type" : "VEC3"
        },
        {
            "bufferView" : 4,
            "componentType" : 5126,
            "count" : 160,
            "type" : "VEC3"
        },
        {
            "bufferView" : 5,
            "componentType" : 5123,
            "count" : 480,
            "type" : "SCALAR"
        }
    ],
    "bufferViews" : [
        {
            "buffer" : 0,
            "byteLength" : 8448,
            "byteOffset" : 0
        },
        {
            "buffer" : 0,
            "byteLength" : 8448,
            "byteOffset" : 8448
        },
        {
            "buffer" : 0,
            "byteLength" : 2592,
            "byteOffset" : 16896
        },
        {
            "buffer" : 0,
            "byteLength" : 1920,
            "byteOffset" : 19488
        },
        {
            "buffer" : 0,
            "byteLength" : 1920,
            "byteOffset" : 21408
        },
        {
            "buffer" : 0,
            "byteLength" : 960,
            "byteOffset" : 23328
        }
    ],
    "buffers" : [
        {
            "byteLength" : 24288,
            "uri" : "Pipe_Straight-c76a39ecd5785fdacdbb828c0d316d53.bin"
        }
    ]
}
