{
    "asset" : {
        "generator" : "Khronos glTF Blender I/O v3.2.43",
        "version" : "2.0"
    },
    "scene" : 0,
    "scenes" : [
        {
            "name" : "Scene",
            "nodes" : [
                0
            ]
        }
    ],
    "nodes" : [
        {
            "mesh" : 0,
            "name" : "Pipe_T"
        }
    ],
    "materials" : [
        {
            "doubleSided" : true,
            "name" : "Pipe",
            "pbrMetallicRoughness" : {
                "baseColorFactor" : [
                    0.08689934760332108,
                    0.17172832787036896,
                    0.3263711631298065,
                    1
                ],
                "metallicFactor" : 0,
                "roughnessFactor" : 0.5
            }
        }
    ],
    "meshes" : [
        {
            "name" : "Cylinder.011",
            "primitives" : [
                {
                    "attributes" : {
                        "POSITION" : 0,
                        "NORMAL" : 1
                    },
                    "indices" : 2,
                    "material" : 0
                }
            ]
        }
    ],
    "accessors" : [
        {
            "bufferView" : 0,
            "componentType" : 5126,
            "count" : 316,
            "max" : [
                0.9999997615814209,
                1.000000238418579,
                0.8676812052726746
            ],
            "min" : [
                -0.8676809072494507,
                -1.000000238418579,
                -0.8676814436912537
            ],
            "type" : "VEC3"
        },
        {
            "bufferView" : 1,
            "componentType" : 5126,
            "count" : 316,
            "type" : "VEC3"
        },
        {
            "bufferView" : 2,
            "componentType" : 5123,
            "count" : 1128,
            "type" : "SCALAR"
        }
    ],
    "bufferViews" : [
        {
            "buffer" : 0,
            "byteLength" : 3792,
            "byteOffset" : 0
        },
        {
            "buffer" : 0,
            "byteLength" : 3792,
            "byteOffset" : 3792
        },
        {
            "buffer" : 0,
            "byteLength" : 2256,
            "byteOffset" : 7584
        }
    ],
    "buffers" : [
        {
            "byteLength" : 9840,
            "uri" : "Pipe_T-68f3b1856d5de054a6225c78a89bf06c.bin"
        }
    ]
}
