{
    "asset" : {
        "generator" : "Khronos glTF Blender I/O v3.2.43",
        "version" : "2.0"
    },
    "scene" : 0,
    "scenes" : [
        {
            "name" : "Scene",
            "nodes" : [
                0
            ]
        }
    ],
    "nodes" : [
        {
            "mesh" : 0,
            "name" : "Pistol_2"
        }
    ],
    "materials" : [
        {
            "doubleSided" : true,
            "name" : "Wood",
            "pbrMetallicRoughness" : {
                "baseColorFactor" : [
                    0.13285954296588898,
                    0.09002935886383057,
                    0.06840453296899796,
                    1
                ],
                "metallicFactor" : 0,
                "roughnessFactor" : 0.5
            }
        },
        {
            "doubleSided" : true,
            "name" : "Metal",
            "pbrMetallicRoughness" : {
                "baseColorFactor" : [
                    0.0666259378194809,
                    0.06847818195819855,
                    0.06700000166893005,
                    1
                ],
                "metallicFactor" : 0,
                "roughnessFactor" : 0.5
            }
        },
        {
            "doubleSided" : true,
            "name" : "Black",
            "pbrMetallicRoughness" : {
                "baseColorFactor" : [
                    0.026966236531734467,
                    0.02748231776058674,
                    0.02909727953374386,
                    1
                ],
                "metallicFactor" : 0,
                "roughnessFactor" : 0.5
            }
        },
        {
            "doubleSided" : true,
            "name" : "LightMetal",
            "pbrMetallicRoughness" : {
                "baseColorFactor" : [
                    0.11443537473678589,
                    0.11697068810462952,
                    0.1247718334197998,
                    1
                ],
                "metallicFactor" : 0,
                "roughnessFactor" : 0.5
            }
        }
    ],
    "meshes" : [
        {
            "name" : "Cube.000",
            "primitives" : [
                {
                    "attributes" : {
                        "POSITION" : 0,
                        "NORMAL" : 1
                    },
                    "indices" : 2,
                    "material" : 0
                },
                {
                    "attributes" : {
                        "POSITION" : 3,
                        "NORMAL" : 4
                    },
                    "indices" : 5,
                    "material" : 1
                },
                {
                    "attributes" : {
                        "POSITION" : 6,
                        "NORMAL" : 7
                    },
                    "indices" : 8,
                    "material" : 2
                },
                {
                    "attributes" : {
                        "POSITION" : 9,
                        "NORMAL" : 10
                    },
                    "indices" : 11,
                    "material" : 3
                }
            ]
        }
    ],
    "accessors" : [
        {
            "bufferView" : 0,
            "componentType" : 5126,
            "count" : 768,
            "max" : [
                0.17958208918571472,
                0.3628385663032532,
                0.1616048365831375
            ],
            "min" : [
                -0.24201878905296326,
                -0.35991379618644714,
                -0.16160494089126587
            ],
            "type" : "VEC3"
        },
        {
            "bufferView" : 1,
            "componentType" : 5126,
            "count" : 768,
            "type" : "VEC3"
        },
        {
            "bufferView" : 2,
            "componentType" : 5123,
            "count" : 1152,
            "type" : "SCALAR"
        },
        {
            "bufferView" : 3,
            "componentType" : 5126,
            "count" : 706,
            "max" : [
                1.4481667280197144,
                0.7490890026092529,
                0.15433765947818756
            ],
            "min" : [
                -0.34863996505737305,
                -0.38889992237091064,
                -0.15433774888515472
            ],
            "type" : "VEC3"
        },
        {
            "bufferView" : 4,
            "componentType" : 5126,
            "count" : 706,
            "type" : "VEC3"
        },
        {
            "bufferView" : 5,
            "componentType" : 5123,
            "count" : 1080,
            "type" : "SCALAR"
        },
        {
            "bufferView" : 6,
            "componentType" : 5126,
            "count" : 312,
            "max" : [
                1.4706672430038452,
                0.6580535173416138,
                0.12593862414360046
            ],
            "min" : [
                -0.34873372316360474,
                -0.4124666750431061,
                -0.12593871355056763
            ],
            "type" : "VEC3"
        },
        {
            "bufferView" : 7,
            "componentType" : 5126,
            "count" : 312,
            "type" : "VEC3"
        },
        {
            "bufferView" : 8,
            "componentType" : 5123,
            "count" : 504,
            "type" : "SCALAR"
        },
        {
            "bufferView" : 9,
            "componentType" : 5126,
            "count" : 536,
            "max" : [
                1.4481667280197144,
                0.7346392869949341,
                0.1504664421081543
            ],
            "min" : [
                -0.3197701573371887,
                0.4180692434310913,
                -0.15046653151512146
            ],
            "type" : "VEC3"
        },
        {
            "bufferView" : 10,
            "componentType" : 5126,
            "count" : 536,
            "type" : "VEC3"
        },
        {
            "bufferView" : 11,
            "componentType" : 5123,
            "count" : 864,
            "type" : "SCALAR"
        }
    ],
    "bufferViews" : [
        {
            "buffer" : 0,
            "byteLength" : 9216,
            "byteOffset" : 0
        },
        {
            "buffer" : 0,
            "byteLength" : 9216,
            "byteOffset" : 9216
        },
        {
            "buffer" : 0,
            "byteLength" : 2304,
            "byteOffset" : 18432
        },
        {
            "buffer" : 0,
            "byteLength" : 8472,
            "byteOffset" : 20736
        },
        {
            "buffer" : 0,
            "byteLength" : 8472,
            "byteOffset" : 29208
        },
        {
            "buffer" : 0,
            "byteLength" : 2160,
            "byteOffset" : 37680
        },
        {
            "buffer" : 0,
            "byteLength" : 3744,
            "byteOffset" : 39840
        },
        {
            "buffer" : 0,
            "byteLength" : 3744,
            "byteOffset" : 43584
        },
        {
            "buffer" : 0,
            "byteLength" : 1008,
            "byteOffset" : 47328
        },
        {
            "buffer" : 0,
            "byteLength" : 6432,
            "byteOffset" : 48336
        },
        {
            "buffer" : 0,
            "byteLength" : 6432,
            "byteOffset" : 54768
        },
        {
            "buffer" : 0,
            "byteLength" : 1728,
            "byteOffset" : 61200
        }
    ],
    "buffers" : [
        {
            "byteLength" : 62928,
            "uri" : "Pistol_2-4dceb6b1fde2ed03d00a1805e8e17121.bin"
        }
    ]
}
