{
    "asset" : {
        "generator" : "Khronos glTF Blender I/O v3.2.43",
        "version" : "2.0"
    },
    "scene" : 0,
    "scenes" : [
        {
            "name" : "Scene",
            "nodes" : [
                0
            ]
        }
    ],
    "nodes" : [
        {
            "mesh" : 0,
            "name" : "Plant_Small"
        }
    ],
    "materials" : [
        {
            "doubleSided" : true,
            "name" : "Green",
            "pbrMetallicRoughness" : {
                "baseColorFactor" : [
                    0.3128679394721985,
                    0.41093432903289795,
                    0.0227811299264431,
                    1
                ],
                "metallicFactor" : 0,
                "roughnessFactor" : 0.5
            }
        }
    ],
    "meshes" : [
        {
            "name" : "Cube.265",
            "primitives" : [
                {
                    "attributes" : {
                        "POSITION" : 0,
                        "NORMAL" : 1
                    },
                    "indices" : 2,
                    "material" : 0
                }
            ]
        }
    ],
    "accessors" : [
        {
            "bufferView" : 0,
            "componentType" : 5126,
            "count" : 424,
            "max" : [
                0.5147831439971924,
                0.2850405275821686,
                0.5162271857261658
            ],
            "min" : [
                -0.5147831439971924,
                -0.0017032325267791748,
                -0.5162271857261658
            ],
            "type" : "VEC3"
        },
        {
            "bufferView" : 1,
            "componentType" : 5126,
            "count" : 424,
            "type" : "VEC3"
        },
        {
            "bufferView" : 2,
            "componentType" : 5123,
            "count" : 1392,
            "type" : "SCALAR"
        }
    ],
    "bufferViews" : [
        {
            "buffer" : 0,
            "byteLength" : 5088,
            "byteOffset" : 0
        },
        {
            "buffer" : 0,
            "byteLength" : 5088,
            "byteOffset" : 5088
        },
        {
            "buffer" : 0,
            "byteLength" : 2784,
            "byteOffset" : 10176
        }
    ],
    "buffers" : [
        {
            "byteLength" : 12960,
            "uri" : "Plant_Small-b054625be124157a8851cad8163ec30c.bin"
        }
    ]
}
