{
    "asset" : {
        "generator" : "Khronos glTF Blender I/O v3.2.43",
        "version" : "2.0"
    },
    "scene" : 0,
    "scenes" : [
        {
            "name" : "Scene",
            "nodes" : [
                0
            ]
        }
    ],
    "nodes" : [
        {
            "mesh" : 0,
            "name" : "Plant_Large"
        }
    ],
    "materials" : [
        {
            "doubleSided" : true,
            "name" : "Green",
            "pbrMetallicRoughness" : {
                "baseColorFactor" : [
                    0.3128679394721985,
                    0.41093432903289795,
                    0.0227811299264431,
                    1
                ],
                "metallicFactor" : 0,
                "roughnessFactor" : 0.5
            }
        },
        {
            "doubleSided" : true,
            "name" : "BrightGreen",
            "pbrMetallicRoughness" : {
                "baseColorFactor" : [
                    0.13323043286800385,
                    0.34237906336784363,
                    0.023287488147616386,
                    1
                ],
                "metallicFactor" : 0,
                "roughnessFactor" : 0.5
            }
        }
    ],
    "meshes" : [
        {
            "name" : "Cube.266",
            "primitives" : [
                {
                    "attributes" : {
                        "POSITION" : 0,
                        "NORMAL" : 1
                    },
                    "indices" : 2,
                    "material" : 0
                },
                {
                    "attributes" : {
                        "POSITION" : 3,
                        "NORMAL" : 4
                    },
                    "indices" : 5,
                    "material" : 1
                }
            ]
        }
    ],
    "accessors" : [
        {
            "bufferView" : 0,
            "componentType" : 5126,
            "count" : 428,
            "max" : [
                0.5147831439971924,
                0.3880731463432312,
                0.5162271857261658
            ],
            "min" : [
                -0.5147831439971924,
                -0.002318894024938345,
                -0.5162271857261658
            ],
            "type" : "VEC3"
        },
        {
            "bufferView" : 1,
            "componentType" : 5126,
            "count" : 428,
            "type" : "VEC3"
        },
        {
            "bufferView" : 2,
            "componentType" : 5123,
            "count" : 1392,
            "type" : "SCALAR"
        },
        {
            "bufferView" : 3,
            "componentType" : 5126,
            "count" : 424,
            "max" : [
                0.8482751846313477,
                0.383099764585495,
                0.8482751846313477
            ],
            "min" : [
                -0.8482751846313477,
                0.003971379715949297,
                -0.8482751846313477
            ],
            "type" : "VEC3"
        },
        {
            "bufferView" : 4,
            "componentType" : 5126,
            "count" : 424,
            "type" : "VEC3"
        },
        {
            "bufferView" : 5,
            "componentType" : 5123,
            "count" : 1392,
            "type" : "SCALAR"
        }
    ],
    "bufferViews" : [
        {
            "buffer" : 0,
            "byteLength" : 5136,
            "byteOffset" : 0
        },
        {
            "buffer" : 0,
            "byteLength" : 5136,
            "byteOffset" : 5136
        },
        {
            "buffer" : 0,
            "byteLength" : 2784,
            "byteOffset" : 10272
        },
        {
            "buffer" : 0,
            "byteLength" : 5088,
            "byteOffset" : 13056
        },
        {
            "buffer" : 0,
            "byteLength" : 5088,
            "byteOffset" : 18144
        },
        {
            "buffer" : 0,
            "byteLength" : 2784,
            "byteOffset" : 23232
        }
    ],
    "buffers" : [
        {
            "byteLength" : 26016,
            "uri" : "Plant_Large-5cc9a2409b58ecc8a96c924af1cdc57d.bin"
        }
    ]
}
