{
    "asset" : {
        "generator" : "Khronos glTF Blender I/O v3.2.43",
        "version" : "2.0"
    },
    "scene" : 0,
    "scenes" : [
        {
            "name" : "Scene",
            "nodes" : [
                0
            ]
        }
    ],
    "nodes" : [
        {
            "mesh" : 0,
            "name" : "Pot_Small",
            "scale" : [
                0.725211501121521,
                0.725211501121521,
                0.725211501121521
            ]
        }
    ],
    "materials" : [
        {
            "doubleSided" : true,
            "name" : "Black",
            "pbrMetallicRoughness" : {
                "baseColorFactor" : [
                    0.033101364970207214,
                    0.033101364970207214,
                    0.033101364970207214,
                    1
                ],
                "metallicFactor" : 0,
                "roughnessFactor" : 0.5
            }
        },
        {
            "doubleSided" : true,
            "name" : "Grey",
            "pbrMetallicRoughness" : {
                "baseColorFactor" : [
                    0.14239658415317535,
                    0.14239658415317535,
                    0.14239658415317535,
                    1
                ],
                "metallicFactor" : 0,
                "roughnessFactor" : 0.5
            }
        }
    ],
    "meshes" : [
        {
            "name" : "Cylinder.028",
            "primitives" : [
                {
                    "attributes" : {
                        "POSITION" : 0,
                        "NORMAL" : 1
                    },
                    "indices" : 2,
                    "material" : 0
                },
                {
                    "attributes" : {
                        "POSITION" : 3,
                        "NORMAL" : 4
                    },
                    "indices" : 5,
                    "material" : 1
                }
            ]
        }
    ],
    "accessors" : [
        {
            "bufferView" : 0,
            "componentType" : 5126,
            "count" : 440,
            "max" : [
                0.8231232166290283,
                0.5713092088699341,
                0.8220675587654114
            ],
            "min" : [
                -0.8231232166290283,
                -0.004891696851700544,
                -0.8241788744926453
            ],
            "type" : "VEC3"
        },
        {
            "bufferView" : 1,
            "componentType" : 5126,
            "count" : 440,
            "type" : "VEC3"
        },
        {
            "bufferView" : 2,
            "componentType" : 5123,
            "count" : 666,
            "type" : "SCALAR"
        },
        {
            "bufferView" : 3,
            "componentType" : 5126,
            "count" : 200,
            "max" : [
                0.29454314708709717,
                0.5298024415969849,
                0.9701095819473267
            ],
            "min" : [
                -0.2945431172847748,
                0.3475606441497803,
                -0.9701095819473267
            ],
            "type" : "VEC3"
        },
        {
            "bufferView" : 4,
            "componentType" : 5126,
            "count" : 200,
            "type" : "VEC3"
        },
        {
            "bufferView" : 5,
            "componentType" : 5123,
            "count" : 312,
            "type" : "SCALAR"
        }
    ],
    "bufferViews" : [
        {
            "buffer" : 0,
            "byteLength" : 5280,
            "byteOffset" : 0
        },
        {
            "buffer" : 0,
            "byteLength" : 5280,
            "byteOffset" : 5280
        },
        {
            "buffer" : 0,
            "byteLength" : 1332,
            "byteOffset" : 10560
        },
        {
            "buffer" : 0,
            "byteLength" : 2400,
            "byteOffset" : 11892
        },
        {
            "buffer" : 0,
            "byteLength" : 2400,
            "byteOffset" : 14292
        },
        {
            "buffer" : 0,
            "byteLength" : 624,
            "byteOffset" : 16692
        }
    ],
    "buffers" : [
        {
            "byteLength" : 17316,
            "uri" : "Pot_Small-69e66076c7b4267df5a8e5e3fcc7c8ef.bin"
        }
    ]
}
