{
    "asset" : {
        "generator" : "Khronos glTF Blender I/O v3.2.43",
        "version" : "2.0"
    },
    "scene" : 0,
    "scenes" : [
        {
            "name" : "Scene",
            "nodes" : [
                0
            ]
        }
    ],
    "nodes" : [
        {
            "mesh" : 0,
            "name" : "PropaneTank",
            "scale" : [
                1.9894319772720337,
                1.9894319772720337,
                1.9894319772720337
            ]
        }
    ],
    "materials" : [
        {
            "doubleSided" : true,
            "name" : "White",
            "pbrMetallicRoughness" : {
                "baseColorFactor" : [
                    0.698187530040741,
                    0.698187530040741,
                    0.698187530040741,
                    1
                ],
                "metallicFactor" : 0,
                "roughnessFactor" : 0.5
            }
        },
        {
            "doubleSided" : true,
            "name" : "Red",
            "pbrMetallicRoughness" : {
                "baseColorFactor" : [
                    0.21402914822101593,
                    0.039549391716718674,
                    0.03738441318273544,
                    1
                ],
                "metallicFactor" : 0,
                "roughnessFactor" : 0.5
            }
        },
        {
            "doubleSided" : true,
            "name" : "Black",
            "pbrMetallicRoughness" : {
                "baseColorFactor" : [
                    0.033101364970207214,
                    0.033101364970207214,
                    0.033101364970207214,
                    1
                ],
                "metallicFactor" : 0,
                "roughnessFactor" : 0.5
            }
        },
        {
            "doubleSided" : true,
            "name" : "Orange",
            "pbrMetallicRoughness" : {
                "baseColorFactor" : [
                    0.27382591366767883,
                    0.11981796473264694,
                    0.04423549026250839,
                    1
                ],
                "metallicFactor" : 0,
                "roughnessFactor" : 0.5
            }
        }
    ],
    "meshes" : [
        {
            "name" : "Cylinder.011",
            "primitives" : [
                {
                    "attributes" : {
                        "POSITION" : 0,
                        "NORMAL" : 1
                    },
                    "indices" : 2,
                    "material" : 0
                },
                {
                    "attributes" : {
                        "POSITION" : 3,
                        "NORMAL" : 4
                    },
                    "indices" : 5,
                    "material" : 1
                },
                {
                    "attributes" : {
                        "POSITION" : 6,
                        "NORMAL" : 7
                    },
                    "indices" : 8,
                    "material" : 2
                },
                {
                    "attributes" : {
                        "POSITION" : 9,
                        "NORMAL" : 10
                    },
                    "indices" : 11,
                    "material" : 3
                }
            ]
        }
    ],
    "accessors" : [
        {
            "bufferView" : 0,
            "componentType" : 5126,
            "count" : 792,
            "max" : [
                0.5397101044654846,
                0.7671003341674805,
                0.4911498725414276
            ],
            "min" : [
                -0.5436049699783325,
                -0.6860635876655579,
                -0.5391441583633423
            ],
            "type" : "VEC3"
        },
        {
            "bufferView" : 1,
            "componentType" : 5126,
            "count" : 792,
            "type" : "VEC3"
        },
        {
            "bufferView" : 2,
            "componentType" : 5123,
            "count" : 1206,
            "type" : "SCALAR"
        },
        {
            "bufferView" : 3,
            "componentType" : 5126,
            "count" : 4,
            "max" : [
                0.04751972854137421,
                0.35162752866744995,
                0.4861339032649994
            ],
            "min" : [
                -0.05141477286815643,
                0.2568681836128235,
                0.486133873462677
            ],
            "type" : "VEC3"
        },
        {
            "bufferView" : 4,
            "componentType" : 5126,
            "count" : 4,
            "type" : "VEC3"
        },
        {
            "bufferView" : 5,
            "componentType" : 5123,
            "count" : 6,
            "type" : "SCALAR"
        },
        {
            "bufferView" : 6,
            "componentType" : 5126,
            "count" : 16,
            "max" : [
                0.059170886874198914,
                0.36278706789016724,
                0.4861339032649994
            ],
            "min" : [
                -0.06306591629981995,
                0.24570870399475098,
                0.486133873462677
            ],
            "type" : "VEC3"
        },
        {
            "bufferView" : 7,
            "componentType" : 5126,
            "count" : 16,
            "type" : "VEC3"
        },
        {
            "bufferView" : 8,
            "componentType" : 5123,
            "count" : 24,
            "type" : "SCALAR"
        },
        {
            "bufferView" : 9,
            "componentType" : 5126,
            "count" : 190,
            "max" : [
                0.03368005156517029,
                0.7582258582115173,
                0.10129404813051224
            ],
            "min" : [
                -0.03758804872632027,
                0.5784808397293091,
                -0.06491019576787949
            ],
            "type" : "VEC3"
        },
        {
            "bufferView" : 10,
            "componentType" : 5126,
            "count" : 190,
            "type" : "VEC3"
        },
        {
            "bufferView" : 11,
            "componentType" : 5123,
            "count" : 312,
            "type" : "SCALAR"
        }
    ],
    "bufferViews" : [
        {
            "buffer" : 0,
            "byteLength" : 9504,
            "byteOffset" : 0
        },
        {
            "buffer" : 0,
            "byteLength" : 9504,
            "byteOffset" : 9504
        },
        {
            "buffer" : 0,
            "byteLength" : 2412,
            "byteOffset" : 19008
        },
        {
            "buffer" : 0,
            "byteLength" : 48,
            "byteOffset" : 21420
        },
        {
            "buffer" : 0,
            "byteLength" : 48,
            "byteOffset" : 21468
        },
        {
            "buffer" : 0,
            "byteLength" : 12,
            "byteOffset" : 21516
        },
        {
            "buffer" : 0,
            "byteLength" : 192,
            "byteOffset" : 21528
        },
        {
            "buffer" : 0,
            "byteLength" : 192,
            "byteOffset" : 21720
        },
        {
            "buffer" : 0,
            "byteLength" : 48,
            "byteOffset" : 21912
        },
        {
            "buffer" : 0,
            "byteLength" : 2280,
            "byteOffset" : 21960
        },
        {
            "buffer" : 0,
            "byteLength" : 2280,
            "byteOffset" : 24240
        },
        {
            "buffer" : 0,
            "byteLength" : 624,
            "byteOffset" : 26520
        }
    ],
    "buffers" : [
        {
            "byteLength" : 27144,
            "uri" : "PropaneTank-56f5934714d409be0148c33af0068b75.bin"
        }
    ]
}
