{
    "asset" : {
        "generator" : "Khronos glTF Blender I/O v3.2.43",
        "version" : "2.0"
    },
    "scene" : 0,
    "scenes" : [
        {
            "name" : "Scene",
            "nodes" : [
                0
            ]
        }
    ],
    "nodes" : [
        {
            "mesh" : 0,
            "name" : "Radio",
            "scale" : [
                2.42002534866333,
                2.42002534866333,
                2.42002534866333
            ]
        }
    ],
    "materials" : [
        {
            "doubleSided" : true,
            "name" : "DarkGrey",
            "pbrMetallicRoughness" : {
                "baseColorFactor" : [
                    0.06680474430322647,
                    0.06680474430322647,
                    0.06680474430322647,
                    1
                ],
                "metallicFactor" : 0,
                "roughnessFactor" : 0.5
            }
        },
        {
            "doubleSided" : true,
            "name" : "Black",
            "pbrMetallicRoughness" : {
                "baseColorFactor" : [
                    0.033101364970207214,
                    0.033101364970207214,
                    0.033101364970207214,
                    1
                ],
                "metallicFactor" : 0,
                "roughnessFactor" : 0.5
            }
        },
        {
            "doubleSided" : true,
            "name" : "LightGrey",
            "pbrMetallicRoughness" : {
                "baseColorFactor" : [
                    0.37574493885040283,
                    0.37574493885040283,
                    0.37574493885040283,
                    1
                ],
                "metallicFactor" : 0,
                "roughnessFactor" : 0.5
            }
        },
        {
            "doubleSided" : true,
            "name" : "Red",
            "pbrMetallicRoughness" : {
                "baseColorFactor" : [
                    0.21402914822101593,
                    0.039549391716718674,
                    0.03738441318273544,
                    1
                ],
                "metallicFactor" : 0,
                "roughnessFactor" : 0.5
            }
        }
    ],
    "meshes" : [
        {
            "name" : "Cube.005",
            "primitives" : [
                {
                    "attributes" : {
                        "POSITION" : 0,
                        "NORMAL" : 1
                    },
                    "indices" : 2,
                    "material" : 0
                },
                {
                    "attributes" : {
                        "POSITION" : 3,
                        "NORMAL" : 4
                    },
                    "indices" : 5,
                    "material" : 1
                },
                {
                    "attributes" : {
                        "POSITION" : 6,
                        "NORMAL" : 7
                    },
                    "indices" : 8,
                    "material" : 2
                },
                {
                    "attributes" : {
                        "POSITION" : 9,
                        "NORMAL" : 10
                    },
                    "indices" : 11,
                    "material" : 3
                }
            ]
        }
    ],
    "accessors" : [
        {
            "bufferView" : 0,
            "componentType" : 5126,
            "count" : 161,
            "max" : [
                0.3235528767108917,
                0.5160461068153381,
                0.18588900566101074
            ],
            "min" : [
                -0.3235528767108917,
                0.019600199535489082,
                0.03237064182758331
            ],
            "type" : "VEC3"
        },
        {
            "bufferView" : 1,
            "componentType" : 5126,
            "count" : 161,
            "type" : "VEC3"
        },
        {
            "bufferView" : 2,
            "componentType" : 5123,
            "count" : 267,
            "type" : "SCALAR"
        },
        {
            "bufferView" : 3,
            "componentType" : 5126,
            "count" : 372,
            "max" : [
                0.34826862812042236,
                0.43129244446754456,
                0.15668582916259766
            ],
            "min" : [
                -0.34826862812042236,
                0.002256552455946803,
                -0.04969513416290283
            ],
            "type" : "VEC3"
        },
        {
            "bufferView" : 4,
            "componentType" : 5126,
            "count" : 372,
            "type" : "VEC3"
        },
        {
            "bufferView" : 5,
            "componentType" : 5123,
            "count" : 624,
            "type" : "SCALAR"
        },
        {
            "bufferView" : 6,
            "componentType" : 5126,
            "count" : 348,
            "max" : [
                0.3254370093345642,
                0.8709444999694824,
                0.1493920534849167
            ],
            "min" : [
                -0.3136688470840454,
                0.34241828322410583,
                -0.04247768968343735
            ],
            "type" : "VEC3"
        },
        {
            "bufferView" : 7,
            "componentType" : 5126,
            "count" : 348,
            "type" : "VEC3"
        },
        {
            "bufferView" : 8,
            "componentType" : 5123,
            "count" : 522,
            "type" : "SCALAR"
        },
        {
            "bufferView" : 9,
            "componentType" : 5126,
            "count" : 20,
            "max" : [
                -0.14930544793605804,
                0.40753045678138733,
                0.15207348763942719
            ],
            "min" : [
                -0.16028597950935364,
                0.2818896174430847,
                0.13443362712860107
            ],
            "type" : "VEC3"
        },
        {
            "bufferView" : 10,
            "componentType" : 5126,
            "count" : 20,
            "type" : "VEC3"
        },
        {
            "bufferView" : 11,
            "componentType" : 5123,
            "count" : 30,
            "type" : "SCALAR"
        }
    ],
    "bufferViews" : [
        {
            "buffer" : 0,
            "byteLength" : 1932,
            "byteOffset" : 0
        },
        {
            "buffer" : 0,
            "byteLength" : 1932,
            "byteOffset" : 1932
        },
        {
            "buffer" : 0,
            "byteLength" : 534,
            "byteOffset" : 3864
        },
        {
            "buffer" : 0,
            "byteLength" : 4464,
            "byteOffset" : 4400
        },
        {
            "buffer" : 0,
            "byteLength" : 4464,
            "byteOffset" : 8864
        },
        {
            "buffer" : 0,
            "byteLength" : 1248,
            "byteOffset" : 13328
        },
        {
            "buffer" : 0,
            "byteLength" : 4176,
            "byteOffset" : 14576
        },
        {
            "buffer" : 0,
            "byteLength" : 4176,
            "byteOffset" : 18752
        },
        {
            "buffer" : 0,
            "byteLength" : 1044,
            "byteOffset" : 22928
        },
        {
            "buffer" : 0,
            "byteLength" : 240,
            "byteOffset" : 23972
        },
        {
            "buffer" : 0,
            "byteLength" : 240,
            "byteOffset" : 24212
        },
        {
            "buffer" : 0,
            "byteLength" : 60,
            "byteOffset" : 24452
        }
    ],
    "buffers" : [
        {
            "byteLength" : 24512,
            "uri" : "Radio-eb21273bd7b7eaeabd334c71ebb063a9.bin"
        }
    ]
}
