{
    "asset" : {
        "generator" : "Khronos glTF Blender I/O v3.2.43",
        "version" : "2.0"
    },
    "scene" : 0,
    "scenes" : [
        {
            "name" : "Scene",
            "nodes" : [
                0
            ]
        }
    ],
    "nodes" : [
        {
            "mesh" : 0,
            "name" : "Raft_Paddle",
            "scale" : [
                1.9894319772720337,
                1.9894319772720337,
                1.9894319772720337
            ]
        }
    ],
    "materials" : [
        {
            "doubleSided" : true,
            "name" : "BrightYellow",
            "pbrMetallicRoughness" : {
                "baseColorFactor" : [
                    0.42869052290916443,
                    0.33716365694999695,
                    0.0284260381013155,
                    1
                ],
                "metallicFactor" : 0,
                "roughnessFactor" : 0.5
            }
        },
        {
            "doubleSided" : true,
            "name" : "Blue",
            "pbrMetallicRoughness" : {
                "baseColorFactor" : [
                    0.05947834998369217,
                    0.09314314275979996,
                    0.42922279238700867,
                    1
                ],
                "metallicFactor" : 0,
                "roughnessFactor" : 0.5
            }
        }
    ],
    "meshes" : [
        {
            "name" : "Cylinder.024",
            "primitives" : [
                {
                    "attributes" : {
                        "POSITION" : 0,
                        "NORMAL" : 1
                    },
                    "indices" : 2,
                    "material" : 0
                },
                {
                    "attributes" : {
                        "POSITION" : 3,
                        "NORMAL" : 4
                    },
                    "indices" : 5,
                    "material" : 1
                }
            ]
        }
    ],
    "accessors" : [
        {
            "bufferView" : 0,
            "componentType" : 5126,
            "count" : 472,
            "max" : [
                0.4199924170970917,
                0.0764174684882164,
                4.505710124969482
            ],
            "min" : [
                -0.4199924170970917,
                -0.07641720026731491,
                -2.9598677158355713
            ],
            "type" : "VEC3"
        },
        {
            "bufferView" : 1,
            "componentType" : 5126,
            "count" : 472,
            "type" : "VEC3"
        },
        {
            "bufferView" : 2,
            "componentType" : 5123,
            "count" : 708,
            "type" : "SCALAR"
        },
        {
            "bufferView" : 3,
            "componentType" : 5126,
            "count" : 48,
            "max" : [
                0.0701720267534256,
                0.07017213851213455,
                1.529165267944336
            ],
            "min" : [
                -0.0701720342040062,
                -0.07017214596271515,
                -2.7314138412475586
            ],
            "type" : "VEC3"
        },
        {
            "bufferView" : 4,
            "componentType" : 5126,
            "count" : 48,
            "type" : "VEC3"
        },
        {
            "bufferView" : 5,
            "componentType" : 5123,
            "count" : 84,
            "type" : "SCALAR"
        }
    ],
    "bufferViews" : [
        {
            "buffer" : 0,
            "byteLength" : 5664,
            "byteOffset" : 0
        },
        {
            "buffer" : 0,
            "byteLength" : 5664,
            "byteOffset" : 5664
        },
        {
            "buffer" : 0,
            "byteLength" : 1416,
            "byteOffset" : 11328
        },
        {
            "buffer" : 0,
            "byteLength" : 576,
            "byteOffset" : 12744
        },
        {
            "buffer" : 0,
            "byteLength" : 576,
            "byteOffset" : 13320
        },
        {
            "buffer" : 0,
            "byteLength" : 168,
            "byteOffset" : 13896
        }
    ],
    "buffers" : [
        {
            "byteLength" : 14064,
            "uri" : "Raft_Paddle-f311d6a3050bce88d3ee20fc74ef2d0f.bin"
        }
    ]
}
