{
    "asset" : {
        "generator" : "Khronos glTF Blender I/O v3.2.43",
        "version" : "2.0"
    },
    "scene" : 0,
    "scenes" : [
        {
            "name" : "Scene",
            "nodes" : [
                0
            ]
        }
    ],
    "nodes" : [
        {
            "mesh" : 0,
            "name" : "Raft"
        }
    ],
    "materials" : [
        {
            "doubleSided" : true,
            "name" : "BrightYellow",
            "pbrMetallicRoughness" : {
                "baseColorFactor" : [
                    0.42869052290916443,
                    0.33716365694999695,
                    0.0284260381013155,
                    1
                ],
                "metallicFactor" : 0,
                "roughnessFactor" : 0.5
            }
        },
        {
            "doubleSided" : true,
            "name" : "Black",
            "pbrMetallicRoughness" : {
                "baseColorFactor" : [
                    0.033101364970207214,
                    0.033101364970207214,
                    0.033101364970207214,
                    1
                ],
                "metallicFactor" : 0,
                "roughnessFactor" : 0.5
            }
        }
    ],
    "meshes" : [
        {
            "name" : "Cube.004",
            "primitives" : [
                {
                    "attributes" : {
                        "POSITION" : 0,
                        "NORMAL" : 1
                    },
                    "indices" : 2,
                    "material" : 0
                },
                {
                    "attributes" : {
                        "POSITION" : 3,
                        "NORMAL" : 4
                    },
                    "indices" : 5,
                    "material" : 1
                }
            ]
        }
    ],
    "accessors" : [
        {
            "bufferView" : 0,
            "componentType" : 5126,
            "count" : 1632,
            "max" : [
                5.982048511505127,
                2.933962106704712,
                11.245387077331543
            ],
            "min" : [
                -5.982048511505127,
                -1.368082880973816,
                -11.245387077331543
            ],
            "type" : "VEC3"
        },
        {
            "bufferView" : 1,
            "componentType" : 5126,
            "count" : 1632,
            "type" : "VEC3"
        },
        {
            "bufferView" : 2,
            "componentType" : 5123,
            "count" : 2460,
            "type" : "SCALAR"
        },
        {
            "bufferView" : 3,
            "componentType" : 5126,
            "count" : 432,
            "max" : [
                5.982048511505127,
                2.09694766998291,
                11.822548866271973
            ],
            "min" : [
                -5.982048511505127,
                -0.2843549847602844,
                -11.822548866271973
            ],
            "type" : "VEC3"
        },
        {
            "bufferView" : 4,
            "componentType" : 5126,
            "count" : 432,
            "type" : "VEC3"
        },
        {
            "bufferView" : 5,
            "componentType" : 5123,
            "count" : 648,
            "type" : "SCALAR"
        }
    ],
    "bufferViews" : [
        {
            "buffer" : 0,
            "byteLength" : 19584,
            "byteOffset" : 0
        },
        {
            "buffer" : 0,
            "byteLength" : 19584,
            "byteOffset" : 19584
        },
        {
            "buffer" : 0,
            "byteLength" : 4920,
            "byteOffset" : 39168
        },
        {
            "buffer" : 0,
            "byteLength" : 5184,
            "byteOffset" : 44088
        },
        {
            "buffer" : 0,
            "byteLength" : 5184,
            "byteOffset" : 49272
        },
        {
            "buffer" : 0,
            "byteLength" : 1296,
            "byteOffset" : 54456
        }
    ],
    "buffers" : [
        {
            "byteLength" : 55752,
            "uri" : "Raft-35dab85f3d1afa3bb7ed2e79ec312948.bin"
        }
    ]
}
