{
    "asset" : {
        "generator" : "Khronos glTF Blender I/O v3.2.43",
        "version" : "2.0"
    },
    "scene" : 0,
    "scenes" : [
        {
            "name" : "Scene",
            "nodes" : [
                0
            ]
        }
    ],
    "nodes" : [
        {
            "mesh" : 0,
            "name" : "Revolver_1"
        }
    ],
    "materials" : [
        {
            "doubleSided" : true,
            "name" : "Metal",
            "pbrMetallicRoughness" : {
                "baseColorFactor" : [
                    0.0666259378194809,
                    0.06847818195819855,
                    0.06700000166893005,
                    1
                ],
                "metallicFactor" : 0,
                "roughnessFactor" : 0.5
            }
        },
        {
            "doubleSided" : true,
            "name" : "LightMetal",
            "pbrMetallicRoughness" : {
                "baseColorFactor" : [
                    0.11443537473678589,
                    0.11697068810462952,
                    0.1247718334197998,
                    1
                ],
                "metallicFactor" : 0,
                "roughnessFactor" : 0.5
            }
        },
        {
            "doubleSided" : true,
            "name" : "Wood",
            "pbrMetallicRoughness" : {
                "baseColorFactor" : [
                    0.13285954296588898,
                    0.09002935886383057,
                    0.06840453296899796,
                    1
                ],
                "metallicFactor" : 0,
                "roughnessFactor" : 0.5
            }
        }
    ],
    "meshes" : [
        {
            "name" : "Cube.051",
            "primitives" : [
                {
                    "attributes" : {
                        "POSITION" : 0,
                        "NORMAL" : 1
                    },
                    "indices" : 2,
                    "material" : 0
                },
                {
                    "attributes" : {
                        "POSITION" : 3,
                        "NORMAL" : 4
                    },
                    "indices" : 5,
                    "material" : 1
                },
                {
                    "attributes" : {
                        "POSITION" : 6,
                        "NORMAL" : 7
                    },
                    "indices" : 8,
                    "material" : 2
                }
            ]
        }
    ],
    "accessors" : [
        {
            "bufferView" : 0,
            "componentType" : 5126,
            "count" : 1169,
            "max" : [
                0.69871985912323,
                0.46038320660591125,
                0.14716169238090515
            ],
            "min" : [
                0.23587623238563538,
                -0.1268816441297531,
                -0.14719465374946594
            ],
            "type" : "VEC3"
        },
        {
            "bufferView" : 1,
            "componentType" : 5126,
            "count" : 1169,
            "type" : "VEC3"
        },
        {
            "bufferView" : 2,
            "componentType" : 5123,
            "count" : 1788,
            "type" : "SCALAR"
        },
        {
            "bufferView" : 3,
            "componentType" : 5126,
            "count" : 675,
            "max" : [
                1.7399051189422607,
                0.5736386775970459,
                0.07928969711065292
            ],
            "min" : [
                0.07236179709434509,
                0.03804585337638855,
                -0.07928980141878128
            ],
            "type" : "VEC3"
        },
        {
            "bufferView" : 4,
            "componentType" : 5126,
            "count" : 675,
            "type" : "VEC3"
        },
        {
            "bufferView" : 5,
            "componentType" : 5123,
            "count" : 1098,
            "type" : "SCALAR"
        },
        {
            "bufferView" : 6,
            "componentType" : 5126,
            "count" : 166,
            "max" : [
                0.2635173201560974,
                0.2957053482532501,
                0.07838642597198486
            ],
            "min" : [
                -0.24198941886425018,
                -0.3161696195602417,
                -0.07838650792837143
            ],
            "type" : "VEC3"
        },
        {
            "bufferView" : 7,
            "componentType" : 5126,
            "count" : 166,
            "type" : "VEC3"
        },
        {
            "bufferView" : 8,
            "componentType" : 5123,
            "count" : 252,
            "type" : "SCALAR"
        }
    ],
    "bufferViews" : [
        {
            "buffer" : 0,
            "byteLength" : 14028,
            "byteOffset" : 0
        },
        {
            "buffer" : 0,
            "byteLength" : 14028,
            "byteOffset" : 14028
        },
        {
            "buffer" : 0,
            "byteLength" : 3576,
            "byteOffset" : 28056
        },
        {
            "buffer" : 0,
            "byteLength" : 8100,
            "byteOffset" : 31632
        },
        {
            "buffer" : 0,
            "byteLength" : 8100,
            "byteOffset" : 39732
        },
        {
            "buffer" : 0,
            "byteLength" : 2196,
            "byteOffset" : 47832
        },
        {
            "buffer" : 0,
            "byteLength" : 1992,
            "byteOffset" : 50028
        },
        {
            "buffer" : 0,
            "byteLength" : 1992,
            "byteOffset" : 52020
        },
        {
            "buffer" : 0,
            "byteLength" : 504,
            "byteOffset" : 54012
        }
    ],
    "buffers" : [
        {
            "byteLength" : 54516,
            "uri" : "Revolver_1-f41ec34232135e0e09aac17feec5023e.bin"
        }
    ]
}
