{
    "asset" : {
        "generator" : "Khronos glTF Blender I/O v3.2.43",
        "version" : "2.0"
    },
    "scene" : 0,
    "scenes" : [
        {
            "name" : "Scene",
            "nodes" : [
                0
            ]
        }
    ],
    "nodes" : [
        {
            "mesh" : 0,
            "name" : "Revolver_5"
        }
    ],
    "materials" : [
        {
            "doubleSided" : true,
            "name" : "Metal",
            "pbrMetallicRoughness" : {
                "baseColorFactor" : [
                    0.0666259378194809,
                    0.06847818195819855,
                    0.06700000166893005,
                    1
                ],
                "metallicFactor" : 0,
                "roughnessFactor" : 0.5
            }
        },
        {
            "doubleSided" : true,
            "name" : "LightMetal",
            "pbrMetallicRoughness" : {
                "baseColorFactor" : [
                    0.11443537473678589,
                    0.11697068810462952,
                    0.1247718334197998,
                    1
                ],
                "metallicFactor" : 0,
                "roughnessFactor" : 0.5
            }
        },
        {
            "doubleSided" : true,
            "name" : "Grey",
            "pbrMetallicRoughness" : {
                "baseColorFactor" : [
                    0.04111980274319649,
                    0.042213838547468185,
                    0.04445183649659157,
                    1
                ],
                "metallicFactor" : 0,
                "roughnessFactor" : 0.5
            }
        }
    ],
    "meshes" : [
        {
            "name" : "Cube.056",
            "primitives" : [
                {
                    "attributes" : {
                        "POSITION" : 0,
                        "NORMAL" : 1
                    },
                    "indices" : 2,
                    "material" : 0
                },
                {
                    "attributes" : {
                        "POSITION" : 3,
                        "NORMAL" : 4
                    },
                    "indices" : 5,
                    "material" : 1
                },
                {
                    "attributes" : {
                        "POSITION" : 6,
                        "NORMAL" : 7
                    },
                    "indices" : 8,
                    "material" : 2
                }
            ]
        }
    ],
    "accessors" : [
        {
            "bufferView" : 0,
            "componentType" : 5126,
            "count" : 1337,
            "max" : [
                0.692908763885498,
                0.6209920048713684,
                0.14716172218322754
            ],
            "min" : [
                -0.14083966612815857,
                -0.22834697365760803,
                -0.14719462394714355
            ],
            "type" : "VEC3"
        },
        {
            "bufferView" : 1,
            "componentType" : 5126,
            "count" : 1337,
            "type" : "VEC3"
        },
        {
            "bufferView" : 2,
            "componentType" : 5123,
            "count" : 2028,
            "type" : "SCALAR"
        },
        {
            "bufferView" : 3,
            "componentType" : 5126,
            "count" : 939,
            "max" : [
                1.7178303003311157,
                0.7004272937774658,
                0.0724986344575882
            ],
            "min" : [
                0.04775320366024971,
                0.018729843199253082,
                -0.07249872386455536
            ],
            "type" : "VEC3"
        },
        {
            "bufferView" : 4,
            "componentType" : 5126,
            "count" : 939,
            "type" : "VEC3"
        },
        {
            "bufferView" : 5,
            "componentType" : 5123,
            "count" : 1470,
            "type" : "SCALAR"
        },
        {
            "bufferView" : 6,
            "componentType" : 5126,
            "count" : 332,
            "max" : [
                0.5731180906295776,
                0.40315255522727966,
                0.07031518220901489
            ],
            "min" : [
                -0.18327485024929047,
                -0.26229989528656006,
                -0.07031521946191788
            ],
            "type" : "VEC3"
        },
        {
            "bufferView" : 7,
            "componentType" : 5126,
            "count" : 332,
            "type" : "VEC3"
        },
        {
            "bufferView" : 8,
            "componentType" : 5123,
            "count" : 504,
            "type" : "SCALAR"
        }
    ],
    "bufferViews" : [
        {
            "buffer" : 0,
            "byteLength" : 16044,
            "byteOffset" : 0
        },
        {
            "buffer" : 0,
            "byteLength" : 16044,
            "byteOffset" : 16044
        },
        {
            "buffer" : 0,
            "byteLength" : 4056,
            "byteOffset" : 32088
        },
        {
            "buffer" : 0,
            "byteLength" : 11268,
            "byteOffset" : 36144
        },
        {
            "buffer" : 0,
            "byteLength" : 11268,
            "byteOffset" : 47412
        },
        {
            "buffer" : 0,
            "byteLength" : 2940,
            "byteOffset" : 58680
        },
        {
            "buffer" : 0,
            "byteLength" : 3984,
            "byteOffset" : 61620
        },
        {
            "buffer" : 0,
            "byteLength" : 3984,
            "byteOffset" : 65604
        },
        {
            "buffer" : 0,
            "byteLength" : 1008,
            "byteOffset" : 69588
        }
    ],
    "buffers" : [
        {
            "byteLength" : 70596,
            "uri" : "Revolver_3-df8d877f67ad5f25d9bb0dca88d4908a.bin"
        }
    ]
}
