{
    "asset" : {
        "generator" : "Khronos glTF Blender I/O v3.2.43",
        "version" : "2.0"
    },
    "scene" : 0,
    "scenes" : [
        {
            "name" : "Scene",
            "nodes" : [
                0
            ]
        }
    ],
    "nodes" : [
        {
            "mesh" : 0,
            "name" : "Revolver_4"
        }
    ],
    "materials" : [
        {
            "doubleSided" : true,
            "name" : "Metal",
            "pbrMetallicRoughness" : {
                "baseColorFactor" : [
                    0.0666259378194809,
                    0.06847818195819855,
                    0.06700000166893005,
                    1
                ],
                "metallicFactor" : 0,
                "roughnessFactor" : 0.5
            }
        },
        {
            "doubleSided" : true,
            "name" : "LightMetal",
            "pbrMetallicRoughness" : {
                "baseColorFactor" : [
                    0.11443537473678589,
                    0.11697068810462952,
                    0.1247718334197998,
                    1
                ],
                "metallicFactor" : 0,
                "roughnessFactor" : 0.5
            }
        },
        {
            "doubleSided" : true,
            "name" : "DarkWood",
            "pbrMetallicRoughness" : {
                "baseColorFactor" : [
                    0.10246890038251877,
                    0.07204850763082504,
                    0.055191364139318466,
                    1
                ],
                "metallicFactor" : 0,
                "roughnessFactor" : 0.5
            }
        }
    ],
    "meshes" : [
        {
            "name" : "Cube.052",
            "primitives" : [
                {
                    "attributes" : {
                        "POSITION" : 0,
                        "NORMAL" : 1
                    },
                    "indices" : 2,
                    "material" : 0
                },
                {
                    "attributes" : {
                        "POSITION" : 3,
                        "NORMAL" : 4
                    },
                    "indices" : 5,
                    "material" : 1
                },
                {
                    "attributes" : {
                        "POSITION" : 6,
                        "NORMAL" : 7
                    },
                    "indices" : 8,
                    "material" : 2
                }
            ]
        }
    ],
    "accessors" : [
        {
            "bufferView" : 0,
            "componentType" : 5126,
            "count" : 880,
            "max" : [
                1.2504186630249023,
                0.6002196073532104,
                0.07235314697027206
            ],
            "min" : [
                0.05225042998790741,
                -0.10211488604545593,
                -0.07235323637723923
            ],
            "type" : "VEC3"
        },
        {
            "bufferView" : 1,
            "componentType" : 5126,
            "count" : 880,
            "type" : "VEC3"
        },
        {
            "bufferView" : 2,
            "componentType" : 5123,
            "count" : 1392,
            "type" : "SCALAR"
        },
        {
            "bufferView" : 3,
            "componentType" : 5126,
            "count" : 788,
            "max" : [
                0.7049732804298401,
                0.48836299777030945,
                0.14716152846813202
            ],
            "min" : [
                0.07659050822257996,
                0.18177169561386108,
                -0.14719481766223907
            ],
            "type" : "VEC3"
        },
        {
            "bufferView" : 4,
            "componentType" : 5126,
            "count" : 788,
            "type" : "VEC3"
        },
        {
            "bufferView" : 5,
            "componentType" : 5123,
            "count" : 1206,
            "type" : "SCALAR"
        },
        {
            "bufferView" : 6,
            "componentType" : 5126,
            "count" : 198,
            "max" : [
                0.26169317960739136,
                0.28412196040153503,
                0.07838643342256546
            ],
            "min" : [
                -0.2222432643175125,
                -0.31489813327789307,
                -0.07838650047779083
            ],
            "type" : "VEC3"
        },
        {
            "bufferView" : 7,
            "componentType" : 5126,
            "count" : 198,
            "type" : "VEC3"
        },
        {
            "bufferView" : 8,
            "componentType" : 5123,
            "count" : 300,
            "type" : "SCALAR"
        }
    ],
    "bufferViews" : [
        {
            "buffer" : 0,
            "byteLength" : 10560,
            "byteOffset" : 0
        },
        {
            "buffer" : 0,
            "byteLength" : 10560,
            "byteOffset" : 10560
        },
        {
            "buffer" : 0,
            "byteLength" : 2784,
            "byteOffset" : 21120
        },
        {
            "buffer" : 0,
            "byteLength" : 9456,
            "byteOffset" : 23904
        },
        {
            "buffer" : 0,
            "byteLength" : 9456,
            "byteOffset" : 33360
        },
        {
            "buffer" : 0,
            "byteLength" : 2412,
            "byteOffset" : 42816
        },
        {
            "buffer" : 0,
            "byteLength" : 2376,
            "byteOffset" : 45228
        },
        {
            "buffer" : 0,
            "byteLength" : 2376,
            "byteOffset" : 47604
        },
        {
            "buffer" : 0,
            "byteLength" : 600,
            "byteOffset" : 49980
        }
    ],
    "buffers" : [
        {
            "byteLength" : 50580,
            "uri" : "Revolver_2-675d327dfa31d3d7fae6d4d037d455fb.bin"
        }
    ]
}
