{
    "asset" : {
        "generator" : "Khronos glTF Blender I/O v3.2.43",
        "version" : "2.0"
    },
    "scene" : 0,
    "scenes" : [
        {
            "name" : "Scene",
            "nodes" : [
                0
            ]
        }
    ],
    "nodes" : [
        {
            "mesh" : 0,
            "name" : "Rock_1"
        }
    ],
    "materials" : [
        {
            "doubleSided" : true,
            "name" : "Rock_Grey",
            "pbrMetallicRoughness" : {
                "baseColorFactor" : [
                    0.24421121180057526,
                    0.25826212763786316,
                    0.30319520831108093,
                    1
                ],
                "metallicFactor" : 0,
                "roughnessFactor" : 0.5
            }
        }
    ],
    "meshes" : [
        {
            "name" : "Cube.420",
            "primitives" : [
                {
                    "attributes" : {
                        "POSITION" : 0,
                        "NORMAL" : 1
                    },
                    "indices" : 2,
                    "material" : 0
                }
            ]
        }
    ],
    "accessors" : [
        {
            "bufferView" : 0,
            "componentType" : 5126,
            "count" : 136,
            "max" : [
                0.8066558837890625,
                0.9051086902618408,
                0.7509772777557373
            ],
            "min" : [
                -0.795873761177063,
                -0.19124692678451538,
                -0.7136540412902832
            ],
            "type" : "VEC3"
        },
        {
            "bufferView" : 1,
            "componentType" : 5126,
            "count" : 136,
            "type" : "VEC3"
        },
        {
            "bufferView" : 2,
            "componentType" : 5123,
            "count" : 480,
            "type" : "SCALAR"
        }
    ],
    "bufferViews" : [
        {
            "buffer" : 0,
            "byteLength" : 1632,
            "byteOffset" : 0
        },
        {
            "buffer" : 0,
            "byteLength" : 1632,
            "byteOffset" : 1632
        },
        {
            "buffer" : 0,
            "byteLength" : 960,
            "byteOffset" : 3264
        }
    ],
    "buffers" : [
        {
            "byteLength" : 4224,
            "uri" : "Rock_1-6047d7e13fad9cb536c72d73cfee7188.bin"
        }
    ]
}
