{
    "asset" : {
        "generator" : "Khronos glTF Blender I/O v3.2.43",
        "version" : "2.0"
    },
    "scene" : 0,
    "scenes" : [
        {
            "name" : "Scene",
            "nodes" : [
                0
            ]
        }
    ],
    "nodes" : [
        {
            "mesh" : 0,
            "name" : "RockPlatforms_3"
        }
    ],
    "materials" : [
        {
            "doubleSided" : true,
            "name" : "Rock",
            "pbrMetallicRoughness" : {
                "baseColorFactor" : [
                    0.3843704164028168,
                    0.20758481323719025,
                    0.1079602763056755,
                    1
                ],
                "metallicFactor" : 0,
                "roughnessFactor" : 0.5
            }
        }
    ],
    "meshes" : [
        {
            "name" : "Cube.378",
            "primitives" : [
                {
                    "attributes" : {
                        "POSITION" : 0,
                        "NORMAL" : 1
                    },
                    "indices" : 2,
                    "material" : 0
                }
            ]
        }
    ],
    "accessors" : [
        {
            "bufferView" : 0,
            "componentType" : 5126,
            "count" : 623,
            "max" : [
                3.0543341636657715,
                4.258247375488281,
                3.1217920780181885
            ],
            "min" : [
                -2.941204071044922,
                -0.12413019686937332,
                -2.317732095718384
            ],
            "type" : "VEC3"
        },
        {
            "bufferView" : 1,
            "componentType" : 5126,
            "count" : 623,
            "type" : "VEC3"
        },
        {
            "bufferView" : 2,
            "componentType" : 5123,
            "count" : 2736,
            "type" : "SCALAR"
        }
    ],
    "bufferViews" : [
        {
            "buffer" : 0,
            "byteLength" : 7476,
            "byteOffset" : 0
        },
        {
            "buffer" : 0,
            "byteLength" : 7476,
            "byteOffset" : 7476
        },
        {
            "buffer" : 0,
            "byteLength" : 5472,
            "byteOffset" : 14952
        }
    ],
    "buffers" : [
        {
            "byteLength" : 20424,
            "uri" : "RockPlatforms_3-11b27028a57e5645a517263090159928.bin"
        }
    ]
}
