{
    "asset" : {
        "generator" : "Khronos glTF Blender I/O v3.2.43",
        "version" : "2.0"
    },
    "scene" : 0,
    "scenes" : [
        {
            "name" : "Scene",
            "nodes" : [
                0
            ]
        }
    ],
    "nodes" : [
        {
            "mesh" : 0,
            "name" : "RockPlatforms_1"
        }
    ],
    "materials" : [
        {
            "doubleSided" : true,
            "name" : "Rock",
            "pbrMetallicRoughness" : {
                "baseColorFactor" : [
                    0.3843704164028168,
                    0.20758481323719025,
                    0.1079602763056755,
                    1
                ],
                "metallicFactor" : 0,
                "roughnessFactor" : 0.5
            }
        }
    ],
    "meshes" : [
        {
            "name" : "Cube.199",
            "primitives" : [
                {
                    "attributes" : {
                        "POSITION" : 0,
                        "NORMAL" : 1
                    },
                    "indices" : 2,
                    "material" : 0
                }
            ]
        }
    ],
    "accessors" : [
        {
            "bufferView" : 0,
            "componentType" : 5126,
            "count" : 582,
            "max" : [
                3.0607099533081055,
                5.373987674713135,
                2.6107122898101807
            ],
            "min" : [
                -3.337862491607666,
                -0.1586562693119049,
                -3.2654716968536377
            ],
            "type" : "VEC3"
        },
        {
            "bufferView" : 1,
            "componentType" : 5126,
            "count" : 582,
            "type" : "VEC3"
        },
        {
            "bufferView" : 2,
            "componentType" : 5123,
            "count" : 2592,
            "type" : "SCALAR"
        }
    ],
    "bufferViews" : [
        {
            "buffer" : 0,
            "byteLength" : 6984,
            "byteOffset" : 0
        },
        {
            "buffer" : 0,
            "byteLength" : 6984,
            "byteOffset" : 6984
        },
        {
            "buffer" : 0,
            "byteLength" : 5184,
            "byteOffset" : 13968
        }
    ],
    "buffers" : [
        {
            "byteLength" : 19152,
            "uri" : "RockPlatforms_1-54ff472576d658e40d6b260ab73f02be.bin"
        }
    ]
}
