{
    "asset" : {
        "generator" : "Khronos glTF Blender I/O v3.2.43",
        "version" : "2.0"
    },
    "scene" : 0,
    "scenes" : [
        {
            "name" : "Scene",
            "nodes" : [
                0
            ]
        }
    ],
    "nodes" : [
        {
            "mesh" : 0,
            "name" : "RockPlatforms_2"
        }
    ],
    "materials" : [
        {
            "doubleSided" : true,
            "name" : "Rock",
            "pbrMetallicRoughness" : {
                "baseColorFactor" : [
                    0.3843704164028168,
                    0.20758481323719025,
                    0.1079602763056755,
                    1
                ],
                "metallicFactor" : 0,
                "roughnessFactor" : 0.5
            }
        }
    ],
    "meshes" : [
        {
            "name" : "Cube.373",
            "primitives" : [
                {
                    "attributes" : {
                        "POSITION" : 0,
                        "NORMAL" : 1
                    },
                    "indices" : 2,
                    "material" : 0
                }
            ]
        }
    ],
    "accessors" : [
        {
            "bufferView" : 0,
            "componentType" : 5126,
            "count" : 1082,
            "max" : [
                4.617708206176758,
                4.258247375488281,
                3.826014518737793
            ],
            "min" : [
                -4.701760292053223,
                -0.18983155488967896,
                -2.9092788696289062
            ],
            "type" : "VEC3"
        },
        {
            "bufferView" : 1,
            "componentType" : 5126,
            "count" : 1082,
            "type" : "VEC3"
        },
        {
            "bufferView" : 2,
            "componentType" : 5123,
            "count" : 4992,
            "type" : "SCALAR"
        }
    ],
    "bufferViews" : [
        {
            "buffer" : 0,
            "byteLength" : 12984,
            "byteOffset" : 0
        },
        {
            "buffer" : 0,
            "byteLength" : 12984,
            "byteOffset" : 12984
        },
        {
            "buffer" : 0,
            "byteLength" : 9984,
            "byteOffset" : 25968
        }
    ],
    "buffers" : [
        {
            "byteLength" : 35952,
            "uri" : "RockPlatforms_2-d41bcb8240aaaf82c28336eeda811e21.bin"
        }
    ]
}
