{
    "asset" : {
        "generator" : "Khronos glTF Blender I/O v3.2.43",
        "version" : "2.0"
    },
    "scene" : 0,
    "scenes" : [
        {
            "name" : "Scene",
            "nodes" : [
                0
            ]
        }
    ],
    "nodes" : [
        {
            "mesh" : 0,
            "name" : "Rock_2"
        }
    ],
    "materials" : [
        {
            "doubleSided" : true,
            "name" : "Rock_Grey",
            "pbrMetallicRoughness" : {
                "baseColorFactor" : [
                    0.24421121180057526,
                    0.25826212763786316,
                    0.30319520831108093,
                    1
                ],
                "metallicFactor" : 0,
                "roughnessFactor" : 0.5
            }
        }
    ],
    "meshes" : [
        {
            "name" : "Cube.421",
            "primitives" : [
                {
                    "attributes" : {
                        "POSITION" : 0,
                        "NORMAL" : 1
                    },
                    "indices" : 2,
                    "material" : 0
                }
            ]
        }
    ],
    "accessors" : [
        {
            "bufferView" : 0,
            "componentType" : 5126,
            "count" : 238,
            "max" : [
                0.8985349535942078,
                1.961409568786621,
                0.8200450539588928
            ],
            "min" : [
                -0.7360377907752991,
                -0.13504409790039062,
                -0.6445863842964172
            ],
            "type" : "VEC3"
        },
        {
            "bufferView" : 1,
            "componentType" : 5126,
            "count" : 238,
            "type" : "VEC3"
        },
        {
            "bufferView" : 2,
            "componentType" : 5123,
            "count" : 858,
            "type" : "SCALAR"
        }
    ],
    "bufferViews" : [
        {
            "buffer" : 0,
            "byteLength" : 2856,
            "byteOffset" : 0
        },
        {
            "buffer" : 0,
            "byteLength" : 2856,
            "byteOffset" : 2856
        },
        {
            "buffer" : 0,
            "byteLength" : 1716,
            "byteOffset" : 5712
        }
    ],
    "buffers" : [
        {
            "byteLength" : 7428,
            "uri" : "Rock_2-3f07ce0e207ef5dd3e78efe1f0ee2b3c.bin"
        }
    ]
}
