{
    "asset" : {
        "generator" : "Khronos glTF Blender I/O v3.2.43",
        "version" : "2.0"
    },
    "scene" : 0,
    "scenes" : [
        {
            "name" : "Scene",
            "nodes" : [
                0
            ]
        }
    ],
    "nodes" : [
        {
            "mesh" : 0,
            "name" : "Shotgun_1"
        }
    ],
    "materials" : [
        {
            "doubleSided" : true,
            "name" : "LightMetal",
            "pbrMetallicRoughness" : {
                "baseColorFactor" : [
                    0.11443537473678589,
                    0.11697068810462952,
                    0.1247718334197998,
                    1
                ],
                "metallicFactor" : 0,
                "roughnessFactor" : 0.5
            }
        },
        {
            "doubleSided" : true,
            "name" : "Metal",
            "pbrMetallicRoughness" : {
                "baseColorFactor" : [
                    0.0666259378194809,
                    0.06847818195819855,
                    0.06700000166893005,
                    1
                ],
                "metallicFactor" : 0,
                "roughnessFactor" : 0.5
            }
        },
        {
            "doubleSided" : true,
            "name" : "DarkMetal",
            "pbrMetallicRoughness" : {
                "baseColorFactor" : [
                    0.04699999839067459,
                    0.04695870354771614,
                    0.045788172632455826,
                    1
                ],
                "metallicFactor" : 0,
                "roughnessFactor" : 0.5
            }
        },
        {
            "doubleSided" : true,
            "name" : "Black",
            "pbrMetallicRoughness" : {
                "baseColorFactor" : [
                    0.026966236531734467,
                    0.02748231776058674,
                    0.02909727953374386,
                    1
                ],
                "metallicFactor" : 0,
                "roughnessFactor" : 0.5
            }
        }
    ],
    "meshes" : [
        {
            "name" : "Cube.045",
            "primitives" : [
                {
                    "attributes" : {
                        "POSITION" : 0,
                        "NORMAL" : 1
                    },
                    "indices" : 2,
                    "material" : 0
                },
                {
                    "attributes" : {
                        "POSITION" : 3,
                        "NORMAL" : 4
                    },
                    "indices" : 5,
                    "material" : 1
                },
                {
                    "attributes" : {
                        "POSITION" : 6,
                        "NORMAL" : 7
                    },
                    "indices" : 8,
                    "material" : 2
                },
                {
                    "attributes" : {
                        "POSITION" : 9,
                        "NORMAL" : 10
                    },
                    "indices" : 11,
                    "material" : 3
                }
            ]
        }
    ],
    "accessors" : [
        {
            "bufferView" : 0,
            "componentType" : 5126,
            "count" : 269,
            "max" : [
                1.298317313194275,
                0.3584340512752533,
                0.1232668086886406
            ],
            "min" : [
                -1.2747572660446167,
                -0.5075836777687073,
                -0.12326677143573761
            ],
            "type" : "VEC3"
        },
        {
            "bufferView" : 1,
            "componentType" : 5126,
            "count" : 269,
            "type" : "VEC3"
        },
        {
            "bufferView" : 2,
            "componentType" : 5123,
            "count" : 420,
            "type" : "SCALAR"
        },
        {
            "bufferView" : 3,
            "componentType" : 5126,
            "count" : 404,
            "max" : [
                1.2757911682128906,
                0.35022038221359253,
                0.11574604362249374
            ],
            "min" : [
                -1.4144084453582764,
                -0.524006724357605,
                -0.11574605107307434
            ],
            "type" : "VEC3"
        },
        {
            "bufferView" : 4,
            "componentType" : 5126,
            "count" : 404,
            "type" : "VEC3"
        },
        {
            "bufferView" : 5,
            "componentType" : 5123,
            "count" : 624,
            "type" : "SCALAR"
        },
        {
            "bufferView" : 6,
            "componentType" : 5126,
            "count" : 480,
            "max" : [
                3.800569534301758,
                0.41867390275001526,
                0.09670151770114899
            ],
            "min" : [
                0.18040123581886292,
                -0.02916150540113449,
                -0.08860015124082565
            ],
            "type" : "VEC3"
        },
        {
            "bufferView" : 7,
            "componentType" : 5126,
            "count" : 480,
            "type" : "VEC3"
        },
        {
            "bufferView" : 8,
            "componentType" : 5123,
            "count" : 762,
            "type" : "SCALAR"
        },
        {
            "bufferView" : 9,
            "componentType" : 5126,
            "count" : 1275,
            "max" : [
                3.3525850772857666,
                0.3956773579120636,
                0.1189158633351326
            ],
            "min" : [
                0.39329370856285095,
                -0.22942706942558289,
                -0.11891601234674454
            ],
            "type" : "VEC3"
        },
        {
            "bufferView" : 10,
            "componentType" : 5126,
            "count" : 1275,
            "type" : "VEC3"
        },
        {
            "bufferView" : 11,
            "componentType" : 5123,
            "count" : 2004,
            "type" : "SCALAR"
        }
    ],
    "bufferViews" : [
        {
            "buffer" : 0,
            "byteLength" : 3228,
            "byteOffset" : 0
        },
        {
            "buffer" : 0,
            "byteLength" : 3228,
            "byteOffset" : 3228
        },
        {
            "buffer" : 0,
            "byteLength" : 840,
            "byteOffset" : 6456
        },
        {
            "buffer" : 0,
            "byteLength" : 4848,
            "byteOffset" : 7296
        },
        {
            "buffer" : 0,
            "byteLength" : 4848,
            "byteOffset" : 12144
        },
        {
            "buffer" : 0,
            "byteLength" : 1248,
            "byteOffset" : 16992
        },
        {
            "buffer" : 0,
            "byteLength" : 5760,
            "byteOffset" : 18240
        },
        {
            "buffer" : 0,
            "byteLength" : 5760,
            "byteOffset" : 24000
        },
        {
            "buffer" : 0,
            "byteLength" : 1524,
            "byteOffset" : 29760
        },
        {
            "buffer" : 0,
            "byteLength" : 15300,
            "byteOffset" : 31284
        },
        {
            "buffer" : 0,
            "byteLength" : 15300,
            "byteOffset" : 46584
        },
        {
            "buffer" : 0,
            "byteLength" : 4008,
            "byteOffset" : 61884
        }
    ],
    "buffers" : [
        {
            "byteLength" : 65892,
            "uri" : "Shotgun_1-29c367b49b5c3bc4e704d0ee683ad27a.bin"
        }
    ]
}
