{
    "asset" : {
        "generator" : "Khronos glTF Blender I/O v3.2.43",
        "version" : "2.0"
    },
    "scene" : 0,
    "scenes" : [
        {
            "name" : "Scene",
            "nodes" : [
                0
            ]
        }
    ],
    "nodes" : [
        {
            "mesh" : 0,
            "name" : "Shotgun_SawedOff"
        }
    ],
    "materials" : [
        {
            "doubleSided" : true,
            "name" : "DarkMetal",
            "pbrMetallicRoughness" : {
                "baseColorFactor" : [
                    0.04699999839067459,
                    0.04695870354771614,
                    0.045788172632455826,
                    1
                ],
                "metallicFactor" : 0,
                "roughnessFactor" : 0.5
            }
        },
        {
            "doubleSided" : true,
            "name" : "Black",
            "pbrMetallicRoughness" : {
                "baseColorFactor" : [
                    0.026966236531734467,
                    0.02748231776058674,
                    0.02909727953374386,
                    1
                ],
                "metallicFactor" : 0,
                "roughnessFactor" : 0.5
            }
        },
        {
            "doubleSided" : true,
            "name" : "Wood",
            "pbrMetallicRoughness" : {
                "baseColorFactor" : [
                    0.13285954296588898,
                    0.09002935886383057,
                    0.06840453296899796,
                    1
                ],
                "metallicFactor" : 0,
                "roughnessFactor" : 0.5
            }
        },
        {
            "doubleSided" : true,
            "name" : "Metal",
            "pbrMetallicRoughness" : {
                "baseColorFactor" : [
                    0.0666259378194809,
                    0.06847818195819855,
                    0.06700000166893005,
                    1
                ],
                "metallicFactor" : 0,
                "roughnessFactor" : 0.5
            }
        },
        {
            "doubleSided" : true,
            "name" : "DarkWood",
            "pbrMetallicRoughness" : {
                "baseColorFactor" : [
                    0.10246890038251877,
                    0.07204850763082504,
                    0.055191364139318466,
                    1
                ],
                "metallicFactor" : 0,
                "roughnessFactor" : 0.5
            }
        }
    ],
    "meshes" : [
        {
            "name" : "Cylinder.004",
            "primitives" : [
                {
                    "attributes" : {
                        "POSITION" : 0,
                        "NORMAL" : 1
                    },
                    "indices" : 2,
                    "material" : 0
                },
                {
                    "attributes" : {
                        "POSITION" : 3,
                        "NORMAL" : 4
                    },
                    "indices" : 5,
                    "material" : 1
                },
                {
                    "attributes" : {
                        "POSITION" : 6,
                        "NORMAL" : 7
                    },
                    "indices" : 8,
                    "material" : 2
                },
                {
                    "attributes" : {
                        "POSITION" : 9,
                        "NORMAL" : 10
                    },
                    "indices" : 11,
                    "material" : 3
                },
                {
                    "attributes" : {
                        "POSITION" : 12,
                        "NORMAL" : 13
                    },
                    "indices" : 14,
                    "material" : 4
                }
            ]
        }
    ],
    "accessors" : [
        {
            "bufferView" : 0,
            "componentType" : 5126,
            "count" : 884,
            "max" : [
                3.285208225250244,
                0.5647411346435547,
                0.21122409403324127
            ],
            "min" : [
                0.42689454555511475,
                0.2813117802143097,
                -0.21122758090496063
            ],
            "type" : "VEC3"
        },
        {
            "bufferView" : 1,
            "componentType" : 5126,
            "count" : 884,
            "type" : "VEC3"
        },
        {
            "bufferView" : 2,
            "componentType" : 5123,
            "count" : 1392,
            "type" : "SCALAR"
        },
        {
            "bufferView" : 3,
            "componentType" : 5126,
            "count" : 106,
            "max" : [
                0.5026163458824158,
                0.06888583302497864,
                0.030342712998390198
            ],
            "min" : [
                0.3676503300666809,
                -0.12548668682575226,
                -0.030346058309078217
            ],
            "type" : "VEC3"
        },
        {
            "bufferView" : 4,
            "componentType" : 5126,
            "count" : 106,
            "type" : "VEC3"
        },
        {
            "bufferView" : 5,
            "componentType" : 5123,
            "count" : 168,
            "type" : "SCALAR"
        },
        {
            "bufferView" : 6,
            "componentType" : 5126,
            "count" : 358,
            "max" : [
                0.8080458641052246,
                0.5192572474479675,
                0.10330190509557724
            ],
            "min" : [
                -0.4029926657676697,
                -0.4553889036178589,
                -0.10330554097890854
            ],
            "type" : "VEC3"
        },
        {
            "bufferView" : 7,
            "componentType" : 5126,
            "count" : 358,
            "type" : "VEC3"
        },
        {
            "bufferView" : 8,
            "componentType" : 5123,
            "count" : 534,
            "type" : "SCALAR"
        },
        {
            "bufferView" : 9,
            "componentType" : 5126,
            "count" : 310,
            "max" : [
                1.5868664979934692,
                0.5347912311553955,
                0.12324249744415283
            ],
            "min" : [
                0.2921046018600464,
                -0.1700611114501953,
                -0.12324612587690353
            ],
            "type" : "VEC3"
        },
        {
            "bufferView" : 10,
            "componentType" : 5126,
            "count" : 310,
            "type" : "VEC3"
        },
        {
            "bufferView" : 11,
            "componentType" : 5123,
            "count" : 480,
            "type" : "SCALAR"
        },
        {
            "bufferView" : 12,
            "componentType" : 5126,
            "count" : 188,
            "max" : [
                2.9497969150543213,
                0.5192572474479675,
                0.1632433384656906
            ],
            "min" : [
                0.2808597981929779,
                0.028382185846567154,
                -0.16324788331985474
            ],
            "type" : "VEC3"
        },
        {
            "bufferView" : 13,
            "componentType" : 5126,
            "count" : 188,
            "type" : "VEC3"
        },
        {
            "bufferView" : 14,
            "componentType" : 5123,
            "count" : 294,
            "type" : "SCALAR"
        }
    ],
    "bufferViews" : [
        {
            "buffer" : 0,
            "byteLength" : 10608,
            "byteOffset" : 0
        },
        {
            "buffer" : 0,
            "byteLength" : 10608,
            "byteOffset" : 10608
        },
        {
            "buffer" : 0,
            "byteLength" : 2784,
            "byteOffset" : 21216
        },
        {
            "buffer" : 0,
            "byteLength" : 1272,
            "byteOffset" : 24000
        },
        {
            "buffer" : 0,
            "byteLength" : 1272,
            "byteOffset" : 25272
        },
        {
            "buffer" : 0,
            "byteLength" : 336,
            "byteOffset" : 26544
        },
        {
            "buffer" : 0,
            "byteLength" : 4296,
            "byteOffset" : 26880
        },
        {
            "buffer" : 0,
            "byteLength" : 4296,
            "byteOffset" : 31176
        },
        {
            "buffer" : 0,
            "byteLength" : 1068,
            "byteOffset" : 35472
        },
        {
            "buffer" : 0,
            "byteLength" : 3720,
            "byteOffset" : 36540
        },
        {
            "buffer" : 0,
            "byteLength" : 3720,
            "byteOffset" : 40260
        },
        {
            "buffer" : 0,
            "byteLength" : 960,
            "byteOffset" : 43980
        },
        {
            "buffer" : 0,
            "byteLength" : 2256,
            "byteOffset" : 44940
        },
        {
            "buffer" : 0,
            "byteLength" : 2256,
            "byteOffset" : 47196
        },
        {
            "buffer" : 0,
            "byteLength" : 588,
            "byteOffset" : 49452
        }
    ],
    "buffers" : [
        {
            "byteLength" : 50040,
            "uri" : "Shotgun_SawedOff-a737d53bd074c053700607433c712a92.bin"
        }
    ]
}
