{
    "asset" : {
        "generator" : "Khronos glTF Blender I/O v3.2.43",
        "version" : "2.0"
    },
    "scene" : 0,
    "scenes" : [
        {
            "name" : "Scene",
            "nodes" : [
                0
            ]
        }
    ],
    "nodes" : [
        {
            "mesh" : 0,
            "name" : "Shotgun_ShortStock"
        }
    ],
    "materials" : [
        {
            "doubleSided" : true,
            "name" : "Wood",
            "pbrMetallicRoughness" : {
                "baseColorFactor" : [
                    0.13285954296588898,
                    0.09002935886383057,
                    0.06840453296899796,
                    1
                ],
                "metallicFactor" : 0,
                "roughnessFactor" : 0.5
            }
        },
        {
            "doubleSided" : true,
            "name" : "Metal",
            "pbrMetallicRoughness" : {
                "baseColorFactor" : [
                    0.0666259378194809,
                    0.06847818195819855,
                    0.06700000166893005,
                    1
                ],
                "metallicFactor" : 0,
                "roughnessFactor" : 0.5
            }
        },
        {
            "doubleSided" : true,
            "name" : "DarkMetal",
            "pbrMetallicRoughness" : {
                "baseColorFactor" : [
                    0.04699999839067459,
                    0.04695870354771614,
                    0.045788172632455826,
                    1
                ],
                "metallicFactor" : 0,
                "roughnessFactor" : 0.5
            }
        },
        {
            "doubleSided" : true,
            "name" : "Black",
            "pbrMetallicRoughness" : {
                "baseColorFactor" : [
                    0.026966236531734467,
                    0.02748231776058674,
                    0.02909727953374386,
                    1
                ],
                "metallicFactor" : 0,
                "roughnessFactor" : 0.5
            }
        }
    ],
    "meshes" : [
        {
            "name" : "Cube.036",
            "primitives" : [
                {
                    "attributes" : {
                        "POSITION" : 0,
                        "NORMAL" : 1
                    },
                    "indices" : 2,
                    "material" : 0
                },
                {
                    "attributes" : {
                        "POSITION" : 3,
                        "NORMAL" : 4
                    },
                    "indices" : 5,
                    "material" : 1
                },
                {
                    "attributes" : {
                        "POSITION" : 6,
                        "NORMAL" : 7
                    },
                    "indices" : 8,
                    "material" : 2
                },
                {
                    "attributes" : {
                        "POSITION" : 9,
                        "NORMAL" : 10
                    },
                    "indices" : 11,
                    "material" : 3
                }
            ]
        }
    ],
    "accessors" : [
        {
            "bufferView" : 0,
            "componentType" : 5126,
            "count" : 1868,
            "max" : [
                3.715911388397217,
                0.4614890515804291,
                0.11727696657180786
            ],
            "min" : [
                -0.4222685694694519,
                -0.42690446972846985,
                -0.11727692931890488
            ],
            "type" : "VEC3"
        },
        {
            "bufferView" : 1,
            "componentType" : 5126,
            "count" : 1868,
            "type" : "VEC3"
        },
        {
            "bufferView" : 2,
            "componentType" : 5123,
            "count" : 3006,
            "type" : "SCALAR"
        },
        {
            "bufferView" : 3,
            "componentType" : 5126,
            "count" : 322,
            "max" : [
                1.733684778213501,
                0.49453943967819214,
                0.11574605852365494
            ],
            "min" : [
                0.4497106373310089,
                -0.1277649700641632,
                -0.11574602872133255
            ],
            "type" : "VEC3"
        },
        {
            "bufferView" : 4,
            "componentType" : 5126,
            "count" : 322,
            "type" : "VEC3"
        },
        {
            "bufferView" : 5,
            "componentType" : 5123,
            "count" : 510,
            "type" : "SCALAR"
        },
        {
            "bufferView" : 6,
            "componentType" : 5126,
            "count" : 496,
            "max" : [
                4.04899787902832,
                0.48735255002975464,
                0.0912715420126915
            ],
            "min" : [
                1.6943256855010986,
                0.102510005235672,
                -0.09127124398946762
            ],
            "type" : "VEC3"
        },
        {
            "bufferView" : 7,
            "componentType" : 5126,
            "count" : 496,
            "type" : "VEC3"
        },
        {
            "bufferView" : 8,
            "componentType" : 5123,
            "count" : 780,
            "type" : "SCALAR"
        },
        {
            "bufferView" : 9,
            "componentType" : 5126,
            "count" : 318,
            "max" : [
                3.8216750621795654,
                0.5399954319000244,
                0.12326683104038239
            ],
            "min" : [
                0.6393944025039673,
                -0.08510850369930267,
                -0.12326675653457642
            ],
            "type" : "VEC3"
        },
        {
            "bufferView" : 10,
            "componentType" : 5126,
            "count" : 318,
            "type" : "VEC3"
        },
        {
            "bufferView" : 11,
            "componentType" : 5123,
            "count" : 540,
            "type" : "SCALAR"
        }
    ],
    "bufferViews" : [
        {
            "buffer" : 0,
            "byteLength" : 22416,
            "byteOffset" : 0
        },
        {
            "buffer" : 0,
            "byteLength" : 22416,
            "byteOffset" : 22416
        },
        {
            "buffer" : 0,
            "byteLength" : 6012,
            "byteOffset" : 44832
        },
        {
            "buffer" : 0,
            "byteLength" : 3864,
            "byteOffset" : 50844
        },
        {
            "buffer" : 0,
            "byteLength" : 3864,
            "byteOffset" : 54708
        },
        {
            "buffer" : 0,
            "byteLength" : 1020,
            "byteOffset" : 58572
        },
        {
            "buffer" : 0,
            "byteLength" : 5952,
            "byteOffset" : 59592
        },
        {
            "buffer" : 0,
            "byteLength" : 5952,
            "byteOffset" : 65544
        },
        {
            "buffer" : 0,
            "byteLength" : 1560,
            "byteOffset" : 71496
        },
        {
            "buffer" : 0,
            "byteLength" : 3816,
            "byteOffset" : 73056
        },
        {
            "buffer" : 0,
            "byteLength" : 3816,
            "byteOffset" : 76872
        },
        {
            "buffer" : 0,
            "byteLength" : 1080,
            "byteOffset" : 80688
        }
    ],
    "buffers" : [
        {
            "byteLength" : 81768,
            "uri" : "Shotgun_ShortStock-a43c81a209847d131e81b00e681bcafc.bin"
        }
    ]
}
