{
    "asset" : {
        "generator" : "Khronos glTF Blender I/O v3.2.43",
        "version" : "2.0"
    },
    "scene" : 0,
    "scenes" : [
        {
            "name" : "Scene",
            "nodes" : [
                0
            ]
        }
    ],
    "nodes" : [
        {
            "mesh" : 0,
            "name" : "Shotgun_3"
        }
    ],
    "materials" : [
        {
            "doubleSided" : true,
            "name" : "Wood",
            "pbrMetallicRoughness" : {
                "baseColorFactor" : [
                    0.13285954296588898,
                    0.09002935886383057,
                    0.06840453296899796,
                    1
                ],
                "metallicFactor" : 0,
                "roughnessFactor" : 0.5
            }
        },
        {
            "doubleSided" : true,
            "name" : "Metal",
            "pbrMetallicRoughness" : {
                "baseColorFactor" : [
                    0.0666259378194809,
                    0.06847818195819855,
                    0.06700000166893005,
                    1
                ],
                "metallicFactor" : 0,
                "roughnessFactor" : 0.5
            }
        },
        {
            "doubleSided" : true,
            "name" : "DarkMetal",
            "pbrMetallicRoughness" : {
                "baseColorFactor" : [
                    0.04699999839067459,
                    0.04695870354771614,
                    0.045788172632455826,
                    1
                ],
                "metallicFactor" : 0,
                "roughnessFactor" : 0.5
            }
        },
        {
            "doubleSided" : true,
            "name" : "Black",
            "pbrMetallicRoughness" : {
                "baseColorFactor" : [
                    0.026966236531734467,
                    0.02748231776058674,
                    0.02909727953374386,
                    1
                ],
                "metallicFactor" : 0,
                "roughnessFactor" : 0.5
            }
        }
    ],
    "meshes" : [
        {
            "name" : "Cube.022",
            "primitives" : [
                {
                    "attributes" : {
                        "POSITION" : 0,
                        "NORMAL" : 1
                    },
                    "indices" : 2,
                    "material" : 0
                },
                {
                    "attributes" : {
                        "POSITION" : 3,
                        "NORMAL" : 4
                    },
                    "indices" : 5,
                    "material" : 1
                },
                {
                    "attributes" : {
                        "POSITION" : 6,
                        "NORMAL" : 7
                    },
                    "indices" : 8,
                    "material" : 2
                },
                {
                    "attributes" : {
                        "POSITION" : 9,
                        "NORMAL" : 10
                    },
                    "indices" : 11,
                    "material" : 3
                }
            ]
        }
    ],
    "accessors" : [
        {
            "bufferView" : 0,
            "componentType" : 5126,
            "count" : 566,
            "max" : [
                2.5301454067230225,
                0.24140162765979767,
                0.11727693676948547
            ],
            "min" : [
                -1.3313766717910767,
                -0.5468400716781616,
                -0.11727695912122726
            ],
            "type" : "VEC3"
        },
        {
            "bufferView" : 1,
            "componentType" : 5126,
            "count" : 566,
            "type" : "VEC3"
        },
        {
            "bufferView" : 2,
            "componentType" : 5123,
            "count" : 864,
            "type" : "SCALAR"
        },
        {
            "bufferView" : 3,
            "componentType" : 5126,
            "count" : 404,
            "max" : [
                1.2389644384384155,
                0.3109639585018158,
                0.11574602872133255
            ],
            "min" : [
                -1.4771438837051392,
                -0.5632631778717041,
                -0.11574605852365494
            ],
            "type" : "VEC3"
        },
        {
            "bufferView" : 4,
            "componentType" : 5126,
            "count" : 404,
            "type" : "VEC3"
        },
        {
            "bufferView" : 5,
            "componentType" : 5123,
            "count" : 624,
            "type" : "SCALAR"
        },
        {
            "bufferView" : 6,
            "componentType" : 5126,
            "count" : 582,
            "max" : [
                4.307756423950195,
                0.3794174790382385,
                0.10239125043153763
            ],
            "min" : [
                0.14357447624206543,
                -0.09218524396419525,
                -0.10239115357398987
            ],
            "type" : "VEC3"
        },
        {
            "bufferView" : 7,
            "componentType" : 5126,
            "count" : 582,
            "type" : "VEC3"
        },
        {
            "bufferView" : 8,
            "componentType" : 5123,
            "count" : 906,
            "type" : "SCALAR"
        },
        {
            "bufferView" : 9,
            "componentType" : 5126,
            "count" : 318,
            "max" : [
                3.859771966934204,
                0.35641998052597046,
                0.12326680123806
            ],
            "min" : [
                0.35646697878837585,
                -0.268684446811676,
                -0.1232667788863182
            ],
            "type" : "VEC3"
        },
        {
            "bufferView" : 10,
            "componentType" : 5126,
            "count" : 318,
            "type" : "VEC3"
        },
        {
            "bufferView" : 11,
            "componentType" : 5123,
            "count" : 540,
            "type" : "SCALAR"
        }
    ],
    "bufferViews" : [
        {
            "buffer" : 0,
            "byteLength" : 6792,
            "byteOffset" : 0
        },
        {
            "buffer" : 0,
            "byteLength" : 6792,
            "byteOffset" : 6792
        },
        {
            "buffer" : 0,
            "byteLength" : 1728,
            "byteOffset" : 13584
        },
        {
            "buffer" : 0,
            "byteLength" : 4848,
            "byteOffset" : 15312
        },
        {
            "buffer" : 0,
            "byteLength" : 4848,
            "byteOffset" : 20160
        },
        {
            "buffer" : 0,
            "byteLength" : 1248,
            "byteOffset" : 25008
        },
        {
            "buffer" : 0,
            "byteLength" : 6984,
            "byteOffset" : 26256
        },
        {
            "buffer" : 0,
            "byteLength" : 6984,
            "byteOffset" : 33240
        },
        {
            "buffer" : 0,
            "byteLength" : 1812,
            "byteOffset" : 40224
        },
        {
            "buffer" : 0,
            "byteLength" : 3816,
            "byteOffset" : 42036
        },
        {
            "buffer" : 0,
            "byteLength" : 3816,
            "byteOffset" : 45852
        },
        {
            "buffer" : 0,
            "byteLength" : 1080,
            "byteOffset" : 49668
        }
    ],
    "buffers" : [
        {
            "byteLength" : 50748,
            "uri" : "Shotgun_2-67b0b027a0c02b193de5f9869c0d9a01.bin"
        }
    ]
}
