{
    "asset" : {
        "generator" : "Khronos glTF Blender I/O v3.2.43",
        "version" : "2.0"
    },
    "scene" : 0,
    "scenes" : [
        {
            "name" : "Scene",
            "nodes" : [
                0
            ]
        }
    ],
    "nodes" : [
        {
            "mesh" : 0,
            "name" : "Shovel",
            "scale" : [
                1.9894319772720337,
                1.9894319772720337,
                1.9894319772720337
            ]
        }
    ],
    "materials" : [
        {
            "doubleSided" : true,
            "name" : "DarkWood",
            "pbrMetallicRoughness" : {
                "baseColorFactor" : [
                    0.14238348603248596,
                    0.08724373579025269,
                    0.044256653636693954,
                    1
                ],
                "metallicFactor" : 0,
                "roughnessFactor" : 0.5
            }
        },
        {
            "doubleSided" : true,
            "name" : "Grey",
            "pbrMetallicRoughness" : {
                "baseColorFactor" : [
                    0.14239658415317535,
                    0.14239658415317535,
                    0.14239658415317535,
                    1
                ],
                "metallicFactor" : 0,
                "roughnessFactor" : 0.5
            }
        },
        {
            "doubleSided" : true,
            "name" : "Red",
            "pbrMetallicRoughness" : {
                "baseColorFactor" : [
                    0.21402914822101593,
                    0.039549391716718674,
                    0.03738441318273544,
                    1
                ],
                "metallicFactor" : 0,
                "roughnessFactor" : 0.5
            }
        }
    ],
    "meshes" : [
        {
            "name" : "Cylinder.018",
            "primitives" : [
                {
                    "attributes" : {
                        "POSITION" : 0,
                        "NORMAL" : 1
                    },
                    "indices" : 2,
                    "material" : 0
                },
                {
                    "attributes" : {
                        "POSITION" : 3,
                        "NORMAL" : 4
                    },
                    "indices" : 5,
                    "material" : 1
                },
                {
                    "attributes" : {
                        "POSITION" : 6,
                        "NORMAL" : 7
                    },
                    "indices" : 8,
                    "material" : 2
                }
            ]
        }
    ],
    "accessors" : [
        {
            "bufferView" : 0,
            "componentType" : 5126,
            "count" : 96,
            "max" : [
                0.041540585458278656,
                0.5311751961708069,
                0.03539035841822624
            ],
            "min" : [
                -0.047572337090969086,
                -0.21127256751060486,
                -0.026858584955334663
            ],
            "type" : "VEC3"
        },
        {
            "bufferView" : 1,
            "componentType" : 5126,
            "count" : 96,
            "type" : "VEC3"
        },
        {
            "bufferView" : 2,
            "componentType" : 5123,
            "count" : 144,
            "type" : "SCALAR"
        },
        {
            "bufferView" : 3,
            "componentType" : 5126,
            "count" : 294,
            "max" : [
                0.20246119797229767,
                -0.21083132922649384,
                0.04430454596877098
            ],
            "min" : [
                -0.2019985467195511,
                -1.047179102897644,
                -0.03577263280749321
            ],
            "type" : "VEC3"
        },
        {
            "bufferView" : 4,
            "componentType" : 5126,
            "count" : 294,
            "type" : "VEC3"
        },
        {
            "bufferView" : 5,
            "componentType" : 5123,
            "count" : 426,
            "type" : "SCALAR"
        },
        {
            "bufferView" : 6,
            "componentType" : 5126,
            "count" : 264,
            "max" : [
                0.13632328808307648,
                0.8999365568161011,
                0.05044499412178993
            ],
            "min" : [
                -0.1359185129404068,
                0.5308535099029541,
                -0.041913457214832306
            ],
            "type" : "VEC3"
        },
        {
            "bufferView" : 7,
            "componentType" : 5126,
            "count" : 264,
            "type" : "VEC3"
        },
        {
            "bufferView" : 8,
            "componentType" : 5123,
            "count" : 396,
            "type" : "SCALAR"
        }
    ],
    "bufferViews" : [
        {
            "buffer" : 0,
            "byteLength" : 1152,
            "byteOffset" : 0
        },
        {
            "buffer" : 0,
            "byteLength" : 1152,
            "byteOffset" : 1152
        },
        {
            "buffer" : 0,
            "byteLength" : 288,
            "byteOffset" : 2304
        },
        {
            "buffer" : 0,
            "byteLength" : 3528,
            "byteOffset" : 2592
        },
        {
            "buffer" : 0,
            "byteLength" : 3528,
            "byteOffset" : 6120
        },
        {
            "buffer" : 0,
            "byteLength" : 852,
            "byteOffset" : 9648
        },
        {
            "buffer" : 0,
            "byteLength" : 3168,
            "byteOffset" : 10500
        },
        {
            "buffer" : 0,
            "byteLength" : 3168,
            "byteOffset" : 13668
        },
        {
            "buffer" : 0,
            "byteLength" : 792,
            "byteOffset" : 16836
        }
    ],
    "buffers" : [
        {
            "byteLength" : 17628,
            "uri" : "Shovel-d640555bab8da6273a63c965dcef58df.bin"
        }
    ]
}
