{
    "asset" : {
        "generator" : "Khronos glTF Blender I/O v3.2.43",
        "version" : "2.0"
    },
    "scene" : 0,
    "scenes" : [
        {
            "name" : "Scene",
            "nodes" : [
                0
            ]
        }
    ],
    "nodes" : [
        {
            "mesh" : 0,
            "name" : "SpikyBall"
        }
    ],
    "materials" : [
        {
            "doubleSided" : true,
            "name" : "Black",
            "pbrMetallicRoughness" : {
                "baseColorFactor" : [
                    0.006383856758475304,
                    0.026276197284460068,
                    0.05221610143780708,
                    1
                ],
                "metallicFactor" : 0,
                "roughnessFactor" : 0.5
            }
        },
        {
            "doubleSided" : true,
            "name" : "DarkMetal",
            "pbrMetallicRoughness" : {
                "baseColorFactor" : [
                    0.2956882119178772,
                    0.2956882119178772,
                    0.2956882119178772,
                    1
                ],
                "metallicFactor" : 0,
                "roughnessFactor" : 0.5
            }
        },
        {
            "doubleSided" : true,
            "name" : "Metal",
            "pbrMetallicRoughness" : {
                "baseColorFactor" : [
                    0.17885860800743103,
                    0.17885860800743103,
                    0.17885860800743103,
                    1
                ],
                "metallicFactor" : 0,
                "roughnessFactor" : 0.5
            }
        }
    ],
    "meshes" : [
        {
            "name" : "Sphere.001",
            "primitives" : [
                {
                    "attributes" : {
                        "POSITION" : 0,
                        "NORMAL" : 1
                    },
                    "indices" : 2,
                    "material" : 0
                },
                {
                    "attributes" : {
                        "POSITION" : 3,
                        "NORMAL" : 4
                    },
                    "indices" : 5,
                    "material" : 1
                },
                {
                    "attributes" : {
                        "POSITION" : 6,
                        "NORMAL" : 7
                    },
                    "indices" : 8,
                    "material" : 2
                }
            ]
        }
    ],
    "accessors" : [
        {
            "bufferView" : 0,
            "componentType" : 5126,
            "count" : 192,
            "max" : [
                0.587131679058075,
                0.5952023267745972,
                0.5811086297035217
            ],
            "min" : [
                -0.587131679058075,
                -0.5952023267745972,
                -0.5891439914703369
            ],
            "type" : "VEC3"
        },
        {
            "bufferView" : 1,
            "componentType" : 5126,
            "count" : 192,
            "type" : "VEC3"
        },
        {
            "bufferView" : 2,
            "componentType" : 5123,
            "count" : 1140,
            "type" : "SCALAR"
        },
        {
            "bufferView" : 3,
            "componentType" : 5126,
            "count" : 240,
            "max" : [
                0.589469850063324,
                0.5894697904586792,
                0.589469850063324
            ],
            "min" : [
                -0.589469850063324,
                -0.5894697904586792,
                -0.589469850063324
            ],
            "type" : "VEC3"
        },
        {
            "bufferView" : 4,
            "componentType" : 5126,
            "count" : 240,
            "type" : "VEC3"
        },
        {
            "bufferView" : 5,
            "componentType" : 5123,
            "count" : 864,
            "type" : "SCALAR"
        },
        {
            "bufferView" : 6,
            "componentType" : 5126,
            "count" : 360,
            "max" : [
                0.5422230958938599,
                0.5422230362892151,
                0.5422231554985046
            ],
            "min" : [
                -0.5422230958938599,
                -0.5422230362892151,
                -0.5422231554985046
            ],
            "type" : "VEC3"
        },
        {
            "bufferView" : 7,
            "componentType" : 5126,
            "count" : 360,
            "type" : "VEC3"
        },
        {
            "bufferView" : 8,
            "componentType" : 5123,
            "count" : 1008,
            "type" : "SCALAR"
        }
    ],
    "bufferViews" : [
        {
            "buffer" : 0,
            "byteLength" : 2304,
            "byteOffset" : 0
        },
        {
            "buffer" : 0,
            "byteLength" : 2304,
            "byteOffset" : 2304
        },
        {
            "buffer" : 0,
            "byteLength" : 2280,
            "byteOffset" : 4608
        },
        {
            "buffer" : 0,
            "byteLength" : 2880,
            "byteOffset" : 6888
        },
        {
            "buffer" : 0,
            "byteLength" : 2880,
            "byteOffset" : 9768
        },
        {
            "buffer" : 0,
            "byteLength" : 1728,
            "byteOffset" : 12648
        },
        {
            "buffer" : 0,
            "byteLength" : 4320,
            "byteOffset" : 14376
        },
        {
            "buffer" : 0,
            "byteLength" : 4320,
            "byteOffset" : 18696
        },
        {
            "buffer" : 0,
            "byteLength" : 2016,
            "byteOffset" : 23016
        }
    ],
    "buffers" : [
        {
            "byteLength" : 25032,
            "uri" : "SpikyBall-bdaf56f2c79b94f6cfc2f66ccf4ee5bf.bin"
        }
    ]
}
