{
    "asset" : {
        "generator" : "Khronos glTF Blender I/O v3.2.43",
        "version" : "2.0"
    },
    "scene" : 0,
    "scenes" : [
        {
            "name" : "Scene",
            "nodes" : [
                0
            ]
        }
    ],
    "nodes" : [
        {
            "mesh" : 0,
            "name" : "Spikes"
        }
    ],
    "materials" : [
        {
            "doubleSided" : true,
            "name" : "Metal",
            "pbrMetallicRoughness" : {
                "baseColorFactor" : [
                    0.17885860800743103,
                    0.17885860800743103,
                    0.17885860800743103,
                    1
                ],
                "metallicFactor" : 0,
                "roughnessFactor" : 0.5
            }
        }
    ],
    "meshes" : [
        {
            "name" : "Cube.013",
            "primitives" : [
                {
                    "attributes" : {
                        "POSITION" : 0,
                        "NORMAL" : 1
                    },
                    "indices" : 2,
                    "material" : 0
                }
            ]
        }
    ],
    "accessors" : [
        {
            "bufferView" : 0,
            "componentType" : 5126,
            "count" : 1127,
            "max" : [
                1.0044909715652466,
                3.403073787689209,
                0.8607215881347656
            ],
            "min" : [
                -0.9457141160964966,
                0.0016697496175765991,
                -0.9675977826118469
            ],
            "type" : "VEC3"
        },
        {
            "bufferView" : 1,
            "componentType" : 5126,
            "count" : 1127,
            "type" : "VEC3"
        },
        {
            "bufferView" : 2,
            "componentType" : 5123,
            "count" : 4704,
            "type" : "SCALAR"
        }
    ],
    "bufferViews" : [
        {
            "buffer" : 0,
            "byteLength" : 13524,
            "byteOffset" : 0
        },
        {
            "buffer" : 0,
            "byteLength" : 13524,
            "byteOffset" : 13524
        },
        {
            "buffer" : 0,
            "byteLength" : 9408,
            "byteOffset" : 27048
        }
    ],
    "buffers" : [
        {
            "byteLength" : 36456,
            "uri" : "Spikes-1cb9b1a164b3ad027665f6ea9007d327.bin"
        }
    ]
}
