{
    "asset" : {
        "generator" : "Khronos glTF Blender I/O v3.2.43",
        "version" : "2.0"
    },
    "scene" : 0,
    "scenes" : [
        {
            "name" : "Scene",
            "nodes" : [
                0
            ]
        }
    ],
    "nodes" : [
        {
            "mesh" : 0,
            "name" : "Stairs_Small"
        }
    ],
    "materials" : [
        {
            "doubleSided" : true,
            "name" : "Wood",
            "pbrMetallicRoughness" : {
                "baseColorFactor" : [
                    0.3757452964782715,
                    0.20292167365550995,
                    0.0587104856967926,
                    1
                ],
                "metallicFactor" : 0,
                "roughnessFactor" : 0.5
            }
        }
    ],
    "meshes" : [
        {
            "name" : "Cube.309",
            "primitives" : [
                {
                    "attributes" : {
                        "POSITION" : 0,
                        "NORMAL" : 1
                    },
                    "indices" : 2,
                    "material" : 0
                }
            ]
        }
    ],
    "accessors" : [
        {
            "bufferView" : 0,
            "componentType" : 5126,
            "count" : 1078,
            "max" : [
                0.6414331793785095,
                2.135349750518799,
                1.2804949283599854
            ],
            "min" : [
                -1.0000014305114746,
                -0.09484918415546417,
                -1.2804949283599854
            ],
            "type" : "VEC3"
        },
        {
            "bufferView" : 1,
            "componentType" : 5126,
            "count" : 1078,
            "type" : "VEC3"
        },
        {
            "bufferView" : 2,
            "componentType" : 5123,
            "count" : 3468,
            "type" : "SCALAR"
        }
    ],
    "bufferViews" : [
        {
            "buffer" : 0,
            "byteLength" : 12936,
            "byteOffset" : 0
        },
        {
            "buffer" : 0,
            "byteLength" : 12936,
            "byteOffset" : 12936
        },
        {
            "buffer" : 0,
            "byteLength" : 6936,
            "byteOffset" : 25872
        }
    ],
    "buffers" : [
        {
            "byteLength" : 32808,
            "uri" : "Stairs_Small-0bf18cc307414c7fe8db073338323f48.bin"
        }
    ]
}
