{
    "asset" : {
        "generator" : "Khronos glTF Blender I/O v3.2.43",
        "version" : "2.0"
    },
    "scene" : 0,
    "scenes" : [
        {
            "name" : "Scene",
            "nodes" : [
                0
            ]
        }
    ],
    "nodes" : [
        {
            "mesh" : 0,
            "name" : "Stairs_Modular_End"
        }
    ],
    "materials" : [
        {
            "doubleSided" : true,
            "name" : "Wood",
            "pbrMetallicRoughness" : {
                "baseColorFactor" : [
                    0.3757452964782715,
                    0.20292167365550995,
                    0.0587104856967926,
                    1
                ],
                "metallicFactor" : 0,
                "roughnessFactor" : 0.5
            }
        }
    ],
    "meshes" : [
        {
            "name" : "Cube.061",
            "primitives" : [
                {
                    "attributes" : {
                        "POSITION" : 0,
                        "NORMAL" : 1
                    },
                    "indices" : 2,
                    "material" : 0
                }
            ]
        }
    ],
    "accessors" : [
        {
            "bufferView" : 0,
            "componentType" : 5126,
            "count" : 1010,
            "max" : [
                1.2374428510665894,
                2.319093704223633,
                1.2804949283599854
            ],
            "min" : [
                -1.0206050872802734,
                -0.09633780270814896,
                -1.2804949283599854
            ],
            "type" : "VEC3"
        },
        {
            "bufferView" : 1,
            "componentType" : 5126,
            "count" : 1010,
            "type" : "VEC3"
        },
        {
            "bufferView" : 2,
            "componentType" : 5123,
            "count" : 3228,
            "type" : "SCALAR"
        }
    ],
    "bufferViews" : [
        {
            "buffer" : 0,
            "byteLength" : 12120,
            "byteOffset" : 0
        },
        {
            "buffer" : 0,
            "byteLength" : 12120,
            "byteOffset" : 12120
        },
        {
            "buffer" : 0,
            "byteLength" : 6456,
            "byteOffset" : 24240
        }
    ],
    "buffers" : [
        {
            "byteLength" : 30696,
            "uri" : "Stairs_Modular_End-3737b5187992ecb25ed1294a47d3a4fe.bin"
        }
    ]
}
