{
    "asset" : {
        "generator" : "Khronos glTF Blender I/O v3.2.43",
        "version" : "2.0"
    },
    "scene" : 0,
    "scenes" : [
        {
            "name" : "Scene",
            "nodes" : [
                0
            ]
        }
    ],
    "nodes" : [
        {
            "mesh" : 0,
            "name" : "Star"
        }
    ],
    "materials" : [
        {
            "doubleSided" : true,
            "name" : "Gold",
            "pbrMetallicRoughness" : {
                "baseColorFactor" : [
                    0.787394106388092,
                    0.46046555042266846,
                    0.10785872489213943,
                    1
                ],
                "metallicFactor" : 0,
                "roughnessFactor" : 0.5
            }
        }
    ],
    "meshes" : [
        {
            "name" : "Cylinder.000",
            "primitives" : [
                {
                    "attributes" : {
                        "POSITION" : 0,
                        "NORMAL" : 1
                    },
                    "indices" : 2,
                    "material" : 0
                }
            ]
        }
    ],
    "accessors" : [
        {
            "bufferView" : 0,
            "componentType" : 5126,
            "count" : 322,
            "max" : [
                0.7553544640541077,
                0.7942264676094055,
                0.3439672887325287
            ],
            "min" : [
                -0.755354106426239,
                -0.644021213054657,
                -0.34396734833717346
            ],
            "type" : "VEC3"
        },
        {
            "bufferView" : 1,
            "componentType" : 5126,
            "count" : 322,
            "type" : "VEC3"
        },
        {
            "bufferView" : 2,
            "componentType" : 5123,
            "count" : 1140,
            "type" : "SCALAR"
        }
    ],
    "bufferViews" : [
        {
            "buffer" : 0,
            "byteLength" : 3864,
            "byteOffset" : 0
        },
        {
            "buffer" : 0,
            "byteLength" : 3864,
            "byteOffset" : 3864
        },
        {
            "buffer" : 0,
            "byteLength" : 2280,
            "byteOffset" : 7728
        }
    ],
    "buffers" : [
        {
            "byteLength" : 10008,
            "uri" : "Star-2baf7a24c3a66bdc3ce789aa320d9b35.bin"
        }
    ]
}
