{
    "asset" : {
        "generator" : "Khronos glTF Blender I/O v3.2.43",
        "version" : "2.0"
    },
    "scene" : 0,
    "scenes" : [
        {
            "name" : "Scene",
            "nodes" : [
                0
            ]
        }
    ],
    "nodes" : [
        {
            "mesh" : 0,
            "name" : "Star_Outline"
        }
    ],
    "materials" : [
        {
            "doubleSided" : true,
            "name" : "Gold",
            "pbrMetallicRoughness" : {
                "baseColorFactor" : [
                    0.787394106388092,
                    0.46046555042266846,
                    0.10785872489213943,
                    1
                ],
                "metallicFactor" : 0,
                "roughnessFactor" : 0.5
            }
        }
    ],
    "meshes" : [
        {
            "name" : "Cylinder.002",
            "primitives" : [
                {
                    "attributes" : {
                        "POSITION" : 0,
                        "NORMAL" : 1
                    },
                    "indices" : 2,
                    "material" : 0
                }
            ]
        }
    ],
    "accessors" : [
        {
            "bufferView" : 0,
            "componentType" : 5126,
            "count" : 500,
            "max" : [
                0.7553544640541077,
                0.7942264676094055,
                0.029718460515141487
            ],
            "min" : [
                -0.755354106426239,
                -0.644021213054657,
                -0.029718460515141487
            ],
            "type" : "VEC3"
        },
        {
            "bufferView" : 1,
            "componentType" : 5126,
            "count" : 500,
            "type" : "VEC3"
        },
        {
            "bufferView" : 2,
            "componentType" : 5123,
            "count" : 1200,
            "type" : "SCALAR"
        }
    ],
    "bufferViews" : [
        {
            "buffer" : 0,
            "byteLength" : 6000,
            "byteOffset" : 0
        },
        {
            "buffer" : 0,
            "byteLength" : 6000,
            "byteOffset" : 6000
        },
        {
            "buffer" : 0,
            "byteLength" : 2400,
            "byteOffset" : 12000
        }
    ],
    "buffers" : [
        {
            "byteLength" : 14400,
            "uri" : "Star_Outline-6554b94a65de8b0f9c4d585a70106f38.bin"
        }
    ]
}
