{
    "asset" : {
        "generator" : "Khronos glTF Blender I/O v3.2.43",
        "version" : "2.0"
    },
    "scene" : 0,
    "scenes" : [
        {
            "name" : "Scene",
            "nodes" : [
                0
            ]
        }
    ],
    "nodes" : [
        {
            "mesh" : 0,
            "name" : "Tent",
            "scale" : [
                3.486058473587036,
                3.486058473587036,
                3.486058473587036
            ]
        }
    ],
    "materials" : [
        {
            "doubleSided" : true,
            "name" : "DarkWood",
            "pbrMetallicRoughness" : {
                "baseColorFactor" : [
                    0.14238348603248596,
                    0.08724373579025269,
                    0.044256653636693954,
                    1
                ],
                "metallicFactor" : 0,
                "roughnessFactor" : 0.5
            }
        },
        {
            "doubleSided" : true,
            "name" : "Black",
            "pbrMetallicRoughness" : {
                "baseColorFactor" : [
                    0.033101364970207214,
                    0.033101364970207214,
                    0.033101364970207214,
                    1
                ],
                "metallicFactor" : 0,
                "roughnessFactor" : 0.5
            }
        },
        {
            "doubleSided" : true,
            "name" : "LightGreen",
            "pbrMetallicRoughness" : {
                "baseColorFactor" : [
                    0.1065310686826706,
                    0.09168826043605804,
                    0.03984183818101883,
                    1
                ],
                "metallicFactor" : 0,
                "roughnessFactor" : 0.5
            }
        },
        {
            "doubleSided" : true,
            "name" : "Green",
            "pbrMetallicRoughness" : {
                "baseColorFactor" : [
                    0.06071806326508522,
                    0.05050992593169212,
                    0.018883628770709038,
                    1
                ],
                "metallicFactor" : 0,
                "roughnessFactor" : 0.5
            }
        }
    ],
    "meshes" : [
        {
            "name" : "Cylinder.020",
            "primitives" : [
                {
                    "attributes" : {
                        "POSITION" : 0,
                        "NORMAL" : 1
                    },
                    "indices" : 2,
                    "material" : 0
                },
                {
                    "attributes" : {
                        "POSITION" : 3,
                        "NORMAL" : 4
                    },
                    "indices" : 5,
                    "material" : 1
                },
                {
                    "attributes" : {
                        "POSITION" : 6,
                        "NORMAL" : 7
                    },
                    "indices" : 8,
                    "material" : 2
                },
                {
                    "attributes" : {
                        "POSITION" : 9,
                        "NORMAL" : 10
                    },
                    "indices" : 11,
                    "material" : 3
                }
            ]
        }
    ],
    "accessors" : [
        {
            "bufferView" : 0,
            "componentType" : 5126,
            "count" : 648,
            "max" : [
                2.091257333755493,
                2.911189079284668,
                3.5668070316314697
            ],
            "min" : [
                -2.091257333755493,
                -0.05044853314757347,
                -3.5668063163757324
            ],
            "type" : "VEC3"
        },
        {
            "bufferView" : 1,
            "componentType" : 5126,
            "count" : 648,
            "type" : "VEC3"
        },
        {
            "bufferView" : 2,
            "componentType" : 5123,
            "count" : 1056,
            "type" : "SCALAR"
        },
        {
            "bufferView" : 3,
            "componentType" : 5126,
            "count" : 64,
            "max" : [
                2.082305908203125,
                2.8322668075561523,
                3.5474486351013184
            ],
            "min" : [
                -2.082305908203125,
                0.05752577632665634,
                -3.547447919845581
            ],
            "type" : "VEC3"
        },
        {
            "bufferView" : 4,
            "componentType" : 5126,
            "count" : 64,
            "type" : "VEC3"
        },
        {
            "bufferView" : 5,
            "componentType" : 5123,
            "count" : 96,
            "type" : "SCALAR"
        },
        {
            "bufferView" : 6,
            "componentType" : 5126,
            "count" : 398,
            "max" : [
                1.5644829273223877,
                2.735577344894409,
                1.7908718585968018
            ],
            "min" : [
                -1.5644829273223877,
                0.06217007711529732,
                -1.7908711433410645
            ],
            "type" : "VEC3"
        },
        {
            "bufferView" : 7,
            "componentType" : 5126,
            "count" : 398,
            "type" : "VEC3"
        },
        {
            "bufferView" : 8,
            "componentType" : 5123,
            "count" : 636,
            "type" : "SCALAR"
        },
        {
            "bufferView" : 9,
            "componentType" : 5126,
            "count" : 378,
            "max" : [
                1.430077075958252,
                2.735577344894409,
                1.7908718585968018
            ],
            "min" : [
                -1.430077075958252,
                0.020700059831142426,
                -1.7908711433410645
            ],
            "type" : "VEC3"
        },
        {
            "bufferView" : 10,
            "componentType" : 5126,
            "count" : 378,
            "type" : "VEC3"
        },
        {
            "bufferView" : 11,
            "componentType" : 5123,
            "count" : 576,
            "type" : "SCALAR"
        }
    ],
    "bufferViews" : [
        {
            "buffer" : 0,
            "byteLength" : 7776,
            "byteOffset" : 0
        },
        {
            "buffer" : 0,
            "byteLength" : 7776,
            "byteOffset" : 7776
        },
        {
            "buffer" : 0,
            "byteLength" : 2112,
            "byteOffset" : 15552
        },
        {
            "buffer" : 0,
            "byteLength" : 768,
            "byteOffset" : 17664
        },
        {
            "buffer" : 0,
            "byteLength" : 768,
            "byteOffset" : 18432
        },
        {
            "buffer" : 0,
            "byteLength" : 192,
            "byteOffset" : 19200
        },
        {
            "buffer" : 0,
            "byteLength" : 4776,
            "byteOffset" : 19392
        },
        {
            "buffer" : 0,
            "byteLength" : 4776,
            "byteOffset" : 24168
        },
        {
            "buffer" : 0,
            "byteLength" : 1272,
            "byteOffset" : 28944
        },
        {
            "buffer" : 0,
            "byteLength" : 4536,
            "byteOffset" : 30216
        },
        {
            "buffer" : 0,
            "byteLength" : 4536,
            "byteOffset" : 34752
        },
        {
            "buffer" : 0,
            "byteLength" : 1152,
            "byteOffset" : 39288
        }
    ],
    "buffers" : [
        {
            "byteLength" : 40440,
            "uri" : "Tent-f53275480d2715c62bb6851564d37b8f.bin"
        }
    ]
}
