{
    "asset" : {
        "generator" : "Khronos glTF Blender I/O v3.2.43",
        "version" : "2.0"
    },
    "scene" : 0,
    "scenes" : [
        {
            "name" : "Scene",
            "nodes" : [
                0
            ]
        }
    ],
    "nodes" : [
        {
            "mesh" : 0,
            "name" : "Torch",
            "scale" : [
                1.9894319772720337,
                1.9894319772720337,
                1.9894319772720337
            ]
        }
    ],
    "materials" : [
        {
            "doubleSided" : true,
            "name" : "Yellow",
            "pbrMetallicRoughness" : {
                "baseColorFactor" : [
                    0.27382591366767883,
                    0.1869039088487625,
                    0.05440109595656395,
                    1
                ],
                "metallicFactor" : 0,
                "roughnessFactor" : 0.5
            }
        },
        {
            "doubleSided" : true,
            "name" : "Black",
            "pbrMetallicRoughness" : {
                "baseColorFactor" : [
                    0.033101364970207214,
                    0.033101364970207214,
                    0.033101364970207214,
                    1
                ],
                "metallicFactor" : 0,
                "roughnessFactor" : 0.5
            }
        },
        {
            "doubleSided" : true,
            "name" : "LightBlue",
            "pbrMetallicRoughness" : {
                "baseColorFactor" : [
                    0.3719523549079895,
                    0.4958133101463318,
                    0.6382647156715393,
                    1
                ],
                "metallicFactor" : 0,
                "roughnessFactor" : 0.5
            }
        },
        {
            "doubleSided" : true,
            "name" : "DarkYellow",
            "pbrMetallicRoughness" : {
                "baseColorFactor" : [
                    0.18446631729602814,
                    0.1268276423215866,
                    0.03814882040023804,
                    1
                ],
                "metallicFactor" : 0,
                "roughnessFactor" : 0.5
            }
        }
    ],
    "meshes" : [
        {
            "name" : "Cylinder.010",
            "primitives" : [
                {
                    "attributes" : {
                        "POSITION" : 0,
                        "NORMAL" : 1
                    },
                    "indices" : 2,
                    "material" : 0
                },
                {
                    "attributes" : {
                        "POSITION" : 3,
                        "NORMAL" : 4
                    },
                    "indices" : 5,
                    "material" : 1
                },
                {
                    "attributes" : {
                        "POSITION" : 6,
                        "NORMAL" : 7
                    },
                    "indices" : 8,
                    "material" : 2
                },
                {
                    "attributes" : {
                        "POSITION" : 9,
                        "NORMAL" : 10
                    },
                    "indices" : 11,
                    "material" : 3
                }
            ]
        }
    ],
    "accessors" : [
        {
            "bufferView" : 0,
            "componentType" : 5126,
            "count" : 288,
            "max" : [
                0.15667589008808136,
                0.3908957242965698,
                0.14949862658977509
            ],
            "min" : [
                -0.15667624771595,
                -0.6239141225814819,
                -0.1590930074453354
            ],
            "type" : "VEC3"
        },
        {
            "bufferView" : 1,
            "componentType" : 5126,
            "count" : 288,
            "type" : "VEC3"
        },
        {
            "bufferView" : 2,
            "componentType" : 5123,
            "count" : 432,
            "type" : "SCALAR"
        },
        {
            "bufferView" : 3,
            "componentType" : 5126,
            "count" : 777,
            "max" : [
                0.16999198496341705,
                0.5208433270454407,
                0.16220469772815704
            ],
            "min" : [
                -0.16999240219593048,
                -0.7274249196052551,
                -0.17261449992656708
            ],
            "type" : "VEC3"
        },
        {
            "bufferView" : 4,
            "componentType" : 5126,
            "count" : 777,
            "type" : "VEC3"
        },
        {
            "bufferView" : 5,
            "componentType" : 5123,
            "count" : 1185,
            "type" : "SCALAR"
        },
        {
            "bufferView" : 6,
            "componentType" : 5126,
            "count" : 45,
            "max" : [
                0.14618010818958282,
                0.5353151559829712,
                0.1394837498664856
            ],
            "min" : [
                -0.14618061482906342,
                0.5208431482315063,
                -0.14843536913394928
            ],
            "type" : "VEC3"
        },
        {
            "bufferView" : 7,
            "componentType" : 5126,
            "count" : 45,
            "type" : "VEC3"
        },
        {
            "bufferView" : 8,
            "componentType" : 5123,
            "count" : 75,
            "type" : "SCALAR"
        },
        {
            "bufferView" : 9,
            "componentType" : 5126,
            "count" : 84,
            "max" : [
                0.07700702548027039,
                0.14912615716457367,
                0.08462954312562943
            ],
            "min" : [
                -0.0770069882273674,
                -0.17996028065681458,
                -0.07819496095180511
            ],
            "type" : "VEC3"
        },
        {
            "bufferView" : 10,
            "componentType" : 5126,
            "count" : 84,
            "type" : "VEC3"
        },
        {
            "bufferView" : 11,
            "componentType" : 5123,
            "count" : 138,
            "type" : "SCALAR"
        }
    ],
    "bufferViews" : [
        {
            "buffer" : 0,
            "byteLength" : 3456,
            "byteOffset" : 0
        },
        {
            "buffer" : 0,
            "byteLength" : 3456,
            "byteOffset" : 3456
        },
        {
            "buffer" : 0,
            "byteLength" : 864,
            "byteOffset" : 6912
        },
        {
            "buffer" : 0,
            "byteLength" : 9324,
            "byteOffset" : 7776
        },
        {
            "buffer" : 0,
            "byteLength" : 9324,
            "byteOffset" : 17100
        },
        {
            "buffer" : 0,
            "byteLength" : 2370,
            "byteOffset" : 26424
        },
        {
            "buffer" : 0,
            "byteLength" : 540,
            "byteOffset" : 28796
        },
        {
            "buffer" : 0,
            "byteLength" : 540,
            "byteOffset" : 29336
        },
        {
            "buffer" : 0,
            "byteLength" : 150,
            "byteOffset" : 29876
        },
        {
            "buffer" : 0,
            "byteLength" : 1008,
            "byteOffset" : 30028
        },
        {
            "buffer" : 0,
            "byteLength" : 1008,
            "byteOffset" : 31036
        },
        {
            "buffer" : 0,
            "byteLength" : 276,
            "byteOffset" : 32044
        }
    ],
    "buffers" : [
        {
            "byteLength" : 32320,
            "uri" : "Torch-9ebbc3dc68a13702c3b2a27fc8b81b26.bin"
        }
    ]
}
