{
    "asset" : {
        "generator" : "Khronos glTF Blender I/O v3.2.43",
        "version" : "2.0"
    },
    "scene" : 0,
    "scenes" : [
        {
            "name" : "Scene",
            "nodes" : [
                0,
                1
            ]
        }
    ],
    "nodes" : [
        {
            "mesh" : 0,
            "name" : "Tower"
        },
        {
            "mesh" : 1,
            "name" : "Tower_Door",
            "translation" : [
                1.248162865638733,
                2.8865694999694824,
                3.1571736335754395
            ]
        }
    ],
    "materials" : [
        {
            "doubleSided" : true,
            "name" : "Tower_Dark",
            "pbrMetallicRoughness" : {
                "baseColorFactor" : [
                    0.11068601161241531,
                    0.09278368949890137,
                    0.09014349430799484,
                    1
                ],
                "metallicFactor" : 0,
                "roughnessFactor" : 0.5
            }
        },
        {
            "doubleSided" : true,
            "name" : "Wood",
            "pbrMetallicRoughness" : {
                "baseColorFactor" : [
                    0.3757452964782715,
                    0.20292167365550995,
                    0.0587104856967926,
                    1
                ],
                "metallicFactor" : 0,
                "roughnessFactor" : 0.5
            }
        },
        {
            "doubleSided" : true,
            "name" : "Wood_Light",
            "pbrMetallicRoughness" : {
                "baseColorFactor" : [
                    0.5382204055786133,
                    0.314663827419281,
                    0.08692671358585358,
                    1
                ],
                "metallicFactor" : 0,
                "roughnessFactor" : 0.5
            }
        },
        {
            "doubleSided" : true,
            "name" : "Tower",
            "pbrMetallicRoughness" : {
                "baseColorFactor" : [
                    0.060716111212968826,
                    0.05086978152394295,
                    0.057097528129816055,
                    1
                ],
                "metallicFactor" : 0,
                "roughnessFactor" : 0.5
            }
        },
        {
            "doubleSided" : true,
            "name" : "Black",
            "pbrMetallicRoughness" : {
                "baseColorFactor" : [
                    0.009017317555844784,
                    0.009017317555844784,
                    0.009017317555844784,
                    1
                ],
                "metallicFactor" : 0,
                "roughnessFactor" : 0.5
            }
        },
        {
            "doubleSided" : true,
            "name" : "Metal",
            "pbrMetallicRoughness" : {
                "baseColorFactor" : [
                    0.17885860800743103,
                    0.17885860800743103,
                    0.17885860800743103,
                    1
                ],
                "metallicFactor" : 0,
                "roughnessFactor" : 0.5
            }
        },
        {
            "doubleSided" : true,
            "name" : "Flag",
            "pbrMetallicRoughness" : {
                "baseColorFactor" : [
                    0.3185344636440277,
                    0.011422949843108654,
                    0.0060203769244253635,
                    1
                ],
                "metallicFactor" : 0,
                "roughnessFactor" : 0.5
            }
        }
    ],
    "meshes" : [
        {
            "name" : "Cube.292",
            "primitives" : [
                {
                    "attributes" : {
                        "POSITION" : 0,
                        "NORMAL" : 1
                    },
                    "indices" : 2,
                    "material" : 0
                },
                {
                    "attributes" : {
                        "POSITION" : 3,
                        "NORMAL" : 4
                    },
                    "indices" : 5,
                    "material" : 1
                },
                {
                    "attributes" : {
                        "POSITION" : 6,
                        "NORMAL" : 7
                    },
                    "indices" : 8,
                    "material" : 2
                },
                {
                    "attributes" : {
                        "POSITION" : 9,
                        "NORMAL" : 10
                    },
                    "indices" : 11,
                    "material" : 3
                },
                {
                    "attributes" : {
                        "POSITION" : 12,
                        "NORMAL" : 13
                    },
                    "indices" : 14,
                    "material" : 4
                },
                {
                    "attributes" : {
                        "POSITION" : 15,
                        "NORMAL" : 16
                    },
                    "indices" : 17,
                    "material" : 5
                },
                {
                    "attributes" : {
                        "POSITION" : 18,
                        "NORMAL" : 19
                    },
                    "indices" : 20,
                    "material" : 6
                }
            ]
        },
        {
            "name" : "Cylinder.003",
            "primitives" : [
                {
                    "attributes" : {
                        "POSITION" : 21,
                        "NORMAL" : 22
                    },
                    "indices" : 23,
                    "material" : 0
                },
                {
                    "attributes" : {
                        "POSITION" : 24,
                        "NORMAL" : 25
                    },
                    "indices" : 26,
                    "material" : 1
                },
                {
                    "attributes" : {
                        "POSITION" : 27,
                        "NORMAL" : 28
                    },
                    "indices" : 29,
                    "material" : 2
                }
            ]
        }
    ],
    "accessors" : [
        {
            "bufferView" : 0,
            "componentType" : 5126,
            "count" : 1899,
            "max" : [
                4.226262092590332,
                11.706653594970703,
                4.156678676605225
            ],
            "min" : [
                -4.226262092590332,
                -0.09623143821954727,
                -4.24954080581665
            ],
            "type" : "VEC3"
        },
        {
            "bufferView" : 1,
            "componentType" : 5126,
            "count" : 1899,
            "type" : "VEC3"
        },
        {
            "bufferView" : 2,
            "componentType" : 5123,
            "count" : 3912,
            "type" : "SCALAR"
        },
        {
            "bufferView" : 3,
            "componentType" : 5126,
            "count" : 432,
            "max" : [
                4.591183662414551,
                7.184436798095703,
                3.8693323135375977
            ],
            "min" : [
                -4.385456085205078,
                6.272086143493652,
                -4.6011552810668945
            ],
            "type" : "VEC3"
        },
        {
            "bufferView" : 4,
            "componentType" : 5126,
            "count" : 432,
            "type" : "VEC3"
        },
        {
            "bufferView" : 5,
            "componentType" : 5123,
            "count" : 660,
            "type" : "SCALAR"
        },
        {
            "bufferView" : 6,
            "componentType" : 5126,
            "count" : 120,
            "max" : [
                4.812933921813965,
                7.77269172668457,
                4.110928058624268
            ],
            "min" : [
                -4.623603343963623,
                7.107404708862305,
                -4.8195390701293945
            ],
            "type" : "VEC3"
        },
        {
            "bufferView" : 7,
            "componentType" : 5126,
            "count" : 120,
            "type" : "VEC3"
        },
        {
            "bufferView" : 8,
            "componentType" : 5123,
            "count" : 180,
            "type" : "SCALAR"
        },
        {
            "bufferView" : 9,
            "componentType" : 5126,
            "count" : 355,
            "max" : [
                4.226262092590332,
                10.74083423614502,
                4.156678676605225
            ],
            "min" : [
                -4.226262092590332,
                1.5155141353607178,
                -4.24954080581665
            ],
            "type" : "VEC3"
        },
        {
            "bufferView" : 10,
            "componentType" : 5126,
            "count" : 355,
            "type" : "VEC3"
        },
        {
            "bufferView" : 11,
            "componentType" : 5123,
            "count" : 942,
            "type" : "SCALAR"
        },
        {
            "bufferView" : 12,
            "componentType" : 5126,
            "count" : 38,
            "max" : [
                1.3430042266845703,
                5.182410717010498,
                3.321629524230957
            ],
            "min" : [
                -1.3430042266845703,
                1.5155141353607178,
                0.521539568901062
            ],
            "type" : "VEC3"
        },
        {
            "bufferView" : 13,
            "componentType" : 5126,
            "count" : 38,
            "type" : "VEC3"
        },
        {
            "bufferView" : 14,
            "componentType" : 5123,
            "count" : 84,
            "type" : "SCALAR"
        },
        {
            "bufferView" : 15,
            "componentType" : 5126,
            "count" : 163,
            "max" : [
                0.9403790235519409,
                14.502351760864258,
                0.2899230718612671
            ],
            "min" : [
                -0.9403756856918335,
                10.532334327697754,
                -0.3548206686973572
            ],
            "type" : "VEC3"
        },
        {
            "bufferView" : 16,
            "componentType" : 5126,
            "count" : 163,
            "type" : "VEC3"
        },
        {
            "bufferView" : 17,
            "componentType" : 5123,
            "count" : 552,
            "type" : "SCALAR"
        },
        {
            "bufferView" : 18,
            "componentType" : 5126,
            "count" : 102,
            "max" : [
                1.7733426094055176,
                14.10735034942627,
                0.00661884993314743
            ],
            "min" : [
                0.0067755188792943954,
                13.100533485412598,
                -0.08611121028661728
            ],
            "type" : "VEC3"
        },
        {
            "bufferView" : 19,
            "componentType" : 5126,
            "count" : 102,
            "type" : "VEC3"
        },
        {
            "bufferView" : 20,
            "componentType" : 5123,
            "count" : 408,
            "type" : "SCALAR"
        },
        {
            "bufferView" : 21,
            "componentType" : 5126,
            "count" : 321,
            "max" : [
                -0.6765345931053162,
                1.0210212469100952,
                0.5063036680221558
            ],
            "min" : [
                -1.8096535205841064,
                0.12800562381744385,
                0.2584335207939148
            ],
            "type" : "VEC3"
        },
        {
            "bufferView" : 22,
            "componentType" : 5126,
            "count" : 321,
            "type" : "VEC3"
        },
        {
            "bufferView" : 23,
            "componentType" : 5123,
            "count" : 1002,
            "type" : "SCALAR"
        },
        {
            "bufferView" : 24,
            "componentType" : 5126,
            "count" : 156,
            "max" : [
                0.005407141521573067,
                2.269261598587036,
                0.24663765728473663
            ],
            "min" : [
                -2.49159574508667,
                -1.3559081554412842,
                -0.03067222237586975
            ],
            "type" : "VEC3"
        },
        {
            "bufferView" : 25,
            "componentType" : 5126,
            "count" : 156,
            "type" : "VEC3"
        },
        {
            "bufferView" : 26,
            "componentType" : 5123,
            "count" : 288,
            "type" : "SCALAR"
        },
        {
            "bufferView" : 27,
            "componentType" : 5126,
            "count" : 72,
            "max" : [
                -0.003124292939901352,
                1.1134979724884033,
                0.3598308563232422
            ],
            "min" : [
                -2.4896838665008545,
                0.5253703594207764,
                0.07017804682254791
            ],
            "type" : "VEC3"
        },
        {
            "bufferView" : 28,
            "componentType" : 5126,
            "count" : 72,
            "type" : "VEC3"
        },
        {
            "bufferView" : 29,
            "componentType" : 5123,
            "count" : 168,
            "type" : "SCALAR"
        }
    ],
    "bufferViews" : [
        {
            "buffer" : 0,
            "byteLength" : 22788,
            "byteOffset" : 0
        },
        {
            "buffer" : 0,
            "byteLength" : 22788,
            "byteOffset" : 22788
        },
        {
            "buffer" : 0,
            "byteLength" : 7824,
            "byteOffset" : 45576
        },
        {
            "buffer" : 0,
            "byteLength" : 5184,
            "byteOffset" : 53400
        },
        {
            "buffer" : 0,
            "byteLength" : 5184,
            "byteOffset" : 58584
        },
        {
            "buffer" : 0,
            "byteLength" : 1320,
            "byteOffset" : 63768
        },
        {
            "buffer" : 0,
            "byteLength" : 1440,
            "byteOffset" : 65088
        },
        {
            "buffer" : 0,
            "byteLength" : 1440,
            "byteOffset" : 66528
        },
        {
            "buffer" : 0,
            "byteLength" : 360,
            "byteOffset" : 67968
        },
        {
            "buffer" : 0,
            "byteLength" : 4260,
            "byteOffset" : 68328
        },
        {
            "buffer" : 0,
            "byteLength" : 4260,
            "byteOffset" : 72588
        },
        {
            "buffer" : 0,
            "byteLength" : 1884,
            "byteOffset" : 76848
        },
        {
            "buffer" : 0,
            "byteLength" : 456,
            "byteOffset" : 78732
        },
        {
            "buffer" : 0,
            "byteLength" : 456,
            "byteOffset" : 79188
        },
        {
            "buffer" : 0,
            "byteLength" : 168,
            "byteOffset" : 79644
        },
        {
            "buffer" : 0,
            "byteLength" : 1956,
            "byteOffset" : 79812
        },
        {
            "buffer" : 0,
            "byteLength" : 1956,
            "byteOffset" : 81768
        },
        {
            "buffer" : 0,
            "byteLength" : 1104,
            "byteOffset" : 83724
        },
        {
            "buffer" : 0,
            "byteLength" : 1224,
            "byteOffset" : 84828
        },
        {
            "buffer" : 0,
            "byteLength" : 1224,
            "byteOffset" : 86052
        },
        {
            "buffer" : 0,
            "byteLength" : 816,
            "byteOffset" : 87276
        },
        {
            "buffer" : 0,
            "byteLength" : 3852,
            "byteOffset" : 88092
        },
        {
            "buffer" : 0,
            "byteLength" : 3852,
            "byteOffset" : 91944
        },
        {
            "buffer" : 0,
            "byteLength" : 2004,
            "byteOffset" : 95796
        },
        {
            "buffer" : 0,
            "byteLength" : 1872,
            "byteOffset" : 97800
        },
        {
            "buffer" : 0,
            "byteLength" : 1872,
            "byteOffset" : 99672
        },
        {
            "buffer" : 0,
            "byteLength" : 576,
            "byteOffset" : 101544
        },
        {
            "buffer" : 0,
            "byteLength" : 864,
            "byteOffset" : 102120
        },
        {
            "buffer" : 0,
            "byteLength" : 864,
            "byteOffset" : 102984
        },
        {
            "buffer" : 0,
            "byteLength" : 336,
            "byteOffset" : 103848
        }
    ],
    "buffers" : [
        {
            "byteLength" : 104184,
            "uri" : "Tower-7e31ee9a876157ac943ffcc2f2de63d2.bin"
        }
    ]
}
