{
    "asset" : {
        "generator" : "Khronos glTF Blender I/O v3.2.43",
        "version" : "2.0"
    },
    "scene" : 0,
    "scenes" : [
        {
            "name" : "Scene",
            "nodes" : [
                0
            ]
        }
    ],
    "nodes" : [
        {
            "mesh" : 0,
            "name" : "Trashcan",
            "scale" : [
                1.5687565803527832,
                1.5687565803527832,
                1.5687565803527832
            ]
        }
    ],
    "materials" : [
        {
            "doubleSided" : true,
            "name" : "DarkGreen",
            "pbrMetallicRoughness" : {
                "baseColorFactor" : [
                    0.08744194358587265,
                    0.15232062339782715,
                    0.05986013635993004,
                    1
                ],
                "metallicFactor" : 0,
                "roughnessFactor" : 0.5
            }
        },
        {
            "doubleSided" : true,
            "name" : "Black",
            "pbrMetallicRoughness" : {
                "baseColorFactor" : [
                    0.033101364970207214,
                    0.033101364970207214,
                    0.033101364970207214,
                    1
                ],
                "metallicFactor" : 0,
                "roughnessFactor" : 0.5
            }
        }
    ],
    "meshes" : [
        {
            "name" : "Cube.066",
            "primitives" : [
                {
                    "attributes" : {
                        "POSITION" : 0,
                        "NORMAL" : 1
                    },
                    "indices" : 2,
                    "material" : 0
                },
                {
                    "attributes" : {
                        "POSITION" : 3,
                        "NORMAL" : 4
                    },
                    "indices" : 5,
                    "material" : 1
                }
            ]
        }
    ],
    "accessors" : [
        {
            "bufferView" : 0,
            "componentType" : 5126,
            "count" : 1003,
            "max" : [
                1.1879850625991821,
                4.303492546081543,
                1.4021166563034058
            ],
            "min" : [
                -1.181138038635254,
                -5.5275126214837655e-05,
                -1.6950316429138184
            ],
            "type" : "VEC3"
        },
        {
            "bufferView" : 1,
            "componentType" : 5126,
            "count" : 1003,
            "type" : "VEC3"
        },
        {
            "bufferView" : 2,
            "componentType" : 5123,
            "count" : 1521,
            "type" : "SCALAR"
        },
        {
            "bufferView" : 3,
            "componentType" : 5126,
            "count" : 440,
            "max" : [
                0.8773229122161865,
                0.795411229133606,
                0.0024233823642134666
            ],
            "min" : [
                -0.877322793006897,
                0.035017337650060654,
                -0.8030980229377747
            ],
            "type" : "VEC3"
        },
        {
            "bufferView" : 4,
            "componentType" : 5126,
            "count" : 440,
            "type" : "VEC3"
        },
        {
            "bufferView" : 5,
            "componentType" : 5123,
            "count" : 696,
            "type" : "SCALAR"
        }
    ],
    "bufferViews" : [
        {
            "buffer" : 0,
            "byteLength" : 12036,
            "byteOffset" : 0
        },
        {
            "buffer" : 0,
            "byteLength" : 12036,
            "byteOffset" : 12036
        },
        {
            "buffer" : 0,
            "byteLength" : 3042,
            "byteOffset" : 24072
        },
        {
            "buffer" : 0,
            "byteLength" : 5280,
            "byteOffset" : 27116
        },
        {
            "buffer" : 0,
            "byteLength" : 5280,
            "byteOffset" : 32396
        },
        {
            "buffer" : 0,
            "byteLength" : 1392,
            "byteOffset" : 37676
        }
    ],
    "buffers" : [
        {
            "byteLength" : 39068,
            "uri" : "Trashcan-2cb769022030fdccb2486952714eabc6.bin"
        }
    ]
}
