{
    "asset" : {
        "generator" : "Khronos glTF Blender I/O v3.2.43",
        "version" : "2.0"
    },
    "scene" : 0,
    "scenes" : [
        {
            "name" : "Scene",
            "nodes" : [
                0
            ]
        }
    ],
    "nodes" : [
        {
            "mesh" : 0,
            "name" : "Tree"
        }
    ],
    "materials" : [
        {
            "doubleSided" : true,
            "name" : "Wood",
            "pbrMetallicRoughness" : {
                "baseColorFactor" : [
                    0.3757452964782715,
                    0.20292167365550995,
                    0.0587104856967926,
                    1
                ],
                "metallicFactor" : 0,
                "roughnessFactor" : 0.5
            }
        },
        {
            "doubleSided" : true,
            "name" : "Green",
            "pbrMetallicRoughness" : {
                "baseColorFactor" : [
                    0.07173354178667068,
                    0.1523226648569107,
                    0.06315358728170395,
                    1
                ],
                "metallicFactor" : 0,
                "roughnessFactor" : 0.5
            }
        }
    ],
    "meshes" : [
        {
            "name" : "Cube.118",
            "primitives" : [
                {
                    "attributes" : {
                        "POSITION" : 0,
                        "NORMAL" : 1
                    },
                    "indices" : 2,
                    "material" : 0
                },
                {
                    "attributes" : {
                        "POSITION" : 3,
                        "NORMAL" : 4
                    },
                    "indices" : 5,
                    "material" : 1
                }
            ]
        }
    ],
    "accessors" : [
        {
            "bufferView" : 0,
            "componentType" : 5126,
            "count" : 153,
            "max" : [
                0.439418226480484,
                5.09401798248291,
                0.439418226480484
            ],
            "min" : [
                -0.439418226480484,
                0.009273810312151909,
                -0.439418226480484
            ],
            "type" : "VEC3"
        },
        {
            "bufferView" : 1,
            "componentType" : 5126,
            "count" : 153,
            "type" : "VEC3"
        },
        {
            "bufferView" : 2,
            "componentType" : 5123,
            "count" : 864,
            "type" : "SCALAR"
        },
        {
            "bufferView" : 3,
            "componentType" : 5126,
            "count" : 1762,
            "max" : [
                2.7672407627105713,
                8.635451316833496,
                2.774606466293335
            ],
            "min" : [
                -2.7672407627105713,
                3.8633296489715576,
                -2.774606466293335
            ],
            "type" : "VEC3"
        },
        {
            "bufferView" : 4,
            "componentType" : 5126,
            "count" : 1762,
            "type" : "VEC3"
        },
        {
            "bufferView" : 5,
            "componentType" : 5123,
            "count" : 7200,
            "type" : "SCALAR"
        }
    ],
    "bufferViews" : [
        {
            "buffer" : 0,
            "byteLength" : 1836,
            "byteOffset" : 0
        },
        {
            "buffer" : 0,
            "byteLength" : 1836,
            "byteOffset" : 1836
        },
        {
            "buffer" : 0,
            "byteLength" : 1728,
            "byteOffset" : 3672
        },
        {
            "buffer" : 0,
            "byteLength" : 21144,
            "byteOffset" : 5400
        },
        {
            "buffer" : 0,
            "byteLength" : 21144,
            "byteOffset" : 26544
        },
        {
            "buffer" : 0,
            "byteLength" : 14400,
            "byteOffset" : 47688
        }
    ],
    "buffers" : [
        {
            "byteLength" : 62088,
            "uri" : "Tree-bfe0ad398e84c7e4c49b61d6e6a9d921.bin"
        }
    ]
}
