{
    "asset" : {
        "generator" : "Khronos glTF Blender I/O v3.2.43",
        "version" : "2.0"
    },
    "scene" : 0,
    "scenes" : [
        {
            "name" : "Scene",
            "nodes" : [
                0
            ]
        }
    ],
    "nodes" : [
        {
            "mesh" : 0,
            "name" : "WoodLog",
            "rotation" : [
                0,
                -0.3286028206348419,
                0,
                0.9444682002067566
            ],
            "scale" : [
                1.9894317388534546,
                1.9894319772720337,
                1.9894317388534546
            ]
        }
    ],
    "materials" : [
        {
            "doubleSided" : true,
            "name" : "Wood",
            "pbrMetallicRoughness" : {
                "baseColorFactor" : [
                    0.15291856229305267,
                    0.08545827120542526,
                    0.06601198762655258,
                    1
                ],
                "metallicFactor" : 0,
                "roughnessFactor" : 0.5
            }
        },
        {
            "doubleSided" : true,
            "name" : "LightWood",
            "pbrMetallicRoughness" : {
                "baseColorFactor" : [
                    0.18446369469165802,
                    0.10423383861780167,
                    0.08693070709705353,
                    1
                ],
                "metallicFactor" : 0,
                "roughnessFactor" : 0.5
            }
        }
    ],
    "meshes" : [
        {
            "name" : "Cylinder.004",
            "primitives" : [
                {
                    "attributes" : {
                        "POSITION" : 0,
                        "NORMAL" : 1
                    },
                    "indices" : 2,
                    "material" : 0
                },
                {
                    "attributes" : {
                        "POSITION" : 3,
                        "NORMAL" : 4
                    },
                    "indices" : 5,
                    "material" : 1
                }
            ]
        }
    ],
    "accessors" : [
        {
            "bufferView" : 0,
            "componentType" : 5126,
            "count" : 381,
            "max" : [
                0.8563388586044312,
                0.5398706197738647,
                0.7657566070556641
            ],
            "min" : [
                -0.9010869264602661,
                -0.009789586067199707,
                -0.7725850343704224
            ],
            "type" : "VEC3"
        },
        {
            "bufferView" : 1,
            "componentType" : 5126,
            "count" : 381,
            "type" : "VEC3"
        },
        {
            "bufferView" : 2,
            "componentType" : 5123,
            "count" : 555,
            "type" : "SCALAR"
        },
        {
            "bufferView" : 3,
            "componentType" : 5126,
            "count" : 31,
            "max" : [
                0.7903290390968323,
                0.47657930850982666,
                0.6923037767410278
            ],
            "min" : [
                -0.8539844751358032,
                0.06451153755187988,
                -0.7021082639694214
            ],
            "type" : "VEC3"
        },
        {
            "bufferView" : 4,
            "componentType" : 5126,
            "count" : 31,
            "type" : "VEC3"
        },
        {
            "bufferView" : 5,
            "componentType" : 5123,
            "count" : 51,
            "type" : "SCALAR"
        }
    ],
    "bufferViews" : [
        {
            "buffer" : 0,
            "byteLength" : 4572,
            "byteOffset" : 0
        },
        {
            "buffer" : 0,
            "byteLength" : 4572,
            "byteOffset" : 4572
        },
        {
            "buffer" : 0,
            "byteLength" : 1110,
            "byteOffset" : 9144
        },
        {
            "buffer" : 0,
            "byteLength" : 372,
            "byteOffset" : 10256
        },
        {
            "buffer" : 0,
            "byteLength" : 372,
            "byteOffset" : 10628
        },
        {
            "buffer" : 0,
            "byteLength" : 102,
            "byteOffset" : 11000
        }
    ],
    "buffers" : [
        {
            "byteLength" : 11104,
            "uri" : "WoodLog-34f7e2b4e54e5e6c9b2489c8e6c8e198.bin"
        }
    ]
}
