{
    "asset" : {
        "generator" : "Khronos glTF Blender I/O v3.2.43",
        "version" : "2.0"
    },
    "scene" : 0,
    "scenes" : [
        {
            "name" : "Scene",
            "nodes" : [
                0
            ]
        }
    ],
    "nodes" : [
        {
            "mesh" : 0,
            "name" : "WoodenTorch",
            "scale" : [
                1.3741035461425781,
                1.3741035461425781,
                1.3741035461425781
            ]
        }
    ],
    "materials" : [
        {
            "doubleSided" : true,
            "name" : "DarkWood",
            "pbrMetallicRoughness" : {
                "baseColorFactor" : [
                    0.14238348603248596,
                    0.08724373579025269,
                    0.044256653636693954,
                    1
                ],
                "metallicFactor" : 0,
                "roughnessFactor" : 0.5
            }
        },
        {
            "doubleSided" : true,
            "name" : "LightGrey",
            "pbrMetallicRoughness" : {
                "baseColorFactor" : [
                    0.37574493885040283,
                    0.37574493885040283,
                    0.37574493885040283,
                    1
                ],
                "metallicFactor" : 0,
                "roughnessFactor" : 0.5
            }
        },
        {
            "doubleSided" : true,
            "name" : "Yellow",
            "pbrMetallicRoughness" : {
                "baseColorFactor" : [
                    0.27382591366767883,
                    0.1869039088487625,
                    0.05440109595656395,
                    1
                ],
                "metallicFactor" : 0,
                "roughnessFactor" : 0.5
            }
        }
    ],
    "meshes" : [
        {
            "name" : "Cylinder.032",
            "primitives" : [
                {
                    "attributes" : {
                        "POSITION" : 0,
                        "NORMAL" : 1
                    },
                    "indices" : 2,
                    "material" : 0
                },
                {
                    "attributes" : {
                        "POSITION" : 3,
                        "NORMAL" : 4
                    },
                    "indices" : 5,
                    "material" : 1
                },
                {
                    "attributes" : {
                        "POSITION" : 6,
                        "NORMAL" : 7
                    },
                    "indices" : 8,
                    "material" : 2
                }
            ]
        }
    ],
    "accessors" : [
        {
            "bufferView" : 0,
            "componentType" : 5126,
            "count" : 180,
            "max" : [
                0.1231146827340126,
                1.388795256614685,
                0.0874355137348175
            ],
            "min" : [
                -0.13225986063480377,
                -0.42457130551338196,
                -0.0874355286359787
            ],
            "type" : "VEC3"
        },
        {
            "bufferView" : 1,
            "componentType" : 5126,
            "count" : 180,
            "type" : "VEC3"
        },
        {
            "bufferView" : 2,
            "componentType" : 5123,
            "count" : 276,
            "type" : "SCALAR"
        },
        {
            "bufferView" : 3,
            "componentType" : 5126,
            "count" : 324,
            "max" : [
                0.17022214829921722,
                1.5335004329681396,
                0.1523996889591217
            ],
            "min" : [
                -0.16252756118774414,
                0.9384066462516785,
                -0.15239980816841125
            ],
            "type" : "VEC3"
        },
        {
            "bufferView" : 4,
            "componentType" : 5126,
            "count" : 324,
            "type" : "VEC3"
        },
        {
            "bufferView" : 5,
            "componentType" : 5123,
            "count" : 486,
            "type" : "SCALAR"
        },
        {
            "bufferView" : 6,
            "componentType" : 5126,
            "count" : 388,
            "max" : [
                0.08532577753067017,
                0.26029160618782043,
                0.06509684771299362
            ],
            "min" : [
                -0.07420482486486435,
                -0.2240028977394104,
                -0.06373642385005951
            ],
            "type" : "VEC3"
        },
        {
            "bufferView" : 7,
            "componentType" : 5126,
            "count" : 388,
            "type" : "VEC3"
        },
        {
            "bufferView" : 8,
            "componentType" : 5123,
            "count" : 582,
            "type" : "SCALAR"
        }
    ],
    "bufferViews" : [
        {
            "buffer" : 0,
            "byteLength" : 2160,
            "byteOffset" : 0
        },
        {
            "buffer" : 0,
            "byteLength" : 2160,
            "byteOffset" : 2160
        },
        {
            "buffer" : 0,
            "byteLength" : 552,
            "byteOffset" : 4320
        },
        {
            "buffer" : 0,
            "byteLength" : 3888,
            "byteOffset" : 4872
        },
        {
            "buffer" : 0,
            "byteLength" : 3888,
            "byteOffset" : 8760
        },
        {
            "buffer" : 0,
            "byteLength" : 972,
            "byteOffset" : 12648
        },
        {
            "buffer" : 0,
            "byteLength" : 4656,
            "byteOffset" : 13620
        },
        {
            "buffer" : 0,
            "byteLength" : 4656,
            "byteOffset" : 18276
        },
        {
            "buffer" : 0,
            "byteLength" : 1164,
            "byteOffset" : 22932
        }
    ],
    "buffers" : [
        {
            "byteLength" : 24096,
            "uri" : "WoodenTorch-4bee3136a616953f5de96d7a018d96d8.bin"
        }
    ]
}
