{
    "asset" : {
        "generator" : "Khronos glTF Blender I/O v3.2.43",
        "version" : "2.0"
    },
    "scene" : 0,
    "scenes" : [
        {
            "name" : "Scene",
            "nodes" : [
                0
            ]
        }
    ],
    "nodes" : [
        {
            "mesh" : 0,
            "name" : "WoodenTorch_Fire",
            "scale" : [
                1.3741035461425781,
                1.3741035461425781,
                1.3741035461425781
            ]
        }
    ],
    "materials" : [
        {
            "doubleSided" : true,
            "name" : "DarkWood",
            "pbrMetallicRoughness" : {
                "baseColorFactor" : [
                    0.14238348603248596,
                    0.08724373579025269,
                    0.044256653636693954,
                    1
                ],
                "metallicFactor" : 0,
                "roughnessFactor" : 0.5
            }
        },
        {
            "doubleSided" : true,
            "name" : "LightGrey",
            "pbrMetallicRoughness" : {
                "baseColorFactor" : [
                    0.37574493885040283,
                    0.37574493885040283,
                    0.37574493885040283,
                    1
                ],
                "metallicFactor" : 0,
                "roughnessFactor" : 0.5
            }
        },
        {
            "doubleSided" : true,
            "name" : "Yellow",
            "pbrMetallicRoughness" : {
                "baseColorFactor" : [
                    0.27382591366767883,
                    0.1869039088487625,
                    0.05440109595656395,
                    1
                ],
                "metallicFactor" : 0,
                "roughnessFactor" : 0.5
            }
        },
        {
            "doubleSided" : true,
            "name" : "Fire",
            "pbrMetallicRoughness" : {
                "baseColorFactor" : [
                    0.486893892288208,
                    0.1251717507839203,
                    0.01963304728269577,
                    1
                ],
                "metallicFactor" : 0,
                "roughnessFactor" : 0.5
            }
        }
    ],
    "meshes" : [
        {
            "name" : "Cylinder.031",
            "primitives" : [
                {
                    "attributes" : {
                        "POSITION" : 0,
                        "NORMAL" : 1
                    },
                    "indices" : 2,
                    "material" : 0
                },
                {
                    "attributes" : {
                        "POSITION" : 3,
                        "NORMAL" : 4
                    },
                    "indices" : 5,
                    "material" : 1
                },
                {
                    "attributes" : {
                        "POSITION" : 6,
                        "NORMAL" : 7
                    },
                    "indices" : 8,
                    "material" : 2
                },
                {
                    "attributes" : {
                        "POSITION" : 9,
                        "NORMAL" : 10
                    },
                    "indices" : 11,
                    "material" : 3
                }
            ]
        }
    ],
    "accessors" : [
        {
            "bufferView" : 0,
            "componentType" : 5126,
            "count" : 172,
            "max" : [
                0.1231146827340126,
                1.388795256614685,
                0.0874355137348175
            ],
            "min" : [
                -0.13225986063480377,
                -0.42457130551338196,
                -0.0874355286359787
            ],
            "type" : "VEC3"
        },
        {
            "bufferView" : 1,
            "componentType" : 5126,
            "count" : 172,
            "type" : "VEC3"
        },
        {
            "bufferView" : 2,
            "componentType" : 5123,
            "count" : 258,
            "type" : "SCALAR"
        },
        {
            "bufferView" : 3,
            "componentType" : 5126,
            "count" : 168,
            "max" : [
                0.12916116416454315,
                1.2960973978042603,
                0.1341058909893036
            ],
            "min" : [
                -0.16252756118774414,
                0.9384066462516785,
                -0.13410602509975433
            ],
            "type" : "VEC3"
        },
        {
            "bufferView" : 4,
            "componentType" : 5126,
            "count" : 168,
            "type" : "VEC3"
        },
        {
            "bufferView" : 5,
            "componentType" : 5123,
            "count" : 258,
            "type" : "SCALAR"
        },
        {
            "bufferView" : 6,
            "componentType" : 5126,
            "count" : 388,
            "max" : [
                0.08532577753067017,
                0.26029160618782043,
                0.06509684771299362
            ],
            "min" : [
                -0.07420482486486435,
                -0.2240028977394104,
                -0.06373642385005951
            ],
            "type" : "VEC3"
        },
        {
            "bufferView" : 7,
            "componentType" : 5126,
            "count" : 388,
            "type" : "VEC3"
        },
        {
            "bufferView" : 8,
            "componentType" : 5123,
            "count" : 582,
            "type" : "SCALAR"
        },
        {
            "bufferView" : 9,
            "componentType" : 5126,
            "count" : 264,
            "max" : [
                0.21931034326553345,
                2.1564650535583496,
                0.17979498207569122
            ],
            "min" : [
                -0.23255185782909393,
                1.0641388893127441,
                -0.1848243772983551
            ],
            "type" : "VEC3"
        },
        {
            "bufferView" : 10,
            "componentType" : 5126,
            "count" : 264,
            "type" : "VEC3"
        },
        {
            "bufferView" : 11,
            "componentType" : 5123,
            "count" : 264,
            "type" : "SCALAR"
        }
    ],
    "bufferViews" : [
        {
            "buffer" : 0,
            "byteLength" : 2064,
            "byteOffset" : 0
        },
        {
            "buffer" : 0,
            "byteLength" : 2064,
            "byteOffset" : 2064
        },
        {
            "buffer" : 0,
            "byteLength" : 516,
            "byteOffset" : 4128
        },
        {
            "buffer" : 0,
            "byteLength" : 2016,
            "byteOffset" : 4644
        },
        {
            "buffer" : 0,
            "byteLength" : 2016,
            "byteOffset" : 6660
        },
        {
            "buffer" : 0,
            "byteLength" : 516,
            "byteOffset" : 8676
        },
        {
            "buffer" : 0,
            "byteLength" : 4656,
            "byteOffset" : 9192
        },
        {
            "buffer" : 0,
            "byteLength" : 4656,
            "byteOffset" : 13848
        },
        {
            "buffer" : 0,
            "byteLength" : 1164,
            "byteOffset" : 18504
        },
        {
            "buffer" : 0,
            "byteLength" : 3168,
            "byteOffset" : 19668
        },
        {
            "buffer" : 0,
            "byteLength" : 3168,
            "byteOffset" : 22836
        },
        {
            "buffer" : 0,
            "byteLength" : 528,
            "byteOffset" : 26004
        }
    ],
    "buffers" : [
        {
            "byteLength" : 26532,
            "uri" : "WoodenTorch_Fire-603fac702276e2102a3f1c3eb35b7fed.bin"
        }
    ]
}
